<?xml version="1.0" encoding="utf-8"?>
<!-- Generator: Adobe Illustrator 16.0.0, SVG Export Plug-In . SVG Version: 6.00 Build 0)  -->
<!DOCTYPE svg PUBLIC "-//W3C//DTD SVG 1.1//EN" "http://www.w3.org/Graphics/SVG/1.1/DTD/svg11.dtd">
<svg version="1.1" id="レイヤー_1" xmlns="http://www.w3.org/2000/svg" xmlns:xlink="http://www.w3.org/1999/xlink" x="0px"
	 y="0px" width="127.117px" height="67.595px" viewBox="0 0 127.117 67.595" enable-background="new 0 0 127.117 67.595"
	 xml:space="preserve">
<g>
	<path fill="#006CBA" d="M125.127,60.127h-14.969c-1.1,0-1.99-0.891-1.99-1.99V9.459c0-1.099,0.891-1.99,1.99-1.99h14.969
		c1.1,0,1.99,0.891,1.99,1.99v48.678C127.117,59.236,126.227,60.127,125.127,60.127"/>
	<path fill="#006CBA" d="M16.959,60.127H1.988C0.891,60.127,0,59.236,0,58.137V9.459c0-1.099,0.891-1.99,1.988-1.99h14.971
		c1.1,0,1.99,0.891,1.99,1.99v48.678C18.949,59.236,18.059,60.127,16.959,60.127"/>
	<path fill="#E60039" d="M56.772,24.415c-1.922,0-3.876,0.297-5.804,0.924c-0.832,0.27-1.625,0.605-2.391,0.977l3.428,3.725
		l-4.963,0.999c0.4,0.751,0.846,1.487,1.36,2.196c3.14,4.323,7.783,6.905,12.69,7.563c2.644-2.331,5.878-4.005,9.46-4.728
		c-2.425-2.629-4.091-5.85-4.88-9.389C62.969,25.224,59.918,24.415,56.772,24.415"/>
	<path fill="#E60039" d="M62.568,61.036c5.081-1.651,8.961-5.27,11.105-9.733c-1.442-3.33-1.987-6.917-1.569-10.471
		c-2.654,1.219-5.532,1.867-8.502,1.867c-0.651,0-1.298-0.04-1.938-0.101c-3.576,3.417-5.813,8.221-5.813,13.557
		c0,0.876,0.073,1.734,0.19,2.577l4.602-2.109l-0.583,5.028C60.897,61.503,61.735,61.307,62.568,61.036"/>
	<path fill="#E60039" d="M85.633,42.698c-2.973,0-5.854-0.648-8.51-1.87c0.422,3.633-0.168,7.227-1.566,10.464
		c1.844,3.844,4.982,7.055,9.059,8.931c3.203-2.554,5.93-5.675,8.028-9.216c-0.93-3.246-2.696-6.139-5.073-8.41
		C86.929,42.659,86.283,42.698,85.633,42.698"/>
	<path fill="#E60039" d="M82.039,25.541c0.879-4.86-0.138-10.055-3.27-14.367c-0.516-0.708-1.078-1.359-1.669-1.972l-2.483,4.411
		l-2.482-4.411c-0.592,0.613-1.154,1.264-1.669,1.972c-3.134,4.312-4.148,9.507-3.271,14.367c3.066,1.812,5.633,4.415,7.416,7.592
		c0.002,0,0.004-0.001,0.006-0.001s0.004,0.001,0.006,0.001C76.406,29.956,78.974,27.353,82.039,25.541"/>
	<path fill="#E60039" d="M72.851,33.526c-1.312-2.186-3.026-4.042-5.022-5.496c0.766,2.35,1.994,4.559,3.668,6.482
		C71.877,34.1,72.334,33.763,72.851,33.526"/>
	<path fill="#E60039" d="M73.783,41.561c-0.223,2.53,0.08,5.027,0.834,7.369c0.756-2.342,1.058-4.839,0.834-7.369
		c-0.27,0.054-0.547,0.084-0.834,0.084C74.332,41.645,74.053,41.614,73.783,41.561"/>
	<path fill="#E60039" d="M89.661,42.289c1.769,1.917,3.168,4.172,4.11,6.65c1.5-2.986,2.572-6.223,3.131-9.634
		C94.707,40.744,92.251,41.768,89.661,42.289"/>
	<path fill="#E60039" d="M74.612,53.198c-2.433,4.34-6.417,7.824-11.511,9.479c-0.854,0.277-1.75,0.497-2.742,0.672l-2.281,0.404
		l0.268-2.301l0.23-1.984L56.76,60.3l-2.105,0.965l-0.32-2.294c-0.141-0.997-0.209-1.919-0.209-2.816
		c0-5.351,2.078-10.213,5.448-13.866c-5-1.007-9.522-3.851-12.565-8.039c-0.527-0.726-1.014-1.511-1.486-2.4l-1.09-2.044
		l2.271-0.457l1.958-0.394l-1.353-1.47L45.74,25.78l2.082-1.014c0.906-0.441,1.762-0.79,2.613-1.068
		c2.06-0.668,4.191-1.007,6.337-1.007c3.026,0,5.923,0.671,8.544,1.873c-0.598-5.122,0.705-10.207,3.754-14.404
		c0.527-0.726,1.124-1.431,1.822-2.155l1.609-1.667l1.135,2.018l0.98,1.741l0.98-1.741l1.137-2.018l1.607,1.667
		c0.699,0.724,1.295,1.429,1.822,2.155c3.051,4.197,4.352,9.282,3.754,14.404c2.621-1.202,5.518-1.873,8.545-1.873
		c1.037,0,2.072,0.083,3.098,0.24C91.033,9.598,78.422,0,63.559,0C44.893,0,29.76,15.132,29.76,33.798s15.133,33.797,33.799,33.797
		c7.271,0,14.002-2.305,19.515-6.212C79.521,59.551,76.592,56.737,74.612,53.198"/>
	<path fill="#E60039" d="M63.617,40.974c2.474-0.002,4.959-0.5,7.311-1.501c-0.273-0.482-0.45-1.019-0.518-1.594
		C67.918,38.45,65.621,39.519,63.617,40.974"/>
	<path fill="#E60039" d="M76.384,33.526c0.517,0.237,0.974,0.574,1.354,0.986c1.676-1.923,2.903-4.133,3.67-6.482
		C79.412,29.483,77.695,31.339,76.384,33.526"/>
	<path fill="#E60039" d="M85.617,40.973c-2.004-1.455-4.301-2.522-6.793-3.094c-0.066,0.575-0.244,1.111-0.517,1.593
		C80.658,40.473,83.144,40.971,85.617,40.973"/>
	<path fill="#E60039" d="M83.561,26.683c-0.789,3.539-2.455,6.76-4.879,9.389c3.582,0.723,6.816,2.397,9.459,4.728
		c3.263-0.438,6.398-1.744,9.063-3.828c0.097-1.045,0.152-2.103,0.152-3.174c0-3.118-0.431-6.135-1.222-9.002
		c-1.228-0.246-2.455-0.38-3.673-0.38C89.316,24.416,86.266,25.224,83.561,26.683"/>
</g>
</svg>
