<svg id="Layer_1" data-name="Layer 1" xmlns="http://www.w3.org/2000/svg" xmlns:xlink="http://www.w3.org/1999/xlink" viewBox="0 0 1206.13 861.27"><defs><style>.cls-1,.cls-6,.cls-7{fill:none;}.cls-2{clip-path:url(#clip-path);}.cls-3{fill:#fff;}.cls-4{fill:#3853a4;}.cls-5,.cls-8{fill:#f15a29;}.cls-6,.cls-8{stroke:#f15a29;}.cls-6,.cls-7{stroke-linecap:round;stroke-linejoin:round;}.cls-6{stroke-width:12.08px;}.cls-7{stroke:#3853a4;stroke-width:15.97px;}.cls-8{stroke-miterlimit:10;stroke-width:1.92px;}</style><clipPath id="clip-path" transform="translate(0.05)"><rect class="cls-1" width="1206.13" height="861.27"/></clipPath></defs><title>IOI-2021-Colour-Logo</title><g class="cls-2"><rect class="cls-3" width="1206.13" height="861.27"/><path class="cls-4" d="M953.92,467.33s.57,8.55.58,10.14c4.39,84,14,181.64,28.67,264.44l.05.53H849.39v-.53c14.7-82.8,24.28-180.44,28.66-264.44a74.32,74.32,0,0,1,.47-10.54Z" transform="translate(0.05)"/><path class="cls-4" d="M327.29,467.33s.57,8.54.58,10.13c4.38,83.89,13.94,181.41,28.63,264.1l.84.88H222.91v-.88c14.69-82.69,24.25-180.21,28.63-264.1a75.64,75.64,0,0,1,.46-10.53Z" transform="translate(0.05)"/><path class="cls-5" d="M743.15,521.82C731.37,507,704,494,697.69,491.1a2.7,2.7,0,0,1-1.54-2.05l-1.27-8.32a2.68,2.68,0,0,1,2.59-3.08c6.35-.17,21.6,0,35.52,4.8a107.79,107.79,0,0,1,18.21,8.1,4.6,4.6,0,0,0,6.83-4,4.69,4.69,0,0,0-.43-2,4.52,4.52,0,0,0-2.21-2.25c-17.33-8.08-36.86-11.54-57.77-12.24a2.69,2.69,0,0,1-1.57-4.8,64.86,64.86,0,0,1,27.25-12.79c.87-.19,1.92-.36,3.05-.53a4.61,4.61,0,0,0,2.72-7.68l-.17-.21a4.59,4.59,0,0,0-3.58-1.47c-20.35.81-38.53,9-55.08,21.92a19.25,19.25,0,0,1-10.71,3.73c-22,.34-44,.15-66.09.15h-2.11a2.69,2.69,0,0,1-2-4.47c7.88-8.81,17.23-12.75,28.45-13.6a81.13,81.13,0,0,0,14.82-2.25c2.89-.77,6.22-2.51,7.86-4.86,8-11.41,19.95-14.66,32.55-16.93.87-.15,10.07-.79,19.53-1.15a4.62,4.62,0,0,0,2.23-8.55A167,167,0,0,0,607,392.24c-94.77.36-169.52,77.31-167.54,172.36A168.78,168.78,0,0,0,541.74,716.33a4.6,4.6,0,0,0,6.24-5.47c-10.62-38.25,2.35-74.39,36.86-101.39,9.77-7.64,20.91-13.29,31-20.56,11.67-8.42,23.7-16.66,34-26.71,11.47-11.12,17.75-25.31,15.22-42.35a2.71,2.71,0,0,1,1.77-3c3.08-1.06,6.15-2.1,9.58-3.25a2.47,2.47,0,0,1,2.68.73c10.78,12.3,14.73,27.39,12.71,44.44-2.27,19-10.67,35.24-21.8,49.9-8.13,10.67-17.23,20.52-26,30.66-13.32,15.47-24.67,32.18-30.1,52.55a87.92,87.92,0,0,0-3.05,26.27,6.7,6.7,0,0,0,6.69,6.45c.3,0,.61,0,.91,0a6.72,6.72,0,0,0,5.82-6.81c-.15-6.49-.07-16.8,1.49-23.44,5.43-23.21,18.48-41.8,33.85-58.75,11.65-12.87,23-25.94,31.05-41.66,14.94-29.13,17-57.59-3.24-84.66a2.66,2.66,0,0,1,.1-3.33l5.41-6.41a2.65,2.65,0,0,1,3.39-.59c7,4.14,31.08,18.65,39,27.52,15.49,17.25,20.14,37.42,14.07,60.1s-19.18,40.55-34.56,56.9c-13,13.75-21.46,29.13-23.82,47a6.7,6.7,0,0,0,7.9,7.47l.29,0a6.76,6.76,0,0,0,5.41-5.74A63.7,63.7,0,0,1,711.81,670,194.2,194.2,0,0,1,730.63,642c12-15.26,22.61-31.36,28-51.15C765.78,564.34,760,541.45,743.15,521.82Zm-66-21.41c-5.38,6.83-13.3,8.32-21.37,9.14-.94.07-1.88.15-2.88.19a2.7,2.7,0,0,0-2.47,3.33c.09.39.21.79.32,1.17,9.18,28.3-9.09,55.71-38.82,57.5-13,.78-26,.1-39,.42-10.44.26-20.83,1-28.66,9.31a2.66,2.66,0,0,1-4.18-.4c-7.4-11.82-8.87-25.08-4.1-35.7a2.67,2.67,0,0,1,4.34-.75c6.87,7,15.93,8.57,25.49,8,4.25-.23,9.07-1.38,12.34-3.86,2.86-2.16,5.62-6.94,5.24-10.22-.32-2.78-4.85-6.73-8-7.28-11.76-2.06-23.64-2.87-35.39,2.9a2.69,2.69,0,0,1-3.71-1.48c-2.19-5.92-4.51-11.59-6-17.48-1.89-7.62,1.3-11.84,9.56-14.18,2.21-.63,4.41-1.12,4.73-3.05a2.65,2.65,0,0,0-3.39-2.91c-1,.3-2.08.58-3.17.91a2.71,2.71,0,0,1-3.36-3.13,14.13,14.13,0,0,1,7.75-10.25,42.32,42.32,0,0,1,15.47-4.44c9.18-.72,18.45-.4,27.68-.08a8.66,8.66,0,0,1,5.75,3.22c4.54,6.05,12.87,6.13,17.76.2,1.43-1.74,4.17-3.38,6.33-3.4,17.2-.28,34.42-.19,51.61-.15,5.56,0,11.43.21,14.09,6.15C683.87,490.25,680.83,495.7,677.16,500.41Z" transform="translate(0.05)"/><path class="cls-6" d="M273.55,410.65a129.64,129.64,0,0,0-66.9-67.45l-19.12-19.27" transform="translate(0.05)"/><path class="cls-6" d="M311.78,410.65a129.64,129.64,0,0,1,66.9-67.45l19.12-19.27" transform="translate(0.05)"/><path class="cls-6" d="M273.55,410.65c8.35-47,57.35-77.08,57.35-77.08L350,304.66" transform="translate(0.05)"/><path class="cls-6" d="M311.78,410.65c-8.37-47-57.34-77.08-57.34-77.08l-19.12-28.91" transform="translate(0.05)"/><line class="cls-6" x1="149.35" y1="362.47" x2="158.91" y2="343.2"/><line class="cls-6" x1="206.7" y1="343.2" x2="216.25" y2="323.93"/><line class="cls-6" x1="254.48" y1="333.57" x2="273.6" y2="304.66"/><line class="cls-6" x1="330.94" y1="333.57" x2="311.83" y2="304.66"/><line class="cls-6" x1="360.61" y1="390.49" x2="351.05" y2="371.22"/><line class="cls-6" x1="254.14" y1="460.97" x2="328.36" y2="461.37"/><path class="cls-7" d="M224.26,734.49C239,651.67,248.54,554,252.93,470c0-85.5-105.13-106-105.13-106l-19.12-19.27" transform="translate(0.05)"/><path class="cls-7" d="M358.06,734.49C343.35,651.67,333.78,554,329.39,470c0-85.5,105.13-106,105.13-106l19.12-19.27" transform="translate(0.05)"/><line class="cls-6" x1="1048.16" y1="343.21" x2="1057.71" y2="362.48"/><path class="cls-6" d="M1019.44,323.94l-19.12,19.27a129.64,129.64,0,0,0-66.9,67.45" transform="translate(0.05)"/><path class="cls-6" d="M809.17,323.94l19.12,19.27a129.64,129.64,0,0,1,66.9,67.45" transform="translate(0.05)"/><path class="cls-6" d="M857,304.67l19.11,28.9s49,30.12,57.35,77.09" transform="translate(0.05)"/><path class="cls-6" d="M971.65,304.67l-19.12,28.9s-49,30.12-57.34,77.09" transform="translate(0.05)"/><line class="cls-6" x1="990.81" y1="323.94" x2="1000.37" y2="343.21"/><line class="cls-6" x1="933.47" y1="304.67" x2="952.58" y2="333.57"/><line class="cls-6" x1="895.24" y1="304.67" x2="876.12" y2="333.57"/><line class="cls-6" x1="856.01" y1="371.23" x2="846.45" y2="390.5"/><line class="cls-6" x1="879.13" y1="460.97" x2="953.36" y2="461.37"/><path class="cls-7" d="M1078.29,344.72,1059.17,364S954,384.48,954,470c4.39,84,14,181.69,28.67,264.52" transform="translate(0.05)"/><path class="cls-7" d="M753.33,344.72,772.45,364s105.13,20.49,105.13,106c-4.39,84-14,181.69-28.67,264.52" transform="translate(0.05)"/><path class="cls-8" d="M405.35,126.62q-5.14-7.82-13.29-7.8a31.44,31.44,0,0,0-12.54,3.07,45.26,45.26,0,0,0-8.92,5.1,105.88,105.88,0,0,0-21.36,22.53q-9,12.79-10.66,20.66a65.53,65.53,0,0,0-1.66,10.69q0,14.17,15.41,21.75t15.4,11.12q0,5.5-9.65,14.21c-4.43,3.91-8.07,6.56-10.88,7.92-3.53,1.8-5.3,3.24-5.3,4.35q0,2.06,4.85,2.05,10.13,0,20.91-6.72t15.18-12.22c2.92-3.67,4.39-6.9,4.39-9.72a11.19,11.19,0,0,0-2-6.39q-3-4.49-27-15.36c-3.13-1.37-5-2.86-5.52-4.47a13.42,13.42,0,0,1-.83-4.22q0-7,8.61-22.9a107.47,107.47,0,0,1,14-20q8.05-9.14,16.68-11.57a10.2,10.2,0,0,1,2.72-.38c2.51,0,3.77,1.63,3.77,4.86,0,1.8.58,2.74,1.73,2.88s1.89.19,2.21.19a4.46,4.46,0,0,0,3.7-1.86,6.34,6.34,0,0,0,1.43-3.89A6.57,6.57,0,0,0,405.35,126.62Z" transform="translate(0.05)"/><path class="cls-8" d="M424.08,183.77q0-5.51-8.17-5.51c-3.11,0-5,1.25-5.73,3.71a108.19,108.19,0,0,0-3.62,28.66c0,2.74.09,5.54.3,8.45.4,5.89,3.17,8.82,8.3,8.82h.45c2.53-.17,3.87-.59,4-1.27a9.44,9.44,0,0,0,.22-2,8.09,8.09,0,0,0-.37-2.44,7.75,7.75,0,0,1-.38-2.55,190.21,190.21,0,0,1,4.67-33A11.83,11.83,0,0,0,424.08,183.77Zm2.74-33.36a9.39,9.39,0,0,0-3-.51q-3.3.15-4.52,2.55l-.76,1.8q-4.83,10.25-4.84,14.85v2.55c.21,2.65,1.71,4.22,4.54,4.73l2.11.14a4.39,4.39,0,0,0,4.08-2.56q7.71-16.14,7.71-18.93C432,153.23,430.25,151.7,426.82,150.41Z" transform="translate(0.05)"/><path class="cls-8" d="M497.18,178.31a8.5,8.5,0,0,0-5.13-7.94,10,10,0,0,0-4.39-1c-2.81.09-5.64,1.62-8.45,4.61q-8.31,8.56-18.29,20.47c-1.4,1.7-2.36,2.55-2.87,2.55s-.6-.47-.6-1.4q0-3.47,3.17-11.9a11,11,0,0,0,.75-3.32c-.09-2.58-2.2-4.39-6.33-5.51a10.49,10.49,0,0,0-2.57-.38q-3.93.12-5.13,5.11-4.09,16.11-8.46,32.36a11.08,11.08,0,0,0-.3,2.82q.14,5.76,8.29,8.57a11.26,11.26,0,0,0,4.09.78q4.53,0,8.3-5.77,15.87-24,16.61-24c.21,0,.3.24.3.77a28.72,28.72,0,0,1-.3,3.39c-.19,1.57-.3,5.6-.3,12.08a13.9,13.9,0,0,0,6.05,11.26,9.4,9.4,0,0,0,5.74,2,4.86,4.86,0,0,0,2.56-.7c.81-.47,1.21-1,1.21-1.59a3.72,3.72,0,0,0-.31-1.41c-.69-.59-1.05-3.07-1.05-7.42q0-7.18,7-31.34A11.93,11.93,0,0,0,497.18,178.31Z" transform="translate(0.05)"/><path class="cls-8" d="M562.72,183.17q-2.26-5.13-8.9-5.12c-1.92,0-3.22.64-3.94,1.91-1.21,2.4-3.86,5.9-8,10.5s-8.53,9-13.15,13.29-8.25,7.14-10.88,8.59q1.36-8.46,10.43-20.54a156.66,156.66,0,0,1,16-18.75c1.21-1.19,2.21-1.77,3-1.77a3.71,3.71,0,0,1,2.41,1.45,3.93,3.93,0,0,0,2.89,1.48,5.2,5.2,0,0,0,2.86-1,2.88,2.88,0,0,0,1.51-2.31,4.91,4.91,0,0,0-1.36-2.82q-3.93-5.12-7.18-5.37c-2.17-.17-3.45-.25-3.85-.25a14.7,14.7,0,0,0-10.12,4.35,121.12,121.12,0,0,0-30.36,41.71,12.85,12.85,0,0,0-1.36,5.37c0,3.58,2.11,6.47,6.36,8.71a17.71,17.71,0,0,0,8,2.17c3.83,0,7.41-1.63,10.73-4.86q18.72-18.3,19.78-18.75a4.57,4.57,0,0,1,1.51-.45c.81,0,1.2.47,1.2,1.42a143.28,143.28,0,0,1-3.77,30.3,81.32,81.32,0,0,1-10.88,26.11,24.46,24.46,0,0,1-3.84,5.05,7.37,7.37,0,0,1-5.36,2q-9.36,0-12.39-8.43a3.45,3.45,0,0,0-3.47-2.58c-2.92,0-4.39,1.42-4.39,4.24a8.24,8.24,0,0,0,3.19,6.26c5.94,5,12.06,7.55,18.42,7.55q13,0,20.68-12.15,15.87-25.59,15.86-63.19Q564.38,186.6,562.72,183.17Z" transform="translate(0.05)"/><path class="cls-8" d="M623.29,207.86A59.71,59.71,0,0,1,626,191.48a15.67,15.67,0,0,0,.76-4.73c0-3.58-1.4-6-4.23-7.3a6.27,6.27,0,0,0-2-.25,13.11,13.11,0,0,0-2.86.38q-3,.76-16.62,15.23-10.74,11.37-13,11.38c-.3,0-.45-.2-.45-.64a7.81,7.81,0,0,1,.9-2.68q6.48-14.85,13-22.27c1-1.19,1.81-1.78,2.41-1.78a6.71,6.71,0,0,1,2.11.76,7.12,7.12,0,0,0,3.32.64q2,0,3.64-2.68a4.34,4.34,0,0,0,.6-2.44c0-1-1.07-2.24-3.18-3.64a12.49,12.49,0,0,0-7.09-2.11q-6.35,0-12.24,6.52-14.34,16-18.12,32a12.22,12.22,0,0,0-.45,3.2c0,4,2.05,7,6.18,8.94a13.14,13.14,0,0,0,5.9,1.42c2.6,0,5.19-1.21,7.7-3.65s5.12-5.14,7.86-8.11q7.24-7.82,7.39-7.82c.7,0,1.06,1.4,1.06,4.22q0,11.92,11.93,15.1a7.8,7.8,0,0,0,2.11.26c2.53,0,3.77-.6,3.77-1.8a3.39,3.39,0,0,0-.6-1.66A21.43,21.43,0,0,1,623.29,207.86Z" transform="translate(0.05)"/><path class="cls-8" d="M691,175.23a17.83,17.83,0,0,0-7-1.53q-6.48.13-12.07,7-7.57,8.84-9.07,8.84c-.41,0-.6-.34-.6-1a21.53,21.53,0,0,1,1.59-8.08,18.05,18.05,0,0,0,1.58-5.88c0-2.46-1.6-4.09-4.83-4.87a9.57,9.57,0,0,0-2.41-.37c-2.74,0-4.55,1.45-5.45,4.35a414.38,414.38,0,0,0-15.56,77.14l-.15,1.28c.12,4.86,3.13,7.3,9.07,7.3,2.93,0,4.53-.56,4.83-1.66a12.83,12.83,0,0,0,.45-3.33l-.15-4.48a58.25,58.25,0,0,1,2.57-15.48q5.6-19.07,7.1-19.33l1.51-.11a7.05,7.05,0,0,1,2.42.51,19.28,19.28,0,0,0,5.73.89,16.1,16.1,0,0,0,10.88-4.22,43.9,43.9,0,0,0,14.65-25.33,20.38,20.38,0,0,0,.45-4.1C696.45,179.28,694.58,176.76,691,175.23Zm-11,20.35q-8.14,12.91-12.84,14.32a2.35,2.35,0,0,0-.76.38c-1.6-.08-2.43-.34-2.48-.76a7.5,7.5,0,0,1-.08-1q0-1.16,5.43-9.85c6.36-10.16,10.82-15.23,13.44-15.23,1,0,1.51.72,1.51,2.17Q684.15,188.8,679.93,195.58Z" transform="translate(0.05)"/><path class="cls-8" d="M744.11,178.18c-1.3-1.12-2-2-2.11-2.69-.81-4.27-4-6.39-9.65-6.39a9.39,9.39,0,0,0-8.17,4.46,83.54,83.54,0,0,0-8.76,17.79c-2.51,6.92-3.78,12.4-3.78,16.51a16.7,16.7,0,0,0,1.51,7.17q2.72,5.76,7.34,7.79a20.2,20.2,0,0,0,7.92,2,13.93,13.93,0,0,0,5.15-1q7.38-3.06,11.91-11.63t4.77-13.51c.15-3.27.23-5.08.23-5.43Q750.47,183.3,744.11,178.18Zm-10,27.64c-2.32,4-5,6.73-8.17,8.19a12.52,12.52,0,0,1-.6-4.11c0-5.64,1.66-12.1,5-19.44q2.88-6.27,6-8.57a15.29,15.29,0,0,1,2.11,8.19A32.12,32.12,0,0,1,734.16,205.82Z" transform="translate(0.05)"/><path class="cls-8" d="M806,179.58a5,5,0,0,0-4.23-2.31,15.47,15.47,0,0,0-5.73,1.16c-6.05,2.23-10.18,5.37-12.39,9.47-.39.68-.75,1-1.05,1s-.61-.64-.61-1.93a15.64,15.64,0,0,1,.91-4.86,10.87,10.87,0,0,0,.75-3.44q0-7-9.22-7a4.15,4.15,0,0,0-4.52,3.58q-3.16,17-6.64,43.11a4.74,4.74,0,0,0,1.66,3.84,12,12,0,0,0,7.54,2.44c2.83,0,4.79-2,5.9-6Q784,197,802,185.35a8.76,8.76,0,0,1,1.51-.78c2.32-.94,3.47-1.93,3.47-2.95A3.56,3.56,0,0,0,806,179.58Z" transform="translate(0.05)"/><path class="cls-8" d="M859.66,202.49a3.94,3.94,0,0,0-2.11-.65c-1.41,0-3.32,1-5.75,3.07q-2.85,2.18-9.5,6.28c-6.75,4.18-12.15,6.26-16.16,6.26a5.34,5.34,0,0,1-5.45-4.09,4.38,4.38,0,0,1-.3-1.53c0-1.21,1.35-2.34,4.09-3.46q11.44-4.59,24.45-20.86a12.94,12.94,0,0,0,2.27-6.91,9.41,9.41,0,0,0-1.51-5.11,15.64,15.64,0,0,0-14.2-7.94q-11.49,0-21.59,16.89c-3.73,6.32-5.86,11.43-6.43,15.36a73.64,73.64,0,0,0-.83,7.55q0,18,23,18c1.81,0,3.77-.07,5.88-.24q5.6-.51,12.61-5c4.68-3,8.06-5.79,10.13-8.44s3.09-4.65,3.09-6A3.84,3.84,0,0,0,859.66,202.49Zm-26-22.91a2.2,2.2,0,0,1,1.66-.64c1,0,1.51.34,1.51,1,0,1.38-1.81,4.86-5.43,10.5q-3.63,5.76-7.55,8c-1-.17-1.52-.58-1.52-1.26Q822.35,195.95,833.68,179.58Z" transform="translate(0.05)"/><path class="cls-8" d="M556.35,343.11q-7-5.91-17.67-5.9c-3,0-4.54-.42-4.54-1.27,0-.61.86-1.67,2.58-3.2a138,138,0,0,0,18.42-20.35c2.11-2.73,3.17-5.32,3.17-7.8q0-5-5.88-9.21-4.84-3.47-13.15-3.46a41.09,41.09,0,0,0-4.54.27c-7.75.75-13.41,2.23-17,4.4s-5.35,4.16-5.35,6,1.26,3.58,3.77,5.62a5.14,5.14,0,0,0,3.17,1.15,4.17,4.17,0,0,0,2.88-1.28,28.69,28.69,0,0,1,5.66-3.52,67.49,67.49,0,0,1,8.46-3.71,21,21,0,0,1,6.56-1.47c1.81,0,2.72.56,2.72,1.66a6.32,6.32,0,0,1-1.21,3.2,101.51,101.51,0,0,1-17.89,22.34,255.17,255.17,0,0,1-22.74,19c-2.72,2-4.07,3.67-4.07,5.12,0,1.78,1.62,3.62,4.82,5.49a7.35,7.35,0,0,0,4.09,1.42,13.51,13.51,0,0,0,5.28-1.42q4.08-1.78,8.92-4.09,12.67-6.27,21.14-6.26a36.28,36.28,0,0,1,10.73,1.78c2,0,3-.76,3-2.29A3,3,0,0,0,556.35,343.11Z" transform="translate(0.05)"/><path class="cls-8" d="M608.45,305.86a41.41,41.41,0,0,0-6.49-3.57,28.07,28.07,0,0,1-7.48-4.3,10.8,10.8,0,0,0-6.87-2.61c-2.22.17-4.28,1.67-6.2,4.49q-12.81,19.42-12.82,41.44l.15,4.6c.49,6.31,3.82,10.53,10,12.67a21.85,21.85,0,0,0,7.26,1.29,19.06,19.06,0,0,0,10.43-3.22,35.2,35.2,0,0,0,14-17.78q3.93-11,3.94-18.42Q614.35,309.83,608.45,305.86Zm-8.22,24.38a59.18,59.18,0,0,1-6.89,14.27q-4.07,6-8.44,6.39-4.85,0-4.85-7a53.16,53.16,0,0,1,2.28-13.43q6.61-24.57,11.32-24.57a5.24,5.24,0,0,1,2.56.78c4.54,2.72,6.81,6.32,6.81,10.74Q603,322,600.23,330.24Z" transform="translate(0.05)"/><path class="cls-8" d="M676.12,343.11q-7-5.91-17.67-5.9c-3,0-4.54-.42-4.54-1.27,0-.61.87-1.67,2.56-3.2a137,137,0,0,0,18.44-20.35c2.12-2.73,3.17-5.32,3.17-7.8q0-5-5.88-9.21c-3.23-2.31-7.62-3.46-13.14-3.46a40.84,40.84,0,0,0-4.55.27c-7.75.75-13.4,2.23-17,4.4s-5.35,4.16-5.35,6,1.26,3.58,3.77,5.62a5.09,5.09,0,0,0,3.17,1.15A4.21,4.21,0,0,0,642,308a28.69,28.69,0,0,1,5.66-3.52,68,68,0,0,1,8.45-3.71,21.08,21.08,0,0,1,6.58-1.47c1.81,0,2.71.56,2.71,1.66a6.23,6.23,0,0,1-1.21,3.2,101.51,101.51,0,0,1-17.89,22.34,255.17,255.17,0,0,1-22.74,19c-2.71,2-4.07,3.67-4.07,5.12,0,1.78,1.6,3.62,4.82,5.49a7.38,7.38,0,0,0,4.1,1.42,13.6,13.6,0,0,0,5.28-1.42c2.71-1.19,5.69-2.55,8.91-4.09q12.67-6.27,21.14-6.26a36.28,36.28,0,0,1,10.73,1.78c2,0,3-.76,3-2.29A3,3,0,0,0,676.12,343.11Z" transform="translate(0.05)"/><path class="cls-8" d="M710.1,295c-.4-2.8-3.53-4.47-9.37-5q-3.48.38-4.08,3.07-1.8,9.33-4.37,18.55a197.42,197.42,0,0,0-4.85,31.46c.51,4.45,3.19,7.89,8,10.37a9.81,9.81,0,0,0,3.92,1h.75q3.35-.37,3.34-2.93a9.73,9.73,0,0,0-1.13-3.52A16.46,16.46,0,0,1,701,342a199.78,199.78,0,0,1,8.47-42.22A20.34,20.34,0,0,0,710.1,295Z" transform="translate(0.05)"/></g></svg>