<svg id="Layer_1" data-name="Layer 1" xmlns="http://www.w3.org/2000/svg" xmlns:xlink="http://www.w3.org/1999/xlink" viewBox="0 0 533.82 639.08"><defs><style>.cls-1,.cls-4{fill:#be1e2d;stroke:#be1e2d;}.cls-1,.cls-2,.cls-4{stroke-miterlimit:10;}.cls-1{stroke-width:2.01px;}.cls-2{fill:none;stroke:#54c9ed;stroke-width:6px;}.cls-3{fill:#54c9ed;}.cls-4{stroke-width:2.01px;}.cls-5{fill:#fff;}.cls-6{fill:url(#linear-gradient);}.cls-7{fill:url(#linear-gradient-2);}.cls-8{fill:url(#linear-gradient-3);}.cls-9{fill:url(#linear-gradient-4);}.cls-10{fill:url(#linear-gradient-5);}.cls-11{fill:url(#linear-gradient-6);}.cls-12{fill:url(#linear-gradient-7);}.cls-13{fill:url(#linear-gradient-8);}.cls-14{fill:url(#linear-gradient-9);}.cls-15{fill:url(#linear-gradient-10);}.cls-16{fill:url(#linear-gradient-11);}.cls-17{fill:url(#linear-gradient-12);}.cls-18{fill:url(#linear-gradient-13);}.cls-19{fill:url(#linear-gradient-14);}.cls-20{fill:url(#linear-gradient-15);}.cls-21{fill:url(#linear-gradient-16);}</style><linearGradient id="linear-gradient" x1="216.92" y1="440.46" x2="420.45" y2="440.46" gradientUnits="userSpaceOnUse"><stop offset="0.45" stop-color="#be202e"/><stop offset="0.72" stop-color="#c1593e"/><stop offset="0.9" stop-color="#e07362"/><stop offset="1" stop-color="#f48479"/></linearGradient><linearGradient id="linear-gradient-2" x1="249.05" y1="489.02" x2="322.55" y2="489.02" gradientUnits="userSpaceOnUse"><stop offset="0.45" stop-color="#be202e"/><stop offset="0.72" stop-color="#c1593e"/><stop offset="0.86" stop-color="#d95f56" stop-opacity="0.75"/><stop offset="1" stop-color="#f1656f" stop-opacity="0.5"/></linearGradient><linearGradient id="linear-gradient-3" x1="271.97" y1="442.83" x2="274.36" y2="442.83" gradientUnits="userSpaceOnUse"><stop offset="1" stop-color="#be202e"/><stop offset="1" stop-color="#c1593e"/></linearGradient><linearGradient id="linear-gradient-4" x1="269.6" y1="325.69" x2="335.01" y2="325.69" xlink:href="#linear-gradient-2"/><linearGradient id="linear-gradient-5" x1="247.85" y1="343.72" x2="297.2" y2="343.72" xlink:href="#linear-gradient-2"/><linearGradient id="linear-gradient-6" x1="308.05" y1="477.46" x2="397.38" y2="477.46" xlink:href="#linear-gradient-2"/><linearGradient id="linear-gradient-7" x1="330.5" y1="524.49" x2="399.07" y2="524.49" xlink:href="#linear-gradient-2"/><linearGradient id="linear-gradient-8" x1="327.34" y1="500.76" x2="395.75" y2="500.76" xlink:href="#linear-gradient-2"/><linearGradient id="linear-gradient-9" x1="314.02" y1="593.07" x2="370.81" y2="593.07" xlink:href="#linear-gradient-2"/><linearGradient id="linear-gradient-10" x1="329.61" y1="548.92" x2="396.83" y2="548.92" xlink:href="#linear-gradient-2"/><linearGradient id="linear-gradient-11" x1="323.57" y1="571.96" x2="389.26" y2="571.96" xlink:href="#linear-gradient-2"/><linearGradient id="linear-gradient-12" x1="301.4" y1="609.68" x2="334.38" y2="609.68" xlink:href="#linear-gradient-2"/><linearGradient id="linear-gradient-13" x1="289.77" y1="614.2" x2="303.14" y2="614.2" xlink:href="#linear-gradient-2"/><linearGradient id="linear-gradient-14" x1="268.72" y1="607.78" x2="280.75" y2="607.78" xlink:href="#linear-gradient-2"/><linearGradient id="linear-gradient-15" x1="250.96" y1="600.43" x2="266.04" y2="600.43" xlink:href="#linear-gradient-2"/><linearGradient id="linear-gradient-16" x1="262.25" y1="276.34" x2="286.46" y2="276.34" xlink:href="#linear-gradient-2"/></defs><title>IOI 2020 Colour Logo</title><path class="cls-1" d="M123.79,121.79a14.83,14.83,0,0,1,6.26-.66,29.79,29.79,0,0,1,4.91,1.14,6.61,6.61,0,0,1,3.46,2.59,10.22,10.22,0,0,1,1.64,4.11,6.66,6.66,0,0,1-.67,4.3,15,15,0,0,1-2.51,3.5,23.77,23.77,0,0,0-2.64,3.29,6.1,6.1,0,0,1-3.47,2.45q-2.27.66-3.27,0c-.68-.44-.29-2.28,1.15-5.52s1.51-5.11.19-5.61a7.73,7.73,0,0,0-4.62-.08q-2.64.64-7.6,4.81a37.87,37.87,0,0,0-8.23,9.64q-3.28,5.48-3.9,8.94a24.2,24.2,0,0,0-.29,6.83q.33,3.38,1.25,8.41t1.93,9a30.12,30.12,0,0,1,.28,10.46,23.82,23.82,0,0,1-3.51,10.69,87.42,87.42,0,0,1-5.2,7.14A20.72,20.72,0,0,1,93.42,212a15.5,15.5,0,0,1-7,2.06,16.62,16.62,0,0,1-6.07-.53,10.34,10.34,0,0,1-4.47-3.77,10.73,10.73,0,0,1-2.51-5.52,10.22,10.22,0,0,1,1.73-5.78,35,35,0,0,1,6.07-7.23c2.76-2.62,5.12-4.23,7.08-4.81a12.92,12.92,0,0,0,5.2-3q2.25-2.14-.2-12t-1.2-17a38.32,38.32,0,0,1,3.37-11.08,37.34,37.34,0,0,1,6.74-8.59,41.75,41.75,0,0,1,8.13-6.61c2.35-1.35,4.59-2.57,6.74-3.68A34,34,0,0,1,123.79,121.79Zm-29.85,65q-1.44-2.19-7.46,4.64t-5.58,9.37c.29,1.7.9,2.66,1.83,2.89a6.19,6.19,0,0,0,2.84.05,5.41,5.41,0,0,0,2.6-1.4q1.15-1.09,3.18-2.76a11.57,11.57,0,0,0,3.17-4.21,9.27,9.27,0,0,0,1-4.47A8.65,8.65,0,0,0,93.94,186.8Z" transform="translate(-30.48 -120.02)"/><path class="cls-1" d="M142.79,164.72a10.81,10.81,0,0,1,4.86.26q2.74.71,1,5.08t-3.9,11.39a111.49,111.49,0,0,1-4,11.39,39.35,39.35,0,0,1-4.19,7.58q-2.31,3.2-4.43,3.46a5.81,5.81,0,0,1-2.93-.13q-.82-.39-.15-4.08t2.84-11.25q2.17-7.57,4.09-13.19c1.29-3.74,1.3-5.65.05-5.74s-.77-.83,1.45-2.23A18.07,18.07,0,0,1,142.79,164.72Zm15.4-26.55c1.41,1.05,2.27,3.35,2.55,6.88a20.72,20.72,0,0,0,4,10.34,28.64,28.64,0,0,0,8.37,8,38.75,38.75,0,0,0,8.81,4.21q4,1.23-.24.57a24.32,24.32,0,0,1-8.42-3.07,45.25,45.25,0,0,1-9-7.18q-4.81-4.77-7-7a10.36,10.36,0,0,0-3.13-2.5c-.61-.17-1.12-.3-1.54-.39a12.16,12.16,0,0,1-2.89-1.75,3.5,3.5,0,0,1-1.63-4,8,8,0,0,1,1.68-3.5,7.05,7.05,0,0,1,3.71-1.71A5.48,5.48,0,0,1,158.19,138.17Z" transform="translate(-30.48 -120.02)"/><path class="cls-1" d="M173.44,166.91c1.34-.58,3.06-.47,5.15.35s2.53,2.34,1.35,4.55-3.13,5.89-5.83,11-3,6.51-.82,4.21a68.59,68.59,0,0,1,7.8-7.06,51.09,51.09,0,0,1,6.6-4.64,17.67,17.67,0,0,1,4.38-1.58,11.34,11.34,0,0,1,5.34.26q3,.8,5.1,4.43t2.26,12q.15,8.37,4.53,8.19a16.33,16.33,0,0,0,8.52-2.93,23.28,23.28,0,0,0,6.16-5.61q2-2.85,1.73-1.53a11.79,11.79,0,0,1-2.21,3.85,61.44,61.44,0,0,1-8.18,7.89q-6.27,5.34-10.83,5.43t-6.65-3.33q-2.07-3.42-2.69-10.91T193,183.86c-1-.09-3.27.85-6.74,2.8a39.06,39.06,0,0,0-9.53,7.67q-4.34,4.72-7.08,8t-4.95,4a3,3,0,0,1-3.61-1.05,5.15,5.15,0,0,1-1-4.29q.43-2.53,1.69-7.8a80.65,80.65,0,0,1,3.56-11.08q2.31-5.82-1.06-3.81a66.3,66.3,0,0,0-8.23,6.09q-4.86,4.06,3.47-3.86t9.24-9.24c.61-.88,1.2-1.68,1.78-2.41A7.32,7.32,0,0,1,173.44,166.91Z" transform="translate(-30.48 -120.02)"/><path class="cls-1" d="M262.14,166.82c4.75.29,6.62,1.37,5.63,3.24s-2,5.14-3,9.81-2,8.63-2.89,11.88A67.24,67.24,0,0,1,258,202q-2.51,5.38-3.9,8.32t-3.47,6.61q-2.07,3.69-6.83,10.43a54.73,54.73,0,0,1-11,11.61q-6.21,4.86-10.11,5.82a15.82,15.82,0,0,1-8.76-.61,7.12,7.12,0,0,1-5.24-6.83q-.39-5.26,13.57-17.17t1.69-.88q-12.28,11-12.47,15.16t2.07,4.73a7.44,7.44,0,0,0,4.52-.18,25,25,0,0,0,6.16-3.72,71.29,71.29,0,0,0,6.55-5.48,56.93,56.93,0,0,0,6.4-7.79A87.33,87.33,0,0,0,244,210.8q3-6,4.14-8.28t4-9.68q2.88-7.35-.87-3.77a82.4,82.4,0,0,1-9.87,7.85q-6.1,4.25-10.06,5.38t-6,.62a7.66,7.66,0,0,1-3.65-2.15c-1.06-1.08-1.26-3.21-.58-6.4a38.23,38.23,0,0,1,5-11.39,31.73,31.73,0,0,1,9.44-10.16,46.18,46.18,0,0,1,9.62-5,19.75,19.75,0,0,1,6.65-1.4,16.92,16.92,0,0,1,5.44,1.27C259.3,168.44,260.92,168.17,262.14,166.82Zm-10.3,9.29q-1.64-1.49-4.91.3a40.36,40.36,0,0,0-7.32,5.44,39.4,39.4,0,0,0-6.74,7.75c-1.8,2.75-.93,3.15,2.6,1.23a63.77,63.77,0,0,0,9.53-6.31,61.19,61.19,0,0,0,6.26-5.61Q253.29,176.72,251.84,176.11Z" transform="translate(-30.48 -120.02)"/><path class="cls-1" d="M309.35,165.59a13.44,13.44,0,0,1,4.86-.17,9.19,9.19,0,0,1,4.23,1.49,10.77,10.77,0,0,1,3,4.47q1.44,3.33-1.3,4.46a4.45,4.45,0,0,1-5-.78,4,4,0,0,0-4.62-.79q-2.42,1.14-4.77,2.32a43.63,43.63,0,0,0-5.82,3.72,51.57,51.57,0,0,0-7.13,6.49c-2.44,2.62-3.78,4.3-4,5s.37.63,1.88-.3,3.82-2.35,6.93-4.25a90.24,90.24,0,0,1,11.74-5.83q7.08-3,9-2.32a6.93,6.93,0,0,1,3.22,2.41,7.11,7.11,0,0,1,1.54,3,2.43,2.43,0,0,1-.43,2,11,11,0,0,0-1.44,3.37,7.44,7.44,0,0,0,.14,5.08,6.55,6.55,0,0,0,2.46,3.37,6,6,0,0,0,4.09.53q2.6-.39,6.4-3.59t-.34,1.49q-4.14,4.68-6.54,5.95a8.32,8.32,0,0,1-3.76,1.23,12.54,12.54,0,0,1-3.51-.79,13,13,0,0,1-4.09-2.32,11.23,11.23,0,0,1-3-3.85,36.45,36.45,0,0,1-1.49-3.38,6.63,6.63,0,0,0-1.78-2.41,3.1,3.1,0,0,0-3.42-.57,43.71,43.71,0,0,0-7.07,4.08,86.48,86.48,0,0,1-9.44,5.47,37.84,37.84,0,0,1-7.85,3q-3.47.84-4.47.57a4.52,4.52,0,0,1-2.22-2,7.67,7.67,0,0,1-1.39-3.72,8.75,8.75,0,0,1,.62-4.08q.82-2.06,6.16-8.23A78.79,78.79,0,0,1,291,175.67a58.11,58.11,0,0,1,10.54-6.7A54.18,54.18,0,0,1,309.35,165.59Z" transform="translate(-30.48 -120.02)"/><path class="cls-1" d="M344.13,169.27c5.72-3.5,9.21-5.46,10.5-5.87a3.28,3.28,0,0,1,3.22.44,4.05,4.05,0,0,1,1.54,2.59c.16,1-.17,3.25-1,6.7s-.83,4.85,0,4.2a16.13,16.13,0,0,1,3.57-1.92q2.31-1,5.82-2.11a18.16,18.16,0,0,1,6.59-1A8.57,8.57,0,0,1,379,173.7a7.89,7.89,0,0,1,2,1.93c.28.49.67,1.21,1.15,2.14a6.52,6.52,0,0,1,.72,1.71,9.21,9.21,0,0,0,.2,1.31,10.94,10.94,0,0,1-.2,3.33,19.59,19.59,0,0,1-2.07,5.61,20.08,20.08,0,0,1-5.05,6.13,32.13,32.13,0,0,1-5.78,4.08,40.87,40.87,0,0,1-5.15,2.19,29.22,29.22,0,0,1-5.68,1.36,6.54,6.54,0,0,1-4.62-.75,3.32,3.32,0,0,1-1.73-2.58,6.22,6.22,0,0,1,1-3.29,29.61,29.61,0,0,1,2.16-3.28,19.83,19.83,0,0,1,3.71-3.42,23.24,23.24,0,0,1,5.44-3.11,26.16,26.16,0,0,1,4.48-1.45q1.64-.3-2.17,2.06a68.76,68.76,0,0,0-6.64,4.65q-2.85,2.27-1.83,3.32c.67.71,1.89.75,3.66.14s4.33-2.44,7.7-5.48,4.46-5.65,3.27-7.84-3.46-2.72-6.83-1.58a29.37,29.37,0,0,0-9,4.86q-4,3.16-8.28,12.75t-6.17,14.19q-1.83,4.6-4.86,12.66A131.69,131.69,0,0,1,331.43,241c-2.7,5.06-4.9,7.27-6.6,6.66s-2.74-1.44-3.13-2.5a6.9,6.9,0,0,1-.33-3.33,15.17,15.17,0,0,1,1.58-4.42,95.72,95.72,0,0,0,3.66-8.89q2.31-6.23,9.77-24t8.86-21q1.39-3.28,3.61-9.68c1.48-4.26,1.62-6.21.43-5.83a78.22,78.22,0,0,0-7.75,3.51Q335.58,174.45,344.13,169.27Z" transform="translate(-30.48 -120.02)"/><path class="cls-1" d="M403.47,169.62a8.91,8.91,0,0,1,4.48-2,8.26,8.26,0,0,1,4.38.26,6.48,6.48,0,0,1,2.94,2.5q1.2,1.8,6,1.71t12,0q7.17.13-3,.4t-11.6.74c-.94.32-1.32,1.36-1.16,3.11s.29,3.61.38,5.56.12,4.14.05,6.53a24,24,0,0,1-.57,5.34,21,21,0,0,1-1.45,3.68,19.57,19.57,0,0,1-2.84,4.08,23.12,23.12,0,0,1-4.62,4,27.2,27.2,0,0,1-5.05,2.76,7.28,7.28,0,0,1-5,.09,9.75,9.75,0,0,1-4.38-2.63,17,17,0,0,1-2.7-3.72q-1-1.92-.86-6.75a26.84,26.84,0,0,1,1.15-7.75,27.6,27.6,0,0,1,3.13-6.13c1.41-2.13,1.83-3.13,1.25-3s-.72.07-.43-.22,1.4-1.55,3.32-3.77A51.57,51.57,0,0,1,403.47,169.62Zm4.82,13.76c-1.42-1.58-3.18-1.14-5.3,1.31a15.48,15.48,0,0,0-3.8,7.8c-.42,2.75-.26,4.67.48,5.78A4.09,4.09,0,0,0,402,200.2c.8.18,1.94-.31,3.42-1.45s2.68-3.6,3.61-7.4S409.7,184.9,408.29,183.38Z" transform="translate(-30.48 -120.02)"/><path class="cls-1" d="M436.24,177.42q3.47-12.18,6.69-11.91a6.16,6.16,0,0,1,4.86,2.63q1.63,2.36-.34,5.82t-.38,3.24a12.21,12.21,0,0,0,4.19-1.75,33.87,33.87,0,0,1,5-2.45,21.89,21.89,0,0,1,3.8-1.19c1-.17,2.81.12,5.53.88a34.87,34.87,0,0,1,7.75,3.2q3.66,2.06,9.68.35t-1.3,1.14a38.4,38.4,0,0,1-15,2.67q-7.65-.18-11.84,1.66a34,34,0,0,0-7.08,4.08,20.26,20.26,0,0,0-5.34,7.36q-2.46,5.11-3.76,8.63c-.86,2.33-1.63,4.25-2.31,5.74s-2.05,2.27-4.14,2.36-3.46-.6-4.14-2.06-.83-2.41-.48-2.84,1.32-3.12,2.89-8S434,185.54,436.24,177.42Z" transform="translate(-30.48 -120.02)"/><path class="cls-1" d="M499.62,165.07c4.3-.29,6.92.36,7.85,2a11.54,11.54,0,0,1,1.3,6.13q-.11,3.74-3.85,6.31a54.88,54.88,0,0,1-9.92,5.13,10.48,10.48,0,0,1-3.13.65,14.58,14.58,0,0,1-2.31-.08q-.92-.13-1.44-.27c-.36-.09-.57,0-.63.13a9.26,9.26,0,0,0-1.78,5.09,6.78,6.78,0,0,0,1.83,4.68,6.93,6.93,0,0,0,4.19,2.5,14.22,14.22,0,0,0,4.81-.13,69.76,69.76,0,0,0,9.24-3q6.74-2.55,9.39-4.78c1.76-1.49,3.45-2.93,5.05-4.34s1.83-1.4.68,0-2.59,3.1-4.29,5.09a43.23,43.23,0,0,1-6.35,5.91q-3.81,2.94-6.21,4.51a26.71,26.71,0,0,1-6.4,2.85,18.19,18.19,0,0,1-7.85.79,15.46,15.46,0,0,1-5.78-1.62,19.41,19.41,0,0,1-3.56-2.72,13.14,13.14,0,0,1-2.69-3.72,13.77,13.77,0,0,1-1.11-5.87,19.36,19.36,0,0,1,1.92-8.11,29.79,29.79,0,0,1,4.48-7.27,35,35,0,0,1,6.79-5.82A25.47,25.47,0,0,1,499.62,165.07Zm.1,7.88c-.45-.4-1.56-.2-3.32.62a10.43,10.43,0,0,0-3.86,2.76c-.8,1-.94,1.76-.43,2.23s1.6.28,3.27-.57a20.27,20.27,0,0,0,4-2.54C500.37,174.6,500.49,173.77,499.72,173Z" transform="translate(-30.48 -120.02)"/><path class="cls-2" d="M553.35,365.27h-436c-24.85,0-47.13-4.76-64.43-13.74-13-6.74-18.58-13.5-18.82-13.79-1-1.22-.73-2.62.71-3.72a11.24,11.24,0,0,1,6.5-1.81l74.68-.7v-4.46c0-2.21,3.56-4,8-4h31.26c4.4,0,8,1.79,8,4v3.23c15.5,2.52,66.73,9.65,151.12,9.65,83.31,0,131.89-4.95,147.56-6.86v-4.15c0-2.21,3.56-4,7.95-4h41.41c4.39,0,7.95,1.8,7.95,4v5.61h34.21c4.4,0,8,1.79,8,4v22.73C561.31,363.47,557.75,365.27,553.35,365.27ZM41.44,336.21h0Z" transform="translate(-30.48 -120.02)"/><path class="cls-3" d="M201.61,375.9c-22.67-5-47.26-4.95-70.3-3-9.41.8-21.81,1.18-30.06,6.33-2.28,1.42-4,3.43-2.49,6.09.86,1.47,2.43,2.23,3.83,3.06a37.29,37.29,0,0,1,8,6.48A86.29,86.29,0,0,1,129.63,425c4.57,12.47,5.23,25.14,4.64,38.28-1.13,25-3.6,50-6.16,74.85q-3.75,36.57-8.29,73.07c-.34,2.74,4.49,3.25,6.1,3.25h63.5c1,0,4.11-.74,3.91-2.35-4.2-33.57-7.93-67.22-11-100.92-1.64-17.95-3.24-36-3.71-54A84.37,84.37,0,0,1,193.82,406a86.84,86.84,0,0,1,10.61-12.45,30,30,0,0,1,6.14-4.8c1.3-.73,2.81-1.39,3.7-2.66,4.33-6.17-9.23-9.38-12.66-10.23-1.65-.4-5.49-.61-6.33,1.39s1.51,3.32,3.19,3.73,4.43.6,5.64,1.78.79.86-.87,1.73c-3.69,1.92-6.58,4.75-9.48,7.77a93.25,93.25,0,0,0-14.4,19.29c-8,14.43-11.24,30.48-10.67,46.89,1.21,35,5.19,70.07,9,104.9,1.77,16,3.6,31.89,5.59,47.81l3.92-2.35h-63.5l6.09,3.25c5.42-43.38,10.38-86.91,13.42-130.53,1.55-22.22,2.94-44.14-7.07-64.78a92.68,92.68,0,0,0-18.83-26,40.57,40.57,0,0,0-5.62-5c-1.41-.9-4-.84-2.93-2.42s5-1.83,6.52-2.2c2.54-.6,5.12-1.06,7.71-1.45a237.87,237.87,0,0,1,36.57-2.13c12.93.08,26.22.66,38.87,3.48,1.65.37,5.47.64,6.32-1.39S203.29,376.28,201.61,375.9Z" transform="translate(-30.48 -120.02)"/><path class="cls-3" d="M527.05,377.35c-22.42-5.13-47-4.79-69.74-2.7-9.77.9-22,1.56-30.79,6.5-2,1.12-3.82,2.61-2.15,4.77,1.28,1.66,3.83,2.21,5.43,3.45a57.23,57.23,0,0,1,7.48,7.53c16.37,18.68,22.57,41.42,21.58,65.88-1,25-3.41,49.91-5.88,74.77s-5.2,49.91-8.23,74.81c-.08.62,2.41.49,2.58.49h61.73c.81,0,7.53-.49,7.35-1.93-4-33.29-7.64-66.64-10.61-100-1.58-17.77-3.07-35.58-3.64-53.42-.58-18.35,3.78-36.22,13.92-51.67,4.89-7.44,10.94-15.2,18.68-19.7s-4-7.79-7.71-8.74c-2-.53-4.87,0-6.86.63-.65.2-3.57,1.1-1.58,1.6,1.59.41,8.45,1.65,8.92,4.22.41,2.29-5.29,4.61-7,6.16a89.74,89.74,0,0,0-15.93,19.55,88,88,0,0,0-12.45,47.93c.87,34.88,4.88,69.8,8.58,104.47q2.69,25.25,5.71,50.45l7.36-1.93H452.11l2.58.49c5.13-42.22,9.78-84.59,12.8-127,1.56-21.86,3.62-43.88-5.2-64.59a90.28,90.28,0,0,0-16.87-25.84c-1.55-1.68-3.17-3.31-4.85-4.86s-3.83-2.19-5.52-3.66c-4.71-4.09,4.91-5.8,7.53-6.33,12.49-2.54,25.64-2.8,38.34-2.66s25.39.81,37.69,3.62a14.52,14.52,0,0,0,6.85-.63C526.08,378.76,529.06,377.81,527.05,377.35Z" transform="translate(-30.48 -120.02)"/><path class="cls-4" d="M120.38,255.52a15.27,15.27,0,0,1,5.52.56,14.64,14.64,0,0,1,5.39,2.77,15.24,15.24,0,0,1,4.05,5.26,17.54,17.54,0,0,1,1.88,6.22,23,23,0,0,1-.53,6.6,25.78,25.78,0,0,1-3,7.6,32.9,32.9,0,0,1-7.15,8.12q-4.91,4.23-6.41,5.35a51.36,51.36,0,0,0-4.09,3.54q-2.58,2.41-.94,3t13.53,1q11.9.43,13.32-.17c1-.41,1-.07.16,1s-1.62,2.07-2.33,3-2.28,1.86-4.74,2.72-6.48,1.3-12.09,1.3H108.41c-4.06,0-7.49,0-10.3-.13s-4.39-.71-4.74-1.86a8.32,8.32,0,0,1-.16-3.88q.36-2.16,3.27-3.29a30.46,30.46,0,0,0,7.27-4.57q4.36-3.45,9.73-8.25t9.72-9.28q4.38-4.49,4.74-6.69a12.4,12.4,0,0,0,.13-3.84,9.19,9.19,0,0,0-1.35-3.41q-1.11-1.77-4.29-2.29a8,8,0,0,0-4.74.26c-1,.52-1.8.62-2.29.3a16.44,16.44,0,0,1-1.6-1.21,4.7,4.7,0,0,1-1.3-2.5,5.22,5.22,0,0,1,.12-3.24,5.5,5.5,0,0,1,2.94-2.63A14.4,14.4,0,0,1,120.38,255.52Z" transform="translate(-30.48 -120.02)"/><path class="cls-4" d="M166.93,257.51a23.68,23.68,0,0,1,7.11,4,30.33,30.33,0,0,1,6.78,7.21,32.14,32.14,0,0,1,4.25,9.5,37.84,37.84,0,0,1,1.56,8.72,28.49,28.49,0,0,1-.49,6.22,23.18,23.18,0,0,1-1.72,5.26,23.71,23.71,0,0,1-4.37,5.79,32.6,32.6,0,0,1-7.4,5.74,25.56,25.56,0,0,1-9.85,3q-5.69.64-7.8-.73a44.6,44.6,0,0,1-4.3-3.2,9.65,9.65,0,0,1-2.94-5.7,17.19,17.19,0,0,1,.37-8,161.13,161.13,0,0,1,6.21-16.05q5.07-11.92,5.23-13.3a4.92,4.92,0,0,0-.2-2.33c-.25-.63-1.08-1.24-2.49-1.81s-3.79.77-7.12,4.05-3.51,3.36-.57.22,5.16-5.5,6.66-7.08,2.85-2.37,4.05-2.37,2.15,0,2.86-.09A13.33,13.33,0,0,1,166.93,257.51Zm2.7,12.17q-1.4-.6-7,12.39t-6.21,16.06a12.49,12.49,0,0,0-.45,3.58,5.52,5.52,0,0,0,1.06,1.6,4.09,4.09,0,0,0,2.45,1.38,25.47,25.47,0,0,0,3.35.43q1.8.13,7.48-3.41t7.11-7.16a22.38,22.38,0,0,0,1.6-5.44,21.48,21.48,0,0,0-.62-5.57,26.39,26.39,0,0,0-2.37-6.82,19.44,19.44,0,0,0-3.31-4.79A9.39,9.39,0,0,0,169.63,269.68Z" transform="translate(-30.48 -120.02)"/><path class="cls-4" d="M510.9,257.56a23.68,23.68,0,0,1,7.11,4,30.33,30.33,0,0,1,6.78,7.21,32,32,0,0,1,4.25,9.5A37.84,37.84,0,0,1,530.6,287a28.54,28.54,0,0,1-.49,6.22,23.34,23.34,0,0,1-1.72,5.26,23.9,23.9,0,0,1-4.37,5.79,32.6,32.6,0,0,1-7.4,5.74,25.56,25.56,0,0,1-9.85,3q-5.68.64-7.8-.73a44.6,44.6,0,0,1-4.3-3.2,9.65,9.65,0,0,1-2.94-5.7,17.19,17.19,0,0,1,.37-8,162,162,0,0,1,6.21-16.06q5.07-11.91,5.23-13.29a4.92,4.92,0,0,0-.2-2.33c-.25-.64-1.08-1.24-2.49-1.82s-3.79.78-7.12,4.06-3.51,3.36-.57.22,5.16-5.5,6.66-7.08,2.85-2.38,4.05-2.38,2.15,0,2.86-.08A13.33,13.33,0,0,1,510.9,257.56Zm2.7,12.17q-1.4-.6-7,12.39t-6.21,16.06a12.46,12.46,0,0,0-.45,3.58,5.52,5.52,0,0,0,1.06,1.6,4.09,4.09,0,0,0,2.45,1.38,27.28,27.28,0,0,0,3.35.43q1.8.13,7.48-3.41t7.11-7.16a22.38,22.38,0,0,0,1.6-5.44,21.48,21.48,0,0,0-.62-5.57,26.39,26.39,0,0,0-2.37-6.82A19.44,19.44,0,0,0,516.7,272,9.39,9.39,0,0,0,513.6,269.73Z" transform="translate(-30.48 -120.02)"/><path class="cls-4" d="M464.35,255.57a15.27,15.27,0,0,1,5.52.56,14.64,14.64,0,0,1,5.39,2.77,15.24,15.24,0,0,1,4.05,5.26,17.54,17.54,0,0,1,1.88,6.22,23,23,0,0,1-.53,6.6,25.78,25.78,0,0,1-3,7.6,33.11,33.11,0,0,1-7.15,8.12q-4.91,4.23-6.41,5.35a51.36,51.36,0,0,0-4.09,3.54q-2.58,2.42-.94,3t13.53,1c7.92.29,12.37.23,13.32-.17s1-.08.16,1-1.62,2.07-2.33,3-2.29,1.86-4.74,2.72-6.48,1.29-12.09,1.29H452.38q-6.09,0-10.3-.12t-4.74-1.86a8.36,8.36,0,0,1-.16-3.89c.24-1.43,1.33-2.53,3.26-3.28a30.29,30.29,0,0,0,7.28-4.57q4.36-3.45,9.73-8.25t9.72-9.28q4.38-4.49,4.74-6.69a12.4,12.4,0,0,0,.13-3.84,9.19,9.19,0,0,0-1.35-3.41c-.74-1.18-2.17-1.95-4.29-2.29a8.09,8.09,0,0,0-4.75.26q-1.54.78-2.28.3a15.32,15.32,0,0,1-1.6-1.21,4.78,4.78,0,0,1-1.31-2.5,5.22,5.22,0,0,1,.13-3.24,5.5,5.5,0,0,1,2.94-2.63A14.17,14.17,0,0,1,464.35,255.57Z" transform="translate(-30.48 -120.02)"/><path class="cls-5" d="M233.82,355.62l-.27-.33Z" transform="translate(-30.48 -120.02)"/><path class="cls-5" d="M232.1,353.19c-.1-.18-.19-.36-.28-.54C231.91,352.83,232,353,232.1,353.19Z" transform="translate(-30.48 -120.02)"/><path class="cls-5" d="M233.25,354.92c-.17-.22-.34-.45-.5-.68C232.91,354.47,233.08,354.7,233.25,354.92Z" transform="translate(-30.48 -120.02)"/><path class="cls-5" d="M232.58,354c-.11-.17-.22-.33-.32-.51C232.36,353.65,232.47,353.81,232.58,354Z" transform="translate(-30.48 -120.02)"/><path class="cls-5" d="M234.41,356.27l-.23-.24Z" transform="translate(-30.48 -120.02)"/><path class="cls-5" d="M248.74,412.9c-.19-.91-.36-1.8-.48-2.61C248.39,411.17,248.55,412,248.74,412.9Z" transform="translate(-30.48 -120.02)"/><path class="cls-5" d="M231.7,352.39c-.12-.27-.23-.54-.33-.82C231.47,351.85,231.58,352.12,231.7,352.39Z" transform="translate(-30.48 -120.02)"/><path class="cls-5" d="M234.83,356.72h0a3,3,0,0,0,.53.54l-.54-.55Z" transform="translate(-30.48 -120.02)"/><path class="cls-5" d="M259.83,458.25c.3,1.22.56,2.45.77,3.69,2.28,13.58.56,27-2.44,40.32s-9.31,25.43-16.27,37.13c-8.06,13.54-11.4,27.91-8.45,43.51,2.16,11.43,6.29,22,13.87,31,.24.4.48.8.71,1.2,5.56,5.3,10.53,11.43,16.77,15.77,37.94,26.4,91.11,16.16,118.09-22.62,13.46-19.35,19.27-41.49,22.47-64.41,3.28-23.45,1.1-46.64-2.84-69.74-.56-2.35-1.16-8.63-1.38-8.92-1-.56-3.4-.79-5.38-1.41-19.22-4.49-37.68-8.78-56.81-13.63-5.3-1.35-10.34-3.81-15.33-6.11-3.56-1.65-4.86-4.21-3.68-8.58,7.74-28.75,16.66-57.25,21-86.86a112,112,0,0,1,0,13.21c-1.73,24-6.86,47.42-12.46,70.74-1,4.1,0,5.67,3.92,7,22.58,7.61,45.69,13.09,69.07,17.59,3,.58,6.71,1.27,9.87,1.77,0-1-2.62-7.14-2.74-7.48-8.67-23.18-15.28-40.9-24.09-64-.34-.88-2.15-1.73-3.27-1.73a89.8,89.8,0,0,0-10.61.76c-9.08,1.13-18.14,2.38-28.22,3.72.89-8.2,1.46-16.49,2.74-24.66,2.43-15.52,6.82-30.9,2.53-46.88a39.3,39.3,0,0,1,3.74,8.38c3.17,10.6,2.39,21.4,1.38,32.2-.65,6.93-1.24,13.87-1.85,20.69l53.15-3.94c-5.81-14.82-11.26-28.71-16.81-42.83-8.92,2.89-17.27,5.6-26.58,4.52-.77-17.34-1.71-34.49-6.75-51.13a159,159,0,0,1,7,23.09c1.67,7.95,2.46,16.09,3.67,24.45,13.2-1.32,24.51-7.4,36.8-11.11-2-4.59-3.88-8.74-5.69-12.9C389.55,295.68,384.11,281,375,268c-9.58-13.52-22.15-23-38.49-26.75-7.54-1.74-15.37-2.28-23.06-3.37l-.54,1.14c4.18,6.86,5.53,13.84,1.09,22.12-2.13-10.62-5.47-19.44-14.86-25.28,2.52,10.18-.26,18.91-4.53,28.19-3.78-9,1.23-18-2.89-27.17L280.5,251.07c.2-2.1.29-3.18.39-4.26l-1.13-.83c-4.47,4.66-9.14,9.15-13.34,14-2.71,3.15-4.54,7-7.11,10.3-5.15,6.56-11.47,11.68-20.08,12.71-3.65.44-7.93-1.78-10.82.16s-3.51,6.69-3.51,6.69a36.3,36.3,0,0,0-.64,7.93c.28,4.64,1.55,8.16,3.46,12.72.75,1.8,1.53,4.76,6.31,4.21,5.45-.62,8.53-2.13,13.93-3.2,2.95-.59,5.82-1.7,8.79-2.07,3.56-.45,6.35,1.13,8.17,4.29,6,10.42.5,21.5-11.43,22.82-2,.22-3.94,0-5.9.11a111.83,111.83,0,0,0-11.75.87,4.87,4.87,0,0,0-3.09,3.13,34.7,34.7,0,0,0-.83,5.87,14.36,14.36,0,0,0,4.26,11.5l-.59-.61c5.22,3.59,21.62-7,24.22,4.75a48.44,48.44,0,0,1,.9,4.84c-.77,1.34-1.55,2.67-2.32,4,3.65-6.3,7.52-12.65,9.95-19.45,7.54-21.09,14.5-42.38,21.56-63.63,2.61-7.86,4.88-15.83,7.3-23.76-.53,16.65-3.33,32.89-7.27,48.93-5.79,23.5-13.52,46.13-28,66.16A56.39,56.39,0,0,0,251,406.73c-.41,4,.3,12.27.87,16.51-.31.08-1.6-3.9-1.6-3.9s-.46-1.71-1-3.84c.95,11.61,1.63,18,4.67,26.61.56,1.62,1.37,3.33,2.22,5.29l0-.11A91.49,91.49,0,0,1,259.83,458.25Zm5,144.59c-2,.46-3.68.8-5.32,1.22-5.08,1.31-6.35,3.13-6.13,8.37a21.06,21.06,0,0,1-.47,3.68l-.71-1.2c-2.33-10-2-10.78,6.66-14.89.19-.09.27-.41.39-.63-1.58-8.83.34-13.21,6.8-14.64C259.05,590.43,262.51,596.65,264.82,602.84Zm9.51,24.06c-7.55-6.34-7.43-10.92.09-19.67-4.42-9-4.2-13.77,1.76-18.56-4.3,8.41-.18,14,4.57,19.25C270.63,617.16,270.63,617.16,274.33,626.9Zm27.76,6.83c-3-2.15-5.91-4.33-7.48-7.21-2.48-4.57-.05-9,2.13-13-7.32-7.65-8.77-13.47-4.83-18.82,1,10,1.47,10.69,11.23,17.93C296.83,619.35,294.57,626.24,302.09,633.73Zm19-13.32c-4.43-1-8.92-2.89-10.14-7.5-1.07-4.06-.46-8.55-.59-13-8.43-3.54-11.36-10.58-6.87-17.32-1.43,9.34,1.42,14.75,11.41,14.26-.22,4.89-1.44,9.79-.37,14.13,1.35,5.5,7.36,5.27,12.43,6.25-3.92,8.94-.77,15.24,7.42,19.64C325.16,635.36,322.35,631.79,321.09,620.41Zm30.42-17.29a4.69,4.69,0,0,0-3.66-1.58c-5.82.37-10.81-1.2-14-6.13-1.73-2.66-2.61-5.88-4-9.2-9.63.58-16-4.7-15.77-12,2,2.25,4.28,5.6,7.34,7.85,3.84,2.83,7.95.82,11.7-1.38,2.44,15.45,7.5,18.81,20.93,15.1.84,10,7.47,14.16,16.81,15.38C361.44,613.24,356.2,610.85,351.51,603.12Zm14.6-26.83c-11.36,4.45-15.9,2.8-23.74-8.63-9.93,3-17.11.06-18.8-6.68,2.64,1.53,5.81,4.1,9.45,5.3,4.44,1.45,7.79-1.72,9.77-4,3.7,4,6.54,8.4,10.57,11,5.12,3.33,9.88-.71,14.6-3.46,3.77,9.4,11.1,11.6,21.3,9.76C380.38,584.9,375.15,583.93,366.11,576.29Zm-38.77-75.93c10.89,5.24,15.59,2.69,19.05-4.5,4.49,2.34,8.76,5.66,13.56,6.79,5.86,1.38,9.15-3.78,12.51-8.15,7.12,8,15,7.37,23.29,2.3-5.87,7.8-13,9-22.77,4.25-3.44,3.52-7.5,6.78-12.66,5.78-4.55-.87-8.81-3.25-13.69-5.16C340.14,507,332.11,506.74,327.34,500.36ZM373.79,552c-4,3-8.66,5.23-13.48,3.42-4.31-1.63-8-4.84-12.32-7.57-7.16,4.42-16.59,2.26-18.38-3.74,2.9,1,6.39,3,10.09,3.48,4.44.57,7.31-2.75,9.44-6.43,11.48,13.24,14.39,13.74,25.48,4.22,4.91,8.49,12.47,9.75,22.21,6.48C389.29,558.33,383.71,558.18,373.79,552Zm2.92-27.39c-9.78,8.07-14.65,8-25.48-.32-7.58,6.41-17.06,5.76-20.73-1.28,9.39,5.92,13.64,4.94,20.13-4.66,8.18,8.75,17.77,10.3,25.21,0,9,6.27,9,6.27,23.23,2.56C392.93,528.16,386.63,529.2,376.71,524.62Zm-48.5-52.1c10.57,10.27,14.43,10.25,24.71-.86,8.3,8.84,16.51,6.14,24.41-.73,6.47,3.6,12.71,7.5,20.05,2.14-1.53,1.61-3.22,3.48-5,3.76-4.11.63-6.27.63-11.88-.84-1.26-.34-3.06-.65-3.85,0-7.34,5.7-14.93,7.51-23.15,1.92-3.68,3.78-7.79,7-12.93,5.92-4.54-.92-8.77-3.37-13.52-5.3-6.54,6.25-15.23,5.84-19-.51,3.06.62,7.31,2.73,10.81,1.86S325.07,475.13,328.21,472.52Zm-13.09-90.29c-1.6-16,1-31,4.44-46.09,3.78-16.63,7.2-33.34,10.45-50.08,1.61-8.25,2.51-16.64,3.78-25.35a4.62,4.62,0,0,1,.51,1c.12,1,.21,2.07.28,3.11,1.69,25.84-1.72,51.16-7.47,76.31-3.64,15.9-6.5,31.95-3.25,48.35.06.31-.23.69-.4,1.15-18-2.54-35.92-5.35-53.86,0C283.49,381.94,299.26,382.39,315.12,382.23ZM272,438.5A105.84,105.84,0,0,1,270.56,425c-.51-9.54.71-20.53,1.58-23.69.7-2.57,3.26-9,3.68-9-.43,4-1,9.73-1.39,13.73-1.93,21,2.14,40.42,15.52,57.39,3.48,4.41,6.79,9,9.95,13.6,11.07,16.25,19.67,33.63,22.21,53.28,2.82,21.84-8,42.27-26.64,51.6-17.17,8.61-34.31,1.87-42.12-12.49-5.53-10.17-4.63-17.45-3.26-25.35s8.76-15.42,20.24-19.72c4.54-1.69,9.3-2.8,13.93-4.26a6.66,6.66,0,0,0,3.06-1.53c5.08-6.16,4.63-17.92-2-22.34-5.31-3.56-5.87-7.5-4.89-12.72.14-.77.19-1.56.26-2.33.81-9.31-.72-11.59-9.71-14.54a26.81,26.81,0,0,1-2.84-.65c2.2-21.74.92-31.4-13-40.77C264.76,427.82,269.54,433.3,272,438.5Z" transform="translate(-30.48 -120.02)"/><path class="cls-5" d="M256.21,447.45c4,14.44,1.94,28.52-1.5,42.55C258.15,476,260.2,461.89,256.21,447.45Z" transform="translate(-30.48 -120.02)"/><path d="M232.26,353.47c-.06-.09-.11-.19-.16-.28C232.15,353.28,232.2,353.38,232.26,353.47Z" transform="translate(-30.48 -120.02)"/><path d="M232.75,354.24c-.06-.08-.11-.17-.17-.26C232.64,354.07,232.69,354.16,232.75,354.24Z" transform="translate(-30.48 -120.02)"/><path d="M231.82,352.65l-.12-.26Z" transform="translate(-30.48 -120.02)"/><path d="M254,492.81c.24-.93.47-1.87.7-2.81C254.48,490.94,254.25,491.88,254,492.81Z" transform="translate(-30.48 -120.02)"/><path d="M233.55,355.29l-.3-.37Z" transform="translate(-30.48 -120.02)"/><path d="M235.37,357.27l.81.78-.79-.76Z" transform="translate(-30.48 -120.02)"/><path d="M234.83,356.72q-.22-.23-.42-.45Q234.61,356.5,234.83,356.72Z" transform="translate(-30.48 -120.02)"/><path d="M234.18,356l-.36-.41Z" transform="translate(-30.48 -120.02)"/><path d="M256.2,447.4v.05a.09.09,0,0,1,0-.05Z" transform="translate(-30.48 -120.02)"/><path class="cls-6" d="M407.83,468.78c-.14-.86-.23-1.73-.38-2.78l13,.17c-3.27-14.8-9-28.09-14.66-41.37s-11.57-26.15-17.42-39.32l24.95-4.57-21.53-49.45,18.3-4.91C401.86,308,394.54,289,385.23,271c-14.08-27.19-38-39.75-68.42-40.48-8.26-.2-9.47-2.1-17.73-1.87-1,0-8.81,1.69-12.64,3.73a114,114,0,0,0-15.34,11.23c-5.16,4.47-9.17,10.26-13.63,15.51-3.53,4.16-6.63,8.77-10.59,12.48-4.19,3.92-5.88,4.66-11.39,4.3-2.72-.18-8.82-.21-11.4,1-3,1.46-5.49,6.27-6.56,11.14-1.2,5.44-.24,8.55-.35,11,1.5,8.23,1.66,9,4.79,15.21,1.11,2.2,1.67,5.82,7.13,6.47,8.26.6,15-2.7,22.21-4.82,6.73-2,8.46-2.15,10.08,1.62,2.65,6.2,1,12.3-4.31,14.38-2.73,1.06-5.87,1.19-8.85,1.55-3.77.45-7.62.44-11.35,1.09-5.61,1-6.33,1.78-6.47,7.34a28.34,28.34,0,0,0,1,9.62c.1.28.21.55.33.82l.12.26c.09.18.18.36.28.54s.1.19.16.28.21.34.32.51.11.18.17.26c.16.23.33.46.5.68l.3.37.27.33.36.41.23.24q.19.23.42.45l.54.55,0,0,.79.76a14.36,14.36,0,0,1-4.26-11.5,34.7,34.7,0,0,1,.83-5.87,4.87,4.87,0,0,1,3.09-3.13,111.83,111.83,0,0,1,11.75-.87c2-.1,3.95.11,5.9-.11,11.93-1.32,17.45-12.4,11.43-22.82-1.82-3.16-4.61-4.74-8.17-4.29-3,.37-5.84,1.48-8.79,2.07-5.4,1.07-8.48,2.58-13.93,3.2-4.78.55-5.56-2.41-6.31-4.21-1.91-4.56-3.18-8.08-3.46-12.72a36.3,36.3,0,0,1,.64-7.93s.61-4.76,3.51-6.69,7.17.28,10.82-.16c8.61-1,14.93-6.15,20.08-12.71,2.57-3.28,4.4-7.15,7.11-10.3,4.2-4.88,8.87-9.37,13.34-14l1.13.83c-.1,1.08-.19,2.16-.39,4.26l11.17-14.15c4.12,9.12-.89,18.2,2.89,27.17,4.27-9.28,7.05-18,4.53-28.19,9.39,5.84,12.73,14.66,14.86,25.28,4.44-8.28,3.09-15.26-1.09-22.12l.54-1.14c7.69,1.09,15.52,1.63,23.06,3.37C352.8,245.07,365.37,254.52,375,268c9.16,12.92,14.6,27.64,20.82,42,1.81,4.16,3.66,8.31,5.69,12.9-12.29,3.71-23.6,9.79-36.8,11.11-1.21-8.36-2-16.5-3.67-24.45a159,159,0,0,0-7-23.09c5,16.64,6,33.79,6.75,51.13,9.31,1.08,17.66-1.63,26.58-4.52,5.55,14.12,11,28,16.81,42.83l-53.15,3.94c.61-6.82,1.2-13.76,1.85-20.69,1-10.8,1.79-21.6-1.38-32.2a39.3,39.3,0,0,0-3.74-8.38c4.29,16-.1,31.36-2.53,46.88-1.28,8.17-1.85,16.46-2.74,24.66,10.08-1.34,19.14-2.59,28.22-3.72a89.8,89.8,0,0,1,10.61-.76c1.12,0,2.93.85,3.27,1.73,8.81,23.14,15.42,40.86,24.09,64,.12.34,2.71,6.52,2.74,7.48-3.16-.5-6.85-1.19-9.87-1.77-23.38-4.5-46.49-10-69.07-17.59-3.88-1.3-4.91-2.87-3.92-7,5.6-23.32,10.73-46.75,12.46-70.74a112,112,0,0,0,0-13.21c-4.31,29.61-13.23,58.11-21,86.86-1.18,4.37.12,6.93,3.68,8.58,5,2.3,10,4.76,15.33,6.11,19.13,4.85,37.59,9.14,56.81,13.63,2,.62,4.38.85,5.38,1.41.22.29.82,6.57,1.38,8.92,3.94,23.1,6.12,46.29,2.84,69.74-3.2,22.92-9,45.06-22.47,64.41-27,38.78-80.15,49-118.09,22.62-6.24-4.34-11.21-10.47-16.77-15.77-.23-.4-.47-.8-.71-1.2-7.58-9.05-11.71-19.61-13.87-31-2.95-15.6.39-30,8.45-43.51,7-11.7,13.25-23.74,16.27-37.13s4.72-26.74,2.44-40.32c-.21-1.24-.47-2.47-.77-3.69a91.49,91.49,0,0,0-3.66-11l0,.11h0a.09.09,0,0,0,0,.05c4,14.44,1.76,28.52-1.68,42.55-.23.94-.28,1.88-.52,2.81a175.48,175.48,0,0,1-19.33,45.59c-11,18.66-12.06,38.51-4.54,58.39,12.2,32.28,36.54,50.4,70.65,54.72,42.35,5.35,81.21-18.14,98.26-58.14,12.72-29.82,16.83-60.94,13.79-93C411.84,489.79,409.54,479.32,407.83,468.78Z" transform="translate(-30.48 -120.02)"/><path class="cls-7" d="M268.17,466a26.81,26.81,0,0,0,2.84.65c9,2.95,10.52,5.23,9.71,14.54-.07.77-.12,1.56-.26,2.33-1,5.22-.42,9.16,4.89,12.72,6.6,4.42,7,16.18,2,22.34a6.66,6.66,0,0,1-3.06,1.53c-4.63,1.46-9.39,2.57-13.93,4.26-11.48,4.3-18.87,11.84-20.24,19.72s-2.27,15.18,3.26,25.35c7.81,14.36,25,21.1,42.12,12.49,18.6-9.33,29.46-29.76,26.64-51.6-2.54-19.65-11.14-37-22.21-53.28-3.16-4.64-6.47-9.19-9.95-13.6-13.38-17-17.45-36.38-15.52-57.39.36-4,1-9.73,1.39-13.73-.42-.05-3,6.4-3.68,9-.87,3.16-2.09,14.15-1.58,23.69A105.84,105.84,0,0,0,272,438.5a28.15,28.15,0,0,1,2.39,8.66c2.08,5.59,5.32,11.26,10.54,18.49,6.44,9.8,13.13,19.56,18.35,30,5.33,10.67,9.73,21.89,11.29,34,2.36,18.22-5,36.3-22.06,44.59-16.56,7.19-28.15-4.73-31.54-11.34A22.32,22.32,0,0,1,259,546c1.69-6.1,4.8-10.26,10.6-12.94a97.81,97.81,0,0,1,16.22-5.93c4.91-1.28,7.43-4,9.08-8.59,3.92-10.84,2.1-22.05-7.77-28.51-.91-.6-1.43-2.32-1.5-3.56-.22-3.5.06-7-.17-10.54-.38-5.54-3-9.76-8.52-11.48-2.46-.76-3.13-1.13-2.95-2.53a49,49,0,0,0,.6-11.84c-.05-.53-.09-1.55-.24-2.88A51.65,51.65,0,0,1,272,438.5c-2.43-5.2-7.21-10.68-16.77-13.29C269.09,434.58,270.37,444.24,268.17,466Z" transform="translate(-30.48 -120.02)"/><path class="cls-8" d="M272,438.5a51.65,51.65,0,0,0,2.39,8.66A28.15,28.15,0,0,0,272,438.5Z" transform="translate(-30.48 -120.02)"/><path class="cls-9" d="M323.46,390.63c.17-.46.46-.84.4-1.15-3.25-16.4-.39-32.45,3.25-48.35,5.75-25.15,9.16-50.47,7.47-76.31-.07-1-.16-2.07-.28-3.11a4.62,4.62,0,0,0-.51-1c-1.27,8.71-2.17,17.1-3.78,25.35-3.25,16.74-6.67,33.45-10.45,50.08-3.43,15.05-6,30.11-4.44,46.09-15.86.16-31.63-.29-45.52,8.44C287.54,385.28,305.48,388.09,323.46,390.63Z" transform="translate(-30.48 -120.02)"/><path d="M248.26,410.29c-.06-.36-.11-.72-.15-1.09C248.15,409.53,248.2,409.91,248.26,410.29Z" transform="translate(-30.48 -120.02)"/><path d="M248.74,412.9c.18.88.38,1.77.57,2.6,0-.06,0-.13,0-.19C249.1,414.5,248.91,413.7,248.74,412.9Z" transform="translate(-30.48 -120.02)"/><path class="cls-10" d="M251.87,423.24c-.57-4.24-1.28-12.51-.87-16.51a56.39,56.39,0,0,1,10.92-27.45c14.49-20,22.22-42.66,28-66.16,3.94-16,6.74-32.28,7.27-48.93-2.42,7.93-4.69,15.9-7.3,23.76-7.06,21.25-14,42.54-21.56,63.63-2.43,6.8-6.3,13.15-9.95,19.45-.33.55-.64,1.1-.95,1.66-6.38,11.35-10.72,23.18-9.33,36.51,0,.37.09.73.15,1.09.12.81.29,1.7.48,2.61s.36,1.6.56,2.41c0,.06,0,.13,0,.19.5,2.13,1,3.84,1,3.84S251.56,423.32,251.87,423.24Z" transform="translate(-30.48 -120.02)"/><path class="cls-11" d="M308.05,478c3.77,6.35,12.46,6.76,19,.51,4.75,1.93,9,4.38,13.52,5.3,5.14,1,9.25-2.14,12.93-5.92,8.22,5.59,15.81,3.78,23.15-1.92.79-.61,2.59-.3,3.85,0,5.61,1.47,7.77,1.47,11.88.84,1.78-.28,3.47-2.15,5-3.76-7.34,5.36-13.58,1.46-20.05-2.14-7.9,6.87-16.11,9.57-24.41.73-10.28,11.11-14.14,11.13-24.71.86-3.14,2.61-5.87,6.46-9.35,7.32S311.11,478.6,308.05,478Z" transform="translate(-30.48 -120.02)"/><path class="cls-12" d="M375.84,518.36c-7.44,10.3-17,8.75-25.21,0-6.49,9.6-10.74,10.58-20.13,4.66,3.67,7,13.15,7.69,20.73,1.28,10.83,8.36,15.7,8.39,25.48.32,9.92,4.58,16.22,3.54,22.36-3.7C384.86,524.63,384.86,524.63,375.84,518.36Z" transform="translate(-30.48 -120.02)"/><path class="cls-13" d="M346.63,501.67c4.88,1.91,9.14,4.29,13.69,5.16,5.16,1,9.22-2.26,12.66-5.78,9.81,4.79,16.9,3.55,22.77-4.25-8.3,5.07-16.17,5.73-23.29-2.3-3.36,4.37-6.65,9.53-12.51,8.15-4.8-1.13-9.07-4.45-13.56-6.79-3.46,7.19-8.16,9.74-19.05,4.5C332.11,506.74,340.14,507,346.63,501.67Z" transform="translate(-30.48 -120.02)"/><path class="cls-14" d="M354,595.82c-13.43,3.71-18.49.35-20.93-15.1-3.75,2.2-7.86,4.21-11.7,1.38-3.06-2.25-5.3-5.6-7.34-7.85-.24,7.26,6.14,12.54,15.77,12,1.41,3.32,2.29,6.54,4,9.2,3.22,4.93,8.21,6.5,14,6.13a4.69,4.69,0,0,1,3.66,1.58c4.69,7.73,9.93,10.12,19.3,8.08C361.47,610,354.84,605.85,354,595.82Z" transform="translate(-30.48 -120.02)"/><path class="cls-15" d="M374.62,545.39c-11.09,9.52-14,9-25.48-4.22-2.13,3.68-5,7-9.44,6.43-3.7-.47-7.19-2.43-10.09-3.48,1.79,6,11.22,8.16,18.38,3.74,4.31,2.73,8,5.94,12.32,7.57,4.82,1.81,9.51-.42,13.48-3.42,9.92,6.17,15.5,6.32,23-.14C387.09,555.14,379.53,553.88,374.62,545.39Z" transform="translate(-30.48 -120.02)"/><path class="cls-16" d="M368,569.86c-4.72,2.75-9.48,6.79-14.6,3.46-4-2.63-6.87-7.05-10.57-11-2,2.27-5.33,5.44-9.77,4-3.64-1.2-6.81-3.77-9.45-5.3,1.69,6.74,8.87,9.71,18.8,6.68,7.84,11.43,12.38,13.08,23.74,8.63,9,7.64,14.27,8.61,23.15,3.33C379.06,581.46,371.73,579.26,368,569.86Z" transform="translate(-30.48 -120.02)"/><path class="cls-17" d="M327,617.18c-5.07-1-11.08-.75-12.43-6.25-1.07-4.34.15-9.24.37-14.13-10,.49-12.84-4.92-11.41-14.26-4.49,6.74-1.56,13.78,6.87,17.32.13,4.5-.48,9,.59,13,1.22,4.61,5.71,6.46,10.14,7.5,1.26,11.38,4.07,15,13.29,16.41C326.19,632.42,323,626.12,327,617.18Z" transform="translate(-30.48 -120.02)"/><path class="cls-18" d="M291.91,594.67c-3.94,5.35-2.49,11.17,4.83,18.82-2.18,4-4.61,8.46-2.13,13,1.57,2.88,4.44,5.06,7.48,7.21-7.52-7.49-5.26-14.38,1.05-21.13C293.38,605.36,293,604.66,291.91,594.67Z" transform="translate(-30.48 -120.02)"/><path class="cls-19" d="M276.18,588.67c-6,4.79-6.18,9.53-1.76,18.56-7.52,8.75-7.64,13.33-.09,19.67-3.7-9.74-3.7-9.74,6.42-19C276,602.65,271.88,597.08,276.18,588.67Z" transform="translate(-30.48 -120.02)"/><path class="cls-20" d="M259.24,599.39c-.12.22-.2.54-.39.63-8.63,4.11-9,4.92-6.66,14.89l.71,1.2a21.06,21.06,0,0,0,.47-3.68c-.22-5.24,1-7.06,6.13-8.37,1.64-.42,3.29-.76,5.32-1.22-2.31-6.19-5.77-12.41,1.22-18.09C259.58,586.18,257.66,590.56,259.24,599.39Z" transform="translate(-30.48 -120.02)"/><path class="cls-21" d="M285.05,276.43c-6.92-3.39-16.33,3.14-22.8,4.84C272,260.36,291.92,279.79,285.05,276.43Z" transform="translate(-30.48 -120.02)"/><path class="cls-3" d="M179.28,704.23a1.81,1.81,0,0,1,1.66-.07,2.65,2.65,0,0,1,1.37,1.08,1.44,1.44,0,0,1,.22,1.27q-.22.54-.51,1.41a7.79,7.79,0,0,0-.36,1.52c0,.43,0,.72.15.86a32.08,32.08,0,0,0,3.46,1.81,14.85,14.85,0,0,1,4.41,2.89,15.73,15.73,0,0,1,1.59,2,7,7,0,0,1,.72,1.74,9.41,9.41,0,0,1,.37,2,11.16,11.16,0,0,1-.15,2.38,7.61,7.61,0,0,1-2.31,3.62,20.23,20.23,0,0,1-3.61,3.1A18.23,18.23,0,0,1,183,731.4q-1.72.66-4.55,1.45a21.52,21.52,0,0,1-4,.86l-2.46.15a1.7,1.7,0,0,0-1.66.94c-.24.58-.63,1.4-1.16,2.46a22,22,0,0,0-1.41,3.72,8.68,8.68,0,0,1-1.24,2.89,1.8,1.8,0,0,1-1.56.7,1.37,1.37,0,0,1-1.21-.54q-.28-.48,1.45-6.09A108,108,0,0,1,169,727.57a55.23,55.23,0,0,0,2.24-5.78,2.92,2.92,0,0,1,.43-1.23,13.34,13.34,0,0,0,.81-3c.4-1.84.18-2.75-.65-2.74s-.76-.59.2-1.79a28.74,28.74,0,0,1,2.67-3,10.92,10.92,0,0,0,1.74-2c.33-.52.62-1,.87-1.33s.5-.81.79-1.34A3.13,3.13,0,0,1,179.28,704.23Zm1.51,11.49a2.4,2.4,0,0,0-1.87.8,10.82,10.82,0,0,0-2.32,3.68q-1.23,2.74-2.38,5.24c-.77,1.66-1.33,2.85-1.66,3.58s.33,1,2,.72a35.77,35.77,0,0,0,6.27-1.64,11.91,11.91,0,0,0,5.35-3.22,6.83,6.83,0,0,0,1.68-2.73,6.07,6.07,0,0,0-.08-1.59,4.9,4.9,0,0,0-1-1.95,6.52,6.52,0,0,0-3-2A23,23,0,0,0,180.79,715.72Z" transform="translate(-30.48 -120.02)"/><path class="cls-3" d="M195.32,726.81A3.26,3.26,0,0,1,197,726a2.81,2.81,0,0,1,1.64.11,2.46,2.46,0,0,1,1.1,1c.3.5,1.06.73,2.26.71s2.71,0,4.5,0,1.42.09-1.14.17a25.8,25.8,0,0,0-4.35.3c-.35.14-.5.56-.43,1.29s.1,1.48.14,2.29,0,1.7,0,2.69a11.53,11.53,0,0,1-.22,2.21,8.92,8.92,0,0,1-.54,1.51,8.17,8.17,0,0,1-1.07,1.68,9.11,9.11,0,0,1-1.73,1.65,10.94,10.94,0,0,1-1.9,1.14,2.53,2.53,0,0,1-1.88,0,3.69,3.69,0,0,1-1.64-1.08,7.15,7.15,0,0,1-1-1.54,6.8,6.8,0,0,1-.33-2.78,12,12,0,0,1,.44-3.2,11.75,11.75,0,0,1,1.17-2.53c.53-.88.69-1.28.47-1.22s-.27,0-.16-.1.52-.63,1.24-1.55A20.5,20.5,0,0,1,195.32,726.81Zm1.81,5.68c-.54-.65-1.2-.47-2,.54a6.61,6.61,0,0,0-1.43,3.21,3.85,3.85,0,0,0,.18,2.39,1.54,1.54,0,0,0,.87.79c.3.08.73-.12,1.28-.59a5.81,5.81,0,0,0,1.36-3.06C197.74,734.21,197.65,733.11,197.13,732.49Z" transform="translate(-30.48 -120.02)"/><path class="cls-3" d="M205.94,727.86c-.05-1.2.31-1.86,1.07-2a2.68,2.68,0,0,1,1.91.35c.52.33.76,1.83.72,4.49s.81,3.15,2.53,1.47A15.26,15.26,0,0,1,216.4,729a1.69,1.69,0,0,1,2.42.71c.52.92.62,2.61.31,5s-.21,3.06.3,1.83.93-2.29,1.23-3.18a9.52,9.52,0,0,1,1.43-2.64,8.81,8.81,0,0,1,2.37-2.18c.92-.59,1.89-.39,2.89.61s3,1.26,6,.78,3.42-.49,1.19,0a36.19,36.19,0,0,1-6,.81c-1.75.07-2.94.62-3.55,1.63a13.9,13.9,0,0,0-1.4,3,21,21,0,0,1-2.07,4.13,16.19,16.19,0,0,1-2.44,3.36q-.84.71-1.32.42a4.76,4.76,0,0,1-1.27-1.68,9.3,9.3,0,0,1-.59-4.68c.12-2.19-.2-3.1-.94-2.73a18.09,18.09,0,0,0-3.85,3.67q-2.73,3.11-3.58,3.07a1.46,1.46,0,0,1-1.28-.85,3.51,3.51,0,0,1,0-2.51,10.59,10.59,0,0,0,.38-3.38,22.16,22.16,0,0,0-.24-2.51,14.7,14.7,0,0,0-.31-1.44A14.7,14.7,0,0,1,205.94,727.86Z" transform="translate(-30.48 -120.02)"/><path class="cls-3" d="M236.11,724.94q2.41-.18,2.94.81a5,5,0,0,1,.49,2.53,3.26,3.26,0,0,1-1.44,2.6,19.9,19.9,0,0,1-3.72,2.11,3.6,3.6,0,0,1-1.18.27,4.63,4.63,0,0,1-.87,0,5,5,0,0,1-.54-.11c-.13,0-.21,0-.23,0a4,4,0,0,0-.67,2.1,2.94,2.94,0,0,0,.68,1.93,2.6,2.6,0,0,0,1.58,1,4.77,4.77,0,0,0,1.8-.05,25,25,0,0,0,3.47-1.25,12.23,12.23,0,0,0,3.52-2c.67-.61,1.3-1.21,1.9-1.79s.69-.58.25,0-1,1.28-1.6,2.1a17,17,0,0,1-2.39,2.44c-.95.8-1.73,1.42-2.33,1.86a9.58,9.58,0,0,1-2.4,1.17,6.29,6.29,0,0,1-3,.33,5.39,5.39,0,0,1-2.16-.67,7.12,7.12,0,0,1-1.34-1.12,5.34,5.34,0,0,1-1-1.54,6,6,0,0,1-.42-2.42,8.72,8.72,0,0,1,.72-3.34,13.13,13.13,0,0,1,1.68-3,14.22,14.22,0,0,1,2.55-2.4A9,9,0,0,1,236.11,724.94Zm0,3.25c-.17-.17-.59-.09-1.25.25a4,4,0,0,0-1.45,1.14c-.3.42-.35.73-.16.92s.6.11,1.23-.24a7.35,7.35,0,0,0,1.5-1C236.39,728.87,236.43,728.52,236.15,728.19Z" transform="translate(-30.48 -120.02)"/><path class="cls-3" d="M245.25,730c.87-3.35,1.7-5,2.51-4.91a2.27,2.27,0,0,1,1.83,1.08,2.35,2.35,0,0,1-.13,2.4c-.5.95-.54,1.4-.15,1.34a4.41,4.41,0,0,0,1.58-.72,12.36,12.36,0,0,1,1.86-1,7.07,7.07,0,0,1,1.42-.49,5.36,5.36,0,0,1,2.08.36,12.29,12.29,0,0,1,2.91,1.32,4.33,4.33,0,0,0,3.63.14c1.51-.47,1.34-.31-.49.47a13.3,13.3,0,0,1-5.62,1.1,9.93,9.93,0,0,0-4.44.69,12.58,12.58,0,0,0-2.65,1.68,8.19,8.19,0,0,0-2,3c-.61,1.41-1.08,2.6-1.41,3.56s-.61,1.76-.87,2.37a1.6,1.6,0,0,1-1.55,1,1.44,1.44,0,0,1-1.55-.85c-.26-.61-.32-1-.18-1.18a24.81,24.81,0,0,0,1.08-3.3C243.69,736.06,244.41,733.38,245.25,730Z" transform="translate(-30.48 -120.02)"/><path class="cls-3" d="M267,724.94c1.62-.12,2.6.15,3,.81a5.15,5.15,0,0,1,.49,2.53,3.3,3.3,0,0,1-1.45,2.6,19.9,19.9,0,0,1-3.72,2.11,3.6,3.6,0,0,1-1.18.27,4.56,4.56,0,0,1-.86,0,5,5,0,0,1-.54-.11c-.14,0-.22,0-.24,0a4.12,4.12,0,0,0-.67,2.1,3,3,0,0,0,.69,1.93,2.58,2.58,0,0,0,1.57,1,4.82,4.82,0,0,0,1.81-.05,26,26,0,0,0,3.47-1.25,12.37,12.37,0,0,0,3.52-2c.66-.61,1.29-1.21,1.9-1.79s.68-.58.25,0-1,1.28-1.61,2.1a16.93,16.93,0,0,1-2.38,2.44c-1,.8-1.73,1.42-2.33,1.86a9.84,9.84,0,0,1-2.41,1.17,6.26,6.26,0,0,1-2.94.33,5.39,5.39,0,0,1-2.17-.67,7.45,7.45,0,0,1-1.34-1.12,5.56,5.56,0,0,1-1-1.54,6.25,6.25,0,0,1-.41-2.42,8.54,8.54,0,0,1,.72-3.34,12.42,12.42,0,0,1,1.68-3,13.89,13.89,0,0,1,2.55-2.4A9,9,0,0,1,267,724.94Zm0,3.25c-.17-.17-.58-.09-1.25.25a4,4,0,0,0-1.44,1.14c-.3.42-.36.73-.16.92s.6.11,1.22-.24a7.08,7.08,0,0,0,1.5-1C267.25,728.87,267.29,728.52,267,728.19Z" transform="translate(-30.48 -120.02)"/><path class="cls-3" d="M285.21,704.67a1.25,1.25,0,0,1,1.19-.56,2.24,2.24,0,0,1,1.41.65,9.22,9.22,0,0,1,1.39,1.71,13.17,13.17,0,0,1,1.3,4.5,22.12,22.12,0,0,1,.18,6.47,36.63,36.63,0,0,1-.61,3.92,1.84,1.84,0,0,0,.7,1.77,2.38,2.38,0,0,1,.89,1.73,1.69,1.69,0,0,1-.74,1.3,1.52,1.52,0,0,1-1.34.33c-.43-.12-.93.54-1.5,2a28.66,28.66,0,0,1-2.08,4.24c-.82,1.39-1.56,2.55-2.24,3.49a17.46,17.46,0,0,1-2.76,2.94,7.24,7.24,0,0,1-2.73,1.75,3.24,3.24,0,0,1-1.7,0,2.67,2.67,0,0,1-1.33-1.21,7.71,7.71,0,0,1-.67-3.65,9.51,9.51,0,0,1,1.57-5.28,13.33,13.33,0,0,1,5.85-4.57q4.23-2,2.88-1.41t-10.17,1.45q-8.82.88.81-.42t10.58-2.27a6.16,6.16,0,0,0,1.38-3.2,26.64,26.64,0,0,0,.45-4.14,23.86,23.86,0,0,0-.25-3.85,9.08,9.08,0,0,0-1.72-3.9c-.95-1.31-1.38-2.17-1.28-2.58A3.26,3.26,0,0,1,285.21,704.67Zm-2.42,24.78a9.2,9.2,0,0,0-2.24,1.77,9,9,0,0,0-2,2.69,2.81,2.81,0,0,0-.29,2c.16.49.89.08,2.18-1.25a13.21,13.21,0,0,0,2.53-3.27,5.94,5.94,0,0,0,.62-1.77C283.58,729.29,283.32,729.23,282.79,729.45Z" transform="translate(-30.48 -120.02)"/><path class="cls-3" d="M318,704.23a1.58,1.58,0,0,1,1.23-.14,3.55,3.55,0,0,1,1.73.87c.58.48.51,1.19-.21,2.15a33.55,33.55,0,0,0-2.46,3.84c-.92,1.62-2,3.83-3.23,6.63s-1.77,4.61-1.58,5.4a3.87,3.87,0,0,0,1.21,2,4.47,4.47,0,0,0,3.06.76q2.13-.06,8-.36t.87.14c-3.33.3-5.81.58-7.46.83s-2.22,1.08-1.72,2.48a20.46,20.46,0,0,1,1,3.2,7.32,7.32,0,0,1,0,2.34,6.37,6.37,0,0,1-1.12,2.62,14.07,14.07,0,0,1-2,2.37,5.26,5.26,0,0,1-2.17,1.3,4.72,4.72,0,0,1-2.47,0,4.65,4.65,0,0,1-2.35-1.37,6.3,6.3,0,0,1-1.41-3,15.51,15.51,0,0,1-.34-4,23.81,23.81,0,0,1,1.73-6.32c1.1-2.89,2-5.2,2.84-6.94s1.89-4.24,3.29-7.51,2.21-5.16,2.45-5.64A7.33,7.33,0,0,1,318,704.23Zm-4.91,24.9c-.68-.87-1.3-.89-1.86-.08a5.63,5.63,0,0,0-1,2.46,11.79,11.79,0,0,0-.09,2.26,5.39,5.39,0,0,0,.62,2.08,1.59,1.59,0,0,0,1.51,1,2.3,2.3,0,0,0,1.67-.82,4.37,4.37,0,0,0,1-1.87,3.93,3.93,0,0,0-.25-2.44A10.12,10.12,0,0,0,313.07,729.13Z" transform="translate(-30.48 -120.02)"/><path class="cls-3" d="M335.54,727.79a1.54,1.54,0,0,1,1.62-.47,2.27,2.27,0,0,1,1.34.83,1.46,1.46,0,0,1,.27,1.19,11.18,11.18,0,0,0,0,2.26,33.84,33.84,0,0,1-.27,4.72c-.23,2-.45,3.75-.67,5.13a20.69,20.69,0,0,1-1.48,4.75,22.45,22.45,0,0,1-3,5.06,20.65,20.65,0,0,1-4.42,4.12,27.65,27.65,0,0,1-4.54,2.6,14.48,14.48,0,0,1-3.14,1,7,7,0,0,1-2.24,0,2.82,2.82,0,0,1-1.88-1.58q-.8-1.38.76-4c1-1.77,1.21-1.86.52-.27s-.29,2.47,1.19,2.65a6.22,6.22,0,0,0,3.78-.56,21.87,21.87,0,0,0,3.61-2.53,27.49,27.49,0,0,0,3.16-2.94,20,20,0,0,0,2.43-3.67,21.7,21.7,0,0,0,2-5.49,31.15,31.15,0,0,0,.79-4.55,10.64,10.64,0,0,0,0-1.72c0-.16-.26-.09-.67.2a7.76,7.76,0,0,0-1.28,1.16,19.2,19.2,0,0,1-1.45,1.39c-.52.44-1.32,1.07-2.4,1.88a5.26,5.26,0,0,1-2.71,1.24,5,5,0,0,1-2.11-.39,3,3,0,0,1-1.52-1.34,4.26,4.26,0,0,1-.49-2.08,5.75,5.75,0,0,1,.18-1.7c.12-.35.45-1.5,1-3.45s1.11-3.06,1.75-3.34a3.55,3.55,0,0,1,1.52-.38,1.06,1.06,0,0,1,.88.63,1.58,1.58,0,0,1-.07,1.47,25.58,25.58,0,0,0-1,2.92,8.76,8.76,0,0,0-.49,3.18c.09.75.42,1,1,.78a7,7,0,0,0,1.68-.94,10.34,10.34,0,0,0,1.47-1.34c.44-.49,1.27-1.56,2.47-3.21S335.1,728.27,335.54,727.79Z" transform="translate(-30.48 -120.02)"/><path class="cls-3" d="M374.63,711.71c1.11-1.13,1.86-1.65,2.24-1.55a2.58,2.58,0,0,1,1.09.58,1.58,1.58,0,0,1,.57,1,18.31,18.31,0,0,1,.09,1.91,5.59,5.59,0,0,0,.24,1.85,22.06,22.06,0,0,1,.65,3.25c.29,1.83.44,2.94.47,3.34a11,11,0,0,0,.32,1.79c.2.79,1.23,1,3.09.58s3.71-.87,5.53-1.38,3.16-.89,4-1.17-.05.14-2.75,1.26a45,45,0,0,0-5.63,2.66q-1.59,1-2.88,1.95a3,3,0,0,0-1.3,2.33,37,37,0,0,1-.3,3.74c-.2,1.59-.39,3-.58,4.19s-.34,2.19-.43,3a5.82,5.82,0,0,1-.8,2.24,2.26,2.26,0,0,1-1.44,1.23,1.26,1.26,0,0,1-1.31-.5c-.33-.44-.38-1.5-.14-3.2s.48-3.22.72-4.55.47-2.79.69-4.36-.29-2.26-1.52-2.09l-3.86.54-4.05.54a10.81,10.81,0,0,0-3.38.92q-1.35.68-4.77,5.31l-4.46,6.09c-.7,1-1.32,1.45-1.88,1.45a1.26,1.26,0,0,1-1.19-.64,2.46,2.46,0,0,1,0-1.86,21.62,21.62,0,0,1,2.53-4.57,81,81,0,0,1,5.08-6.88q2.88-3.54,4.8-5.73c1.28-1.45,2.43-2.89,3.45-4.3s2.19-3,3.49-4.68A45,45,0,0,1,374.63,711.71Zm1.37,7.52c-.24-1.69-.7-2.1-1.39-1.25s-1.32,1.67-1.89,2.46-1.76,2.15-3.54,4.12-1.94,2.77-.47,2.42a40.65,40.65,0,0,1,5.33-.85c2.08-.22,3.08-.66,3-1.34a13,13,0,0,0-.38-2C376.49,722.09,376.27,720.91,376,719.23Z" transform="translate(-30.48 -120.02)"/><path class="cls-3" d="M392.59,725.88q3.5-1.38,4.77-.69a2.16,2.16,0,0,1,1.24,2.06c0,.91-.85,1.41-2.51,1.48a8.18,8.18,0,0,0-4.3,1.32,5.64,5.64,0,0,0-2.35,3.54,3.24,3.24,0,0,0,.91,3.52,4.13,4.13,0,0,0,2.92,1.1,10.9,10.9,0,0,0,2.62-.45,15.55,15.55,0,0,0,2.66-1.19,22.44,22.44,0,0,0,3.41-2.4q1.91-1.57-.09.41c-1.32,1.33-2.53,2.44-3.61,3.34a15.24,15.24,0,0,1-2.89,2,10.23,10.23,0,0,1-2.49.89,11.82,11.82,0,0,1-2.95.14,4.9,4.9,0,0,1-3.25-1.72,5.28,5.28,0,0,1-1.52-3.81,9.29,9.29,0,0,1,.69-3.72,10.58,10.58,0,0,1,2-3A13.73,13.73,0,0,1,392.59,725.88Z" transform="translate(-30.48 -120.02)"/><path class="cls-3" d="M408.34,724.94c1.61-.12,2.6.15,3,.81a5.16,5.16,0,0,1,.48,2.53,3.26,3.26,0,0,1-1.44,2.6,19.9,19.9,0,0,1-3.72,2.11,3.6,3.6,0,0,1-1.18.27,4.63,4.63,0,0,1-.87,0c-.22,0-.41-.07-.54-.11s-.21,0-.23,0a4,4,0,0,0-.67,2.1,3,3,0,0,0,.69,1.93,2.58,2.58,0,0,0,1.57,1,4.77,4.77,0,0,0,1.8-.05,25,25,0,0,0,3.47-1.25,12.23,12.23,0,0,0,3.52-2c.67-.61,1.3-1.21,1.9-1.79s.69-.58.26,0-1,1.28-1.61,2.1a17,17,0,0,1-2.39,2.44c-.95.8-1.73,1.42-2.33,1.86a9.58,9.58,0,0,1-2.4,1.17,6.26,6.26,0,0,1-2.94.33,5.39,5.39,0,0,1-2.17-.67,7.12,7.12,0,0,1-1.34-1.12,5.34,5.34,0,0,1-1-1.54,6.23,6.23,0,0,1-.42-2.42,8.56,8.56,0,0,1,.73-3.34,12.42,12.42,0,0,1,1.68-3,13.8,13.8,0,0,1,2.54-2.4A9,9,0,0,1,408.34,724.94Zm0,3.25c-.17-.17-.59-.09-1.25.25a4.08,4.08,0,0,0-1.45,1.14c-.3.42-.35.73-.16.92s.6.11,1.23-.24a7.08,7.08,0,0,0,1.5-1C408.62,728.87,408.67,728.52,408.38,728.19Z" transform="translate(-30.48 -120.02)"/><path class="cls-3" d="M417.48,730c.87-3.35,1.7-5,2.51-4.91a2.27,2.27,0,0,1,1.83,1.08,2.33,2.33,0,0,1-.13,2.4c-.49.95-.54,1.4-.14,1.34a4.46,4.46,0,0,0,1.57-.72,12.36,12.36,0,0,1,1.86-1,6.92,6.92,0,0,1,1.43-.49,5.32,5.32,0,0,1,2.07.36,11.94,11.94,0,0,1,2.91,1.32,4.33,4.33,0,0,0,3.63.14q2.26-.7-.49.47a13.28,13.28,0,0,1-5.61,1.1,10,10,0,0,0-4.45.69,12.58,12.58,0,0,0-2.65,1.68,8.32,8.32,0,0,0-2,3c-.61,1.41-1.08,2.6-1.41,3.56s-.61,1.76-.86,2.37a1.63,1.63,0,0,1-1.56,1,1.44,1.44,0,0,1-1.55-.85c-.25-.61-.31-1-.18-1.18a24.81,24.81,0,0,0,1.08-3.3C415.92,736.06,416.64,733.38,417.48,730Z" transform="translate(-30.48 -120.02)"/></svg>