<?xml version="1.0" encoding="UTF-8"?>
<!DOCTYPE svg PUBLIC "-//W3C//DTD SVG 1.1//EN" "http://www.w3.org/Graphics/SVG/1.1/DTD/svg11.dtd">
<!-- Creator: CorelDRAW X6 -->
<svg xmlns="http://www.w3.org/2000/svg" xml:space="preserve" width="432.152mm" height="86.6803mm" version="1.1" style="shape-rendering:geometricPrecision; text-rendering:geometricPrecision; image-rendering:optimizeQuality; fill-rule:evenodd; clip-rule:evenodd"
viewBox="0 0 43215 8668"
 xmlns:xlink="http://www.w3.org/1999/xlink">
 <defs>
  <style type="text/css">
   <![CDATA[
    .fil0 {fill:#332C2B;fill-rule:nonzero}
    .fil2 {fill:#332C2B;fill-rule:nonzero}
    .fil1 {fill:#E62129;fill-rule:nonzero}
    .fil5 {fill:url(#id0)}
    .fil3 {fill:url(#id1)}
    .fil4 {fill:url(#id2)}
   ]]>
  </style>
  <linearGradient id="id0" gradientUnits="userSpaceOnUse" x1="5178.05" y1="2588.61" x2="926.44" y2="7143.9">
   <stop offset="0" style="stop-color:#FFF000"/>
   <stop offset="0.211765" style="stop-color:#FDD100"/>
   <stop offset="0.490196" style="stop-color:#F08519"/>
   <stop offset="0.741176" style="stop-color:#E62129"/>
   <stop offset="1" style="stop-color:#BB2E32"/>
  </linearGradient>
  <linearGradient id="id1" gradientUnits="userSpaceOnUse" xlink:href="#id0" x1="16322.9" y1="2588.61" x2="12071.3" y2="7143.9">
  </linearGradient>
  <radialGradient id="id2" gradientUnits="objectBoundingBox" cx="50.0001%" cy="50.0001%" r="33%" fx="50.0001%" fy="50.0001%">
   <stop offset="0" style="stop-color:#BB2E32"/>
   <stop offset="0.419608" style="stop-color:#E62129"/>
   <stop offset="0.678431" style="stop-color:#F08519"/>
   <stop offset="0.921569" style="stop-color:#FDD100"/>
   <stop offset="1" style="stop-color:#FDD100"/>
  </radialGradient>
 </defs>
 <g id="Layer_x0020_1">
  <metadata id="CorelCorpID_0Corel-Layer"/>
  <g id="_2435465216">
   <g>
    <g>
     <path class="fil0" d="M19574 3314c62,0 117,-12 165,-37 48,-25 90,-57 125,-98 35,-41 61,-88 80,-141 18,-53 28,-107 28,-163 0,-79 -7,-147 -20,-207 -13,-59 -41,-114 -84,-163 -9,-12 -23,-25 -42,-38 -18,-13 -28,-22 -28,-27 0,-5 9,-11 28,-18 19,-8 32,-15 42,-23 43,-34 70,-74 81,-121 11,-47 16,-103 16,-167 0,-140 -46,-251 -138,-331 -92,-81 -228,-121 -406,-121l-644 0c-15,0 -23,8 -23,23l0 242c0,15 8,23 23,23l672 0c20,0 40,5 59,14 19,9 37,21 52,36 15,15 28,32 37,52 9,20 14,41 14,62 0,20 -5,40 -14,61 -9,21 -22,39 -37,55 -15,16 -33,30 -52,40 -19,11 -39,16 -59,16l-494 0c-15,0 -23,8 -23,23l0 242c0,15 8,23 23,23l397 0c62,0 110,9 147,27 36,18 64,40 82,66 19,26 30,54 36,83 5,29 8,55 8,76 0,23 -5,46 -15,69 -10,23 -24,45 -42,65 -18,20 -38,36 -60,48 -22,12 -46,19 -70,19l-660 0c-15,0 -23,8 -23,23l0 242c0,15 8,23 23,23l799 0zm1408 0l302 0c15,0 23,-8 23,-23l0 -282c0,-15 8,-23 23,-23l106 0c9,0 14,-8 14,-23l0 -242c0,-15 -8,-23 -23,-23l-97 0c-15,0 -23,-8 -23,-23l0 -963c0,-18 -17,-32 -51,-40 -34,-8 -72,-13 -113,-13l-247 0c-15,0 -29,2 -42,5 -12,3 -25,12 -37,28l-690 873c-6,8 -11,15 -14,21 -3,6 -5,15 -5,25l0 353c0,15 8,23 23,23l803 0c15,0 23,8 23,23l0 282c0,15 8,23 23,23zm-23 -640c0,15 -8,23 -23,23l-420 0c-6,0 -12,0 -18,-1 -6,-1 -9,-3 -9,-8 0,-8 1,-13 4,-17 2,-4 6,-9 10,-15l418 -570c5,-5 10,-11 16,-20 6,-8 12,-13 16,-13 5,0 7,5 7,16l0 605zm2641 -993l0 1609c0,15 8,23 23,23l288 0c15,0 23,-8 23,-23l0 -1609c0,-15 -8,-23 -23,-23l-288 0c-15,0 -23,8 -23,23zm845 744c0,-14 7,-27 22,-39 15,-12 30,-19 47,-19l224 0c32,0 62,3 90,8 28,5 52,15 73,29 21,14 37,33 48,58 12,25 17,56 17,95l0 734c0,15 8,23 23,23l233 0c17,0 25,-8 25,-23l0 -783c0,-51 -10,-100 -30,-148 -20,-48 -48,-90 -84,-127 -36,-37 -78,-67 -126,-89 -48,-22 -99,-33 -155,-33l-522 0c-49,0 -90,16 -121,47 -32,32 -47,67 -47,105l0 958c0,25 5,46 15,65 10,18 26,28 47,28l155 0c43,0 65,-25 65,-74l0 -815zm1415 -9c0,-15 8,-23 23,-23l189 0c15,0 23,-8 23,-23l0 -236c0,-15 -8,-23 -23,-23l-189 0c-15,0 -23,-8 -23,-23l0 -289c0,-15 -8,-23 -23,-23l-235 0c-15,0 -23,8 -23,23l0 289c0,15 -8,23 -23,23l-122 0c-15,0 -23,8 -23,23l0 236c0,15 8,23 23,23l122 0c15,0 23,8 23,23l0 720c0,48 19,89 58,125 39,35 87,53 145,53l291 0c15,0 23,-8 23,-23l0 -236c0,-14 -6,-22 -19,-23l-194 0c-15,0 -23,-8 -23,-23l0 -593zm675 432l854 0c15,0 23,-8 23,-23l0 -240c0,-72 -10,-138 -31,-196 -21,-59 -53,-108 -98,-149 -45,-41 -101,-72 -171,-95 -69,-22 -152,-33 -247,-33 -77,0 -154,10 -230,29 -76,19 -145,53 -205,100 -61,48 -110,112 -148,193 -38,81 -57,183 -57,306 0,102 11,189 33,261 22,72 60,132 113,179 53,47 123,81 210,103 87,22 195,32 324,32l390 0c15,0 23,-8 23,-23l0 -236c0,-15 -8,-23 -23,-23l-549 0c-32,0 -63,-4 -92,-13 -29,-8 -54,-20 -75,-35 -21,-15 -37,-32 -50,-51 -12,-19 -19,-40 -19,-63 0,-15 8,-23 23,-23zm0 -270c-15,0 -23,-8 -23,-23 0,-29 12,-56 35,-80 23,-24 52,-44 87,-60 35,-16 71,-29 108,-38 38,-9 72,-14 103,-14 97,0 172,17 226,52 54,35 81,81 81,140 0,15 -8,23 -23,23l-593 0zm1381 -466c-42,0 -81,8 -118,24 -37,16 -69,38 -97,66 -28,28 -50,60 -66,97 -16,37 -24,75 -24,115l0 878c0,15 8,23 23,23l259 0c15,0 23,-8 23,-23l0 -797c0,-9 2,-20 7,-31 5,-12 11,-22 20,-32 8,-10 18,-19 29,-27 11,-8 23,-12 37,-12l222 0c15,0 23,-8 23,-23l0 -236c0,-15 -8,-23 -23,-23l-314 0zm778 314c0,-14 7,-27 22,-39 15,-12 30,-19 47,-19l224 0c32,0 62,3 90,8 28,5 52,15 73,29 21,14 37,33 48,58 12,25 17,56 17,95l0 734c0,15 8,23 23,23l233 0c17,0 25,-8 25,-23l0 -783c0,-51 -10,-100 -30,-148 -20,-48 -48,-90 -84,-127 -36,-37 -78,-67 -126,-89 -48,-22 -99,-33 -155,-33l-522 0c-49,0 -90,16 -121,47 -32,32 -47,67 -47,105l0 958c0,25 5,46 15,65 10,18 26,28 47,28l155 0c43,0 65,-25 65,-74l0 -815zm1067 -291l0 236c0,15 8,23 23,23l607 0c25,0 45,11 60,32 15,22 23,43 23,65 0,26 -12,49 -36,68 -24,19 -56,29 -96,29l-385 0c-46,0 -85,13 -118,39 -32,26 -59,58 -79,96 -20,38 -35,79 -44,124 -9,45 -14,85 -14,122 0,20 3,49 9,88 6,39 17,77 33,115 16,39 39,72 68,100 29,28 67,43 113,43l805 0c15,0 23,-8 23,-23l0 -762c0,-49 -6,-99 -17,-148 -12,-49 -30,-94 -55,-134 -25,-40 -58,-73 -99,-98 -41,-25 -90,-38 -149,-38l-651 0c-15,0 -23,8 -23,23zm293 910c-28,0 -49,-10 -65,-30 -15,-20 -23,-43 -23,-69 0,-22 7,-41 21,-59 14,-18 32,-27 53,-27l411 0c15,0 23,8 23,23l0 139c0,15 -8,23 -23,23l-397 0zm1314 -628c0,-15 8,-23 23,-23l189 0c15,0 23,-8 23,-23l0 -236c0,-15 -8,-23 -23,-23l-189 0c-15,0 -23,-8 -23,-23l0 -289c0,-15 -8,-23 -23,-23l-235 0c-15,0 -23,8 -23,23l0 289c0,15 -8,23 -23,23l-122 0c-15,0 -23,8 -23,23l0 236c0,15 8,23 23,23l122 0c15,0 23,8 23,23l0 720c0,48 19,89 58,125 39,35 87,53 145,53l291 0c15,0 23,-8 23,-23l0 -236c0,-14 -6,-22 -19,-23l-194 0c-15,0 -23,-8 -23,-23l0 -593zm425 875c0,15 8,23 23,23l235 0c15,0 23,-8 23,-23l0 -1157c0,-15 -8,-23 -23,-23l-235 0c-15,0 -23,8 -23,23l0 1157zm0 -1609l0 236c0,15 8,23 23,23l235 0c15,0 23,-8 23,-23l0 -236c0,-15 -8,-23 -23,-23l-235 0c-15,0 -23,8 -23,23zm1660 776c0,-55 -10,-104 -31,-147 -21,-42 -48,-79 -81,-108 -33,-30 -71,-53 -113,-68 -42,-15 -84,-23 -126,-23l-466 0c-49,0 -96,8 -140,25 -44,17 -82,41 -114,73 -32,32 -58,70 -77,114 -19,45 -29,95 -29,150l0 406c0,54 5,107 16,158 11,52 30,98 58,139 28,41 65,74 111,99 46,25 105,38 175,38l411 0c71,0 132,-7 182,-21 51,-14 93,-39 126,-74 33,-35 58,-83 74,-143 16,-60 24,-136 24,-229l0 -390zm-284 252l0 185c0,40 -20,73 -61,99 -41,26 -89,39 -144,39l-212 0c-20,0 -42,-2 -65,-6 -23,-4 -45,-12 -65,-23 -20,-12 -37,-27 -50,-47 -13,-20 -20,-45 -20,-76l0 -369c0,-22 5,-40 16,-55 11,-15 24,-28 40,-37 16,-9 34,-16 54,-20 20,-4 40,-6 60,-6l252 0c23,0 46,2 69,7 23,5 44,12 62,22 19,10 33,22 45,37 11,15 17,31 17,50l0 201zm769 -284c0,-14 7,-27 22,-39 15,-12 30,-19 47,-19l224 0c32,0 62,3 90,8 28,5 52,15 73,29 21,14 37,33 48,58 12,25 17,56 17,95l0 734c0,15 8,23 23,23l233 0c17,0 25,-8 25,-23l0 -783c0,-51 -10,-100 -30,-148 -20,-48 -48,-90 -84,-127 -36,-37 -78,-67 -126,-89 -48,-22 -99,-33 -155,-33l-522 0c-49,0 -90,16 -121,47 -32,32 -47,67 -47,105l0 958c0,25 5,46 15,65 10,18 26,28 47,28l155 0c43,0 65,-25 65,-74l0 -815zm1067 -291l0 236c0,15 8,23 23,23l607 0c25,0 45,11 60,32 15,22 23,43 23,65 0,26 -12,49 -36,68 -24,19 -56,29 -96,29l-385 0c-46,0 -85,13 -118,39 -32,26 -58,58 -78,96 -20,38 -35,79 -44,124 -9,45 -14,85 -14,122 0,20 3,49 9,88 6,39 17,77 33,115 16,39 39,72 68,100 29,28 67,43 113,43l805 0c15,0 23,-8 23,-23l0 -762c0,-49 -6,-99 -17,-148 -12,-49 -30,-94 -55,-134 -25,-40 -58,-73 -99,-98 -41,-25 -90,-38 -149,-38l-651 0c-15,0 -23,8 -23,23zm293 910c-28,0 -49,-10 -65,-30 -15,-20 -23,-43 -23,-69 0,-22 7,-41 21,-59 14,-18 32,-27 53,-27l411 0c15,0 23,8 23,23l0 139c0,15 -8,23 -23,23l-397 0zm921 -1362l0 1369 0 5 0 236c0,15 8,23 23,23l235 0c15,0 23,-8 23,-23l0 -236 0 -5 0 -1369c0,-15 -8,-23 -23,-23l-235 0c-15,0 -23,8 -23,23zm-17480 3267c0,91 1,169 2,236 2,66 6,120 14,162 12,60 25,114 39,162 14,48 32,87 55,118 31,40 69,75 115,105 46,30 95,51 148,64 37,8 85,12 145,14 60,2 132,2 215,2 83,0 155,-1 215,-2 60,-2 109,-6 145,-14 52,-12 102,-33 148,-64 46,-30 85,-65 115,-105 23,-31 42,-70 55,-118 14,-48 27,-102 39,-162 8,-42 12,-95 14,-162 2,-66 2,-145 2,-236l0 -14c0,-91 -1,-169 -2,-236 -2,-66 -6,-120 -14,-162 -12,-60 -25,-114 -39,-162 -14,-48 -32,-87 -55,-118 -31,-40 -69,-75 -115,-105 -46,-30 -95,-51 -148,-64 -37,-8 -85,-12 -145,-14 -60,-2 -131,-2 -215,-2 -83,0 -155,1 -215,2 -60,2 -108,6 -145,14 -52,12 -102,33 -148,64 -46,30 -85,65 -115,105 -23,31 -42,70 -55,118 -14,48 -27,102 -39,162 -8,42 -12,95 -14,162 -2,66 -2,145 -2,236l0 14zm734 -556c48,0 93,1 136,3 43,2 80,7 111,15 55,14 95,41 118,82 23,41 35,102 35,184l0 531c0,82 -12,143 -35,184 -23,41 -62,68 -118,82 -31,8 -68,13 -111,15 -43,2 -88,3 -136,3 -48,0 -93,-1 -136,-3 -43,-2 -80,-7 -111,-15 -55,-14 -95,-41 -118,-82 -23,-41 -35,-102 -35,-184l0 -531c0,-82 12,-143 35,-184 23,-41 62,-68 118,-82 31,-8 68,-13 111,-15 43,-2 89,-3 136,-3zm947 -261l0 1369 0 5 0 236c0,15 8,23 23,23l235 0c15,0 23,-8 23,-23l0 -236 0 -5 0 -1369c0,-15 -8,-23 -23,-23l-235 0c-15,0 -23,8 -23,23zm1042 2081c20,0 32,-6 37,-18l616 -1607c2,-3 2,-6 2,-9 0,-11 -8,-16 -23,-16l-277 0c-14,0 -22,5 -25,14l-293 774c-2,5 -4,12 -8,22 -4,10 -8,20 -13,30 -5,10 -10,19 -16,27 -6,8 -12,12 -18,12 -6,0 -12,-4 -19,-13 -6,-8 -12,-18 -17,-28 -5,-10 -10,-20 -13,-30 -3,-10 -5,-17 -7,-22l-245 -769c-5,-11 -14,-16 -28,-16l-268 0c-11,0 -16,5 -16,16 0,5 1,8 2,9l374 1101c8,23 19,40 33,50 15,10 29,17 43,20 14,3 26,5 37,5 11,0 16,2 16,5l0 2 -162 427 0 7c0,6 4,9 12,9l275 0zm818 -471c0,15 8,23 23,23l235 0c15,0 23,-8 23,-23l0 -854c0,-18 6,-35 17,-48 12,-14 26,-21 43,-21l212 0c35,0 68,13 98,38 30,25 45,53 45,84l0 801c0,15 8,23 23,23l235 0c15,0 23,-8 23,-23l0 -801c0,-40 13,-70 40,-91 27,-21 54,-31 82,-31l152 0c17,0 35,4 54,10 19,7 37,17 53,31 16,14 30,30 40,50 11,19 16,41 16,66l0 767c0,15 8,23 25,23l233 0c15,0 23,-8 23,-23l0 -797c0,-43 -10,-87 -31,-133 -21,-45 -50,-87 -88,-124 -38,-37 -83,-67 -135,-91 -52,-24 -110,-36 -173,-36l-164 0c-9,0 -30,1 -61,3 -31,2 -63,12 -93,29 -17,8 -31,17 -43,28 -11,11 -21,21 -29,30 -8,9 -14,17 -20,22 -5,5 -10,8 -13,8 -3,0 -10,-5 -20,-15 -10,-10 -19,-19 -27,-27 -15,-15 -40,-32 -74,-51 -34,-18 -71,-28 -111,-28l-478 0c-34,0 -66,13 -96,40 -30,27 -45,60 -45,98l0 1041zm2200 46c0,-15 8,-23 23,-23l242 0c77,0 147,-12 211,-37 64,-25 119,-62 164,-113 45,-51 81,-115 106,-194 25,-79 38,-172 38,-282 0,-74 -8,-145 -23,-215 -15,-69 -41,-131 -77,-185 -36,-54 -85,-97 -145,-129 -61,-32 -137,-48 -227,-48l-570 0c-15,0 -23,8 -23,23l0 1591c0,15 8,23 23,23l235 0c15,0 23,-8 23,-23l0 -388zm0 -921c0,-15 8,-23 23,-23l305 0c23,0 46,7 68,22 22,15 42,33 60,54 18,22 32,46 44,74 12,28 17,54 17,79l0 178c0,26 -6,53 -17,81 -12,28 -26,53 -44,75 -18,22 -38,41 -60,55 -22,15 -45,22 -68,22l-305 0c-15,0 -23,-8 -23,-23l0 -593zm947 875c0,15 8,23 23,23l235 0c15,0 23,-8 23,-23l0 -1157c0,-15 -8,-23 -23,-23l-235 0c-15,0 -23,8 -23,23l0 1157zm0 -1609l0 236c0,15 8,23 23,23l235 0c15,0 23,-8 23,-23l0 -236c0,-15 -8,-23 -23,-23l-235 0c-15,0 -23,8 -23,23zm555 453l0 236c0,15 8,23 23,23l607 0c25,0 45,11 60,32 15,22 23,43 23,65 0,26 -12,49 -36,68 -24,19 -56,29 -96,29l-385 0c-46,0 -85,13 -118,39 -32,26 -58,58 -78,96 -20,38 -35,79 -44,124 -9,45 -14,85 -14,122 0,20 3,49 9,88 6,39 17,77 33,115 16,39 39,72 68,100 29,28 67,43 113,43l805 0c15,0 23,-8 23,-23l0 -762c0,-49 -6,-99 -17,-148 -12,-49 -30,-94 -55,-134 -25,-40 -59,-73 -99,-98 -41,-25 -90,-38 -149,-38l-651 0c-15,0 -23,8 -23,23zm293 910c-28,0 -49,-10 -65,-30 -15,-20 -23,-43 -23,-69 0,-22 7,-41 21,-59 14,-18 32,-27 53,-27l411 0c15,0 23,8 23,23l0 139c0,15 -8,23 -23,23l-397 0zm1736 -956l0 -406c0,-15 8,-23 23,-23l235 0c15,0 23,8 23,23l0 1609c0,15 -8,23 -23,23l-718 0c-74,0 -137,-19 -189,-57 -52,-38 -95,-86 -129,-144 -34,-59 -59,-122 -75,-192 -16,-69 -24,-136 -24,-201 0,-91 8,-174 24,-249 16,-75 41,-140 75,-193 34,-53 77,-94 129,-124 52,-29 115,-44 189,-44l436 0c15,0 23,-8 23,-23zm0 328c0,-15 -8,-23 -23,-23l-252 0c-48,0 -91,4 -130,13 -39,8 -73,25 -102,48 -28,24 -50,57 -66,100 -15,43 -23,99 -23,166 0,63 8,115 23,155 15,40 37,72 65,95 28,23 61,39 100,48 39,9 83,14 133,14l252 0c15,0 23,-8 23,-23l0 -593zm1159 875c0,15 8,23 23,23l235 0c15,0 23,-8 23,-23l0 -1157c0,-15 -8,-23 -23,-23l-235 0c-15,0 -23,8 -23,23l0 1157zm0 -1609l0 236c0,15 8,23 23,23l235 0c15,0 23,-8 23,-23l0 -236c0,-15 -8,-23 -23,-23l-235 0c-15,0 -23,8 -23,23zm792 744c0,-14 7,-27 22,-39 15,-12 30,-19 47,-19l224 0c32,0 62,3 90,8 28,5 52,15 73,29 21,14 37,33 48,58 12,25 17,56 17,95l0 734c0,15 8,23 23,23l233 0c17,0 25,-8 25,-23l0 -783c0,-51 -10,-100 -30,-148 -20,-48 -48,-90 -84,-127 -36,-37 -78,-67 -126,-89 -48,-22 -99,-33 -155,-33l-522 0c-49,0 -90,16 -121,47 -32,32 -47,67 -47,105l0 958c0,25 5,46 15,65 10,18 26,28 47,28l155 0c43,0 65,-25 65,-74l0 -815zm1674 -744l0 1609c0,15 8,23 23,23l288 0c15,0 23,-8 23,-23l0 -1609c0,-15 -8,-23 -23,-23l-288 0c-15,0 -23,8 -23,23z"/>
     <path class="fil0" d="M32482 4875c0,-14 7,-27 22,-39 15,-12 30,-19 47,-19l224 0c32,0 62,3 90,8 28,5 52,15 73,29 21,14 37,33 48,58 12,25 17,56 17,95l0 734c0,15 8,23 23,23l233 0c17,0 25,-8 25,-23l0 -783c0,-51 -10,-100 -30,-148 -20,-48 -48,-90 -84,-127 -36,-37 -78,-67 -126,-89 -48,-22 -99,-33 -155,-33l-522 0c-49,0 -90,16 -121,47 -32,32 -47,67 -47,105l0 958c0,25 5,46 15,65 10,18 26,28 47,28l155 0c43,0 65,-25 65,-74l0 -815zm1420 -337c0,15 8,23 23,23l189 0c15,0 23,8 23,23l0 236c0,15 -8,23 -23,23l-189 0c-15,0 -23,8 -23,23l0 875c0,15 -8,23 -23,23l-235 0c-15,0 -23,-8 -23,-23l0 -875c0,-15 -8,-23 -23,-23l-122 0c-15,0 -23,-8 -23,-23l0 -236c0,-15 8,-23 23,-23l122 0c15,0 23,-8 23,-23l0 -145c0,-34 8,-68 24,-103 16,-35 37,-65 62,-91 25,-26 54,-48 85,-65 32,-17 63,-25 93,-25l330 0c15,0 23,8 23,23l0 236c0,15 -6,23 -18,23l-226 0c-8,0 -17,3 -28,10 -11,7 -21,15 -30,25 -9,10 -17,21 -24,32 -7,12 -10,22 -10,31l0 49zm1593 369c0,-55 -10,-104 -31,-147 -21,-42 -48,-79 -81,-108 -33,-30 -71,-53 -113,-68 -42,-15 -84,-23 -126,-23l-466 0c-49,0 -96,8 -140,25 -44,17 -82,41 -114,73 -32,32 -58,70 -77,114 -19,45 -29,95 -29,150l0 406c0,54 5,107 16,158 11,52 30,98 58,139 28,41 65,74 111,99 46,25 105,38 175,38l411 0c71,0 132,-7 182,-21 51,-14 93,-39 126,-74 33,-35 58,-83 74,-143 16,-60 24,-136 24,-229l0 -390zm-284 252l0 185c0,40 -20,73 -61,99 -41,26 -89,39 -144,39l-212 0c-20,0 -42,-2 -65,-6 -23,-4 -45,-12 -65,-23 -20,-12 -37,-27 -50,-47 -13,-20 -20,-45 -20,-76l0 -369c0,-22 5,-40 16,-55 11,-15 24,-28 40,-37 16,-9 34,-16 54,-20 20,-4 40,-6 60,-6l252 0c23,0 46,2 69,7 23,5 44,12 62,22 18,10 33,22 45,37 11,15 17,31 17,50l0 201zm785 -598c-42,0 -81,8 -118,24 -37,16 -69,38 -97,66 -28,28 -50,60 -66,97 -16,37 -24,75 -24,115l0 877c0,15 8,23 23,23l259 0c15,0 23,-8 23,-23l0 -797c0,-9 2,-20 7,-31 5,-12 11,-22 20,-32 8,-10 18,-19 29,-27 11,-8 23,-12 37,-12l222 0c15,0 23,-8 23,-23l0 -236c0,-15 -8,-23 -23,-23l-314 0zm497 1180c0,15 8,23 23,23l235 0c15,0 23,-8 23,-23l0 -854c0,-18 6,-35 17,-48 12,-14 26,-21 43,-21l212 0c35,0 68,13 98,38 30,25 45,53 45,84l0 801c0,15 8,23 23,23l235 0c15,0 23,-8 23,-23l0 -801c0,-40 13,-70 40,-91 27,-21 54,-31 82,-31l152 0c17,0 35,4 54,10 19,7 37,17 53,31 16,14 30,30 40,50 11,19 16,41 16,66l0 767c0,15 8,23 25,23l233 0c15,0 23,-8 23,-23l0 -797c0,-43 -10,-87 -31,-133 -21,-45 -50,-87 -88,-124 -38,-37 -83,-67 -135,-91 -52,-24 -110,-36 -173,-36l-164 0c-9,0 -30,1 -61,3 -32,2 -63,12 -93,29 -17,8 -31,17 -43,28 -12,11 -21,21 -29,30 -8,9 -14,17 -20,22 -5,5 -10,8 -13,8 -3,0 -10,-5 -20,-15 -10,-10 -19,-19 -27,-27 -15,-15 -40,-32 -74,-51 -34,-18 -71,-28 -111,-28l-478 0c-34,0 -66,13 -96,40 -30,27 -45,60 -45,98l0 1041zm1962 -1157l0 236c0,15 8,23 23,23l607 0c25,0 45,11 60,32 15,22 23,43 23,65 0,26 -12,49 -36,68 -24,19 -56,29 -96,29l-385 0c-46,0 -85,13 -118,39 -32,26 -58,58 -78,96 -20,38 -35,79 -44,124 -9,45 -14,85 -14,122 0,20 3,49 9,88 6,39 17,77 33,115 16,39 39,72 68,100 29,28 67,43 113,43l805 0c15,0 23,-8 23,-23l0 -762c0,-49 -6,-99 -17,-148 -12,-49 -30,-94 -55,-134 -25,-40 -59,-73 -99,-98 -41,-25 -90,-38 -149,-38l-651 0c-15,0 -23,8 -23,23zm293 910c-28,0 -49,-10 -65,-30 -15,-20 -23,-43 -23,-69 0,-22 7,-41 21,-59 14,-18 31,-27 53,-27l411 0c15,0 23,8 23,23l0 139c0,15 -8,23 -23,23l-397 0zm1314 -628c0,-15 8,-23 23,-23l189 0c15,0 23,-8 23,-23l0 -236c0,-15 -8,-23 -23,-23l-189 0c-15,0 -23,-8 -23,-23l0 -289c0,-15 -8,-23 -23,-23l-235 0c-15,0 -23,8 -23,23l0 289c0,15 -8,23 -23,23l-122 0c-15,0 -23,8 -23,23l0 236c0,15 8,23 23,23l122 0c15,0 23,8 23,23l0 720c0,48 19,89 58,125 38,35 87,53 145,53l291 0c15,0 23,-8 23,-23l0 -236c0,-14 -6,-22 -18,-23l-194 0c-15,0 -23,-8 -23,-23l0 -593zm425 875c0,15 8,23 23,23l235 0c15,0 23,-8 23,-23l0 -1157c0,-15 -8,-23 -23,-23l-235 0c-15,0 -23,8 -23,23l0 1157zm0 -1609l0 236c0,15 8,23 23,23l235 0c15,0 23,-8 23,-23l0 -236c0,-15 -8,-23 -23,-23l-235 0c-15,0 -23,8 -23,23zm1021 1351c-92,0 -160,-24 -202,-73 -42,-49 -64,-111 -64,-188l0 -99c0,-79 22,-145 66,-199 44,-54 110,-81 200,-81l436 0c15,0 23,-8 23,-23l0 -236c0,-15 -8,-23 -23,-23l-390 0c-102,0 -189,12 -263,36 -74,24 -134,58 -181,102 -47,44 -82,97 -104,159 -22,62 -33,133 -33,211l0 194c0,59 12,117 37,177 25,59 60,113 106,162 46,48 102,88 169,118 66,30 142,45 226,45l434 0c15,0 23,-8 23,-23l0 -236c0,-15 -8,-23 -23,-23l-436 0zm675 23l0 236c0,15 8,23 23,23l755 0c52,0 95,-13 128,-39 33,-26 59,-57 77,-94 19,-36 31,-73 38,-111 7,-38 10,-68 10,-91 0,-80 -7,-147 -20,-200 -13,-53 -33,-95 -60,-126 -27,-31 -62,-53 -105,-66 -43,-13 -95,-20 -155,-20l-337 0c-23,0 -40,-10 -52,-30 -12,-20 -17,-40 -17,-60 0,-22 5,-41 16,-59 11,-18 28,-27 53,-27l605 0c15,0 23,-8 23,-23l0 -236c0,-15 -8,-23 -23,-23l-498 0c-79,0 -146,5 -202,14 -56,9 -102,27 -138,53 -36,26 -63,63 -81,111 -18,48 -26,110 -26,187 0,52 5,100 16,144 11,44 28,82 51,113 23,32 54,56 92,74 39,18 85,27 141,27l362 0c31,0 51,10 61,30 10,20 15,40 15,60 0,11 -1,23 -2,36 -2,13 -6,25 -13,36 -7,11 -17,20 -29,27 -12,7 -29,10 -51,10l-635 0c-15,0 -23,8 -23,23z"/>
    </g>
    <path class="fil0" d="M22034 2198c0,-11 6,-16 16,-16l135 0c11,0 16,-6 16,-16l0 -168c0,-11 -6,-16 -16,-16l-135 0c-11,0 -16,-6 -16,-16l0 -205c0,-11 -5,-16 -16,-16l-168 0c-11,0 -16,6 -16,16l0 205c0,11 -5,16 -16,16l-87 0c-11,0 -16,5 -16,16l0 168c0,11 5,16 16,16l87 0c11,0 16,5 16,16l0 513c0,34 14,64 41,89 27,25 62,38 103,38l207 0c11,0 16,-6 16,-16l0 -168c0,-10 -4,-15 -13,-16l-138 0c-11,0 -16,-6 -16,-16l0 -422zm856 120l0 503c0,11 6,16 16,16l168 0c11,0 16,-6 16,-16l0 -596c0,-33 -8,-64 -23,-94 -15,-30 -35,-56 -60,-78 -25,-22 -53,-40 -85,-53 -32,-13 -65,-19 -99,-19l-286 0 0 -306c0,-11 -6,-16 -16,-16l-168 0c-11,0 -16,6 -16,16l0 974 0 3 0 168c0,11 6,16 16,16l168 0c11,0 16,-6 16,-16l0 -567c0,-15 5,-28 15,-38 10,-10 22,-17 37,-22 15,-5 31,-8 50,-10 19,-2 37,-2 56,-2 55,0 101,11 139,32 38,21 57,56 57,104z"/>
    <g>
     <path class="fil1" d="M18741 6921l0 1675c0,16 8,24 24,24l300 0c16,0 24,-8 24,-24l0 -1675c0,-16 -8,-24 -24,-24l-300 0c-16,0 -24,8 -24,24zm548 1675c0,16 8,24 24,24l300 0c16,0 24,-8 24,-24l0 -1348c0,-14 6,-22 17,-22 10,0 17,7 22,22l324 1194c6,22 17,44 31,65 14,21 31,40 50,56 19,17 40,30 61,41 22,10 42,16 61,16l221 0c34,0 65,-8 95,-25 30,-17 55,-39 77,-66 22,-27 39,-57 52,-89 13,-32 19,-64 19,-96l0 -1422c0,-16 -8,-24 -24,-24l-300 0c-16,0 -24,8 -24,24l0 1343c0,16 -6,24 -17,24 -11,0 -19,-8 -24,-24l-322 -1187c-16,-56 -47,-100 -93,-132 -46,-32 -119,-48 -220,-48 -69,0 -126,7 -172,20 -46,14 -82,34 -109,62 -27,28 -46,64 -58,109 -11,45 -17,99 -17,161l0 1345zm1600 24l822 0c91,0 170,-16 235,-49 66,-33 120,-76 163,-129 43,-53 75,-112 95,-177 20,-65 30,-129 30,-191l0 -577c0,-74 -10,-147 -30,-219 -20,-72 -52,-136 -95,-192 -43,-56 -98,-102 -165,-137 -66,-35 -145,-53 -237,-53l-819 0c-16,0 -24,8 -24,24l0 1675c0,16 8,24 24,24zm324 -1386c0,-16 8,-24 24,-24l411 0c29,0 57,7 85,20 28,14 53,31 76,53 22,22 41,46 55,74 14,28 22,56 22,85l0 639c0,27 -6,54 -19,80 -13,26 -30,50 -50,72 -21,22 -44,39 -71,53 -26,14 -52,20 -78,20l-430 0c-16,0 -24,-8 -24,-24l0 -1050zm1194 538c0,95 1,176 2,245 2,69 6,125 14,168 13,62 26,119 41,168 14,50 34,90 58,123 32,42 72,78 120,109 48,31 99,53 154,66 38,8 89,13 151,14 62,2 137,2 223,2 86,0 161,-1 223,-2 62,-2 113,-6 151,-14 54,-13 106,-35 154,-66 48,-31 88,-68 120,-109 24,-32 43,-73 58,-123 14,-50 28,-106 41,-168 8,-43 13,-99 14,-168 2,-69 2,-151 2,-245l0 -14c0,-95 -1,-176 -2,-245 -2,-69 -6,-125 -14,-168 -13,-62 -26,-119 -41,-168 -14,-50 -34,-90 -58,-123 -32,-42 -72,-78 -120,-109 -48,-31 -99,-53 -154,-66 -38,-8 -89,-13 -151,-14 -62,-2 -137,-2 -223,-2 -87,0 -161,1 -223,2 -62,2 -113,6 -151,14 -54,13 -106,35 -154,66 -48,31 -88,68 -120,109 -24,32 -43,73 -58,123 -14,50 -28,106 -41,168 -8,43 -13,99 -14,168 -2,69 -2,151 -2,245l0 14zm764 -579c50,0 97,1 142,4 45,2 83,8 115,16 58,14 99,43 123,85 24,42 36,106 36,191l0 553c0,85 -12,149 -36,191 -24,42 -65,71 -123,85 -32,8 -70,13 -115,16 -45,2 -92,4 -142,4 -50,0 -97,-1 -142,-4 -45,-2 -83,-8 -115,-16 -58,-14 -99,-43 -123,-85 -24,-42 -36,-106 -36,-191l0 -553c0,-85 12,-149 36,-191 24,-42 65,-71 123,-85 32,-8 70,-13 115,-16 45,-2 92,-4 142,-4zm947 1403c0,16 8,24 24,24l300 0c16,0 24,-8 24,-24l0 -1348c0,-14 6,-22 17,-22 10,0 17,7 22,22l324 1194c6,22 17,44 31,65 14,21 31,40 50,56 19,17 40,30 61,41 22,10 42,16 61,16l221 0c34,0 65,-8 95,-25 30,-17 55,-39 77,-66 22,-27 39,-57 52,-89 13,-32 19,-64 19,-96l0 -1422c0,-16 -8,-24 -24,-24l-300 0c-16,0 -24,8 -24,24l0 1343c0,16 -6,24 -17,24 -11,0 -19,-8 -24,-24l-322 -1187c-16,-56 -47,-100 -93,-132 -46,-32 -119,-48 -220,-48 -69,0 -126,7 -172,20 -46,14 -82,34 -109,62 -27,28 -46,64 -58,109 -11,45 -17,99 -17,161l0 1345zm1574 -228c0,30 7,60 20,90 14,30 32,56 54,80 22,24 48,44 77,59 29,15 58,23 86,23l930 0c16,0 24,-8 24,-24l0 -264c0,-16 -8,-24 -24,-24l-795 0c-16,0 -24,-8 -24,-24l0 -348c0,-16 8,-24 24,-24l738 0c16,0 24,-8 24,-24l0 -276c0,-16 -8,-24 -24,-24l-738 0c-16,0 -24,-8 -24,-24l0 -327c0,-18 8,-26 24,-26l795 0c16,0 24,-8 24,-24l0 -264c0,-16 -10,-24 -31,-24l-814 0c-112,0 -198,34 -257,102 -59,68 -89,157 -89,265l0 1103zm2109 -464c40,0 75,4 105,11 30,7 52,20 68,37 19,22 30,48 34,76 3,28 5,55 5,80 0,18 -1,34 -2,50 -2,16 -6,33 -14,50 -8,19 -21,40 -38,64 -18,23 -38,35 -62,35l-774 0c-16,0 -24,8 -24,24l0 264c0,16 8,24 24,24l875 0c35,0 72,-11 112,-32 39,-22 72,-44 100,-66 90,-78 141,-191 154,-336 3,-13 5,-26 5,-41 0,-16 0,-33 0,-50 0,-37 -2,-75 -7,-115 -5,-40 -13,-78 -25,-115 -12,-37 -27,-71 -46,-103 -18,-32 -41,-59 -68,-82 -46,-38 -97,-64 -151,-78 -54,-14 -107,-20 -156,-20l-269 0c-37,0 -71,-2 -102,-5 -31,-3 -56,-14 -73,-31 -19,-21 -30,-45 -34,-72 -3,-27 -5,-54 -5,-79 0,-16 1,-32 2,-48 2,-16 6,-32 14,-48 8,-18 21,-36 40,-56 18,-20 39,-30 61,-30l694 0c16,0 24,-8 24,-24l0 -264c0,-16 -8,-24 -24,-24l-795 0c-38,0 -78,10 -118,31 -40,21 -74,42 -101,65 -93,77 -145,185 -156,324 -3,14 -5,29 -5,43 0,14 0,30 0,46 0,37 3,74 8,112 6,38 14,74 26,111 12,36 27,70 46,101 18,31 41,58 68,80 46,37 98,62 155,74 57,13 110,19 160,19l271 0zm742 -983l0 1675c0,16 8,24 24,24l300 0c16,0 24,-8 24,-24l0 -1675c0,-16 -8,-24 -24,-24l-300 0c-16,0 -24,8 -24,24zm502 1684c0,10 6,14 19,14l312 0c16,0 26,-8 31,-24l127 -411c5,-18 15,-26 31,-26l565 0c16,0 26,8 31,24l127 416c5,14 15,22 31,22l315 0c11,0 17,-5 17,-14l-483 -1566c-19,-62 -55,-102 -107,-118 -52,-16 -124,-24 -215,-24 -88,0 -158,8 -209,24 -51,16 -86,55 -106,118l-488 1566zm999 -805c0,3 0,6 1,7 1,2 1,3 1,5 0,11 -6,17 -19,17l-358 0c-13,0 -19,-6 -19,-17 0,-2 0,-3 1,-5 1,-2 1,-4 1,-7l168 -548c10,-29 18,-43 26,-43 8,0 14,3 17,8 3,6 7,17 12,35l168 548z"/>
     <path class="fil2" d="M32604 8320l-733 0c-16,0 -24,-8 -24,-24l0 -185c0,-29 10,-53 31,-72 21,-19 48,-36 83,-52 34,-15 74,-30 120,-44 46,-14 93,-30 143,-48 87,-30 158,-59 214,-85 56,-26 101,-58 133,-95 33,-37 56,-82 68,-136 13,-54 19,-124 19,-210 0,-50 -9,-102 -28,-157 -18,-55 -47,-106 -85,-153 -38,-46 -88,-85 -149,-115 -61,-30 -134,-46 -219,-46l-632 0c-16,0 -24,8 -24,24l0 252c0,16 8,24 24,24l632 0c30,0 56,6 76,19 20,13 36,28 48,47 12,18 20,37 24,56 4,19 6,35 6,48 0,42 -12,77 -36,106 -24,29 -55,54 -93,76 -38,22 -80,40 -127,56 -47,16 -95,31 -142,44 -47,14 -92,28 -133,42 -42,14 -76,30 -103,48 -29,19 -57,40 -84,62 -27,22 -51,49 -72,80 -21,31 -38,69 -50,113 -13,44 -19,98 -19,162l0 437c0,16 8,24 24,24l1108 0c16,0 24,-8 24,-24l0 -252c0,-16 -8,-24 -24,-24zm233 -288l0 -764c0,-120 34,-212 102,-275 68,-63 162,-95 282,-95l533 0c117,0 211,32 281,95 70,63 106,155 106,275l0 894c0,85 -9,157 -28,215 -18,58 -44,106 -78,142 -34,36 -74,62 -123,78 -48,16 -102,24 -161,24l-483 0c-74,0 -137,-8 -191,-24 -54,-16 -99,-42 -135,-78 -36,-36 -63,-83 -80,-142 -18,-58 -26,-130 -26,-215l0 -130zm514 288l274 0c78,0 131,-16 156,-47 26,-31 38,-79 38,-143l0 -745c0,-22 -4,-45 -11,-67 -7,-22 -19,-42 -35,-60 -16,-18 -36,-32 -60,-43 -24,-11 -54,-17 -89,-17l-274 0c-56,0 -102,14 -137,43 -35,29 -53,77 -53,144l0 745c0,64 14,112 42,143 28,31 76,47 145,47l2 0zm2107 0l-733 0c-16,0 -24,-8 -24,-24l0 -185c0,-29 10,-53 31,-72 21,-19 48,-36 83,-52 34,-15 74,-30 120,-44 46,-14 93,-30 143,-48 87,-30 158,-59 214,-85 56,-26 101,-58 133,-95 33,-37 56,-82 68,-136 13,-54 19,-124 19,-210 0,-50 -9,-102 -28,-157 -18,-55 -47,-106 -85,-153 -38,-46 -88,-85 -149,-115 -61,-30 -134,-46 -219,-46l-632 0c-16,0 -24,8 -24,24l0 252c0,16 8,24 24,24l632 0c30,0 56,6 76,19 20,13 36,28 48,47 12,18 20,37 24,56 4,19 6,35 6,48 0,42 -12,77 -36,106 -24,29 -55,54 -93,76 -38,22 -80,40 -127,56 -47,16 -95,31 -142,44 -47,14 -92,28 -133,42 -42,14 -76,30 -103,48 -29,19 -57,40 -84,62 -27,22 -51,49 -72,80 -21,31 -38,69 -50,113 -13,44 -19,98 -19,162l0 437c0,16 8,24 24,24l1108 0c16,0 24,-8 24,-24l0 -252c0,-16 -8,-24 -24,-24zm1362 0l-733 0c-16,0 -24,-8 -24,-24l0 -185c0,-29 10,-53 31,-72 21,-19 48,-36 83,-52 34,-15 74,-30 120,-44 46,-14 93,-30 143,-48 86,-30 158,-59 214,-85 56,-26 101,-58 133,-95 33,-37 56,-82 68,-136 13,-54 19,-124 19,-210 0,-50 -9,-102 -28,-157 -18,-55 -47,-106 -85,-153 -38,-46 -88,-85 -149,-115 -61,-30 -134,-46 -219,-46l-632 0c-16,0 -24,8 -24,24l0 252c0,16 8,24 24,24l632 0c30,0 56,6 76,19 20,13 36,28 48,47 12,18 20,37 24,56 4,19 6,35 6,48 0,42 -12,77 -36,106 -24,29 -55,54 -93,76 -38,22 -80,40 -127,56 -47,16 -95,31 -142,44 -47,14 -92,28 -133,42 -42,14 -76,30 -103,48 -29,19 -57,40 -84,62 -27,22 -51,49 -72,80 -21,31 -38,69 -50,113 -13,44 -19,98 -19,162l0 437c0,16 8,24 24,24l1108 0c16,0 24,-8 24,-24l0 -252c0,-16 -8,-24 -24,-24z"/>
    </g>
   </g>
   <g>
    <path class="fil3" d="M15286 4346c-10,41 -3,80 19,116 22,36 54,58 95,68 41,10 80,3 116,-19 36,-22 58,-54 68,-95 10,-41 3,-80 -19,-116 -22,-36 -54,-58 -95,-68 -41,-10 -80,-3 -116,19 -36,22 -58,54 -68,95zm1960 4315c-10,2 -9,4 -19,6 -27,4 -408,1 -460,0 -23,0 -23,-4 -44,-1 -36,5 -402,1 -478,1 -15,0 -34,-3 -43,-2 -26,1 -61,2 -92,2l-1919 0c-41,0 -108,4 -147,-1 -19,-2 -19,1 -40,1 -560,2 -1120,1 -1680,0l-201 -252c-14,-17 -40,-45 -46,-66 14,-10 41,-26 50,-39 -30,-45 -70,-88 -104,-130l-145 -182c3,-3 5,-8 5,-18 1,-25 10,-78 -22,-86l0 -74c1,-1 3,-2 4,-3l330 0c3,0 6,0 11,-2 1,0 6,-2 7,-3 6,-3 8,-3 12,-10 0,-1 1,-2 1,-4 31,31 62,62 93,93 14,14 16,19 28,33 69,83 167,158 239,240 65,74 137,142 206,212 25,25 97,112 123,120l43 -46 -54 -63c-18,-21 -39,-39 -58,-59 -67,-67 -136,-133 -198,-203 -40,-45 -110,-98 -142,-145l46 -43c-44,-65 -185,-192 -267,-279 9,-11 7,-29 7,-48l15 -10c9,-6 9,-2 14,-11 11,-24 -6,-74 5,-100 4,-10 7,-13 16,-18 11,-7 22,-7 41,-6 34,2 35,37 37,55 2,19 10,16 30,15l10 -9c0,-20 0,-41 0,-62 0,-24 -7,-25 1,-42l3 -6c0,-1 1,-1 1,-2 7,-11 7,-6 15,-16 1,-1 5,-8 6,-10l17 -23c101,88 206,169 306,258 158,141 330,268 488,410 13,11 19,15 32,24 18,-12 38,-32 45,-56 -87,-58 -329,-279 -438,-365 -13,-10 -17,-17 -29,-26 -15,-12 -17,-10 -29,-27 8,-12 11,-13 21,-24 7,-9 13,-18 18,-26 -10,-13 -47,-41 -63,-54l-321 -270c11,-2 23,-2 37,-2 7,-11 9,-12 9,-31l0 -341c49,34 98,68 148,101 220,146 466,323 688,477 11,8 251,181 275,187 14,-9 34,-37 39,-56l-500 -347c-13,-10 -19,-16 -35,-21 13,-25 27,-38 39,-61 -68,-36 -315,-219 -406,-280l-103 -70c-13,-9 -21,-16 -32,-23 7,-26 27,-36 33,-61 -48,-25 -92,-61 -136,-92 -13,-9 -20,-13 -33,-22l-26 -18c3,-1 5,-1 12,0 10,1 16,1 26,1 3,-5 6,-8 9,-13l3 -29c2,-23 2,-102 2,-193l1 0c50,28 93,53 143,80l1142 642c30,18 116,72 144,79 7,-31 25,-31 28,-67 -30,-7 -548,-304 -563,-312 3,-32 20,-33 28,-67 -29,-7 -178,-97 -216,-119 -25,-14 -47,-25 -72,-40l-214 -121c-16,-9 -55,-34 -73,-39 8,-33 25,-35 28,-67 -30,-8 -244,-134 -287,-159l-91 -51c-1,-55 -2,-94 -4,-97 -6,-20 -30,-15 -55,-15 -3,-11 -5,-12 -8,-26 -6,-31 1,-60 1,-91 20,-11 8,-13 39,-12 164,73 332,139 492,217 50,24 102,44 154,69 52,25 102,44 154,69l309 137c105,45 206,92 308,138l232 102c20,9 54,27 74,32 11,-22 22,-40 28,-67 -52,-12 -104,-42 -152,-65 -51,-24 -97,-41 -147,-65 -51,-25 -99,-42 -151,-67l-112 -50c-15,-6 -22,-8 -35,-15 10,-21 17,-41 28,-61 -69,-36 -382,-173 -451,-201 -39,-16 -111,-57 -151,-66 2,-25 17,-43 22,-67 -25,-12 -52,-22 -78,-34l-219 -98c-51,-24 -98,-42 -149,-66 0,-29 -1,-54 -1,-65 0,-13 1,-93 1,-152l1636 551c35,12 122,46 153,48 4,-19 15,-51 22,-67 -39,-3 -254,-84 -310,-102 -54,-18 -101,-33 -155,-52 -29,-10 -50,-17 -79,-27 -24,-8 -55,-16 -75,-26 2,-28 14,-39 17,-67 -119,-28 -555,-200 -624,-206 2,-22 14,-51 22,-67 -44,-21 -260,-90 -311,-107l-238 -79c-24,-8 -55,-16 -75,-26 7,-16 18,-48 22,-67 -13,-1 -33,-6 -56,-13 0,-5 0,-10 0,-15 0,-23 -5,-46 22,-52 0,-17 0,-34 0,-51 85,21 170,38 256,60 381,97 773,179 1155,272l505 119c23,6 46,14 69,15 5,-11 15,-52 17,-67 -211,-49 -423,-101 -635,-151 1,-15 11,-56 17,-67 -25,-2 -54,-12 -82,-18 -95,-20 -508,-128 -564,-132 3,-15 12,-56 17,-67 -106,-25 -212,-49 -320,-76 -57,-14 -106,-23 -163,-38 -29,-7 -53,-14 -81,-20 -26,-5 -53,-15 -78,-17 5,-22 11,-44 17,-67l-31 -7 0 -2c3,-11 13,-18 23,-23 25,-15 47,4 49,5 9,5 14,3 28,3 12,-24 2,-14 0,-37 -1,-17 -2,-35 -1,-54 639,90 1895,267 1905,261 12,-7 13,-51 13,-69 -54,0 -110,-16 -162,-22 -150,-17 -343,-56 -484,-67 0,-28 6,-34 6,-67 -25,-2 -55,-8 -83,-12 -26,-4 -53,-8 -83,-12 -51,-7 -106,-14 -162,-22 -75,-11 -256,-43 -325,-43 0,-32 6,-39 6,-72 -68,0 -287,-37 -359,-48 -347,-51 -282,-9 -282,-108 -7,0 -65,-8 -105,-14 0,-103 37,-123 153,-108l1428 66c124,0 251,15 373,17 156,2 134,29 134,-67l-652 -28 0 -67c-219,-15 -438,-19 -658,-33l0 -67c-46,0 -78,-6 -117,-6l-112 -6c-239,-7 -346,7 -348,-213 35,-2 71,-4 108,-4l1020 -50c58,0 129,-10 189,-11 72,-2 259,-7 319,-15l127 -7c22,-1 45,1 67,0 25,-1 30,-6 61,-6l0 -61c-4,-12 -18,-5 -67,-6l-340 17c-91,-1 -160,11 -251,11l0 -67 -171 7c-27,4 -51,4 -85,4 -35,0 -43,6 -78,6l-329 17c0,-69 8,-68 -73,-67 -140,9 -278,14 -418,23 -37,0 -67,2 -100,3 0,-1 1,-3 1,-4 1,-5 1,-6 1,-11 3,-19 9,-26 8,-48 -2,-29 -17,-10 -19,-37 -5,-58 7,-51 9,-74 1,-8 -1,-18 0,-26 168,-24 243,-35 375,-55 600,-87 1464,-213 1491,-213 0,-19 -7,-55 -11,-72l-647 95c-2,-18 -7,-50 -11,-67 -62,0 -461,66 -542,77 -86,12 -111,30 -116,-4 -2,-15 -5,-31 -5,-45 -30,0 -136,14 -250,31 0,-44 -1,-82 -1,-96 0,-74 4,-65 -36,-71l-15 -9c-2,-3 -3,-8 -4,-12 -1,-7 0,-20 0,-27l0 -4 1245 -299c57,-14 237,-64 293,-69 -2,-23 -12,-50 -17,-72 -31,15 -425,103 -479,117 -38,10 -127,25 -156,39 -5,-22 -11,-44 -17,-67 -24,2 -56,13 -81,19 -29,7 -56,13 -81,19l-323 78c-37,9 -132,26 -160,40 -1,-25 -9,-43 -11,-67 -23,2 -75,14 -141,30 4,-25 -10,-67 30,-101 18,-16 15,-22 15,-49 35,-18 28,-17 28,-68 0,-36 1,-55 37,-56 15,0 26,4 32,14 23,40 -6,103 32,106 0,39 -5,34 17,54 11,10 21,30 41,20 8,-17 3,-177 3,-212 -17,-9 -30,-8 -33,-28 61,-21 122,-42 187,-63l768 -263c51,-17 102,-40 154,-52 -2,-28 -14,-39 -17,-67 -47,4 -396,133 -472,158 -51,17 -104,30 -153,54 -2,-22 -14,-51 -22,-67 -34,16 -241,87 -407,142 -3,-5 -5,-15 -5,-37 0,-31 -3,-38 18,-49 0,-24 0,-42 3,-62 5,-38 27,-48 38,-60 9,-10 2,-20 6,-34l16 -20c4,-3 6,-3 10,-5 0,-28 -6,-66 5,-90 4,-9 12,-19 22,-24 6,-3 7,-3 16,-3 0,0 8,1 9,1l12 6c0,0 5,4 5,4 4,3 5,5 7,8 10,14 6,42 6,61 0,53 5,29 22,49 12,15 -9,25 14,47l32 39c10,18 -3,47 30,31 5,-5 0,-82 15,-108l5 -10c0,-1 1,-1 1,-2 2,-4 9,-12 12,-16 4,-5 9,-10 14,-14 3,-3 8,-6 9,-7 5,-4 7,-5 8,-13l0 -18c0,-3 0,-9 1,-12 2,-7 1,-3 4,-8l5 -19c4,-13 4,-5 13,-12 14,-10 7,-96 8,-164l266 -120c24,-12 50,-24 76,-35l158 -71c-2,-25 -17,-43 -22,-67 -28,7 -52,22 -78,34l-372 169c-6,2 -11,5 -15,7 4,-11 8,-23 14,-33l14 -23c8,-13 14,-16 23,-26 28,-27 27,-21 47,-36l11 -7c48,-20 36,-4 37,-65 1,-42 25,-34 64,-34l10 -9c0,-77 1,-154 0,-230 0,-15 0,-17 3,-28 2,-6 4,-16 6,-21 8,-16 16,-29 30,-40l27 -16c3,-1 10,-2 12,-3 13,-4 4,-6 19,-9 27,-5 26,3 36,7 26,13 46,8 66,48l6 10c0,1 1,1 1,2l3 6c6,17 9,22 9,47 -1,76 0,152 1,227l9 10c42,0 65,-8 65,37 0,80 8,39 45,66 1,1 3,2 3,3 4,3 4,3 7,5l64 59c3,5 5,10 9,16 6,9 4,4 9,16l12 31c16,32 11,113 11,149 0,132 1,60 23,109l6 10c6,14 -3,32 5,47 3,5 16,9 30,25l13 21c0,1 1,1 1,2 0,1 1,1 1,2l8 20c0,1 0,2 1,2 6,20 5,42 5,63 0,6 -4,2 1,10 5,8 11,5 22,5l7 -18c11,-18 17,-29 33,-41 16,-13 5,-35 16,-49 7,-9 11,-4 18,-13 15,-20 -4,-68 6,-92 1,-1 14,-16 14,-17 3,-2 0,-1 6,-3 10,-4 23,-5 34,0l14 11c22,23 14,74 14,103 11,6 16,9 22,18 8,11 6,23 6,37 52,35 43,65 43,123 24,16 22,10 22,49 0,33 6,36 -18,49l0 71c18,10 25,9 46,9 3,15 6,9 6,31 0,11 0,23 0,34 -1,29 -16,27 -34,37 0,40 0,80 0,120 0,88 -12,89 28,89 23,-35 34,-17 34,-74 31,-8 19,-49 19,-68 0,-15 2,-4 7,-17 3,-6 3,-14 4,-18 7,-24 17,-2 22,-24 27,0 15,-1 31,9 1,0 1,1 2,1 27,17 17,37 17,100 13,7 15,12 28,18 0,14 -3,33 4,42 5,6 25,16 34,37 7,16 8,32 8,50 -1,41 7,21 17,48 5,13 4,50 1,63 -2,9 -7,13 -14,20 -10,11 -7,63 -2,73 9,17 35,12 59,12 11,21 9,18 9,49 0,27 1,44 -25,46 -16,1 -24,0 -37,9 0,72 0,143 0,215 0,32 -8,103 6,129 0,0 4,6 5,8 10,16 6,45 17,48 19,5 22,-42 30,-53l29 -32c6,-5 5,-4 11,-7 0,-62 13,-38 18,-55 0,-30 -2,-50 5,-75 9,-36 45,-49 70,-24 8,8 9,15 12,28 5,22 2,51 2,75 24,13 21,14 21,49l35 38c13,17 6,-3 13,24 2,9 4,18 8,25 9,14 8,4 8,29l4 33c5,18 2,49 2,69 -35,23 -14,41 -8,73l6 28c5,16 8,77 -3,93 -7,10 -12,5 -22,12 -13,8 -9,39 -9,59 0,23 0,45 0,68 0,21 -9,93 26,60 7,-7 14,-7 17,-17 33,0 28,-5 42,7 2,2 13,12 13,12 15,20 10,80 10,113 6,4 12,6 17,10 10,9 -3,7 13,11l0 43c-17,-7 -34,-13 -53,-18 -72,-17 -139,-5 -202,34 -63,39 -102,95 -119,167 -17,72 -5,139 34,202 39,63 95,102 167,119 72,17 139,5 202,-34 4,-3 8,-5 12,-8 18,0 36,-1 50,0 37,1 63,10 64,52 1,25 3,48 0,66 -6,41 -51,39 -86,39l-26 0 2 1c15,12 16,31 16,51 0,16 0,27 -2,41 -2,14 1,23 11,29 10,6 16,16 25,18l0 40 36 32c8,9 8,15 12,25 8,22 11,2 11,41 0,16 0,33 0,49 23,5 22,12 22,40 0,23 -2,37 -3,55 -10,1 -11,2 -18,6 0,24 -5,76 5,96 8,16 8,73 3,89 -7,22 -27,12 -44,20l0 387c0,20 3,30 3,52 32,8 159,-3 176,5l19 15c4,7 5,16 5,26 1,47 10,87 -37,86 -31,0 -28,4 -28,34 1,82 -3,535 1,546l9 10 55 0c0,22 0,43 0,64 0,10 1,21 0,31 -1,22 -2,10 -6,24 -13,0 -27,0 -40,0 -18,0 -18,0 -18,18l0 221c0,360 -15,281 44,296l13 8c1,2 6,14 6,15 2,13 2,75 -1,87 -6,27 -4,28 11,46l12 22c3,8 33,32 40,34l0 114 34 0c3,-6 4,-13 6,-19l19 -55 61 0c3,5 2,9 5,14 4,7 5,6 8,11 7,13 3,90 3,108 10,1 5,1 10,2l7 3c9,4 14,9 18,19 4,9 2,5 3,16 1,30 14,29 30,46 12,13 8,2 17,23 2,6 3,8 5,13 0,1 1,2 1,2 15,34 8,42 8,84 4,3 8,6 13,9 6,2 4,1 7,1l0 3 338 0 4 3 0 74c-10,3 -17,9 -23,16 -1,1 -2,3 -3,3 -7,10 -5,23 -4,34 1,22 -7,50 24,53 15,1 39,0 55,0 12,18 10,20 12,43 11,3 23,3 33,6 6,2 11,4 17,5 14,3 15,7 29,11 9,2 5,1 14,5 6,3 9,3 14,5l39 19c6,4 5,4 11,7l25 15c7,5 5,3 12,7 30,17 42,34 65,51 21,15 46,41 64,62l10 17c11,19 -9,-14 2,4 12,19 15,34 23,47 5,9 3,-5 8,14l7 33c5,32 11,19 13,46 1,16 8,39 16,52l6 12c0,0 4,5 4,5l21 19c24,15 76,8 100,-3 5,-2 1,-1 6,-3 1,0 1,-1 2,-1l12 -7c23,-13 51,-51 59,-73l1 -5c7,-21 12,-37 32,-48 6,3 3,2 12,3 13,56 3,244 3,313zm-3562 -541c48,-56 109,-87 183,-92 74,-5 138,16 194,65 56,48 87,110 92,183 5,74 -16,139 -65,194 -48,56 -110,86 -183,92 -74,5 -139,-16 -194,-65 -56,-48 -87,-109 -92,-183 -5,-74 16,-139 65,-194zm87 75c-28,32 -40,69 -37,111 3,42 21,77 52,105 32,28 69,40 111,37 42,-3 77,-20 105,-52 28,-32 40,-69 37,-111 -3,-42 -21,-77 -52,-105 -32,-28 -69,-40 -111,-37 -42,3 -77,21 -105,52zm284 -563l62 -97 435 279 -30 117 -467 -299zm367 -626c34,-66 86,-110 156,-133 70,-23 138,-17 204,17 66,34 110,86 133,156 23,70 17,138 -16,204 -34,66 -86,110 -156,133 -70,23 -138,17 -204,-16 -66,-34 -110,-86 -133,-156 -23,-70 -17,-138 16,-204zm102 52c-19,38 -23,77 -9,117 13,40 38,70 76,89 38,19 77,22 117,9 40,-13 70,-38 89,-76 19,-38 22,-77 9,-117 -13,-40 -38,-70 -76,-89 -38,-19 -77,-22 -117,-9 -40,13 -70,38 -89,76zm144 -612l42 -107 480 189 -7 121 -516 -203zm219 -693c17,-72 56,-128 119,-167 63,-39 130,-50 202,-34 72,17 128,56 167,119 39,63 51,130 34,202 -17,72 -56,128 -119,167 -63,39 -130,50 -202,34 -72,-17 -128,-56 -167,-119 -39,-63 -51,-130 -34,-202zm112 26c-10,41 -3,80 19,116 22,36 54,58 95,68 41,10 80,3 116,-19 36,-22 58,-54 68,-95 10,-41 3,-80 -19,-116 -22,-36 -54,-58 -95,-68 -41,-10 -80,-3 -116,19 -36,22 -58,54 -68,95zm291 -709l-281 -36 -14 114 550 70 -19 -117 -236 -31 0 0zm-3061 3597c-112,0 -224,0 -336,0 -30,0 -72,-3 -93,-1 -16,2 -72,2 -146,2l-9 -13c21,-11 35,-22 56,-33 -5,-20 -140,-226 -235,-368l30 -41c6,-6 5,-6 10,-11l175 -123c1,0 1,-1 2,-1l4 -2c13,-7 30,-8 41,-14l16 -5c162,203 321,408 483,611zm-659 1c-150,0 -327,-2 -392,-1 -17,0 -24,-2 -39,-6l-1 -1 0 -280c1,-15 2,-26 3,-32 8,-1 8,-1 15,-3 27,23 19,41 35,64 24,36 26,45 64,68 32,20 91,27 121,-1 11,-11 10,-13 18,-25 0,-1 1,-1 1,-2 4,-6 9,-17 12,-29l163 249z"/>
    <path class="fil4" d="M8260 2407c13,-8 59,-57 74,-72 66,-66 157,-161 219,-219l291 290c21,-13 45,-51 64,-59l390 388 60 -61c14,7 110,107 128,125 123,123 250,254 373,373 -17,21 -41,40 -60,62 4,9 190,191 194,196 35,37 66,65 98,97 17,17 32,32 49,49 13,13 34,37 48,46 -8,21 -46,45 -60,65 10,20 253,250 289,292 -14,19 -53,54 -72,73 -25,25 -48,48 -73,73 -20,20 -137,134 -144,146l60 61 -389 387c7,17 47,50 61,66 -18,21 -42,43 -63,63 -22,22 -41,41 -62,62l-249 249c-17,17 -114,118 -126,123l-61 -60c-14,10 -36,35 -50,49 -41,41 -329,333 -341,339l-61 -60 -291 290 -290 -290c-20,11 -44,48 -64,60l-390 -389 -64 61 -498 -499c13,-16 53,-48 60,-64l-388 -388c17,-22 43,-40 60,-62 -12,-21 -261,-256 -290,-293l289 -291c-15,-20 -42,-42 -60,-62l389 -388c-6,-15 -48,-51 -62,-65l500 -499 63 61 390 -389 60 60zm159 2379c-11,-41 16,-73 46,-81 40,-10 74,16 81,47 20,87 -106,113 -127,33zm277 -3c-19,84 -149,59 -128,-29 7,-31 41,-57 79,-48 30,7 57,40 49,77zm18 -27c-8,-40 20,-72 52,-78 39,-7 71,20 77,51 16,89 -113,106 -129,26zm-442 0c-19,-87 106,-113 127,-33 11,41 -16,72 -46,80 -40,10 -74,-17 -81,-48zm708 -52c-8,31 -40,57 -81,47 -31,-8 -57,-42 -46,-82 22,-78 148,-51 126,35zm-847 -6c-19,-89 114,-108 129,-27 7,40 -21,71 -52,77 -39,7 -70,-20 -76,-50zm845 -79c-13,-90 118,-103 130,-21 5,39 -22,70 -55,75 -38,5 -70,-22 -75,-54zm-842 0c-25,85 -150,49 -127,-34 9,-30 40,-56 81,-45 29,7 57,42 46,80zm282 -52c-21,-88 107,-114 127,-33 10,40 -17,73 -47,80 -42,10 -73,-17 -80,-47zm271 -6c-18,86 -149,58 -128,-30 7,-30 40,-56 79,-47 29,7 57,38 49,76zm-361 -108c38,-9 72,19 78,49 8,39 -17,71 -48,78 -86,19 -115,-108 -30,-128zm416 -4c40,-13 72,13 81,42 12,39 -14,74 -43,82 -82,24 -124,-97 -38,-125zm-825 -37c83,-29 122,94 45,123 -83,31 -128,-93 -45,-123zm1248 -6c38,-8 68,19 75,49 9,39 -17,72 -47,79 -86,21 -118,-109 -28,-128zm-970 -18c38,-13 73,11 82,42 12,41 -14,75 -44,83 -82,23 -122,-97 -38,-125zm668 -10c40,-15 74,10 84,41 27,83 -98,122 -124,42 -13,-40 11,-72 40,-83zm-249 -76c85,-23 116,105 33,126 -40,10 -73,-16 -80,-46 -11,-41 16,-72 47,-80zm-149 0c40,-13 72,13 81,43 12,39 -14,73 -43,82 -82,24 -123,-98 -38,-125zm775 -22c39,-11 71,16 79,46 11,40 -16,73 -46,81 -82,22 -121,-102 -34,-126zm-1396 3c85,-21 113,110 29,128 -40,8 -71,-18 -78,-50 -9,-40 18,-70 49,-78zm1154 -21c83,-22 114,104 33,126 -83,23 -120,-104 -33,-126zm-917 -10c86,-19 109,112 27,128 -86,17 -113,-110 -27,-128zm673 -6c85,-19 111,109 29,128 -86,20 -113,-109 -29,-128zm-425 0c87,-28 119,100 41,124 -84,26 -122,-98 -41,-124zm-536 -103c37,-8 69,17 76,47 10,40 -18,74 -48,81 -83,18 -117,-107 -28,-127zm1507 -4c36,-8 69,18 76,48 9,41 -17,73 -48,80 -86,20 -116,-107 -28,-128zm-1083 -3c39,-13 73,11 83,39 14,40 -12,75 -40,84 -83,29 -125,-96 -43,-123zm852 0c81,-24 117,103 34,126 -81,22 -121,-101 -34,-126zm-211 0c39,-14 74,13 83,43 11,39 -13,72 -42,82 -81,26 -125,-95 -41,-124zm-847 -8c37,-8 68,18 76,48 10,40 -17,72 -47,79 -87,20 -117,-108 -28,-128zm152 -127c81,-29 122,97 40,124 -40,13 -73,-13 -82,-41 -6,-19 -4,-40 5,-55 9,-15 19,-22 37,-28zm937 -1c80,-28 125,95 41,124 -42,14 -75,-14 -84,-43 -12,-40 13,-71 42,-81zm-183 1c81,-24 118,99 38,125 -82,27 -126,-99 -38,-125zm408 -6c84,-22 113,104 33,126 -84,23 -119,-104 -33,-126zm-1561 3c83,-20 113,109 29,128 -86,18 -114,-107 -29,-128zm206 -7c39,-9 71,18 78,48 10,41 -18,73 -49,80 -85,19 -114,-108 -29,-128zm556 -268c156,-20 281,98 296,233 18,155 -96,279 -231,295 -157,19 -279,-95 -297,-230 -21,-157 96,-281 232,-298zm-354 129c37,-7 68,20 75,50 8,40 -19,72 -49,79 -84,18 -116,-110 -25,-128zm928 5c40,-14 75,13 84,43 12,39 -13,72 -43,81 -80,27 -124,-95 -42,-124zm-184 -2c88,-27 116,102 38,125 -82,24 -121,-99 -38,-125zm-1151 -7c39,-8 71,20 77,50 8,39 -19,71 -50,78 -86,18 -113,-110 -27,-128zm1558 -2c38,-10 71,17 79,46 10,39 -16,72 -45,80 -83,23 -121,-102 -34,-126zm-1359 3c85,-23 116,105 33,126 -83,22 -118,-103 -33,-126zm1104 -132c84,-23 117,107 33,127 -85,20 -113,-105 -33,-127zm-207 2c39,-13 72,12 82,42 13,41 -15,75 -44,83 -80,23 -123,-96 -38,-125zm-642 -2c83,-23 117,104 35,127 -39,11 -72,-15 -81,-44 -12,-41 15,-74 46,-83zm-216 -9c86,-13 105,118 20,130 -88,12 -102,-117 -20,-130zm-214 -5c38,-11 72,16 79,46 10,39 -16,73 -46,81 -83,23 -120,-102 -34,-126zm1502 -3c82,-26 118,104 34,126 -80,21 -120,-99 -34,-126zm-538 -97c37,-7 68,20 74,50 9,40 -19,72 -51,79 -85,16 -111,-112 -23,-129zm-426 3c81,-26 121,104 34,126 -80,20 -118,-99 -34,-126zm666 -12c42,-15 74,12 84,41 13,39 -12,73 -39,82 -82,30 -129,-92 -45,-123zm-934 -10c87,-27 117,100 41,124 -84,27 -122,-99 -41,-124zm1182 -24c37,-8 68,18 75,48 10,40 -17,73 -47,80 -85,20 -119,-107 -28,-128zm-1401 5c88,-28 118,100 41,124 -84,26 -122,-98 -41,-124zm621 -15c39,-12 74,11 83,42 12,41 -14,74 -44,82 -83,24 -119,-99 -38,-125zm156 -3c37,-7 68,20 74,50 9,41 -19,73 -52,79 -83,15 -112,-111 -23,-129zm-417 -91c87,-29 120,103 38,125 -82,22 -119,-97 -38,-125zm679 -6c81,-19 110,109 28,128 -86,19 -116,-107 -28,-128zm-949 -12c37,-8 69,18 76,48 9,41 -17,73 -48,80 -87,20 -115,-108 -28,-128zm1230 -4c39,-8 69,20 75,51 9,41 -19,72 -52,78 -85,15 -111,-111 -24,-129zm-836 -48c39,-13 73,11 82,39 14,40 -12,75 -39,84 -83,29 -126,-95 -43,-123zm423 -3c83,-24 119,99 38,125 -40,13 -72,-13 -82,-41 -14,-41 12,-74 43,-83zm-132 -37c84,-16 108,113 24,129 -40,7 -71,-21 -77,-52 -7,-40 20,-70 53,-77zm-152 3c80,-28 125,95 41,124 -42,14 -75,-14 -84,-43 -12,-40 13,-71 42,-81zm-410 -39c85,-20 113,110 29,128 -84,18 -114,-107 -29,-128zm966 -2c82,-29 121,101 38,125 -79,23 -123,-95 -38,-125zm-839 -79c38,-9 69,17 76,46 10,40 -15,73 -46,80 -84,22 -121,-105 -30,-127zm720 -3c36,-8 68,18 75,48 10,41 -16,73 -48,80 -87,21 -116,-109 -28,-128zm-140 -55c37,-9 69,17 76,47 10,40 -17,74 -48,81 -83,18 -117,-107 -28,-128zm-445 2c81,-23 117,103 34,126 -81,23 -122,-101 -34,-126zm299 -30c37,-9 69,18 76,47 10,41 -17,73 -48,80 -85,18 -117,-106 -28,-128zm-157 2c39,-13 74,12 83,43 11,39 -13,72 -42,81 -82,27 -125,-95 -41,-124zm-958 482c15,17 49,45 59,62 -22,17 -283,281 -289,291 39,45 278,272 289,292 -12,22 -48,43 -60,65 13,10 32,31 44,43l564 564c18,18 72,76 89,86l59 -60c16,5 61,56 77,72 27,27 208,211 221,219 15,-20 52,-54 72,-73 34,-34 207,-211 219,-216l61 60c59,-55 117,-116 175,-174 59,-59 116,-116 175,-175 37,-37 340,-337 347,-349l-59 -61c17,-24 277,-272 288,-292 -8,-15 -130,-133 -145,-148 -47,-47 -100,-96 -144,-144 13,-23 47,-43 60,-64 -13,-10 -32,-31 -44,-43 -70,-70 -637,-640 -653,-651l-59 60c-12,-7 -128,-126 -148,-146 -16,-16 -132,-139 -149,-144l-291 289 -60 -60c-15,11 -494,493 -525,524 -15,15 -166,161 -172,175zm756 -1389c14,-6 279,-275 292,-289 15,8 125,123 147,145l146 145 61 -61 392 389 63 -61 666 668 -61 60c7,15 169,172 195,198l194 195 -61 61 290 292 -290 292 60 60 -98 99c-44,44 -284,280 -290,293l61 62 -668 668 -64 -62 -389 389c-16,-14 -47,-51 -63,-60 -46,37 -267,276 -292,289 -26,-29 -279,-283 -292,-289l-60 60c-59,-53 -364,-370 -390,-388 -19,10 -44,45 -64,60 -28,-24 -57,-56 -84,-83l-251 -251c-20,-20 -324,-320 -332,-335l62 -62 -390 -391 60 -61 -289 -291c8,-14 191,-193 218,-220 22,-22 52,-49 71,-72l-61 -62 389 -391 -60 -61c6,-12 144,-147 166,-169 53,-53 465,-471 500,-499 19,15 45,50 64,60l195 -194c40,-40 163,-167 195,-194l59 60zm226 -1713l14 0c37,0 26,6 25,85 0,33 3,55 3,88 0,64 3,118 3,182 53,0 40,-3 40,85 0,34 3,57 3,91 0,64 3,120 3,185 23,0 40,-14 40,15l3 146c0,68 3,126 3,195 32,0 40,-10 40,27l3 137c2,15 37,47 49,55 0,-27 2,-60 5,-83l49 -726c1,-24 6,-53 6,-79l27 -401c45,0 40,-7 37,40l-6 91c-2,64 -15,172 -15,228 45,0 36,-5 33,40 -2,47 -9,92 -9,137 0,32 -6,62 -6,94 0,29 -6,59 -6,91l36 4c0,29 -6,61 -6,91 0,44 -8,88 -9,134 -1,43 -9,88 -9,134l36 0c0,60 -15,153 -15,213 0,44 -9,87 -9,128 11,-7 18,-17 28,-27 13,-13 15,-10 18,-33 4,-29 9,-60 14,-89l198 -1198c2,-15 6,-29 6,-46 14,0 27,5 40,6 -1,29 -24,145 -29,178 -7,47 -25,130 -29,175 12,1 25,5 36,6 -1,28 -10,61 -14,89 -5,31 -10,57 -15,89 -5,30 -28,151 -29,178 9,2 26,6 36,6 -16,70 -32,190 -44,266 -3,16 -5,29 -7,44 -2,15 -6,29 -6,46 9,0 21,1 28,3 11,3 8,5 6,18l-49 298c-2,13 -7,35 -9,50l28 27c2,-25 16,-65 23,-89 9,-30 16,-59 23,-89 44,-176 96,-354 139,-530 44,-177 96,-355 140,-532 7,-28 44,-152 46,-176 12,3 24,6 36,9 0,20 -68,271 -78,305 -4,12 -9,29 -10,41 9,2 26,6 33,9 -1,25 -38,150 -45,177 -8,30 -15,57 -23,87 -6,24 -13,64 -24,86 12,3 24,6 36,9 -2,19 -61,237 -68,260 -5,15 -7,29 -11,44 -3,10 -9,35 -12,43 11,3 25,8 36,9 -9,39 -20,77 -30,116 -25,96 -48,195 -76,289 -4,15 -10,46 -15,57l18 16c14,-30 24,-62 35,-93l167 -456c36,-91 66,-184 101,-276 47,-121 87,-244 133,-365 12,-31 23,-60 33,-91 8,-24 64,-164 66,-184 11,1 28,8 36,12 -1,15 -9,29 -14,44 -5,16 -9,26 -15,43 -12,34 -89,227 -89,251 12,1 18,6 30,9 0,17 -8,30 -13,44 -15,43 -95,269 -108,296 9,4 23,10 33,12 -2,25 -80,219 -92,255 -9,26 -18,57 -30,82 6,3 27,11 33,12 -1,16 -94,261 -97,271l-49 133c-8,22 -17,44 -24,67 -8,23 -30,55 -6,61 4,-15 96,-205 111,-233 38,-75 71,-154 108,-229 46,-91 86,-185 132,-276 8,-17 14,-31 22,-48l219 -459c8,-16 13,-30 21,-46l45 -92c12,-25 36,-67 42,-92 12,1 27,10 37,15 -6,25 -94,195 -114,242l-38 80c9,5 23,13 33,15l-155 328c11,2 24,10 33,15 -13,24 -150,306 -152,325 13,3 17,9 30,12 -6,28 -113,239 -137,292 -15,34 -76,147 -82,173l15 13c45,-85 153,-259 203,-342l560 -939c10,-17 45,-69 49,-85 15,1 26,11 36,18l-92 154c-13,23 -85,133 -90,153 9,5 21,13 30,15 -5,21 -141,241 -162,276 -7,11 -19,28 -20,40 10,2 21,10 30,15 -7,14 -15,26 -24,40l-68 114c-15,28 -30,51 -46,78 -12,20 -39,57 -44,78 9,5 21,13 30,15 -3,10 -12,22 -17,31l-236 396c-17,29 -37,47 -20,59 18,-12 34,-44 48,-62l150 -205c6,-8 10,-13 15,-21 10,-14 20,-26 30,-40l286 -392c5,-7 9,-12 14,-19 29,-42 62,-82 91,-125 10,-15 19,-26 30,-40 11,-15 20,-27 30,-43 29,-42 62,-81 90,-123 10,-15 20,-27 31,-42 16,-24 136,-192 151,-202 10,7 15,12 27,18 -3,14 -17,28 -25,39l-159 218c-9,12 -18,23 -26,35 13,7 19,14 30,21 -9,13 -18,24 -27,37 -9,13 -17,24 -27,37l-133 183c-10,13 -17,23 -26,35 6,4 24,16 27,21 -4,15 -16,27 -25,39 -28,38 -177,235 -182,253 9,6 17,13 27,18 -5,10 -14,21 -21,31l-110 149c-67,89 -129,181 -196,269 -14,19 -18,14 -8,29 17,-12 40,-41 54,-58 6,-8 11,-11 17,-19l137 -155c29,-31 55,-67 85,-97l35 -38c7,-8 8,-12 17,-20l103 -116c7,-9 8,-11 17,-20 33,-32 98,-114 137,-155 53,-56 122,-144 172,-193 32,-32 83,-97 120,-135 8,-8 9,-12 17,-20 8,-8 10,-10 17,-19 6,-8 11,-11 17,-19 7,-9 9,-11 17,-19 25,-25 44,-53 68,-78 8,-8 10,-12 17,-20 13,-15 38,-47 52,-57 4,3 25,21 27,24l-234 268c9,13 15,11 24,24 -3,11 -62,73 -74,87 -5,6 -10,9 -15,15l-148 168c3,4 23,22 27,24 -5,8 -10,10 -16,18l-90 102c-7,7 -7,10 -14,17 -26,28 -100,108 -118,135 9,6 18,15 27,21 -14,20 -33,39 -49,57l-171 194c-25,32 -165,180 -168,193l5 7c28,-19 122,-116 154,-141 14,-11 25,-25 39,-38 8,-7 12,-9 20,-17l94 -88c7,-7 12,-13 20,-20l76 -70c7,-7 11,-11 18,-18l284 -266c8,-8 12,-10 20,-17l321 -302c40,-32 142,-138 171,-158l27 25c-8,12 -20,22 -32,32l-66 62c-12,12 -18,18 -32,29l-129 124c3,5 6,9 10,14 5,6 7,6 11,13 -6,9 -8,10 -17,17l-245 231 25 24c-15,23 -103,98 -130,125l-33 30c-6,6 -10,11 -17,17 -7,6 -10,7 -17,14 -19,18 -43,45 -65,60l24 30c-10,7 -17,16 -27,25 -6,6 -9,6 -15,12 -5,4 -8,8 -12,12l-158 149c-7,6 -8,7 -15,12l-119 112c-15,15 -74,63 -76,75l5 7c10,-3 14,-9 22,-15 8,-6 13,-10 20,-16l124 -95c28,-22 53,-42 82,-64 29,-22 53,-42 82,-64l534 -412c7,-6 12,-10 20,-16l101 -78c14,-10 27,-20 41,-32l247 -191c14,-11 25,-21 40,-30 6,12 18,20 21,33 -15,4 -125,94 -140,106 -46,35 -91,75 -139,107 4,18 17,18 18,36 -15,4 -192,146 -212,162 -24,18 -47,38 -70,54 6,9 19,23 21,33 -10,3 -28,19 -37,26 -6,5 -12,9 -17,13l-53 41c-13,10 -22,17 -34,27 -47,35 -92,76 -141,109 8,12 20,18 21,33 -9,2 -21,13 -29,20l-412 318 10 12c30,-16 59,-38 88,-55 8,-5 14,-9 22,-14l367 -232c15,-10 28,-18 43,-27 8,-5 14,-9 22,-14l63 -40c117,-70 229,-149 346,-219l43 -27c113,-75 230,-145 344,-218 13,-8 29,-24 45,-25 3,12 12,18 15,30 -8,12 -123,82 -149,97l-112 71c-13,8 -25,16 -37,24 4,14 15,19 18,33 -39,21 -113,69 -153,96l-77 48c-7,5 -11,7 -18,12l-56 35c6,11 15,21 18,33 -42,22 -142,88 -189,119l-75 47c-15,9 -23,15 -38,23 3,12 13,23 18,33 -10,6 -18,11 -28,18l-329 209c-20,12 -70,39 -81,53l10 12c35,-8 1389,-713 1423,-721 4,15 12,21 15,33l-316 161c2,11 10,24 15,33 -106,56 -216,108 -322,164 6,11 12,22 18,33 -29,15 -305,158 -319,161 3,15 12,22 15,36 -15,3 -163,81 -191,95 -22,11 -41,22 -62,32 -41,20 -88,41 -128,64 -40,23 -84,42 -125,64l10 12c50,-24 139,-55 192,-76l1287 -510c15,-6 32,-12 45,-19 6,12 10,25 15,36 -40,19 -236,94 -290,115 -13,5 -29,13 -42,16 3,15 9,22 12,36 -12,3 -31,12 -44,17 -48,19 -256,106 -291,114 3,15 9,22 12,36l-83 33c-29,11 -54,21 -83,33 -29,12 -54,21 -83,33 -25,10 -58,26 -83,32 3,15 9,22 12,37 -10,2 -22,8 -31,12 -55,22 -408,166 -428,168 6,22 21,19 40,13l522 -153c65,-19 927,-274 952,-276 3,6 9,27 9,36 -57,13 -115,34 -172,50 -29,8 -56,16 -85,25 -26,9 -60,14 -84,25 3,11 8,25 9,36 -14,1 -34,8 -46,12l-217 63c-15,4 -29,9 -42,13 -13,4 -31,8 -42,13 4,8 9,24 9,36 -23,2 -223,64 -255,73 -24,7 -60,22 -86,24 0,12 5,28 9,36 -12,6 -35,11 -49,15 -17,5 -29,9 -47,14 -32,9 -271,82 -290,84 24,36 39,23 74,16l133 -25c60,-12 118,-22 178,-34l982 -189c28,-6 61,-15 89,-17 3,5 5,18 6,25 4,20 -9,15 -32,19l-265 51c-15,3 -35,8 -50,8 0,25 15,36 -7,41l-146 28c-45,8 -155,34 -196,38 1,13 6,23 6,36 -24,6 -323,66 -350,67 0,14 3,25 6,37 -11,5 -75,16 -93,19l-189 36c-26,5 -21,3 -38,20 -10,10 -19,17 -27,28 24,-6 63,-7 91,-9 28,-2 59,-8 88,-9 29,-1 60,-7 88,-9l538 -52c29,-1 60,-7 88,-9 30,-2 61,-6 89,-9 31,-3 59,-4 89,-8l266 -26c27,-1 61,-9 88,-9l3 40c-25,0 -64,6 -89,9 -62,7 -118,9 -178,17 -31,4 -59,8 -89,8 4,8 3,15 4,27 1,21 -9,10 -61,16 -81,10 -169,14 -249,24 -10,1 -38,5 -50,5 4,8 3,-3 3,9l0 27c-10,0 -32,3 -44,5 -14,2 -33,3 -44,4 -82,6 -190,24 -267,24l3 40c-22,0 -44,3 -62,5l-176 16c7,11 17,18 27,28 13,13 11,18 34,18l320 0c36,0 65,-3 103,-3l833 0 0 36 -356 3 0 37 -362 0c0,10 6,40 -9,40l-350 0 0 36 -103 0c-10,0 -52,46 -58,55l233 20c103,15 204,15 306,28 12,2 29,3 39,4 65,5 125,7 190,17 24,3 55,6 78,8l268 24c40,4 77,10 115,10l-3 40 -356 -33c0,18 -2,23 -3,36 -61,0 -121,-12 -180,-15 -59,-3 -121,-15 -179,-15l-3 37 -359 -33c0,18 0,22 -3,36 -35,0 -219,-17 -261,-22 -24,-3 -17,-7 -33,10 -8,8 -16,14 -22,24 15,0 29,4 45,7l297 56c171,30 343,61 513,95 140,28 285,51 426,79 15,3 27,5 44,8 14,3 29,6 41,7 -5,20 0,40 -18,37l-146 -28c-64,-13 -132,-22 -194,-37 0,14 -5,24 -6,36 -29,-1 -62,-10 -90,-16 -28,-6 -57,-10 -87,-16 -31,-6 -59,-11 -90,-17 -29,-6 -59,-15 -88,-15 -2,9 -5,24 -6,33 -31,0 -62,-10 -91,-15 -29,-5 -57,-11 -87,-17l-131 -24c-14,-3 -32,-7 -44,-8 -2,9 -6,26 -6,36 -12,-1 -30,-5 -44,-8 -17,-3 -26,-5 -43,-8 -27,-5 -57,-10 -87,-16 -30,-6 -58,-12 -87,-16 -37,-6 -44,-10 -67,24 23,11 310,89 336,96l672 192c57,17 110,32 168,48 56,16 112,34 169,47 0,12 -5,32 -9,40 -11,-5 -30,-9 -44,-13 -40,-11 -276,-83 -299,-84 -3,12 -7,22 -9,33 -12,-1 -33,-9 -46,-12l-218 -62c-16,-5 -27,-8 -43,-12 -14,-4 -30,-10 -44,-11 0,17 -6,16 -6,33 -25,-1 -148,-40 -174,-48 -28,-8 -150,-39 -172,-50 -3,12 -8,23 -9,36 -16,-4 -33,-9 -50,-14l-298 -85c-17,-5 -32,-10 -47,-13l-22 24c19,2 694,269 699,271 116,46 231,89 348,136l263 102c14,5 30,12 43,17 13,5 30,13 42,16 -3,12 -9,23 -12,36 -31,-7 -137,-52 -167,-64 -19,-8 -150,-62 -167,-64 -5,10 -9,21 -12,33l-44 -17c-15,-6 -28,-11 -42,-16l-169 -66c-28,-11 -56,-26 -83,-32 -4,7 -11,23 -12,33 -14,-3 -31,-11 -45,-16 -15,-6 -26,-11 -42,-16 -15,-5 -27,-11 -41,-16l-125 -48c-26,-9 -57,-28 -85,-31 -2,10 -8,25 -12,33 -16,-9 -37,-15 -56,-23l-370 -144c-9,-3 -19,-8 -27,-10 -8,5 -13,8 -15,18 23,5 322,160 352,174l614 307c50,25 409,212 436,218 -3,15 -12,22 -15,36 -21,-11 -303,-157 -322,-158 -3,13 -9,17 -13,32l-325 -162c-5,9 -13,23 -15,33 -8,-2 -30,-15 -41,-20 -94,-47 -190,-92 -282,-141 -5,9 -13,23 -15,33 -9,-2 -39,-20 -51,-25l-150 -75c-66,-33 -135,-66 -200,-100l-16 18c5,7 11,10 19,14 8,5 13,9 20,13l324 202c15,9 27,18 41,26l241 151c109,67 215,137 324,202l82 52c14,9 26,17 41,26 23,14 190,115 199,126 -4,14 -12,15 -15,30 -16,-1 -208,-126 -231,-140 -18,-11 -58,-41 -77,-45 -6,9 -13,16 -15,27 -14,-1 -31,-15 -42,-22 -13,-8 -24,-15 -38,-23 -26,-16 -51,-31 -77,-48l-116 -72c-14,-8 -24,-16 -38,-23 -7,11 -12,18 -18,30l-287 -178c-8,-5 -10,-8 -20,-10 -6,12 -11,19 -18,30 -17,-11 -35,-21 -52,-33 -119,-77 -243,-147 -361,-225l-16 18c15,4 29,19 41,29 14,11 25,19 38,29 13,10 26,20 40,30 13,10 25,18 38,29l621 474c14,11 25,20 40,30l155 119c78,58 202,159 272,206 -3,14 -14,23 -21,33 -49,-33 -94,-72 -142,-108 -41,-31 -99,-80 -141,-108 -11,8 -14,20 -24,27 -26,-17 -49,-37 -73,-55 -22,-16 -199,-157 -216,-161 -6,8 -16,17 -18,27 -41,-21 -224,-175 -286,-216 -7,5 -19,18 -21,27 -9,-2 -20,-13 -27,-18 -9,-7 -17,-12 -26,-20l-152 -116c-26,-20 -186,-149 -205,-153l-10 12c9,13 152,143 180,170 36,34 75,65 110,100l363 336c8,8 12,10 20,17 6,5 11,11 17,17 13,13 24,20 37,33l164 152c8,8 10,9 18,15 13,11 22,24 36,34 15,12 22,22 36,34 9,7 11,9 20,17l37 33c6,6 10,11 17,17 20,20 98,85 109,101 -8,12 -12,19 -24,27 -31,-21 -70,-66 -101,-91l-161 -149c-12,8 -16,18 -24,24 -11,-3 -11,-7 -19,-14 -7,-7 -10,-7 -17,-14l-166 -154c-6,-6 -11,-11 -17,-17 -7,-6 -10,-7 -17,-14 -10,-10 -18,-24 -33,-29l-27 25 -262 -243c-7,10 -18,15 -21,27 -11,-3 -89,-78 -98,-87l-262 -240c-9,-8 -14,-16 -23,-21l-13 11c20,29 60,66 84,95 42,51 89,98 132,147l382 427c6,7 12,12 18,19l115 129c6,8 11,11 18,19l312 351c-3,5 -22,21 -27,24 -17,-11 -32,-36 -46,-51 -5,-6 -10,-9 -15,-15 -7,-7 -8,-11 -15,-18l-44 -48c-11,-14 -19,-20 -30,-34l-28 -32c-19,-21 -43,-43 -59,-66 -10,7 -19,17 -30,24l-30 -34c-6,-6 -11,-10 -16,-17l-151 -168c-7,-7 -8,-9 -14,-17 -4,-4 -27,-30 -30,-31 -10,7 -15,18 -27,21l-107 -115c-6,-8 -7,-9 -14,-16l-59 -65c-19,-19 -38,-50 -60,-65 -5,3 -10,6 -14,10 -6,5 -6,7 -13,11l-86 -94c-33,-41 -71,-77 -105,-117 -9,-11 -12,-14 -21,-24 -25,-25 -109,-128 -126,-140l-15 13c36,54 136,184 177,239l705 952c11,14 20,26 30,40 7,10 24,29 27,40 -10,7 -20,14 -30,21 -53,-79 -132,-173 -186,-252 -6,-8 -20,-29 -27,-34 -11,7 -18,15 -30,21 -16,-31 -84,-114 -106,-146 -33,-48 -74,-94 -106,-143 -7,4 -9,5 -15,9 -8,6 -5,6 -15,9 -11,-7 -149,-197 -161,-213 -16,-24 -39,-47 -52,-72 -11,7 -18,15 -30,21 -13,-9 -127,-169 -143,-191l-71 -97c-12,-17 -64,-78 -69,-96 -10,3 -13,8 -18,15 6,22 37,63 50,84l552 911c34,56 66,109 100,165 9,15 95,149 99,166 -6,9 -23,18 -33,21 -4,-15 -166,-279 -182,-304 -10,3 -24,13 -33,18 -5,-19 -57,-96 -70,-118l-93 -154c-8,-14 -16,-25 -23,-38 -8,5 -23,16 -33,18 -55,-103 -128,-200 -182,-304 -10,2 -25,13 -33,18 -16,-24 -221,-361 -226,-375l-21 22c29,55 55,113 83,169 68,134 136,287 204,423 5,9 362,740 367,761 -9,5 -23,13 -33,15 -12,-24 -29,-55 -39,-79 -11,-27 -26,-53 -39,-80 -26,-53 -50,-108 -77,-160 -11,2 -24,10 -33,15l-158 -325c-9,5 -23,13 -33,15l-118 -241c-7,-15 -12,-28 -19,-42 -5,-11 -15,-28 -18,-40 -10,5 -24,14 -36,15 -4,-15 -18,-37 -25,-54l-180 -369 -18 16c3,14 12,32 17,47 6,16 11,29 17,44 11,30 22,60 34,91 6,16 12,32 17,47l118 314c12,31 22,60 34,91 11,31 22,58 33,88l135 361c23,61 46,121 68,182 11,30 22,60 34,91 6,15 11,29 16,45 5,14 13,31 16,44 -15,3 -22,9 -36,12 -19,-39 -74,-200 -94,-252 -10,-25 -24,-55 -30,-82 -8,4 -26,11 -36,12 -7,-31 -80,-218 -93,-253 -11,-28 -19,-58 -31,-84 -8,4 -26,11 -36,12 -7,-30 -20,-58 -30,-85l-62 -166c-9,-25 -27,-58 -29,-83 -14,3 -24,9 -37,12 -20,-43 -99,-263 -121,-323 -6,-15 -12,-29 -16,-45 -6,4 -24,19 -24,27 0,18 63,235 71,264 30,117 65,233 94,350 30,117 65,232 94,350 22,88 49,173 71,261 6,25 37,153 47,175 -12,6 -25,7 -36,12 -20,-41 -77,-308 -94,-344 -15,0 -21,6 -36,6 -7,-29 -16,-60 -24,-89 -7,-29 -15,-57 -23,-86 -8,-30 -15,-57 -23,-86 -8,-27 -12,-61 -24,-86 -12,3 -24,6 -36,9 0,-12 -7,-32 -10,-44l-35 -129c-7,-28 -43,-148 -46,-173 -6,3 -28,8 -36,9 -8,-18 -32,-117 -38,-139 -6,-25 -13,-45 -19,-69 -6,-23 -10,-49 -19,-69 -37,25 -34,33 -29,65 5,30 9,56 15,86l59 343c10,58 19,113 30,171l117 689c-19,0 -35,15 -40,-5 -11,-47 -32,-188 -42,-245 -5,-33 -16,-65 -16,-97 -9,2 -26,6 -36,6 -9,-19 -45,-262 -54,-310 -3,-15 -6,-29 -6,-45 -13,1 -26,6 -40,6 0,-18 -4,-28 -7,-45l-23 -133c-5,-32 -10,-57 -15,-88 -5,-30 -13,-57 -13,-87 -14,0 -27,5 -40,6 0,-26 -21,-134 -27,-168 -3,-16 -2,-18 -12,-28 -10,-10 -27,-32 -40,-36 -6,13 24,377 31,465l6 85c4,40 4,82 10,124 6,43 6,86 10,126l16 209c1,57 9,113 12,170l7 85c5,44 17,49 -34,49 -5,-22 -27,-326 -27,-356 -52,4 -33,12 -41,-38 -7,-47 -23,-300 -23,-318 -48,0 -35,13 -41,-32l-17 -232c-3,-25 -3,-69 -9,-92 -15,0 -19,3 -36,3 0,-36 -6,-66 -6,-103 -13,9 -28,26 -40,39 -25,25 -21,13 -21,59 0,26 0,53 0,79 0,28 -3,46 -3,76l0 119c-1,14 -3,19 -3,36 0,44 4,114 -2,153 -6,41 0,111 -1,157 0,16 -3,19 -3,36l0 119c0,29 -3,46 -3,76l-3 231 -40 0c0,-118 6,-236 6,-356l-36 -3c0,-120 6,-239 6,-359 -18,0 -21,-3 -36,-3 0,-90 3,-171 3,-262 0,-64 18,-54 -29,-96l-16 -17c-16,-16 -31,-36 -49,-48 -11,45 -10,95 -17,142 -7,48 -10,97 -16,142 -18,144 -31,283 -47,427 -5,46 -9,94 -16,142l-24 213c-10,76 8,60 -45,59 0,-31 33,-327 40,-356 -18,0 -21,-3 -36,-3 0,-32 6,-62 9,-92 4,-43 23,-251 31,-267l-36 -3c0,-41 37,-353 40,-359 -17,0 -23,-3 -36,-3 0,-44 8,-88 12,-130 2,-19 11,-45 -1,-58 -8,-9 -27,-28 -36,-34 -25,106 -41,211 -66,317l-196 948c-13,-3 -26,-6 -40,-9 4,-8 8,-33 10,-45 3,-14 6,-27 9,-43l36 -176c5,-27 15,-58 17,-86 -13,-1 -23,-6 -36,-6l37 -179c6,-29 12,-58 18,-88 3,-14 6,-30 9,-46 2,-11 8,-29 8,-43 -14,0 -24,-5 -36,-6 5,-9 73,-334 73,-353 -14,0 -24,-5 -36,-6 7,-15 37,-179 42,-200l-39 -37c-3,12 -8,28 -12,40l-132 428c-16,51 -32,104 -48,156 -16,52 -32,102 -48,156 -10,34 -133,445 -144,467 -14,-1 -24,-6 -36,-9 2,-26 43,-145 52,-173 9,-28 19,-59 26,-86 7,-25 23,-60 25,-85 -7,-1 -28,-7 -33,-9 2,-26 44,-144 52,-173 8,-29 17,-56 26,-86 5,-15 9,-29 14,-44 4,-12 11,-28 12,-43 -11,-3 -22,-6 -33,-9 2,-25 17,-62 25,-87 10,-30 76,-233 78,-257 -5,-2 -26,-9 -33,-9 2,-24 14,-53 22,-76 8,-24 14,-49 23,-75 9,-26 15,-49 23,-74 19,-61 37,-72 -6,-101 -21,39 -82,196 -102,245l-49 121c-60,149 -125,295 -184,445 -11,29 -22,53 -34,82 -20,47 -160,380 -166,403 -12,-6 -25,-10 -36,-15l137 -331c-10,-2 -25,-8 -33,-12 1,-10 12,-33 17,-44 17,-42 106,-262 120,-290 -7,-4 -23,-11 -33,-12 1,-11 12,-34 16,-45l86 -209c10,-26 21,-57 34,-81 -10,-2 -25,-8 -33,-12 2,-22 64,-159 73,-182 12,-31 67,-150 72,-179l-24 -22c-4,19 -41,82 -54,104l-182 347c-8,15 -14,25 -21,40 -34,63 -72,143 -106,204 -8,14 -14,24 -21,40 -8,16 -15,27 -22,42l-86 163c-7,15 -13,27 -21,40 -9,14 -14,27 -22,42l-129 242c-6,11 -17,31 -19,42 -9,-2 -12,-4 -19,-9 -7,-4 -11,-6 -18,-10l167 -316c-12,-3 -18,-12 -33,-15 5,-17 73,-141 84,-162 14,-28 78,-140 83,-160l-30 -15c5,-21 69,-131 83,-160 15,-30 76,-136 81,-159l-30 -15c5,-21 30,-57 41,-78l120 -228 -27 -25c-22,42 -116,180 -147,227 -17,25 -31,49 -48,74l-487 745c-17,26 -33,48 -49,75 -10,16 -44,62 -47,74 -13,-3 -22,-12 -33,-18 5,-21 81,-125 97,-152 30,-50 65,-100 97,-149 -11,-6 -19,-12 -30,-18 4,-15 144,-226 173,-268 8,-12 21,-24 22,-39 -9,-2 -18,-10 -27,-15 4,-18 123,-194 146,-228 16,-24 35,-50 49,-76 -16,-4 -16,-11 -30,-15 5,-19 64,-104 77,-123l53 -81c14,-21 72,-103 77,-122l-22 -21c-25,38 -203,257 -227,287 -11,13 -19,24 -30,37l-198 249c-144,177 -282,358 -426,535 -10,12 -20,24 -28,36 -14,-4 -17,-15 -30,-18 1,-11 5,-14 12,-22l182 -228c8,-9 22,-25 25,-36 -8,-5 -22,-14 -27,-21 16,-24 38,-48 57,-71l142 -178c9,-11 19,-23 27,-34 -9,-6 -17,-15 -27,-18 1,-13 5,-12 12,-21l183 -230c9,-11 19,-23 27,-34 -8,-4 -23,-15 -27,-21 2,-9 9,-15 15,-22l109 -137c22,-27 42,-52 63,-80 20,-26 44,-51 62,-78 -7,-11 -21,-27 -33,-30 -13,9 -23,21 -33,34 -34,42 -95,89 -130,131 -39,47 -86,89 -129,132 -12,12 -18,21 -30,33 -131,130 -258,265 -389,395 -8,8 -9,10 -15,18 -38,45 -91,86 -131,131 -35,40 -75,78 -113,116 -14,14 -53,61 -67,65l-24 -25 30 -34c10,-11 21,-21 32,-32 36,-36 74,-72 108,-111 22,-25 60,-53 77,-79l-25 -24c26,-39 117,-119 157,-165 27,-31 73,-64 95,-97 -9,-6 -21,-15 -24,-27 15,-23 100,-102 125,-127 12,-12 18,-21 30,-33 16,-16 86,-80 90,-95 -9,-13 -17,-13 -24,-24 12,-17 54,-56 72,-74l70 -73c32,-32 115,-108 141,-146l-22 -24c-30,20 -148,122 -179,150l-142 119c-84,66 -161,141 -246,207l-107 90c-58,51 -119,97 -176,149 -86,77 -180,146 -266,224 -7,6 -10,8 -17,13 -10,-7 -21,-17 -24,-30 48,-32 179,-152 239,-199 7,-6 10,-9 16,-14 8,-7 9,-5 16,-15 -4,-7 -6,-7 -11,-13 -4,-5 -7,-10 -10,-14 5,-7 26,-22 34,-30l224 -189c7,-6 10,-7 15,-15 -9,-13 -17,-13 -21,-30 11,-3 11,-7 19,-14l185 -155c20,-17 52,-36 66,-58 -7,-10 -18,-19 -21,-30 12,-3 64,-52 76,-61 14,-11 24,-21 38,-32 45,-38 109,-87 149,-125 9,-9 30,-23 36,-32l-22 -21c-13,9 -25,16 -38,26l-338 234c-101,67 -198,141 -300,208 -120,79 -254,176 -375,260 -6,4 -137,99 -150,102 -8,-5 -19,-20 -21,-30l273 -189c7,-5 10,-9 19,-11 -7,-14 -15,-21 -21,-33 37,-20 172,-120 221,-153l56 -38c7,-5 11,-9 18,-13 -4,-14 -15,-19 -18,-33 26,-14 50,-33 74,-50 7,-5 11,-7 18,-12l199 -138c-4,-18 -14,-17 -18,-33 13,-9 25,-16 38,-26 34,-24 242,-163 254,-179l-22 -24c-53,28 -103,58 -156,87 -91,50 -180,105 -273,153 -13,7 -25,15 -39,22 -27,15 -51,29 -78,44l-623 350c-16,10 -63,39 -78,43 -4,-17 -14,-17 -15,-37 16,-4 299,-166 307,-170 -1,-18 -11,-18 -15,-36 16,-4 97,-53 118,-65 14,-8 26,-14 39,-22l117 -66c9,-5 30,-19 40,-21 -4,-18 -14,-19 -15,-36 16,-4 133,-73 156,-87l154 -86c-6,-12 -12,-22 -18,-33 10,-3 34,-18 46,-24 60,-31 156,-88 220,-124 30,-17 58,-30 79,-59l-13 -11c-22,5 -63,27 -85,37 -83,37 -170,73 -252,112 -109,53 -225,96 -335,149 -27,13 -56,24 -84,38 -29,14 -55,24 -84,38l-168 75c-57,25 -112,50 -168,75l-127 56c-11,5 -30,15 -41,17 -6,-12 -12,-22 -15,-36 28,-7 57,-23 83,-35 28,-13 53,-22 80,-35 28,-13 54,-23 82,-36l61 -27c8,-3 12,-5 19,-8 -6,-12 -9,-22 -15,-33 37,-20 208,-95 246,-110 21,-9 61,-31 83,-36 -1,-14 -9,-23 -12,-36 14,-7 29,-12 43,-18l120 -54c28,-13 54,-23 82,-37 22,-10 59,-29 81,-34 -2,-18 -11,-18 -12,-36l76 -34c25,-10 50,-23 76,-34 33,-14 121,-59 153,-66 -3,-13 -18,-24 -27,-30l-251 84c-29,10 -55,19 -81,28l-908 306c-19,6 -67,25 -83,26 -2,-10 -8,-28 -12,-37 21,-2 139,-46 169,-56 30,-10 55,-18 84,-28 16,-5 27,-9 43,-14 13,-4 30,-9 41,-14 -1,-15 -8,-21 -9,-36 65,-15 303,-109 341,-113 -1,-12 -8,-28 -12,-37 24,-12 142,-49 170,-58l130 -43c13,-4 30,-9 41,-14 -4,-8 -10,-26 -12,-36 25,-2 89,-28 117,-38 40,-13 74,-29 114,-39l-37 -36c-27,2 -126,28 -158,36 -52,13 -105,24 -158,37 -208,53 -422,98 -630,148l-276 65c-12,3 -25,8 -38,8 -3,-6 -8,-28 -9,-36 115,-27 231,-55 347,-82 -1,-8 -6,-31 -9,-37 13,-1 30,-7 45,-10 52,-11 277,-70 308,-72 -2,-8 -6,-31 -9,-36 58,-14 116,-27 175,-41 31,-8 58,-13 89,-21 16,-4 29,-8 44,-11 14,-3 29,-8 42,-9 -3,-12 -6,-24 -9,-36 19,-5 39,-9 59,-14 20,-5 38,-8 57,-13 16,-5 63,-52 73,-67 -13,1 -29,4 -42,6 -145,20 -1215,172 -1222,168 -7,-4 -7,-28 -7,-38 30,0 60,-9 88,-12 82,-9 187,-30 264,-37 0,-15 -3,-19 -3,-36 14,-1 30,-4 45,-7 14,-2 29,-4 45,-6 28,-4 58,-8 88,-12 41,-6 140,-23 177,-23 0,-17 -3,-21 -3,-40 37,0 156,-20 196,-26 189,-28 154,-5 154,-59 6,0 76,-10 78,-11 10,-5 -6,-14 -13,-20 -15,-15 -25,-36 -49,-36 -14,0 -29,-1 -42,1 -40,6 -85,4 -126,5 -39,1 -83,6 -122,6 -38,0 -94,6 -122,6 -55,0 -112,5 -167,6 -17,0 -21,3 -39,3 -56,0 -108,5 -164,6 -17,0 -21,3 -39,3 -55,0 -110,6 -164,6 -18,0 -22,3 -39,3 -85,1 -73,16 -73,-37l356 -15 0 -36 88 -6c15,0 33,1 48,0 14,-2 24,-3 43,-3 20,0 29,-3 45,-3 15,0 31,1 46,0l88 -6 0 -36c25,0 42,-3 64,-3l61 -3c37,-1 88,1 123,-5 21,-3 38,5 53,-11 27,-28 75,-67 95,-97 -50,0 -92,-7 -140,-6 -32,0 -70,-5 -103,-6 -12,0 -25,1 -37,0l-69 -4c-19,-3 -50,-2 -69,-4 -12,-2 -24,-1 -36,-1 -17,0 -21,-2 -34,-3 -12,-1 -25,0 -36,0 -15,0 -17,-3 -33,-3 -48,-1 -93,-6 -140,-6 -32,0 -70,-5 -103,-6 -39,-1 -141,-4 -174,-8l-69 -4c-12,-1 -25,1 -37,0 -14,-1 -17,-3 -33,-3l0 -33c2,-6 10,-3 36,-3l186 9c49,0 87,6 137,6l0 -36 93 4c15,2 28,2 47,2 19,0 24,3 42,3l180 9c0,-37 -4,-37 40,-37l91 6c14,1 31,-1 45,1l92 6c33,0 57,3 91,3l3 -36c17,0 20,2 33,3 11,1 23,0 34,0 15,0 15,3 30,3 11,0 23,-1 34,0 23,1 38,10 56,-8 11,-12 24,-21 33,-34 -30,0 -129,-18 -160,-22 -89,-13 -1095,-160 -1117,-160 0,-10 4,-30 6,-40l353 52c1,-10 4,-27 6,-36 34,0 252,36 296,42 47,7 61,17 64,-2 1,-8 3,-17 3,-25 35,0 255,35 312,43 12,2 28,5 43,5 0,-10 1,-12 3,-22 2,-13 -3,-11 6,-13 9,-2 133,19 156,22 13,2 30,5 40,6 16,1 40,-27 48,-39 -13,-1 -29,-6 -42,-10 -13,-3 -24,-6 -39,-9 -78,-17 -161,-40 -240,-58l-799 -192c-31,-8 -129,-35 -160,-38 1,-13 6,-28 9,-40 17,8 232,56 262,64 21,5 69,14 85,21 3,-12 6,-24 9,-36 13,1 30,7 44,10 16,4 30,7 44,10l176 43c20,5 72,14 88,22 0,-14 5,-24 6,-36 46,4 317,81 350,82 2,-9 6,-26 9,-33 28,1 55,13 82,18 27,6 52,13 81,19l120 29c12,3 28,8 40,9 10,-7 24,-18 27,-30 -17,-1 -69,-21 -88,-28 -27,-9 -54,-19 -84,-29 -57,-19 -111,-39 -167,-58l-335 -115c-59,-19 -111,-38 -170,-58l-419 -144c-28,-9 -56,-22 -84,-29 1,-15 8,-21 9,-36 26,2 216,72 257,86 28,9 57,17 83,29 1,-12 8,-28 12,-36 31,15 331,115 341,116 3,-6 11,-27 12,-33 27,13 58,19 86,29 29,10 233,85 254,86 3,-12 8,-21 9,-33 19,2 273,93 304,103 31,10 69,27 99,33l19 -21 -601 -272c-9,-4 -15,-6 -23,-10 -8,-4 -13,-7 -21,-10 -14,-6 -30,-12 -42,-19 -13,-7 -29,-14 -44,-20l-516 -232c-13,-6 -27,-13 -42,-19l-86 -39c1,-14 9,-23 12,-36 15,4 28,12 43,18l203 92c16,7 26,12 42,19 14,6 26,14 41,17 3,-13 9,-17 12,-30 19,0 66,26 86,35 55,26 204,89 245,110 6,-11 9,-23 15,-33l267 120c8,4 12,6 21,10 13,5 29,15 41,16 2,-7 9,-24 12,-30 24,2 49,19 71,29l243 109c9,5 15,6 23,10 8,4 12,7 21,9 9,-6 18,-13 21,-24 -11,-3 -14,-5 -23,-11l-541 -308c-27,-15 -52,-30 -79,-46l-641 -363c6,-12 12,-22 18,-33 15,4 27,13 41,20l232 133c12,7 27,17 40,20 4,-8 13,-23 15,-30l316 179c2,-9 13,-26 18,-33 13,8 26,15 40,23l232 133c12,7 27,17 40,20 2,-8 11,-23 15,-30 17,5 79,43 98,54l97 55c51,28 145,78 191,109l19 -21c-8,-2 -13,-8 -21,-13 -8,-5 -12,-8 -20,-14l-311 -218c-14,-10 -25,-18 -40,-27 -8,-5 -13,-9 -19,-14l-798 -558c-14,-10 -23,-18 -38,-26 4,-17 15,-20 18,-33 18,5 152,104 168,115l127 89c7,-10 14,-20 21,-30l279 195c7,5 10,9 19,11 5,-9 13,-18 15,-27 18,1 45,27 60,37l220 154c7,5 11,9 18,13 7,-10 15,-20 21,-30l243 170c37,26 109,81 145,100l16 -18c-10,-3 -64,-51 -75,-62 -12,-12 -26,-20 -38,-32 -8,-7 -11,-9 -18,-15 -66,-59 -137,-115 -204,-173 -13,-11 -23,-20 -36,-31l-590 -501c-48,-43 -101,-82 -148,-126 -12,-11 -25,-19 -36,-30 -8,-7 -11,-9 -18,-15 -9,-7 -8,-11 -19,-14 6,-12 18,-18 21,-30 14,3 11,5 21,13l118 100c12,10 23,19 35,29 12,9 22,20 34,30l51 43c9,8 6,7 18,13 9,-6 12,-16 24,-24 29,19 179,150 206,174 7,6 11,8 18,15l49 42c5,-3 21,-22 24,-27 24,16 47,39 69,58l173 147c7,5 10,9 16,14 7,6 9,10 18,12 4,-16 14,-11 18,-27 14,4 46,37 60,49l103 88c9,7 14,12 23,19 6,5 7,7 13,12 25,23 156,135 175,146l15 -13c-15,-22 -50,-48 -69,-71 -7,-9 -9,-11 -17,-20 -6,-6 -10,-10 -17,-17 -27,-27 -63,-58 -86,-87l-152 -158c-24,-24 -45,-45 -68,-68 -13,-13 -20,-24 -33,-37 -34,-34 -73,-66 -102,-104 -17,-22 -49,-50 -69,-70l-170 -176c-33,-36 -70,-68 -103,-103 -8,-8 -9,-12 -17,-20 -6,-6 -11,-10 -17,-17l-102 -105c-18,-18 -56,-51 -67,-68l27 -25c33,22 66,68 95,97l93 93c12,12 18,21 30,33 11,11 19,22 31,30 5,-3 9,-6 14,-10 6,-5 6,-7 13,-11 16,11 49,47 65,63l47 50c6,6 9,9 15,15 32,32 67,62 95,97 8,10 21,23 32,31l24 -25c28,19 70,68 97,95l156 161 27 -25 127 128c38,41 99,97 125,130 10,13 74,77 86,85l15 -13c-36,-53 -81,-102 -121,-152l-337 -417c-6,-7 -9,-11 -15,-19 -55,-70 -487,-595 -503,-625 7,-10 17,-18 27,-24 18,13 145,180 168,206 9,10 51,58 54,71 10,-3 8,-4 17,-11 5,-4 9,-7 14,-10 16,11 125,150 143,173 15,20 69,92 85,103 10,-3 8,-4 17,-11 5,-4 9,-7 14,-10 12,23 139,174 168,209 18,22 41,46 54,70 11,-8 19,-15 30,-21 17,11 236,290 256,315 7,8 11,14 18,22 5,6 14,16 18,23l18 -16c-36,-53 -71,-108 -106,-161 -36,-54 -71,-106 -107,-161l-212 -321c-36,-54 -71,-107 -107,-161 -35,-53 -69,-105 -105,-159l-187 -282c-6,-9 -22,-29 -24,-40 8,-6 20,-16 30,-18 16,12 80,118 99,147 33,50 66,98 99,148 11,-6 21,-15 33,-18 29,55 188,273 195,298 17,-4 20,-14 36,-18 7,25 166,244 195,298 8,-5 23,-16 33,-18 40,59 77,118 117,178 13,19 112,161 117,179l21 -22 -67 -125c-63,-127 -157,-283 -221,-411l-110 -206c-16,-27 -28,-56 -44,-83 -32,-54 -56,-111 -88,-165 -17,-28 -29,-56 -44,-83l-66 -123c-12,-21 -60,-105 -65,-124 11,-8 21,-12 33,-18 2,7 16,32 20,41 8,14 13,24 21,40l42 77c26,53 57,105 84,156 11,-2 24,-10 33,-15l85 158c14,26 28,54 42,79 8,13 14,27 21,40 5,9 16,29 18,39 18,-1 23,-12 36,-15l127 238c9,14 37,64 40,78 12,-6 23,-15 36,-18 4,17 20,39 27,55l138 257c13,26 48,81 54,105l18 -19c-7,-28 -77,-186 -93,-223l-56 -133c-42,-104 -90,-208 -132,-312l-242 -576c-13,-30 -25,-59 -37,-88l-37 -88c15,-4 23,-11 36,-12 17,32 54,127 69,165 8,19 66,147 67,164 7,-4 29,-13 36,-15 9,39 135,311 137,331 14,-1 23,-9 36,-12 7,13 12,29 18,42l102 244c5,11 15,31 16,42 14,-1 23,-9 36,-12 7,14 13,31 20,47l116 276c6,15 12,31 19,46l24 -22c-9,-39 -41,-134 -55,-176l-68 -217c-5,-16 -9,-29 -14,-44 -49,-144 -89,-292 -138,-437 -10,-31 -17,-58 -27,-88 -29,-87 -54,-175 -82,-262 -9,-26 -52,-149 -54,-174 11,-1 25,-6 36,-9 3,15 9,28 14,44 5,15 8,29 13,42 13,37 71,218 79,255 12,-6 25,-7 36,-12l26 86c11,34 79,239 80,257 15,0 23,-6 36,-9 12,24 68,219 81,257 7,21 24,65 26,84 11,-1 25,-6 36,-9 10,22 16,51 24,73 8,24 65,199 68,219l33 -31c-2,-29 -11,-59 -18,-86 -33,-138 -60,-276 -89,-416 -11,-54 -25,-111 -35,-165 -16,-83 -141,-637 -141,-665 15,-1 19,-6 36,-6 7,29 13,58 19,87 7,37 54,231 54,259 15,0 24,-6 40,-6 1,45 72,307 73,353 16,-1 19,-6 40,-6 0,28 30,147 36,177 7,34 34,142 37,173 6,-3 28,-7 36,-9l46 218c2,10 6,25 8,35 3,13 7,23 7,36 10,-7 18,-16 27,-25 15,-14 9,-14 7,-36 -8,-86 -23,-175 -31,-261 -5,-57 -16,-117 -21,-174 -3,-30 -6,-57 -10,-87l-41 -348c-4,-30 -8,-58 -10,-87 -5,-57 -16,-117 -21,-174 -3,-30 -6,-57 -10,-87 -3,-28 -9,-57 -9,-88l36 -4c5,59 15,119 21,176 7,58 16,118 21,176 17,0 23,-3 36,-3 0,12 4,35 6,46l37 313c13,0 19,-3 36,-3 5,62 42,319 43,356 8,-4 26,-4 36,-6 1,49 15,94 15,143 11,-3 16,-11 24,-19 7,-7 12,-12 20,-20 21,-20 9,-41 8,-68 -1,-27 0,-55 0,-82 0,-28 -3,-48 -3,-79 0,-57 -3,-104 -3,-161 0,-31 -3,-50 -3,-79 0,-26 1,-53 0,-79 0,-16 -3,-21 -3,-39l0 -82c0,-18 -3,-21 -3,-36 -1,-27 0,-55 0,-82 0,-27 -3,-46 -3,-76 0,-108 -6,-210 -6,-319zm69 2097l291 291 61 -62 775 776 -59 61c8,14 57,59 72,74 27,27 208,205 217,218 -67,72 -178,178 -255,255 -12,12 -27,22 -34,37 14,18 52,45 59,64l-772 772c-21,-9 -44,-46 -66,-61l-290 290c-51,-44 -269,-278 -293,-290l-61 60 -774 -774c17,-19 46,-42 61,-63l-290 -291c19,-24 50,-50 72,-73 26,-26 210,-206 216,-219 -16,-19 -48,-44 -59,-61l776 -774 62 60 290 -290zm-294 199l-60 -60 -390 389 -63 -61 -86 85c14,14 55,51 62,65l-389 388 60 61 -290 292c39,48 277,267 289,293 -17,19 -47,43 -59,61l388 388c-9,18 -46,46 -60,64l84 85c20,-9 44,-47 65,-60l292 291c16,16 88,91 100,98l60 -61 291 291 290 -290 61 60c12,-6 83,-80 98,-96l195 -195c17,-17 32,-32 49,-49 14,-14 36,-39 50,-49l61 60c13,-5 76,-71 87,-85 -13,-15 -54,-48 -61,-65l388 -387c-16,-20 -46,-42 -59,-62l289 -291c-22,-25 -48,-49 -72,-72l-146 -146c-13,-13 -24,-24 -36,-37 -12,-12 -28,-23 -35,-38 9,-12 19,-20 30,-31 11,-11 24,-18 29,-34l-389 -387c18,-18 48,-45 61,-62 -14,-14 -74,-78 -88,-85l-59 61 -388 -388c-21,9 -45,46 -65,60l-291 -290c-41,36 -170,170 -219,218 -15,15 -60,63 -74,72zm0 -78c10,-5 263,-259 291,-289 31,15 271,280 297,289l60 -59 389 387c14,-7 51,-47 63,-60 31,27 144,147 163,161l-62 62c7,16 178,182 195,199 16,16 185,183 194,196l-61 61 290 291c-12,21 -267,263 -289,292l60 60c-9,16 -78,80 -96,98l-293 292 62 62c-7,16 -65,68 -81,84 -19,19 -62,67 -81,79 -7,-9 -52,-55 -63,-60 -16,12 -35,33 -50,48 -17,17 -32,32 -49,49 -25,25 -277,284 -295,290l-60 -59c-32,32 -278,283 -292,289l-290 -290 -59 60c-18,-7 -271,-267 -297,-292 -13,-13 -84,-90 -101,-96l-61 60 -161 -159c6,-13 49,-52 61,-64 -7,-14 -79,-82 -96,-99l-293 -292 62 -63 -290 -292c8,-15 56,-59 72,-75l217 -217 -60 -60c10,-21 375,-370 389,-394 -14,-18 -51,-47 -60,-63l161 -159c23,11 40,44 64,60l389 -387c14,7 49,45 61,59zm3 -91c-23,-12 -41,-48 -64,-59l-389 388c-18,-13 -48,-53 -64,-60l-252 250 60 63c-8,15 -79,82 -96,99 -34,34 -285,282 -292,295l59 60c-12,17 -52,54 -70,72 -27,27 -210,207 -218,220l289 291 -60 60c8,14 257,260 291,294 18,18 90,85 98,101l-62 62 253 251c11,-6 57,-52 64,-61l341 340c15,15 33,36 49,48 13,-6 22,-19 32,-29 10,-10 22,-21 31,-31l217 217c24,24 50,48 73,73 16,-8 124,-121 146,-143 25,-25 48,-48 73,-73 24,-24 48,-51 74,-73l60 59c14,-6 39,-35 51,-47 36,-36 327,-330 342,-340 22,10 41,44 64,59 21,-17 43,-43 63,-62 31,-31 182,-179 189,-192l-62 -62 390 -389 -60 -61 289 -291 -290 -292 61 -61 -388 -390c7,-13 48,-49 60,-63 -4,-7 -220,-228 -252,-254 -18,12 -47,52 -64,59 -15,-10 -268,-266 -293,-292 -17,-17 -85,-90 -100,-97l-59 60c-25,-22 -49,-49 -73,-72 -36,-36 -206,-210 -220,-218l-289 289zm293 -366c15,20 282,285 291,289l60 -60 97 97c42,42 259,264 293,293l64 -61 328 327c-7,16 -47,49 -61,66l389 388c-11,21 -47,43 -60,64l145 146c25,25 48,48 73,73 16,16 62,57 71,73 -8,15 -189,191 -217,219 -22,22 -53,49 -72,72 13,21 49,44 59,64l-388 389c13,15 54,49 60,64l-329 328 -63 -61c-32,27 -67,66 -98,97 -33,33 -64,64 -97,97l-195 194 -59 -61c-9,5 -277,272 -291,290l-292 -290c-15,5 -23,18 -34,29 -10,10 -20,22 -32,31 -15,-10 -36,-34 -50,-48 -17,-17 -32,-32 -49,-49 -33,-33 -64,-64 -97,-97 -25,-25 -181,-186 -196,-193l-61 59c-18,-12 -214,-212 -247,-244 -14,-14 -27,-27 -41,-41 -12,-12 -29,-31 -42,-40 7,-18 47,-49 61,-66l-389 -388c9,-20 46,-44 60,-65 -7,-15 -199,-203 -218,-221 -24,-24 -49,-47 -71,-71 16,-17 280,-275 289,-292 -13,-20 -51,-45 -59,-64l388 -388c-14,-18 -53,-47 -61,-66 13,-9 29,-28 42,-40 41,-41 269,-274 289,-286l60 61c12,-6 173,-170 197,-194l146 -146c14,-14 35,-39 50,-48 21,16 44,52 65,60l292 -290zm-1230 889c17,18 47,43 60,61l-389 387c10,21 47,44 60,65 -11,21 -253,249 -289,292 49,48 96,96 145,145 11,11 137,132 143,147 -13,21 -50,45 -59,64l388 388c-14,18 -53,47 -61,66 15,11 39,38 54,52l262 262c18,18 91,94 106,104l59 -61c23,11 368,372 393,388 24,-18 46,-53 65,-60l292 290 291 -289 60 60 195 -194c58,-58 138,-142 195,-194 21,10 43,47 65,60l419 -418c-9,-18 -47,-47 -61,-66l389 -388c-12,-23 -47,-42 -60,-65 22,-26 50,-50 74,-74l144 -144c14,-14 64,-60 71,-74 -8,-14 -124,-127 -145,-148l-144 -145 60 -63 -388 -390c13,-16 53,-49 60,-64l-419 -419c-21,14 -44,49 -64,60 -29,-24 -255,-254 -292,-292l-98 -97 -59 60c-13,-7 -61,-59 -75,-72l-146 -146c-20,-20 -56,-52 -71,-72 -12,6 -129,126 -148,146 -15,15 -132,138 -149,144l-60 -59c-16,9 -259,256 -294,291 -16,16 -85,89 -99,96l-61 -60 -420 422zm936 -859l-60 -60c-13,6 -261,258 -294,291 -20,20 -81,86 -99,97l-60 -60c-18,7 -469,465 -520,516 -17,17 -63,59 -73,75l60 60c-6,16 -34,38 -47,51 -17,17 -32,32 -49,49l-292 293 60 63 -290 289 217 218c14,14 66,62 72,75l-60 60c13,16 32,33 48,48 17,17 32,32 49,49l243 243c13,13 43,37 49,53l-60 60c12,17 54,55 72,73l369 369c21,21 138,142 152,148l59 -61c17,10 80,78 100,97l195 195c16,16 85,89 100,97l59 -60c20,14 53,51 72,70l219 219 290 -290 61 60c27,-15 370,-376 393,-388 23,12 41,46 64,59l589 -590c-16,-25 -48,-44 -61,-66l389 -388c-13,-22 -49,-44 -60,-65l289 -288 -288 -289c11,-21 46,-42 59,-64l-388 -388 61 -64 -590 -591c-21,11 -42,47 -64,59 -17,-8 -268,-265 -294,-291 -16,-16 -86,-90 -98,-96l-43 44c-7,8 -8,10 -18,14l-291 -289c-49,47 -96,96 -145,144l-146 145z"/>
    <g>
     <path class="fil5" d="M1964 4346c10,41 3,80 -19,116 -22,36 -54,58 -95,68 -41,10 -80,3 -116,-19 -36,-22 -58,-54 -68,-95 -10,-41 -3,-80 19,-116 22,-36 54,-58 95,-68 41,-10 80,-3 116,19 36,22 58,54 68,95zm-1960 4315c10,2 9,4 19,6 27,4 408,1 460,0 23,0 23,-4 44,-1 36,5 402,1 478,1 15,0 34,-3 43,-2 26,1 61,2 92,2l1919 0c41,0 108,4 147,-1 19,-2 19,1 40,1 560,2 1120,1 1680,0l201 -252c14,-17 40,-45 46,-66 -14,-10 -41,-26 -50,-39 30,-45 70,-88 104,-130l145 -182c-3,-3 -5,-8 -5,-18 -1,-25 -10,-78 22,-86l0 -74c-1,-1 -3,-2 -4,-3l-330 0c-3,0 -6,0 -11,-2 -1,0 -6,-2 -7,-3 -6,-3 -8,-3 -12,-10 0,-1 -1,-2 -1,-4 -31,31 -62,62 -93,93 -14,14 -16,19 -28,33 -69,83 -167,158 -239,240 -65,74 -137,142 -206,212 -25,25 -97,112 -123,120l-43 -46 54 -63c18,-21 39,-39 58,-59 67,-67 136,-133 198,-203 40,-45 110,-98 142,-145l-46 -43c44,-65 185,-192 267,-279 -9,-11 -7,-29 -7,-48l-15 -10c-9,-6 -9,-2 -14,-11 -11,-24 6,-74 -5,-100 -4,-10 -7,-13 -16,-18 -11,-7 -22,-7 -41,-6 -34,2 -35,37 -37,55 -2,19 -10,16 -30,15l-10 -9c0,-20 0,-41 0,-62 0,-24 7,-25 -1,-42l-3 -6c0,-1 -1,-1 -1,-2 -7,-11 -7,-6 -15,-16 -1,-1 -5,-8 -6,-10l-17 -23c-101,88 -206,169 -306,258 -158,141 -330,268 -488,410 -13,11 -19,15 -32,24 -18,-12 -38,-32 -45,-56 87,-58 329,-279 438,-365 13,-10 17,-17 29,-26 15,-12 17,-10 29,-27 -8,-12 -11,-13 -21,-24 -7,-9 -13,-18 -18,-26 10,-13 47,-41 63,-54l321 -270c-11,-2 -23,-2 -37,-2 -7,-11 -9,-12 -9,-31l0 -341c-49,34 -98,68 -148,101 -220,146 -466,323 -688,477 -11,8 -251,181 -275,187 -14,-9 -34,-37 -39,-56l500 -347c13,-10 19,-16 35,-21 -13,-25 -27,-38 -39,-61 68,-36 315,-219 406,-280l103 -70c13,-9 21,-16 32,-23 -7,-26 -27,-36 -33,-61 48,-25 92,-61 136,-92 13,-9 20,-13 33,-22l26 -18c-3,-1 -5,-1 -12,0 -10,1 -16,1 -26,1 -3,-5 -6,-8 -9,-13l-3 -29c-2,-23 -2,-102 -2,-193l-1 0c-50,28 -93,53 -143,80l-1142 642c-30,18 -116,72 -144,79 -7,-31 -25,-31 -28,-67 30,-7 548,-304 563,-312 -3,-32 -20,-33 -28,-67 29,-7 178,-97 216,-119 25,-14 47,-25 72,-40l214 -121c16,-9 55,-34 73,-39 -8,-33 -25,-35 -28,-67 30,-8 244,-134 287,-159l91 -51c1,-55 2,-94 4,-97 6,-20 30,-15 55,-15 3,-11 5,-12 8,-26 6,-31 -1,-60 -1,-91 -20,-11 -8,-13 -39,-12 -164,73 -332,139 -492,217 -50,24 -102,44 -154,69 -52,25 -102,44 -154,69l-309 137c-105,45 -206,92 -308,138l-232 102c-20,9 -54,27 -74,32 -11,-22 -22,-40 -28,-67 52,-12 104,-42 152,-65 51,-24 97,-41 147,-65 51,-25 99,-42 151,-67l112 -50c15,-6 22,-8 35,-15 -10,-21 -17,-41 -28,-61 69,-36 382,-173 451,-201 39,-16 111,-57 151,-66 -2,-25 -17,-43 -22,-67 25,-12 52,-22 78,-34l219 -98c51,-24 98,-42 149,-66 0,-29 1,-54 1,-65 0,-13 -1,-93 -1,-152l-1636 551c-35,12 -122,46 -153,48 -4,-19 -15,-51 -22,-67 39,-3 254,-84 310,-102 54,-18 101,-33 155,-52 29,-10 50,-17 79,-27 24,-8 55,-16 75,-26 -2,-28 -14,-39 -17,-67 119,-28 555,-200 624,-206 -2,-22 -14,-51 -22,-67 44,-21 260,-90 311,-107l238 -79c24,-8 55,-16 75,-26 -7,-16 -18,-48 -22,-67 13,-1 33,-6 56,-13 0,-5 0,-10 0,-15 0,-23 5,-46 -22,-52 0,-17 0,-34 0,-51 -85,21 -170,38 -256,60 -381,97 -773,179 -1155,272l-505 119c-23,6 -46,14 -69,15 -5,-11 -15,-52 -17,-67 211,-49 423,-101 635,-151 -1,-15 -11,-56 -17,-67 25,-2 55,-12 82,-18 95,-20 508,-128 564,-132 -3,-15 -12,-56 -17,-67 106,-25 212,-49 320,-76 57,-14 106,-23 163,-38 29,-7 53,-14 81,-20 26,-5 53,-15 78,-17 -5,-22 -11,-44 -17,-67l31 -7 0 -2c-3,-11 -13,-18 -23,-23 -25,-15 -47,4 -49,5 -9,5 -14,3 -28,3 -12,-24 -2,-14 0,-37 1,-17 2,-35 1,-54 -639,90 -1895,267 -1905,261 -12,-7 -13,-51 -13,-69 54,0 110,-16 162,-22 150,-17 343,-56 484,-67 0,-28 -6,-34 -6,-67 25,-2 55,-8 83,-12 26,-4 53,-8 83,-12 51,-7 106,-14 162,-22 75,-11 256,-43 325,-43 0,-32 -6,-39 -6,-72 68,0 287,-37 359,-48 347,-51 282,-9 282,-108 7,0 65,-8 105,-14 0,-103 -37,-123 -153,-108l-1428 66c-124,0 -251,15 -373,17 -156,2 -134,29 -134,-67l652 -28 0 -67c219,-15 438,-19 658,-33l0 -67c46,0 78,-6 117,-6l111 -6c239,-7 346,7 348,-213 -35,-2 -71,-4 -108,-4l-1020 -50c-58,0 -129,-10 -189,-11 -72,-2 -259,-7 -319,-15l-127 -7c-22,-1 -45,1 -67,0 -25,-1 -30,-6 -61,-6l0 -61c4,-12 18,-5 67,-6l340 17c91,-1 160,11 251,11l0 -67 171 7c27,4 51,4 85,4 34,0 43,6 78,6l329 17c0,-69 -8,-68 73,-67 140,9 278,14 418,23 37,0 67,2 100,3 0,-1 -1,-3 -1,-4 -1,-5 -1,-6 -1,-11 -3,-19 -9,-26 -8,-48 2,-29 16,-10 19,-37 5,-58 -7,-51 -9,-74 -1,-8 1,-18 0,-26 -168,-24 -243,-35 -375,-55 -600,-87 -1464,-213 -1491,-213 0,-19 7,-55 11,-72l647 95c2,-18 7,-50 11,-67 62,0 461,66 542,77 86,12 111,30 116,-4 2,-15 5,-31 5,-45 30,0 136,14 250,31 0,-44 1,-82 1,-96 0,-74 -4,-65 36,-71l15 -9c2,-3 3,-8 4,-12 1,-7 0,-20 0,-27l0 -4 -1245 -299c-57,-14 -237,-64 -293,-69 2,-23 12,-50 17,-72 31,15 425,103 479,117 38,10 127,25 156,39 5,-22 11,-44 17,-67 24,2 56,13 81,19 29,7 56,13 81,19l323 78c37,9 132,26 160,40 1,-25 9,-43 11,-67 23,2 75,14 141,30 -4,-25 10,-67 -30,-101 -18,-16 -15,-22 -15,-49 -35,-18 -28,-17 -28,-68 0,-36 -1,-55 -37,-56 -15,0 -26,4 -32,14 -23,40 6,103 -32,106 0,39 5,34 -17,54 -11,10 -21,30 -41,20 -8,-17 -3,-177 -3,-212 17,-9 30,-8 33,-28 -61,-21 -122,-42 -187,-63l-768 -263c-51,-17 -102,-40 -154,-52 2,-28 14,-39 17,-67 47,4 396,133 472,158 51,17 104,30 153,54 2,-22 14,-51 22,-67 34,16 241,87 407,142 3,-5 5,-15 5,-37 0,-31 3,-38 -18,-49 0,-24 0,-42 -3,-62 -5,-38 -27,-48 -38,-60 -9,-10 -2,-20 -6,-34l-16 -20c-4,-3 -6,-3 -10,-5 0,-28 6,-66 -5,-90 -4,-9 -12,-19 -22,-24 -6,-3 -7,-3 -16,-3 0,0 -8,1 -9,1l-12 6c0,0 -5,4 -5,4 -4,3 -5,5 -7,8 -10,14 -6,42 -6,61 0,53 -5,29 -22,49 -12,15 9,25 -14,47l-32 39c-10,18 3,47 -30,31 -5,-5 0,-82 -15,-108l-5 -10c0,-1 -1,-1 -1,-2 -2,-4 -9,-12 -12,-16 -4,-5 -9,-10 -14,-14 -3,-3 -8,-6 -9,-7 -5,-4 -7,-5 -8,-13l0 -18c0,-3 0,-9 -1,-12 -2,-7 -1,-3 -4,-8l-5 -19c-4,-13 -4,-5 -13,-12 -14,-10 -7,-96 -8,-164l-266 -120c-24,-12 -50,-24 -76,-35l-158 -71c2,-25 17,-43 22,-67 28,7 52,22 78,34l372 169c6,2 11,5 15,7 -4,-11 -8,-23 -14,-33l-14 -23c-8,-13 -14,-16 -24,-26 -28,-27 -27,-21 -47,-36l-11 -7c-48,-20 -36,-4 -37,-65 -1,-42 -25,-34 -64,-34l-10 -9c0,-77 -1,-154 0,-230 0,-15 0,-17 -3,-28 -2,-6 -4,-16 -6,-21 -8,-16 -16,-29 -30,-40l-27 -16c-3,-1 -10,-2 -12,-3 -13,-4 -4,-6 -19,-9 -27,-5 -26,3 -36,7 -26,13 -46,8 -66,48l-6 10c0,1 -1,1 -1,2l-3 6c-6,17 -9,22 -9,47 1,76 0,152 -1,227l-9 10c-42,0 -65,-8 -65,37 0,80 -8,39 -45,66 -1,1 -3,2 -3,3 -4,3 -4,3 -7,5l-64 59c-3,5 -5,10 -9,16 -6,9 -4,4 -9,16l-12 31c-16,32 -11,113 -11,149 0,132 -1,60 -23,109l-6 10c-6,14 3,32 -5,47 -3,5 -16,9 -30,25l-13 21c0,1 -1,1 -1,2 0,1 -1,1 -1,2l-8 20c0,1 0,2 -1,2 -6,20 -5,42 -5,63 0,6 4,2 -1,10 -5,8 -11,5 -22,5l-7 -18c-11,-18 -17,-29 -33,-41 -16,-13 -5,-35 -16,-49 -7,-9 -11,-4 -18,-13 -15,-20 4,-68 -6,-92 -1,-1 -14,-16 -14,-17 -3,-2 0,-1 -6,-3 -10,-4 -23,-5 -34,0l-14 11c-22,23 -14,74 -14,103 -11,6 -16,9 -22,18 -8,11 -6,23 -6,37 -52,35 -43,65 -43,123 -24,16 -22,10 -22,49 0,33 -6,36 18,49l0 71c-18,10 -25,9 -46,9 -3,15 -6,9 -6,31 0,11 0,23 0,34 1,29 16,27 34,37 0,40 0,80 0,120 0,88 12,89 -28,89 -23,-35 -34,-17 -34,-74 -31,-8 -19,-49 -19,-68 0,-15 -1,-4 -7,-17 -3,-6 -3,-14 -4,-18 -7,-24 -17,-2 -22,-24 -27,0 -15,-1 -31,9 -1,0 -1,1 -2,1 -27,17 -17,37 -17,100 -13,7 -15,12 -28,18 0,14 3,33 -4,42 -5,6 -25,16 -34,37 -7,16 -8,32 -8,50 1,41 -7,21 -17,48 -5,13 -4,50 -1,63 2,9 7,13 14,20 10,11 7,63 2,73 -9,17 -35,12 -59,12 -11,21 -9,18 -9,49 0,27 -1,44 25,46 16,1 24,0 37,9 0,72 0,143 0,215 0,32 8,103 -6,129 0,0 -4,6 -5,8 -10,16 -6,45 -17,48 -19,5 -22,-42 -30,-53l-29 -32c-6,-5 -5,-4 -11,-7 0,-62 -13,-38 -18,-55 0,-30 2,-50 -5,-75 -9,-36 -45,-49 -70,-24 -8,8 -9,15 -12,28 -5,22 -2,51 -2,75 -24,13 -21,14 -21,49l-35 38c-13,17 -6,-3 -13,24 -2,9 -4,18 -8,25 -9,14 -8,4 -8,29l-4 33c-5,18 -2,49 -2,69 35,23 14,41 8,73l-6 28c-5,16 -8,77 3,93 7,10 12,5 22,12 13,8 9,39 9,59 0,23 0,45 0,68 0,21 9,93 -26,60 -7,-7 -14,-7 -17,-17 -33,0 -28,-5 -42,7 -2,2 -13,12 -13,12 -15,20 -10,80 -10,113 -6,4 -12,6 -17,10 -10,9 3,7 -13,11l0 43c17,-7 34,-13 53,-18 72,-17 139,-5 202,34 63,39 102,95 119,167 17,72 5,139 -34,202 -39,63 -95,102 -167,119 -72,17 -139,5 -202,-34 -4,-3 -8,-5 -12,-8 -18,0 -36,-1 -50,0 -37,1 -63,10 -64,52 -1,25 -3,48 0,66 6,41 51,39 86,39l26 0 -2 1c-15,12 -16,31 -16,51 0,16 0,27 2,41 2,14 -1,23 -11,29 -10,6 -16,16 -25,18l0 40 -36 32c-8,9 -8,15 -12,25 -8,22 -11,2 -11,41 0,16 0,33 0,49 -23,5 -22,12 -22,40 0,23 2,37 3,55 10,1 11,2 18,6 0,24 6,76 -5,96 -8,16 -8,73 -3,89 7,22 27,12 44,20l0 387c0,20 -3,30 -3,52 -32,8 -159,-3 -176,5l-19 15c-4,7 -5,16 -5,26 -1,47 -10,87 37,86 31,0 28,4 28,34 -1,82 3,535 -1,546l-9 10 -55 0c0,22 0,43 0,64 0,10 -1,21 0,31 1,22 2,10 6,24 13,0 27,0 40,0 18,0 18,0 18,18l0 221c0,360 15,281 -44,296l-13 8c-1,2 -6,14 -6,15 -2,13 -2,75 1,87 6,27 4,28 -11,46l-12 22c-3,8 -33,32 -40,34l0 114 -34 0c-3,-6 -4,-13 -6,-19l-19 -55 -61 0c-3,5 -2,9 -5,14 -4,7 -5,6 -8,11 -7,13 -3,90 -3,108 -10,1 -5,1 -10,2l-7 3c-9,4 -14,9 -18,19 -4,9 -2,5 -3,16 -1,30 -14,29 -30,46 -12,13 -8,2 -17,23 -2,6 -3,8 -5,13 0,1 -1,2 -1,2 -15,34 -8,42 -8,84 -4,3 -8,6 -13,9 -6,2 -4,1 -7,1l0 3 -338 0 -4 3 0 74c10,3 17,9 23,16 1,1 2,3 3,3 7,10 5,23 4,34 -1,22 7,50 -24,53 -15,1 -39,0 -55,0 -12,18 -10,20 -12,43 -11,3 -23,3 -33,6 -6,2 -11,4 -17,5 -14,3 -15,7 -29,11 -9,2 -5,1 -14,5 -6,3 -9,3 -14,5l-39 19c-6,4 -5,4 -11,7l-25 15c-7,5 -5,3 -12,7 -30,17 -42,34 -65,51 -21,15 -46,41 -64,62l-10 17c-11,19 9,-14 -2,4 -12,19 -15,34 -23,47 -5,9 -3,-5 -8,14l-7 33c-5,32 -11,19 -13,46 -1,16 -8,39 -16,52l-6 12c0,0 -4,5 -4,5l-21 19c-24,15 -76,8 -100,-3 -5,-2 -1,-1 -6,-3 -1,0 -1,-1 -2,-1l-12 -7c-23,-13 -51,-51 -59,-73l-1 -5c-7,-21 -12,-37 -32,-48 -6,3 -3,2 -12,3 -13,56 -3,244 -3,313zm3562 -541c-48,-56 -109,-87 -183,-92 -74,-5 -138,16 -194,65 -56,48 -87,110 -92,183 -5,74 16,139 65,194 48,56 110,86 183,92 74,5 139,-16 194,-65 56,-48 87,-109 92,-183 5,-74 -16,-139 -65,-194zm-87 75c28,32 40,69 37,111 -3,42 -21,77 -52,105 -32,28 -69,40 -111,37 -42,-3 -77,-20 -105,-52 -28,-32 -40,-69 -37,-111 3,-42 21,-77 52,-105 32,-28 69,-40 111,-37 42,3 77,21 105,52zm-284 -563l-62 -97 -435 279 30 117 467 -299zm-367 -626c-34,-66 -86,-110 -156,-133 -70,-23 -138,-17 -204,17 -66,34 -110,86 -133,156 -23,70 -17,138 16,204 34,66 86,110 156,133 70,23 138,17 204,-16 66,-34 110,-86 133,-156 23,-70 17,-138 -16,-204zm-102 52c19,38 23,77 9,117 -13,40 -38,70 -76,89 -38,19 -77,22 -117,9 -40,-13 -70,-38 -89,-76 -19,-38 -22,-77 -9,-117 13,-40 38,-70 76,-89 38,-19 77,-22 117,-9 40,13 70,38 89,76zm-144 -612l-42 -107 -480 189 7 121 516 -203zm-219 -693c-17,-72 -56,-128 -119,-167 -63,-39 -130,-50 -202,-34 -72,17 -128,56 -167,119 -39,63 -51,130 -34,202 17,72 56,128 119,167 63,39 130,50 202,34 72,-17 128,-56 167,-119 39,-63 51,-130 34,-202zm-112 26c10,41 3,80 -19,116 -22,36 -54,58 -95,68 -41,10 -80,3 -116,-19 -36,-22 -58,-54 -68,-95 -10,-41 -3,-80 19,-116 22,-36 54,-58 95,-68 41,-10 80,-3 116,19 36,22 58,54 68,95zm-291 -709l281 -36 14 114 -550 70 19 -117 236 -31 0 0zm3061 3597c112,0 224,0 336,0 31,0 72,-3 93,-1 16,2 72,2 146,2l9 -13c-21,-11 -35,-22 -56,-33 5,-20 140,-226 235,-368l-30 -41c-6,-6 -5,-6 -10,-11l-175 -123c-1,0 -1,-1 -2,-1l-4 -2c-13,-7 -30,-8 -41,-14l-16 -5c-162,203 -321,408 -483,611zm659 1c150,0 327,-2 392,-1 17,0 24,-2 39,-6l1 -1 0 -280c-1,-15 -2,-26 -3,-32 -8,-1 -8,-1 -15,-3 -27,23 -19,41 -35,64 -24,36 -26,45 -64,68 -32,20 -91,27 -121,-1 -11,-11 -10,-13 -18,-25 0,-1 -1,-1 -1,-2 -4,-6 -9,-17 -12,-29l-163 249z"/>
     <path class="fil2" d="M9296 7355l89 -19 87 399 -82 49 -94 -429zm-2 0l89 -19 87 399 -82 49 -94 -429zm-400 144c-34,2 -61,16 -83,41 -22,25 -32,54 -30,88 2,33 16,61 41,83 25,22 54,32 88,30 33,-2 61,-16 83,-41 22,-25 32,-54 30,-88 -2,-33 -16,-61 -41,-83 -25,-22 -54,-32 -88,-30zm-6 -91c58,-4 110,14 154,52 44,39 68,87 71,146 4,58 -14,110 -52,154 -39,44 -87,68 -146,72 -58,4 -110,-14 -154,-52 -44,-39 -68,-87 -72,-146 -4,-58 14,-110 52,-154 39,-44 87,-68 146,-72zm4 91c-34,2 -61,16 -83,41 -22,25 -32,54 -30,88 2,33 16,61 41,83 25,22 54,32 88,30 33,-2 61,-16 83,-41 22,-25 32,-54 30,-88 -2,-33 -16,-61 -41,-83 -25,-22 -54,-32 -88,-30zm-6 -91c58,-4 110,14 154,52 44,39 68,87 71,146 4,58 -14,110 -52,154 -39,44 -87,68 -146,72 -58,4 -110,-14 -154,-52 -44,-39 -68,-87 -72,-146 -4,-58 14,-110 52,-154 39,-44 87,-68 146,-72zm-501 3l91 3 -15 409 -92 27 16 -439zm-2 0l91 3 -15 408 -92 27 16 -439zm-423 36c-33,-6 -63,0 -91,19 -28,19 -45,45 -51,78 -6,33 0,63 19,91 19,28 45,45 78,51 33,6 63,0 91,-19 28,-19 45,-45 51,-78 6,-33 0,-63 -19,-91 -19,-28 -45,-45 -78,-51zm17 -89c57,11 103,41 136,89 33,48 44,101 33,159 -11,57 -41,103 -89,136 -48,33 -101,44 -159,33 -58,-11 -103,-41 -136,-89 -33,-48 -44,-101 -33,-159 11,-58 41,-103 89,-136 48,-33 101,-44 159,-33zm-19 89c-33,-6 -63,0 -91,19 -28,19 -45,45 -51,78 -6,33 0,63 19,91 19,28 45,45 78,51 33,6 63,0 91,-19 28,-19 45,-45 51,-78 6,-33 0,-63 -19,-91 -19,-28 -45,-45 -78,-51zm17 -89c57,11 103,41 136,89 33,48 44,101 33,159 -11,57 -41,103 -89,136 -48,33 -101,44 -159,33 -58,-11 -103,-41 -136,-89 -33,-48 -44,-101 -33,-159 11,-58 41,-103 89,-136 48,-33 101,-44 159,-33zm-484 -128l86 30 -136 386 -96 -2 146 -414zm-419 -74c-30,-14 -61,-16 -93,-4 -31,11 -54,32 -68,63 -14,30 -16,61 -4,93 11,31 32,54 63,68 30,14 61,15 93,4 31,-11 54,-32 68,-63 14,-30 15,-61 4,-93 -11,-31 -32,-54 -63,-68zm38 -82c53,25 90,65 110,120 20,55 18,109 -7,162 -25,53 -65,90 -120,110 -55,20 -109,18 -162,-7 -53,-25 -90,-65 -110,-120 -20,-55 -18,-109 7,-162 25,-53 65,-90 120,-110 55,-20 109,-18 162,7zm-436 -250l76 50 -225 341 -93 -25 241 -367zm-388 -182c-25,-22 -54,-32 -88,-30 -33,2 -61,16 -83,41 -22,25 -32,54 -30,88 2,33 15,61 41,83 25,22 54,32 88,30 33,-2 61,-16 83,-41 22,-25 32,-54 30,-88 -2,-33 -16,-61 -41,-83zm60 -68c44,39 67,87 71,146 3,58 -14,109 -53,153 -39,44 -88,67 -146,71 -58,3 -110,-14 -153,-53 -44,-39 -67,-88 -71,-146 -4,-58 14,-110 53,-153 39,-44 87,-67 146,-71 58,-4 109,14 153,53zm-358 -353l62 67 -299 279 -84 -46 321 -299zm-325 -275c-19,-28 -45,-44 -78,-50 -33,-6 -63,1 -91,20 -28,19 -44,45 -50,78 -6,33 1,63 20,91 19,28 45,44 78,50 33,6 63,-1 91,-20 28,-19 44,-45 50,-78 6,-33 -1,-63 -20,-91zm75 -52c33,48 45,101 34,159 -10,58 -40,103 -88,136 -48,33 -101,45 -159,34 -58,-10 -103,-40 -136,-88 -33,-48 -45,-101 -34,-159 10,-58 40,-103 88,-136 48,-33 101,-45 159,-34 58,10 103,40 136,88zm-253 -434l40 81 -366 182 -68 -68 393 -195zm-246 -351c-10,-32 -30,-55 -60,-71 -30,-15 -61,-18 -92,-7 -32,10 -55,30 -71,60 -15,30 -18,61 -7,92 10,32 30,55 60,71 30,15 61,18 92,7 32,-10 55,-31 71,-60 15,-30 18,-61 7,-92zm86 -28c18,56 14,110 -13,162 -27,52 -68,87 -123,105 -56,18 -110,14 -162,-13 -52,-27 -87,-68 -105,-123 -18,-56 -14,-110 13,-162 27,-52 68,-87 123,-105 56,-18 110,-14 162,13 52,27 87,68 105,123zm-131 -485l19 89 -399 87 -49 -82 429 -94zm-145 -402c-2,-34 -16,-61 -41,-83 -25,-22 -54,-32 -88,-30 -33,2 -61,16 -83,41 -22,25 -32,54 -30,88 2,33 16,61 41,83 25,22 54,32 88,30 33,-2 61,-16 83,-41 22,-25 32,-54 30,-88zm91 -6c4,58 -14,110 -52,154 -39,44 -87,68 -146,71 -58,4 -110,-14 -154,-52 -44,-39 -68,-87 -72,-146 -4,-58 14,-110 52,-154 39,-44 87,-68 146,-72 58,-4 110,14 154,52 44,39 68,87 72,146zm-3 -503l-3 91 -408 -15 -27 -92 439 16zm-36 -425c6,-33 0,-63 -19,-91 -19,-28 -45,-45 -78,-51 -33,-6 -63,0 -91,19 -28,19 -45,45 -51,78 -6,33 0,63 19,91 19,28 45,45 78,51 33,6 63,0 91,-19 28,-19 45,-45 51,-78zm89 17c-11,57 -41,103 -89,136 -48,33 -101,44 -159,33 -57,-11 -103,-41 -136,-89 -33,-48 -44,-101 -33,-159 11,-58 41,-103 89,-136 48,-33 101,-44 159,-33 58,11 103,41 136,89 33,48 44,101 33,159zm128 -486l-30 86 -386 -136 2 -96 414 146zm74 -419c14,-30 16,-61 4,-93 -11,-31 -32,-54 -63,-68 -30,-14 -61,-16 -93,-4 -31,11 -54,32 -68,63 -14,30 -15,61 -4,93 11,31 32,54 63,68 30,14 61,15 93,4 31,-11 54,-32 68,-63zm82 38c-25,53 -65,90 -120,110 -55,20 -109,18 -162,-7 -53,-25 -90,-65 -110,-120 -20,-55 -18,-109 7,-162 25,-53 65,-90 120,-110 55,-20 109,-18 162,7 53,25 90,65 110,120 20,55 18,109 -7,162zm250 -436l-50 76 -341 -225 25 -93 367 241zm182 -388c22,-25 32,-54 30,-88 -2,-33 -16,-61 -41,-83 -25,-22 -54,-32 -88,-30 -33,2 -61,15 -83,41 -22,25 -32,54 -30,88 2,33 16,61 41,83 25,22 54,32 88,30 33,-2 61,-16 83,-41zm68 60c-39,44 -87,67 -146,71 -58,3 -109,-14 -153,-53 -44,-39 -67,-88 -71,-146 -3,-58 14,-110 53,-153 39,-44 88,-67 146,-71 58,-4 110,14 153,53 44,39 67,87 71,146 4,58 -14,109 -53,153zm353 -357l-67 62 -278 -299 46 -84 299 321zm275 -325c28,-19 44,-45 50,-78 6,-33 -1,-63 -20,-91 -19,-28 -45,-44 -78,-50 -33,-6 -63,1 -91,20 -28,19 -44,45 -50,78 -6,33 1,63 20,91 19,28 45,44 78,50 33,6 63,-1 91,-20zm52 75c-48,33 -101,45 -159,34 -58,-10 -103,-40 -136,-88 -33,-48 -45,-101 -34,-159 10,-58 40,-103 88,-136 48,-33 101,-45 159,-34 58,10 103,40 136,88 33,48 45,101 34,159 -10,58 -40,103 -88,136zm434 -253l-81 40 -182 -366 68 -68 195 393zm351 -246c32,-10 55,-30 71,-60 15,-30 18,-61 7,-92 -10,-32 -30,-55 -60,-71 -30,-15 -61,-18 -92,-7 -32,10 -55,30 -71,60 -15,30 -18,61 -7,92 10,32 31,55 60,71 30,15 61,18 92,7zm28 86c-56,18 -110,14 -162,-13 -52,-27 -87,-68 -105,-123 -18,-56 -14,-110 13,-162 27,-52 68,-87 123,-105 56,-18 110,-14 162,13 52,27 87,68 105,123 18,56 14,110 -13,162 -27,52 -68,87 -123,105zm485 -131l-89 19 -87 -399 82 -49 94 429zm402 -144c34,-2 61,-16 83,-41 22,-25 32,-54 30,-88 -2,-33 -16,-61 -41,-83 -25,-22 -54,-32 -88,-30 -33,2 -61,16 -83,41 -22,25 -32,54 -30,88 2,33 16,61 41,83 25,22 54,32 88,30zm6 91c-58,4 -110,-14 -154,-52 -44,-39 -68,-87 -71,-146 -4,-58 14,-110 52,-154 39,-44 87,-68 146,-72 58,-4 110,14 154,52 44,39 68,87 72,146 4,58 -14,110 -52,154 -39,44 -87,68 -146,72zm503 -3l-91 -3 15 -409 92 -27 -16 439zm425 -36c33,6 63,0 91,-19 28,-19 45,-45 51,-78 6,-33 0,-63 -19,-91 -19,-28 -45,-45 -78,-51 -33,-6 -63,0 -91,19 -28,19 -45,45 -51,78 -6,33 0,63 19,91 19,28 45,45 78,51zm-17 89c-57,-11 -103,-41 -136,-89 -33,-48 -44,-101 -33,-159 11,-57 41,-103 89,-136 48,-33 101,-44 159,-33 58,11 103,41 136,89 33,48 44,101 33,159 -11,58 -41,103 -89,136 -48,33 -101,44 -159,33zm486 128l-86 -30 136 -386 96 2 -146 414zm419 74c30,14 61,16 93,4 31,-11 54,-32 68,-63 14,-30 16,-61 4,-93 -11,-31 -32,-54 -63,-68 -30,-14 -61,-15 -93,-4 -31,11 -54,32 -68,63 -14,30 -15,61 -4,93 11,31 32,54 63,68zm-38 82c-53,-25 -90,-65 -110,-120 -20,-55 -18,-109 7,-162 25,-53 65,-90 120,-110 55,-20 109,-18 162,7 53,25 90,65 110,120 20,55 18,109 -7,162 -25,53 -65,90 -120,110 -55,20 -109,18 -162,-7zm436 250l-76 -50 225 -341 93 25 -241 367zm388 182c25,22 54,32 88,30 33,-2 61,-16 83,-41 22,-25 32,-54 30,-88 -2,-33 -15,-61 -41,-83 -25,-22 -54,-32 -88,-30 -33,2 -61,16 -83,41 -22,25 -32,54 -30,88 2,33 16,61 41,83zm-60 68c-44,-39 -67,-88 -71,-146 -3,-58 14,-109 53,-153 39,-44 88,-67 146,-71 58,-3 110,14 153,53 44,39 67,88 71,146 4,58 -14,110 -53,153 -39,44 -87,67 -146,71 -58,4 -110,-14 -153,-53zm357 353l-62 -67 299 -278 84 46 -321 299zm325 275c19,28 45,44 78,50 33,6 63,-1 91,-20 28,-19 44,-45 50,-78 6,-33 -1,-63 -20,-91 -19,-28 -45,-44 -78,-50 -33,-6 -63,1 -91,20 -28,19 -44,45 -50,78 -6,33 1,63 20,91zm-75 52c-33,-48 -45,-101 -34,-159 10,-58 40,-103 88,-136 48,-33 101,-45 159,-34 58,10 103,40 136,88 33,48 45,101 34,159 -10,58 -40,103 -88,136 -48,33 -101,45 -159,34 -58,-10 -103,-40 -136,-88zm253 434l-40 -81 366 -182 68 68 -393 195zm246 351c10,32 30,55 60,71 30,15 61,18 92,7 32,-10 55,-30 71,-60 15,-30 18,-61 7,-92 -10,-32 -30,-55 -60,-71 -30,-15 -61,-18 -92,-7 -32,10 -55,31 -71,60 -15,30 -18,61 -7,92zm-86 28c-18,-56 -14,-110 13,-162 27,-52 68,-87 123,-105 56,-18 110,-14 162,13 52,27 87,68 105,123 18,56 14,110 -13,162 -27,52 -68,87 -123,105 -56,18 -110,14 -162,-13 -52,-27 -87,-68 -105,-123zm131 485l-19 -89 399 -87 49 82 -429 94zm144 402c2,34 16,61 41,83 25,22 54,32 88,30 33,-2 61,-16 83,-41 22,-25 32,-54 30,-88 -2,-33 -16,-61 -41,-83 -25,-22 -54,-32 -88,-30 -33,2 -61,16 -83,41 -22,25 -32,54 -30,88zm-91 6c-4,-58 14,-110 52,-154 39,-44 87,-68 146,-71 58,-4 110,14 154,52 44,39 68,87 72,146 4,58 -14,110 -52,154 -39,44 -87,68 -146,72 -58,4 -110,-14 -154,-52 -44,-39 -68,-87 -72,-146zm3 502l3 -91 409 15 27 92 -439 -16zm36 425c-6,33 0,63 19,91 19,28 45,45 78,51 33,6 63,0 91,-19 28,-19 45,-45 51,-78 6,-33 0,-63 -19,-91 -19,-28 -45,-45 -78,-51 -33,-6 -63,0 -91,19 -28,19 -45,45 -51,78zm-89 -17c11,-57 41,-103 89,-136 48,-33 101,-44 159,-33 57,11 103,41 136,89 33,48 44,101 33,159 -11,58 -41,103 -89,136 -48,33 -101,44 -159,33 -58,-11 -103,-41 -136,-89 -33,-48 -44,-101 -33,-159zm-128 486l30 -86 386 136 -2 96 -414 -146zm-74 419c-14,30 -16,61 -4,93 11,31 32,54 63,68 30,14 61,16 93,4 31,-11 54,-32 68,-63 14,-30 15,-61 4,-93 -11,-31 -32,-54 -63,-68 -30,-14 -61,-15 -93,-4 -31,11 -54,32 -68,63zm-82 -38c25,-53 65,-90 120,-110 55,-20 109,-18 162,7 53,25 90,65 110,120 20,55 18,109 -7,162 -25,53 -65,90 -120,110 -55,20 -109,18 -162,-7 -53,-25 -90,-65 -110,-120 -20,-55 -18,-109 7,-162zm-250 436l50 -76 341 225 -25 93 -367 -241zm-182 388c-22,25 -32,54 -30,88 2,33 16,61 41,83 25,22 54,32 88,30 33,-2 61,-15 83,-41 22,-25 32,-54 30,-88 -2,-33 -16,-61 -41,-83 -25,-22 -54,-32 -88,-30 -33,2 -61,16 -83,41zm-68 -60c39,-44 88,-67 146,-71 58,-3 109,14 153,53 44,39 67,88 71,146 3,58 -14,110 -53,153 -39,44 -88,67 -146,71 -58,4 -110,-14 -153,-53 -44,-39 -67,-87 -71,-146 -4,-58 14,-110 53,-153zm-353 357l67 -62 279 299 -46 84 -299 -321zm-275 325c-28,19 -44,45 -50,78 -6,33 1,63 20,91 19,28 45,44 78,50 33,6 63,-1 91,-20 28,-19 44,-45 50,-78 6,-33 -1,-63 -20,-91 -19,-28 -45,-44 -78,-50 -33,-6 -63,1 -91,20zm-52 -75c48,-33 101,-45 159,-34 58,10 103,40 136,88 33,48 45,101 34,159 -10,58 -40,103 -88,136 -48,33 -101,45 -159,34 -58,-10 -103,-40 -136,-88 -33,-48 -45,-101 -34,-159 10,-58 40,-103 88,-136zm-434 253l81 -40 182 366 -68 68 -195 -393zm-351 246c-32,10 -55,30 -71,60 -15,30 -18,61 -7,92 10,32 30,55 60,71 30,15 61,18 92,7 32,-10 55,-30 71,-60 15,-30 18,-61 7,-92 -10,-32 -31,-55 -60,-71 -30,-15 -61,-18 -92,-7zm-28 -86c56,-18 110,-14 162,13 52,27 87,68 105,123 18,56 14,110 -13,162 -27,52 -68,87 -123,105 -56,18 -110,14 -162,-13 -52,-27 -87,-68 -105,-123 -18,-56 -14,-110 13,-162 27,-52 68,-87 123,-105z"/>
    </g>
   </g>
  </g>
 </g>
</svg>
