<?xml version="1.0" encoding="UTF-8"?>
<!DOCTYPE svg PUBLIC "-//W3C//DTD SVG 1.1//EN" "http://www.w3.org/Graphics/SVG/1.1/DTD/svg11.dtd">
<!-- Creator: CorelDRAW X6 -->
<svg xmlns="http://www.w3.org/2000/svg" xml:space="preserve" width="297mm" height="210mm" version="1.1" style="shape-rendering:geometricPrecision; text-rendering:geometricPrecision; image-rendering:optimizeQuality; fill-rule:evenodd; clip-rule:evenodd"
viewBox="0 0 29700 21000"
 xmlns:xlink="http://www.w3.org/1999/xlink">
 <defs>
  <style type="text/css">
   <![CDATA[
    .fil5 {fill:#332C2B;fill-rule:nonzero}
    .fil3 {fill:#332C2B;fill-rule:nonzero}
    .fil2 {fill:#E62129;fill-rule:nonzero}
    .fil4 {fill:url(#id0)}
    .fil0 {fill:url(#id1)}
    .fil1 {fill:url(#id2)}
   ]]>
  </style>
  <linearGradient id="id0" gradientUnits="userSpaceOnUse" x1="9622.45" y1="4939.86" x2="3173.99" y2="11848.9">
   <stop offset="0" style="stop-color:#FFF000"/>
   <stop offset="0.211765" style="stop-color:#FDD100"/>
   <stop offset="0.490196" style="stop-color:#F08519"/>
   <stop offset="0.741176" style="stop-color:#E62129"/>
   <stop offset="1" style="stop-color:#BB2E32"/>
  </linearGradient>
  <linearGradient id="id1" gradientUnits="userSpaceOnUse" xlink:href="#id0" x1="26526" y1="4939.86" x2="20077.5" y2="11848.9">
  </linearGradient>
  <radialGradient id="id2" gradientUnits="objectBoundingBox" cx="50%" cy="50%" r="33%" fx="50%" fy="50%">
   <stop offset="0" style="stop-color:#BB2E32"/>
   <stop offset="0.419608" style="stop-color:#E62129"/>
   <stop offset="0.678431" style="stop-color:#F08519"/>
   <stop offset="0.921569" style="stop-color:#FDD100"/>
   <stop offset="1" style="stop-color:#FDD100"/>
  </radialGradient>
 </defs>
 <g id="Layer_x0020_1">
  <metadata id="CorelCorpID_0Corel-Layer"/>
  <g id="_2515404368">
   <path class="fil0" d="M24953 7605c-14,63 -5,121 29,175 34,54 82,89 145,103 63,14 121,5 175,-29 54,-34 89,-82 103,-145 14,-63 5,-121 -29,-175 -34,-54 -82,-89 -145,-103 -63,-14 -121,-5 -175,29 -54,34 -89,82 -103,145zm2973 6544c-15,4 -13,7 -28,9 -41,6 -619,1 -698,1 -34,0 -35,-6 -66,-2 -54,8 -609,1 -725,1 -23,0 -51,-4 -65,-4 -40,1 -92,4 -140,4l-2911 0c-62,0 -163,6 -223,-1 -29,-3 -28,1 -61,1 -849,3 -1699,1 -2548,0l-305 -383c-21,-26 -61,-68 -70,-100 22,-14 62,-40 76,-59 -46,-68 -106,-133 -158,-197l-220 -277c5,-4 7,-13 8,-28 1,-39 15,-118 -33,-131l0 -112c2,-1 4,-3 7,-4l500 0c4,1 9,0 17,-2 1,0 9,-4 10,-4 10,-5 13,-4 18,-15 1,-1 1,-4 2,-7 47,47 93,94 140,141 22,21 24,28 43,50 105,125 254,240 363,364 98,112 207,216 313,321 38,38 146,170 186,182l66 -70 -83 -95c-27,-31 -59,-59 -89,-89 -101,-101 -206,-201 -300,-309 -60,-68 -167,-149 -215,-220l70 -66c-66,-99 -281,-292 -405,-422 13,-17 10,-43 10,-72l22 -15c13,-8 14,-4 21,-17 17,-36 -9,-112 7,-151 6,-15 10,-19 24,-28 16,-10 33,-11 62,-9 51,3 53,56 56,84 3,29 16,24 45,23l15 -13c0,-31 0,-62 0,-93 0,-36 -10,-38 2,-63l5 -9c1,-1 1,-2 2,-3 11,-17 11,-10 22,-24 1,-2 7,-12 9,-15l26 -35c153,134 313,256 464,391 240,214 501,406 740,622 19,17 29,23 49,36 28,-19 58,-48 68,-85 -132,-88 -499,-424 -664,-553 -20,-16 -26,-25 -45,-40 -23,-19 -26,-15 -43,-41 12,-18 17,-19 31,-36 11,-13 19,-27 28,-40 -15,-20 -72,-62 -95,-83l-486 -410c16,-4 34,-3 57,-3 11,-16 14,-18 14,-46l0 -517c74,52 149,103 225,153 334,221 707,491 1043,724 17,12 380,274 418,284 21,-14 52,-57 59,-85l-758 -527c-19,-15 -29,-25 -53,-31 20,-38 40,-57 59,-93 -104,-55 -478,-332 -615,-424l-156 -106c-20,-13 -32,-24 -49,-36 10,-39 40,-54 51,-93 -72,-38 -140,-92 -206,-140 -20,-14 -31,-20 -51,-34l-39 -27c4,-1 8,-1 19,0 15,1 24,2 40,2 5,-7 8,-12 14,-20l5 -43c2,-34 3,-155 3,-293l1 1c76,42 141,80 217,121l1732 973c45,27 176,109 218,120 11,-47 38,-48 42,-101 -45,-11 -831,-461 -854,-473 4,-49 30,-51 42,-101 -43,-10 -269,-148 -327,-180 -38,-22 -71,-38 -109,-60l-324 -183c-24,-14 -84,-52 -110,-59 12,-51 38,-52 42,-101 -46,-12 -370,-203 -435,-242l-138 -78c-1,-84 -3,-142 -5,-147 -9,-30 -45,-22 -84,-22 -4,-17 -7,-18 -12,-40 -8,-46 2,-90 2,-137 31,-16 12,-19 60,-19 248,111 503,211 747,329 76,37 155,66 234,104 79,38 154,67 234,104l468 208c159,68 312,139 468,209l352 155c31,14 82,41 113,48 17,-33 33,-61 42,-101 -79,-18 -157,-64 -231,-99 -77,-36 -147,-62 -223,-99 -78,-37 -151,-64 -228,-101l-169 -76c-22,-10 -34,-13 -53,-23 15,-32 26,-62 42,-93 -104,-55 -579,-263 -684,-306 -60,-24 -168,-86 -229,-100 3,-39 25,-65 34,-101 -38,-18 -79,-33 -118,-51l-333 -149c-78,-36 -148,-64 -225,-100 -1,-44 -2,-81 -2,-98 0,-20 2,-141 2,-231l2481 835c53,18 185,69 231,73 7,-28 22,-78 34,-101 -59,-5 -386,-127 -470,-155 -82,-27 -152,-51 -235,-78 -44,-15 -76,-25 -120,-40 -37,-12 -83,-25 -113,-39 4,-43 22,-59 25,-101 -180,-42 -841,-304 -947,-313 3,-34 21,-77 34,-101 -67,-32 -395,-136 -472,-162l-361 -120c-37,-12 -83,-25 -113,-39 11,-24 27,-73 34,-101 -20,-2 -51,-9 -85,-20 0,-8 1,-15 1,-22 0,-35 -8,-70 33,-79 0,-26 0,-52 0,-78 129,31 258,58 388,91 578,147 1173,272 1752,412l766 181c34,9 69,21 105,22 8,-17 23,-78 25,-101 -321,-75 -642,-153 -964,-228 2,-23 17,-85 25,-101 -37,-3 -83,-19 -125,-27 -143,-30 -771,-194 -856,-201 5,-22 18,-85 25,-101 -161,-38 -322,-74 -485,-115 -87,-22 -160,-36 -247,-57 -44,-11 -81,-21 -122,-30 -39,-8 -81,-23 -118,-26 8,-34 17,-67 25,-101l-48 -11 1 -2c5,-17 19,-27 34,-36 38,-22 71,7 74,8 14,7 22,5 42,5 18,-37 2,-21 0,-56 -2,-26 -2,-53 -2,-81 968,137 2874,405 2890,396 18,-10 19,-78 20,-105 -82,0 -166,-24 -246,-33 -228,-25 -520,-84 -735,-102 0,-42 8,-52 8,-101 -38,-3 -83,-12 -125,-18 -40,-6 -80,-11 -126,-18 -78,-11 -161,-22 -245,-34 -113,-16 -388,-65 -493,-65 0,-48 8,-58 8,-110 -103,0 -435,-56 -545,-72 -526,-78 -428,-13 -428,-164 -10,0 -98,-12 -159,-21 0,-156 56,-187 233,-163l2166 99c188,0 381,23 566,25 236,3 203,43 203,-102l-989 -42 0 -101c-333,-23 -665,-28 -998,-51l0 -101c-70,0 -118,-9 -177,-9l-169 -8c-363,-11 -525,10 -528,-323 54,-4 108,-7 165,-6l1547 -76c89,1 195,-15 287,-17 109,-3 393,-10 484,-23l192 -11c33,-2 69,2 102,0 39,-2 46,-8 93,-8l0 -93c-6,-18 -28,-8 -101,-8l-516 25c-138,-1 -243,17 -381,17l0 -101 -260 11c-40,6 -77,6 -129,6 -52,0 -65,9 -118,9l-499 25c0,-104 12,-104 -110,-102 -212,14 -422,21 -634,34 -56,0 -102,3 -151,5 0,-2 1,-4 1,-6 1,-7 1,-9 2,-16 5,-29 14,-40 12,-73 -3,-44 -25,-15 -29,-55 -8,-88 11,-77 14,-112 1,-12 -1,-27 -1,-39 254,-37 368,-54 569,-83 910,-133 2221,-323 2262,-323 -1,-29 -11,-84 -17,-110l-981 144c-2,-27 -11,-76 -17,-101 -94,0 -699,100 -822,117 -131,18 -168,46 -177,-6 -4,-23 -7,-47 -8,-69 -46,0 -206,22 -379,47 -1,-67 -2,-125 -2,-146 0,-113 6,-98 -55,-108l-23 -14c-3,-5 -5,-12 -5,-18 -1,-11 0,-30 0,-42l0 -6 1889 -454c87,-22 360,-98 445,-105 -3,-35 -18,-77 -25,-110 -47,22 -644,157 -727,178 -58,15 -193,38 -237,59 -8,-34 -17,-67 -25,-101 -37,3 -85,19 -123,29 -44,11 -84,19 -124,29l-490 118c-56,13 -200,40 -243,61 -1,-39 -14,-65 -17,-101 -34,3 -114,21 -213,45 6,-38 -15,-101 46,-153 28,-24 23,-33 23,-75 53,-28 42,-26 42,-102 0,-55 1,-83 56,-84 23,-1 40,7 48,22 35,60 -9,155 49,160 0,59 -7,51 26,81 17,16 31,46 63,30 13,-26 5,-269 5,-321 -26,-14 -45,-13 -50,-43 93,-32 185,-64 283,-96l1165 -399c78,-26 154,-61 234,-79 -4,-43 -22,-59 -25,-101 -71,6 -600,201 -715,240 -77,26 -158,46 -231,81 -3,-34 -21,-77 -34,-101 -51,25 -365,132 -618,216 -4,-8 -7,-23 -7,-56 0,-47 -4,-57 28,-75 0,-36 0,-63 4,-94 8,-57 41,-73 58,-91 14,-15 3,-30 10,-51l25 -31c6,-4 10,-5 15,-8 0,-42 -9,-100 8,-136 6,-13 19,-29 33,-37 9,-5 10,-5 24,-5 0,0 13,1 13,1l19 10c0,0 8,6 8,6 5,5 8,8 11,12 16,21 10,64 9,93 -1,80 8,44 33,74 19,22 -14,39 22,71l48 59c16,27 -4,71 46,47 8,-8 0,-124 23,-163l8 -16c0,-1 1,-2 2,-3 3,-5 13,-19 18,-24 6,-7 14,-15 21,-21 5,-4 11,-8 13,-10 8,-6 10,-7 13,-20l1 -27c0,-5 0,-13 1,-18 3,-11 2,-4 6,-12l8 -29c6,-19 6,-8 20,-18 22,-15 11,-146 12,-249l404 -182c36,-18 76,-36 116,-53l239 -107c-3,-39 -25,-65 -34,-101 -43,10 -79,33 -118,51l-564 256c-8,4 -16,7 -23,10 6,-17 13,-35 22,-50l21 -35c12,-19 21,-25 36,-39 43,-41 42,-31 71,-55l17 -11c72,-30 54,-7 56,-98 1,-63 38,-51 97,-52l15 -13c0,-116 1,-233 0,-349 0,-23 -1,-25 5,-42 3,-10 6,-24 10,-32 12,-25 25,-44 46,-61l42 -24c4,-1 15,-3 19,-5 20,-7 6,-10 28,-14 41,-7 40,4 54,11 39,19 69,12 100,72l8 15c0,1 1,2 2,3l4 10c9,25 13,33 13,71 -1,115 0,230 1,344l13 15c64,0 98,-12 98,56 0,122 12,59 68,100 1,1 4,4 5,4 6,5 6,5 11,8l98 89c5,8 8,15 14,24 9,13 6,6 13,24l18 47c25,48 16,171 16,226 0,200 1,92 34,166l9 15c10,21 -5,49 8,71 5,8 24,13 46,38l20 32c1,1 1,2 2,3 1,1 1,2 2,3l12 30c0,1 1,2 1,4 9,30 7,64 8,95 0,10 -6,3 2,16 8,12 17,8 34,8l10 -27c16,-27 26,-43 49,-62 25,-20 7,-53 24,-74 11,-14 17,-6 27,-20 22,-31 -6,-103 9,-140 1,-2 21,-25 21,-25 5,-4 0,-2 9,-5 16,-6 35,-7 51,0l21 16c34,35 20,112 20,156 16,9 24,13 33,27 12,17 9,35 9,56 78,52 65,99 65,186 37,25 33,16 33,75 0,49 10,55 -28,75l0 107c27,15 38,14 70,14 5,23 9,14 10,46 0,17 0,35 0,52 -1,44 -24,41 -52,56 0,61 0,121 0,182 0,134 -18,135 42,135 35,-53 51,-26 51,-112 47,-13 28,-74 29,-103 0,-23 2,-7 11,-25 4,-9 4,-21 6,-27 10,-37 25,-2 34,-36 41,0 23,-2 46,14 1,1 2,1 3,2 41,25 25,56 25,152 20,10 22,17 42,28 0,21 -4,50 6,63 7,9 38,25 51,56 10,24 13,48 12,76 -1,63 11,32 25,72 7,20 5,77 2,95 -3,14 -11,20 -21,30 -16,16 -11,95 -3,111 13,26 53,18 89,18 17,32 14,28 14,75 0,40 2,67 -37,70 -25,2 -36,0 -56,14 0,109 0,217 0,326 0,49 -12,156 10,195 0,0 5,9 7,12 15,24 10,68 25,73 28,8 33,-64 45,-80l45 -48c9,-8 7,-6 17,-11 0,-94 20,-58 28,-84 0,-45 -3,-76 7,-114 14,-55 69,-75 106,-37 12,12 14,23 19,42 8,33 3,78 3,114 37,20 33,22 33,75l53 58c19,26 9,-4 20,36 4,14 6,28 13,38 14,22 13,6 12,44l6 49c8,27 3,74 3,104 -53,35 -22,62 -13,110l9 43c8,24 12,117 -5,141 -11,16 -19,8 -34,18 -20,13 -13,58 -13,89 0,34 0,68 0,102 0,32 -14,141 40,91 11,-10 22,-11 26,-26 50,0 43,-8 64,11 3,2 20,18 20,18 23,31 14,122 14,172 10,6 18,9 26,16 15,14 -4,10 20,17l0 65c-25,-11 -52,-20 -80,-27 -109,-25 -212,-8 -307,51 -95,59 -155,144 -181,253 -25,109 -8,212 51,307 59,95 144,155 253,181 109,25 211,8 307,-51 6,-4 13,-8 19,-12 28,0 55,-1 77,0 57,1 95,15 96,79 1,38 5,73 1,101 -9,62 -77,60 -131,60l-39 0 3 2c23,18 24,47 25,78 0,24 -1,41 -3,63 -2,22 2,35 17,45 14,9 24,24 37,28l0 61 54 48c13,13 13,22 18,38 12,34 17,3 16,63 0,25 0,50 0,75 34,8 33,19 33,60 0,34 -3,57 -5,84 -16,1 -17,4 -28,9 0,36 -8,115 7,146 12,25 12,110 4,135 -10,34 -41,18 -67,30l0 587c0,30 5,45 5,79 49,11 241,-4 267,8l28 23c6,10 7,24 8,39 1,71 15,131 -56,131 -46,-1 -43,7 -42,51 2,125 -5,811 1,828l13 15 84 0c0,33 0,65 0,98 0,15 1,32 0,47 -1,33 -4,14 -10,37 -20,0 -41,-1 -61,-1 -28,0 -28,0 -28,28l1 336c0,545 -23,426 67,450l20 12c2,2 9,22 9,23 3,19 3,114 -1,132 -9,41 -6,42 17,70l18 33c5,11 50,49 60,52l0 172 51 0c5,-10 6,-19 8,-29l29 -83 93 0c4,8 4,14 7,21 6,10 8,9 12,16 11,20 4,137 4,164 15,1 8,1 15,4l10 4c13,6 21,13 27,29 5,13 3,8 4,24 2,46 21,43 46,70 18,20 12,2 26,35 4,9 4,13 8,20 0,1 1,2 1,3 23,52 13,64 13,127 7,4 12,9 20,13 9,4 7,2 10,2l0 5 513 0 6 4 0 112c-15,4 -26,14 -36,25 -1,1 -3,4 -4,5 -11,16 -7,34 -6,52 2,33 -10,76 36,81 23,2 60,0 84,0 18,27 16,30 19,65 17,4 35,5 51,10 9,3 16,5 25,7 21,5 23,10 45,16 13,4 8,2 21,7 10,4 13,4 21,7l59 29c10,6 7,6 17,11l38 22c10,7 8,4 18,10 45,25 63,51 99,78 32,23 70,63 97,94l15 27c17,29 -13,-21 4,6 18,28 23,51 35,72 8,14 4,-7 12,21l11 50c7,49 16,29 19,70 2,25 13,60 24,78l10 18c0,0 5,8 6,8l32 29c36,23 115,12 151,-5 8,-4 2,-1 9,-5 1,-1 2,-1 3,-2l18 -10c36,-20 78,-78 89,-111l2 -7c11,-32 18,-56 48,-73 10,5 4,3 19,5 20,85 5,370 5,475zm-5402 -821c73,-85 166,-131 278,-139 112,-8 210,25 295,98 85,73 131,166 139,278 8,112 -25,210 -98,295 -74,85 -166,131 -278,139 -112,8 -210,-25 -295,-98 -85,-74 -131,-166 -139,-278 -8,-112 25,-210 98,-295zm132 114c-42,49 -61,105 -56,169 4,64 31,117 80,159 48,42 105,61 169,56 64,-5 117,-31 159,-80 42,-48 61,-105 56,-169 -5,-64 -31,-117 -80,-159 -49,-42 -105,-61 -169,-56 -64,5 -117,31 -159,80zm431 -853l94 -147 659 423 -45 178 -708 -454zm557 -949c51,-100 130,-167 237,-201 107,-34 210,-26 310,25 100,51 167,130 201,237 34,107 26,210 -25,310 -51,100 -130,167 -237,201 -107,35 -210,26 -310,-25 -100,-51 -167,-130 -201,-237 -35,-107 -26,-210 25,-310zm155 79c-29,57 -34,116 -14,177 20,61 58,106 115,135 57,29 116,34 177,14 61,-20 106,-58 135,-115 29,-57 34,-116 14,-177 -20,-61 -58,-106 -115,-135 -57,-29 -116,-34 -177,-14 -61,20 -106,58 -135,115zm218 -928l64 -162 729 287 -10 183 -783 -309zm333 -1051c25,-109 85,-194 181,-253 95,-59 197,-76 307,-51 109,25 194,85 253,180 59,95 77,197 51,307 -25,109 -86,194 -181,253 -95,60 -197,77 -307,51 -109,-25 -194,-85 -253,-181 -60,-95 -77,-197 -51,-307zm170 39c-14,63 -5,121 29,175 34,54 82,89 145,103 63,14 121,5 175,-29 54,-34 89,-82 103,-145 14,-63 5,-121 -29,-175 -34,-54 -82,-89 -145,-103 -63,-14 -121,-5 -175,29 -54,34 -89,82 -103,145zm441 -1076l-427 -54 -22 173 834 106 -29 -178 -357 -46 0 0zm-4642 5455c-170,0 -339,0 -509,0 -46,0 -109,-5 -141,-1 -24,3 -110,4 -221,4l-13 -19c32,-17 53,-34 85,-51 -7,-30 -212,-342 -356,-559l46 -62c10,-8 8,-9 16,-17l266 -186c1,-1 2,-1 3,-2l6 -4c19,-10 45,-12 63,-21l24 -8c245,309 487,619 733,927zm-1000 2c-227,-1 -496,-3 -594,-2 -26,0 -36,-4 -60,-9l-1 -2 0 -425c1,-23 3,-40 5,-49 13,-1 13,-2 23,-5 40,35 29,61 53,96 37,55 39,68 97,103 49,30 138,41 183,-1 17,-16 15,-20 27,-38 1,-1 1,-2 2,-3 6,-10 13,-26 18,-44l247 378z"/>
   <path class="fil1" d="M14297 4664c20,-12 89,-86 112,-108 100,-100 237,-245 332,-332l441 440c32,-19 68,-77 97,-90l591 588 90 -92c21,10 166,162 194,190 186,186 380,385 566,566 -26,33 -62,60 -91,93 7,13 288,290 294,297 53,56 100,99 148,147 26,26 48,48 74,74 20,20 52,56 72,70 -13,32 -69,69 -90,99 16,30 384,379 438,443 -21,29 -80,82 -109,111 -38,38 -73,73 -111,111 -31,31 -207,203 -219,222l91 92 -589 587c10,26 72,76 92,100 -27,32 -64,65 -95,96 -33,33 -62,62 -95,95l-378 378c-26,26 -173,179 -191,186l-93 -91c-21,15 -55,53 -76,74 -63,63 -500,505 -517,514l-93 -90 -441 440 -440 -440c-30,16 -67,72 -97,90l-591 -590 -97 93 -755 -756c20,-24 81,-73 91,-98l-589 -588c25,-33 65,-61 90,-94 -18,-32 -396,-388 -439,-444l439 -442c-22,-30 -64,-63 -91,-94l590 -588c-10,-22 -73,-78 -94,-99l758 -757 96 93 591 -590 91 92zm241 3608c-16,-63 24,-111 70,-122 61,-15 112,25 123,72 30,131 -161,172 -193,50zm420 -5c-29,128 -226,89 -194,-45 11,-47 62,-86 120,-72 46,11 87,61 74,117zm28 -42c-12,-61 31,-109 79,-118 59,-11 108,30 117,78 25,135 -172,160 -195,40zm-670 0c-29,-131 161,-172 193,-50 16,62 -25,110 -70,122 -60,16 -112,-26 -122,-72zm1074 -78c-12,47 -61,87 -122,71 -47,-12 -86,-64 -69,-125 33,-118 225,-77 192,53zm-1285 -9c-29,-135 173,-164 195,-40 11,60 -32,108 -79,117 -59,11 -106,-30 -116,-76zm1281 -120c-20,-137 179,-155 196,-32 8,59 -34,107 -83,113 -58,8 -106,-33 -113,-82zm-1277 0c-37,130 -228,74 -192,-52 13,-45 61,-84 122,-68 44,11 86,63 70,121zm428 -78c-32,-133 163,-173 193,-50 15,60 -26,110 -71,121 -63,15 -110,-25 -121,-71zm411 -9c-28,131 -227,88 -194,-45 11,-45 61,-85 120,-71 45,10 87,57 74,116zm-548 -164c58,-13 109,28 119,75 13,59 -26,108 -73,119 -130,30 -174,-164 -45,-194zm632 -7c60,-20 109,20 123,64 19,59 -21,112 -65,125 -124,36 -188,-147 -57,-189zm-1252 -56c126,-44 185,142 69,186 -125,47 -195,-142 -69,-186zm1892 -9c58,-12 103,28 114,74 14,59 -26,109 -71,120 -130,32 -179,-165 -43,-194zm-1471 -27c57,-19 111,17 124,63 18,62 -22,114 -67,126 -124,35 -184,-147 -57,-189zm1013 -14c61,-22 113,15 128,62 41,125 -148,186 -189,64 -20,-61 17,-110 61,-126zm-377 -115c128,-35 175,159 51,191 -60,16 -110,-25 -122,-70 -16,-62 24,-109 71,-121zm-226 0c61,-19 109,20 123,65 19,60 -21,111 -66,124 -124,37 -187,-149 -58,-189zm1175 -33c60,-17 108,24 120,69 17,60 -25,111 -69,123 -125,33 -183,-154 -51,-192zm-2118 4c130,-32 172,167 44,194 -60,13 -108,-27 -119,-76 -13,-61 27,-106 75,-118zm1750 -31c126,-33 173,157 50,192 -126,35 -182,-157 -50,-192zm-1391 -15c130,-28 165,170 41,194 -130,26 -172,-166 -41,-194zm1020 -9c129,-29 168,165 44,194 -131,30 -172,-165 -44,-194zm-645 0c131,-42 180,151 62,188 -128,40 -185,-149 -62,-188zm-813 -156c56,-13 104,26 115,71 15,61 -27,112 -73,123 -126,28 -178,-162 -42,-193zm2286 -5c55,-13 105,27 115,73 14,62 -26,110 -72,121 -131,30 -177,-163 -43,-193zm-1643 -5c60,-20 111,16 125,60 21,61 -18,113 -60,128 -126,43 -190,-145 -65,-187zm1292 0c123,-36 177,156 51,191 -123,34 -184,-153 -51,-191zm-320 -1c59,-21 113,20 126,65 17,59 -20,110 -64,124 -124,40 -189,-144 -62,-189zm-1284 -13c56,-13 103,27 115,73 15,60 -26,110 -72,121 -131,30 -178,-163 -43,-193zm231 -193c122,-43 185,148 61,188 -61,20 -110,-19 -125,-61 -10,-28 -6,-61 8,-84 13,-23 29,-33 57,-43zm1421 -2c122,-42 189,144 63,188 -63,22 -114,-21 -127,-65 -18,-60 19,-108 64,-123zm-278 2c123,-36 179,150 57,189 -124,41 -191,-150 -57,-189zm618 -9c127,-33 172,158 50,192 -128,35 -181,-158 -50,-192zm-2367 4c126,-30 171,166 43,193 -130,28 -173,-162 -43,-193zm312 -10c60,-14 108,27 118,73 15,62 -27,110 -74,121 -128,28 -173,-163 -44,-194zm843 -407c236,-30 426,149 449,353 27,236 -146,423 -351,447 -238,29 -423,-144 -450,-349 -32,-239 146,-426 352,-452zm-536 196c56,-11 104,30 113,75 13,60 -28,109 -75,119 -128,28 -176,-167 -39,-194zm1408 8c61,-21 114,20 128,65 18,59 -20,109 -65,123 -122,41 -188,-145 -63,-189zm-279 -4c134,-41 177,154 58,189 -125,37 -184,-151 -58,-189zm-1745 -10c59,-13 108,30 117,76 12,60 -28,108 -76,118 -131,27 -171,-167 -41,-195zm2364 -3c58,-16 108,25 120,70 15,59 -24,109 -69,121 -127,35 -184,-155 -51,-192zm-2061 5c129,-35 176,159 51,192 -125,33 -179,-157 -51,-192zm1675 -200c128,-35 178,163 50,193 -130,31 -172,-159 -50,-193zm-313 3c59,-20 109,18 124,63 20,62 -23,113 -67,126 -121,35 -186,-145 -57,-189zm-973 -3c126,-35 178,157 53,192 -59,16 -110,-23 -122,-67 -18,-62 23,-112 69,-125zm-328 -14c130,-20 159,179 30,197 -133,19 -155,-178 -30,-197zm-324 -7c58,-16 109,25 120,69 16,59 -24,110 -69,123 -127,34 -182,-155 -51,-192zm2279 -4c125,-39 180,158 51,192 -121,32 -182,-151 -51,-192zm-816 -148c57,-10 103,31 113,76 13,61 -29,110 -78,119 -129,25 -169,-170 -35,-195zm-646 5c123,-39 183,158 51,191 -122,31 -180,-151 -51,-191zm1011 -18c63,-23 112,18 127,62 20,59 -19,110 -58,124 -125,45 -195,-139 -69,-186zm-1417 -15c132,-42 178,152 62,188 -128,41 -185,-150 -62,-188zm1792 -36c56,-13 103,27 114,73 15,60 -26,110 -72,121 -129,30 -180,-162 -42,-193zm-2124 8c133,-43 178,152 62,188 -127,40 -185,-149 -62,-188zm941 -23c59,-18 112,17 125,64 18,62 -22,112 -67,125 -126,36 -181,-151 -58,-189zm237 -4c56,-11 103,30 113,75 13,62 -29,111 -78,120 -127,23 -170,-168 -34,-195zm-633 -138c131,-45 181,156 58,189 -125,33 -180,-148 -58,-189zm1029 -9c124,-29 167,166 43,193 -131,29 -176,-162 -43,-193zm-1440 -19c56,-13 105,27 116,73 14,62 -26,110 -73,121 -132,30 -175,-163 -43,-193zm1866 -6c59,-12 105,30 114,77 13,63 -29,110 -78,119 -129,23 -168,-169 -36,-195zm-1267 -73c59,-20 110,17 125,60 21,61 -18,113 -60,128 -126,44 -190,-145 -65,-187zm641 -5c126,-37 181,150 58,189 -60,19 -110,-20 -124,-63 -21,-62 18,-113 66,-126zm-200 -56c127,-25 164,172 37,195 -61,11 -108,-31 -117,-79 -11,-61 30,-106 80,-116zm-231 5c121,-42 189,145 63,188 -64,22 -114,-21 -127,-65 -18,-60 19,-107 64,-123zm-622 -60c128,-31 172,166 44,194 -128,27 -174,-163 -44,-194zm1465 -3c124,-44 184,153 57,189 -120,34 -186,-144 -57,-189zm-1272 -120c57,-14 105,26 116,70 15,60 -23,110 -70,122 -127,33 -183,-160 -46,-192zm1093 -5c55,-11 104,27 114,72 15,62 -25,110 -72,121 -132,31 -177,-166 -42,-194zm-212 -83c56,-13 104,26 115,71 15,61 -26,112 -73,123 -126,28 -177,-162 -42,-193zm-676 3c123,-35 177,156 51,191 -123,35 -184,-153 -51,-191zm453 -46c56,-13 105,28 116,72 16,63 -26,111 -73,122 -129,28 -177,-161 -43,-193zm-238 4c58,-20 113,19 126,65 17,59 -19,109 -63,124 -124,41 -190,-144 -62,-189zm-1453 730c23,26 74,68 90,93 -33,27 -429,426 -438,442 59,68 422,412 438,443 -19,34 -73,65 -90,98 20,14 48,46 67,66l856 856c27,27 109,116 135,131l90 -91c24,8 93,86 116,109 41,41 316,321 335,331 22,-30 80,-81 110,-111 51,-51 314,-319 332,-327l92 90c90,-84 177,-177 265,-264 90,-90 176,-176 265,-265 56,-56 516,-511 526,-530l-89 -92c26,-36 420,-413 438,-443 -11,-23 -197,-201 -220,-225 -72,-72 -151,-145 -218,-218 19,-35 71,-65 90,-98 -20,-15 -48,-46 -67,-66 -106,-106 -967,-971 -990,-988l-90 91c-18,-10 -194,-191 -224,-221 -24,-24 -200,-210 -227,-219l-441 439 -91 -90c-23,17 -750,748 -796,794 -22,22 -251,244 -261,265zm1147 -2107c21,-9 423,-417 444,-439 23,12 190,186 224,219l221 220 93 -93 594 591 95 -92 1011 1014 -92 91c10,22 256,261 295,300l294 296 -92 93 441 443 -439 442 91 91 -148 150c-67,67 -431,425 -440,445l93 93 -1013 1013 -97 -94 -590 590c-24,-22 -71,-78 -95,-90 -70,56 -404,418 -443,438 -40,-44 -424,-430 -443,-438l-90 90c-90,-80 -552,-560 -592,-589 -29,16 -67,69 -96,91 -42,-37 -86,-85 -127,-126l-380 -381c-30,-30 -492,-486 -504,-508l94 -93 -591 -594 92 -93 -438 -442c12,-21 289,-293 331,-334 33,-33 79,-74 107,-108l-92 -94 590 -593 -91 -93c10,-19 219,-223 252,-256 80,-80 706,-714 759,-758 29,23 68,76 96,91l296 -295c61,-61 247,-253 296,-294l89 91zm343 -2598l21 0c56,0 39,9 39,129 0,50 5,83 5,134 0,97 5,179 5,277 81,0 60,-5 60,129 0,51 5,86 5,138 0,98 5,182 5,281 35,0 60,-22 60,23l4 222c0,103 5,191 5,295 48,0 61,-15 60,41l4 208c2,23 56,71 74,83 0,-41 3,-91 8,-126l75 -1101c2,-37 9,-80 9,-120l42 -609c68,0 61,-11 56,60l-10 138c-2,97 -23,262 -23,346 69,0 54,-8 51,60 -4,72 -14,140 -14,207 0,49 -9,95 -9,143 0,44 -9,90 -9,137l55 6c0,44 -9,93 -9,138 -1,66 -12,133 -14,203 -2,65 -14,133 -14,203l55 0c0,90 -23,232 -23,323 0,67 -14,131 -14,194 17,-11 28,-26 43,-40 20,-20 23,-16 28,-50 7,-43 14,-91 22,-135l300 -1817c4,-23 9,-43 9,-69 21,0 41,8 60,9 -1,44 -36,220 -43,270 -11,71 -39,197 -44,265 18,1 38,8 55,9 -1,42 -15,92 -22,135 -8,47 -14,87 -22,134 -8,46 -43,229 -43,270 14,3 39,9 55,9 -25,106 -48,289 -67,403 -4,25 -7,44 -11,67 -4,23 -9,43 -9,69 14,0 32,1 42,4 16,5 12,8 9,27l-75 452c-3,20 -11,54 -14,76l43 40c3,-38 24,-98 35,-136 13,-46 24,-90 35,-135 66,-266 145,-537 211,-803 66,-268 145,-539 212,-807 11,-42 66,-230 69,-268 19,4 37,10 55,14 0,30 -103,411 -118,463 -6,19 -14,44 -15,63 14,3 40,9 51,14 -1,39 -57,228 -68,268 -12,45 -23,86 -34,132 -9,37 -20,97 -36,130 19,4 37,10 55,14 -2,28 -93,360 -103,395 -7,23 -11,44 -17,66 -4,15 -13,53 -18,65 17,4 39,12 55,14 -14,59 -31,118 -46,175 -39,146 -72,295 -115,439 -7,23 -15,70 -23,86l27 24c22,-45 36,-94 52,-141l253 -692c54,-139 100,-280 154,-418 71,-183 132,-370 202,-554 18,-47 34,-91 50,-139 12,-36 97,-249 100,-278 16,1 43,12 55,18 -2,23 -14,44 -21,66 -8,25 -14,40 -23,65 -18,52 -135,344 -136,381 18,2 27,9 46,14 -1,25 -12,46 -20,67 -23,66 -145,408 -164,449 13,6 35,15 51,18 -3,38 -121,333 -139,387 -13,39 -27,87 -46,125 9,4 40,16 51,18 -2,24 -142,396 -148,410l-74 202c-12,33 -25,67 -37,101 -11,35 -45,83 -9,93 5,-23 146,-311 168,-354 57,-114 107,-234 164,-348 70,-138 130,-280 200,-418 13,-25 21,-47 34,-72l332 -696c12,-24 20,-45 32,-69l68 -140c18,-38 54,-101 63,-140 19,2 41,15 55,23 -9,38 -143,296 -173,367l-58 122c14,7 35,19 51,23l-235 498c16,4 37,16 51,23 -19,37 -228,464 -231,494 20,5 26,14 46,18 -10,42 -172,362 -208,443 -23,51 -116,222 -124,262l22 19c68,-129 232,-392 308,-518l850 -1424c16,-26 68,-105 74,-129 23,2 40,17 55,28l-140 234c-19,35 -129,202 -137,232 14,7 32,20 46,23 -7,32 -214,365 -246,418 -10,17 -29,42 -31,61 14,3 32,16 46,23 -11,21 -23,40 -36,61l-104 173c-24,42 -46,77 -70,119 -18,31 -59,86 -67,118 14,7 32,20 46,23 -4,15 -18,34 -26,48l-359 601c-26,44 -57,72 -30,90 27,-18 52,-67 72,-94l228 -312c9,-12 15,-20 23,-32 15,-22 31,-40 45,-61l434 -594c8,-11 14,-18 22,-29 43,-64 95,-125 138,-189 15,-22 29,-39 45,-61 17,-23 30,-41 46,-64 44,-63 93,-123 137,-186 16,-23 31,-40 47,-64 25,-36 207,-292 229,-306 15,10 23,18 42,28 -5,21 -25,42 -38,59l-241 331c-14,19 -28,35 -40,53 19,10 29,21 46,32 -13,20 -27,36 -41,56 -14,20 -26,36 -41,56l-202 277c-15,19 -26,34 -39,53 9,6 36,25 42,32 -6,22 -25,41 -38,59 -43,57 -269,357 -275,384 14,10 26,19 42,28 -8,16 -21,32 -32,47l-166 226c-101,134 -195,274 -298,408 -22,28 -27,21 -12,43 26,-18 61,-62 82,-88 9,-12 17,-16 26,-29l208 -234c44,-48 84,-101 129,-148l53 -58c11,-12 13,-18 25,-30l157 -175c11,-13 13,-17 26,-30 49,-49 149,-173 207,-235 80,-85 186,-218 261,-293 49,-49 126,-147 182,-205 12,-12 14,-18 25,-30 12,-13 15,-15 26,-29 10,-13 17,-17 26,-29 11,-14 13,-17 26,-29 37,-37 67,-80 104,-118 12,-12 15,-18 25,-30 20,-22 58,-72 80,-87 6,4 38,32 42,37l-355 406c13,20 23,17 37,37 -4,16 -94,111 -112,132 -8,10 -15,14 -23,23l-225 255c4,5 35,33 42,37 -8,12 -15,16 -24,27l-137 154c-10,11 -11,15 -21,25 -39,42 -151,163 -179,204 13,9 27,23 42,32 -21,31 -49,60 -75,86l-260 294c-38,49 -250,272 -255,292l8 10c43,-28 185,-177 233,-214 22,-17 38,-38 58,-57 12,-11 18,-13 30,-25l143 -134c11,-11 19,-19 30,-30l115 -106c10,-10 17,-17 28,-28l431 -404c12,-12 18,-15 30,-25l487 -458c61,-48 215,-209 260,-240l41 38c-13,19 -30,33 -49,48l-100 94c-19,19 -28,27 -48,44l-195 188c5,7 9,14 15,22 8,9 10,10 17,20 -9,14 -12,15 -26,25l-372 350 38 36c-23,35 -156,149 -197,190l-51 46c-9,9 -16,17 -25,25 -11,10 -15,11 -25,21 -29,27 -65,69 -98,91l37 46c-16,11 -25,25 -40,38 -10,9 -13,9 -23,18 -7,7 -11,11 -18,19l-240 226c-10,10 -13,10 -23,19l-180 170c-23,23 -111,96 -116,113l8 10c15,-4 21,-14 33,-22 12,-9 20,-15 31,-24l188 -144c43,-34 81,-64 125,-97 44,-33 81,-64 124,-97l809 -625c11,-9 18,-15 31,-24l154 -119c21,-16 40,-31 63,-48l374 -290c22,-16 38,-32 61,-45 10,18 27,30 32,51 -23,6 -189,143 -213,161 -70,52 -139,113 -212,162 6,27 25,28 28,55 -22,6 -291,222 -322,245 -36,27 -71,58 -107,82 9,14 28,35 32,51 -16,4 -43,29 -57,40 -9,8 -18,13 -26,20l-80 63c-20,15 -33,26 -52,40 -72,53 -140,115 -213,165 12,18 30,28 32,51 -14,4 -32,20 -44,30l-625 483 15 18c45,-24 90,-57 134,-83 11,-7 21,-14 33,-22l556 -352c23,-14 43,-27 65,-41 11,-7 21,-14 33,-22l96 -61c178,-106 348,-226 525,-333l65 -41c172,-114 349,-220 522,-331 19,-12 44,-36 68,-38 5,19 18,27 23,46 -13,17 -187,124 -226,147l-170 107c-19,13 -38,24 -56,36 6,21 22,29 28,51 -59,31 -171,104 -232,146l-116 73c-11,7 -17,11 -28,18l-85 53c9,17 23,32 28,51 -64,34 -216,133 -286,180l-113 71c-22,13 -34,23 -57,35 5,18 19,35 28,51 -14,10 -27,17 -42,27l-499 317c-30,18 -107,59 -123,81l15 18c54,-12 2106,-1081 2159,-1093 5,23 18,33 23,51l-480 244c4,16 16,37 23,51 -161,85 -328,164 -489,249 9,17 18,33 28,51 -44,23 -463,239 -484,244 5,22 18,33 23,55 -23,5 -247,123 -289,145 -34,17 -62,33 -94,49 -62,31 -133,62 -194,97 -60,35 -127,64 -190,97l15 18c76,-37 210,-83 291,-115l1952 -774c22,-9 49,-18 69,-28 9,17 15,38 23,55 -61,29 -358,142 -440,174 -20,8 -44,20 -63,24 5,22 13,33 18,55 -19,4 -46,18 -67,26 -72,29 -388,160 -441,173 5,22 13,33 18,55l-125 50c-44,16 -82,32 -126,49 -44,18 -81,32 -125,50 -38,15 -88,40 -127,49 5,22 13,33 18,55 -15,3 -34,13 -47,18 -83,33 -619,252 -650,254 9,33 32,28 61,19l792 -232c98,-29 1406,-416 1444,-419 5,10 14,41 14,55 -87,20 -175,51 -261,76 -43,12 -85,24 -128,38 -40,13 -90,21 -127,39 4,17 12,38 14,55 -21,2 -51,13 -70,18l-329 96c-22,7 -44,13 -64,19 -20,6 -47,12 -64,19 6,13 13,37 14,55 -35,3 -339,97 -387,111 -37,11 -90,33 -130,36 0,19 8,43 14,55 -18,9 -54,17 -74,23 -26,7 -45,13 -71,21 -49,14 -411,125 -440,127 36,54 59,35 113,25l201 -38c91,-18 179,-34 271,-52l1489 -287c43,-9 93,-22 136,-26 4,8 7,27 9,38 6,31 -13,22 -48,30l-402 78c-23,4 -54,12 -76,12 0,37 23,55 -11,62l-221 42c-68,13 -235,52 -298,57 2,20 9,34 9,55 -37,9 -490,101 -530,101 0,21 5,38 9,55 -17,8 -113,24 -142,29l-286 55c-39,7 -32,4 -58,30 -15,15 -29,26 -40,43 36,-8 96,-11 138,-14 43,-3 89,-12 134,-14 43,-2 91,-11 134,-14l816 -79c43,-2 91,-11 134,-14 45,-3 92,-9 134,-13 47,-5 89,-6 135,-13l404 -39c41,-2 93,-13 134,-14l5 60c-38,0 -98,9 -135,13 -94,10 -179,13 -269,26 -48,7 -89,12 -136,12 6,13 5,23 6,41 2,31 -13,15 -92,25 -123,16 -256,21 -378,37 -16,2 -58,8 -75,8 6,12 5,-4 5,14l0 42c-15,0 -49,5 -67,7 -21,3 -49,5 -67,6 -125,8 -288,37 -406,37l5 60c-33,0 -66,4 -94,8l-266 24c11,16 26,28 40,43 20,20 16,27 52,27l485 0c55,0 98,-5 157,-5l1264 0 0 55 -540 5 0 55 -549 0c0,16 10,60 -14,60l-530 0 0 55 -157 0c-15,0 -79,70 -88,83l353 30c156,22 309,23 464,43 19,2 44,4 59,6 99,8 189,11 288,25 37,5 83,9 118,12l406 37c60,6 116,15 175,15l-5 60 -540 -51c0,27 -3,36 -5,55 -92,0 -184,-18 -272,-23 -90,-5 -183,-23 -272,-23l-5 55 -544 -51c0,27 0,34 -5,55 -54,0 -333,-26 -396,-33 -36,-4 -25,-10 -50,16 -12,13 -24,22 -33,36 23,0 44,6 68,10l451 84c259,46 521,93 778,145 213,43 432,78 646,120 23,5 41,8 66,12 21,4 43,10 63,11 -7,30 1,61 -28,56l-222 -42c-98,-20 -200,-34 -295,-56 0,21 -8,36 -9,55 -44,-1 -94,-15 -137,-24 -42,-9 -86,-16 -132,-25 -48,-9 -90,-16 -136,-25 -44,-9 -90,-23 -134,-23 -3,14 -8,36 -9,51 -47,0 -94,-16 -138,-23 -44,-7 -86,-17 -132,-25l-198 -37c-21,-4 -48,-10 -67,-12 -3,14 -9,39 -9,55 -18,-2 -45,-8 -67,-12 -25,-5 -40,-8 -66,-12 -41,-7 -86,-16 -132,-24 -46,-8 -88,-18 -132,-25 -57,-9 -66,-16 -101,37 35,17 470,135 509,146l1019 291c87,25 167,48 255,73 84,24 170,52 256,72 0,18 -8,48 -14,60 -17,-8 -45,-14 -67,-20 -61,-17 -419,-126 -454,-127 -4,18 -10,34 -14,51 -19,-2 -51,-13 -69,-18l-330 -94c-24,-7 -41,-12 -65,-18 -21,-6 -46,-15 -66,-17 -1,26 -9,25 -9,51 -38,-1 -224,-61 -265,-72 -42,-12 -228,-59 -261,-75 -4,19 -12,34 -14,55 -24,-6 -49,-14 -75,-21l-452 -129c-26,-7 -48,-15 -71,-20l-33 36c29,2 1053,407 1061,410 175,70 351,135 528,206l399 155c21,8 45,19 66,26 20,7 46,20 64,24 -4,18 -14,34 -18,55 -46,-11 -207,-78 -254,-97 -29,-11 -227,-95 -254,-97 -8,15 -14,32 -18,51l-67 -26c-23,-9 -43,-16 -63,-24l-256 -100c-42,-17 -85,-39 -127,-49 -6,11 -17,36 -18,51 -21,-5 -47,-16 -68,-24 -23,-9 -39,-16 -63,-25 -23,-8 -42,-16 -63,-25l-190 -73c-39,-14 -86,-43 -129,-47 -4,16 -12,37 -18,51 -25,-13 -57,-23 -86,-34l-561 -219c-13,-5 -29,-12 -41,-15 -11,8 -19,13 -23,28 34,8 489,242 533,264l932 466c76,38 620,321 661,331 -5,22 -18,33 -23,55 -32,-17 -460,-237 -489,-240 -5,20 -14,26 -19,48l-493 -246c-7,14 -19,35 -23,51 -13,-3 -46,-23 -62,-31 -142,-71 -288,-140 -427,-214 -7,14 -19,35 -23,51 -13,-4 -59,-30 -77,-38l-228 -114c-101,-50 -205,-100 -304,-151l-24 27c8,10 17,14 29,22 13,7 20,13 31,20l491 307c22,13 42,27 62,39l366 229c165,101 326,207 491,307l125 78c20,14 40,25 63,39 35,22 289,174 302,192 -6,21 -17,22 -23,46 -25,-2 -316,-192 -350,-213 -27,-17 -88,-62 -116,-68 -9,13 -19,24 -23,42 -21,-2 -47,-23 -64,-33 -20,-13 -37,-22 -57,-35 -40,-25 -77,-47 -116,-73l-176 -110c-21,-13 -37,-24 -57,-35 -11,17 -18,28 -28,46l-435 -270c-12,-8 -16,-12 -30,-16 -10,19 -16,29 -28,46 -26,-17 -52,-32 -79,-50 -180,-116 -368,-223 -547,-341l-24 27c22,6 45,29 63,43 21,16 38,29 57,44 20,15 40,31 60,46 19,15 38,27 58,43l942 719c22,16 38,30 60,46l235 180c119,89 306,242 412,312 -5,21 -21,34 -32,51 -74,-50 -143,-110 -215,-163 -63,-47 -151,-122 -214,-164 -17,12 -21,30 -37,42 -39,-26 -74,-55 -111,-83 -33,-24 -303,-238 -327,-244 -8,13 -24,26 -28,42 -61,-33 -340,-265 -434,-327 -11,8 -28,27 -32,42 -14,-4 -30,-19 -42,-28 -13,-10 -25,-18 -40,-30l-230 -176c-40,-30 -283,-225 -311,-232l-15 18c13,20 230,218 273,257 55,51 113,99 166,152l551 510c12,12 18,15 30,25 9,8 16,16 25,25 19,19 36,31 55,51l249 231c12,12 15,13 28,23 20,17 33,36 54,52 23,18 34,34 55,51 13,11 17,13 30,26l55 51c10,9 16,16 25,26 31,30 148,128 165,153 -12,18 -18,29 -37,42 -47,-32 -106,-100 -153,-138l-244 -227c-19,13 -24,27 -37,37 -17,-4 -17,-11 -29,-22 -11,-10 -15,-11 -25,-21l-251 -233c-9,-9 -16,-17 -25,-25 -11,-9 -15,-10 -25,-21 -15,-15 -28,-37 -50,-44l-41 38 -397 -369c-10,15 -27,22 -32,42 -17,-4 -135,-119 -149,-133l-397 -364c-14,-12 -21,-24 -35,-32l-19 17c30,44 91,101 128,144 64,77 135,149 201,224l579 648c9,11 17,17 27,28l174 195c10,13 16,17 27,28l474 532c-5,7 -34,32 -42,37 -26,-17 -49,-54 -70,-77 -8,-9 -15,-14 -23,-23 -10,-11 -12,-16 -23,-28l-66 -72c-17,-21 -29,-30 -45,-51l-43 -49c-29,-32 -65,-66 -89,-100 -15,10 -29,26 -46,37l-45 -52c-9,-10 -17,-15 -25,-26l-229 -255c-11,-11 -12,-14 -21,-25 -5,-6 -41,-45 -45,-47 -15,10 -22,27 -42,32l-162 -175c-9,-11 -10,-14 -21,-25l-90 -99c-29,-30 -58,-76 -91,-98 -7,5 -14,9 -22,15 -9,8 -10,10 -20,17l-130 -142c-50,-62 -108,-116 -159,-177 -14,-16 -18,-22 -33,-37 -38,-38 -165,-194 -191,-212l-22 19c55,82 206,279 269,363l1070 1444c16,21 30,40 46,61 11,15 36,44 41,61 -15,10 -30,22 -46,32 -80,-120 -201,-262 -282,-382 -8,-12 -31,-45 -41,-52 -17,11 -27,22 -46,32 -25,-47 -127,-173 -161,-221 -51,-72 -112,-143 -161,-217 -10,5 -14,7 -23,14 -12,9 -8,10 -23,14 -17,-11 -226,-299 -244,-324 -25,-36 -59,-71 -79,-110 -17,11 -27,22 -46,32 -19,-14 -192,-256 -217,-290l-107 -146c-18,-25 -97,-118 -104,-145 -15,4 -20,12 -28,23 9,33 56,95 75,128l837 1382c51,86 100,165 151,250 13,22 144,226 150,251 -9,13 -34,28 -51,32 -5,-23 -252,-424 -277,-461 -16,4 -36,20 -51,28 -8,-29 -86,-145 -106,-180l-141 -233c-12,-21 -24,-38 -34,-58 -12,8 -35,24 -51,28 -83,-157 -194,-304 -277,-461 -15,4 -38,19 -51,28 -25,-37 -336,-548 -342,-568l-31 33c44,83 83,171 126,257 103,203 206,435 309,641 7,14 549,1122 557,1155 -14,7 -35,19 -51,23 -19,-36 -45,-84 -59,-121 -17,-41 -39,-80 -59,-121 -40,-80 -75,-164 -117,-243 -16,4 -37,16 -51,23l-240 -494c-14,7 -35,19 -51,23l-178 -366c-11,-22 -19,-42 -29,-63 -8,-16 -23,-42 -28,-60 -15,8 -37,22 -55,23 -5,-23 -27,-57 -38,-82l-272 -560 -27 24c5,21 18,48 26,71 9,24 17,44 25,67 16,45 33,91 52,138 10,24 18,49 26,71l178 476c18,48 34,90 51,138 17,47 33,88 50,134l204 548c34,93 69,183 103,276 16,45 33,91 52,138 9,23 16,44 25,68 8,22 20,47 25,67 -22,5 -33,13 -55,18 -28,-59 -112,-304 -143,-383 -15,-38 -37,-84 -46,-125 -13,6 -39,17 -55,18 -11,-47 -121,-331 -142,-384 -17,-43 -28,-88 -47,-128 -13,6 -39,17 -55,18 -11,-46 -30,-87 -46,-129l-94 -252c-13,-37 -41,-88 -44,-126 -21,5 -37,14 -55,18 -31,-65 -150,-400 -184,-490 -9,-23 -18,-45 -24,-68 -9,6 -37,28 -37,42 0,27 96,356 107,400 45,177 98,353 143,530 45,178 99,352 143,530 33,133 74,262 107,396 10,38 56,231 72,265 -17,8 -38,10 -55,18 -30,-62 -117,-467 -143,-521 -23,1 -32,9 -55,9 -10,-44 -25,-92 -36,-135 -11,-45 -22,-86 -35,-131 -13,-45 -23,-87 -36,-131 -12,-40 -18,-92 -36,-130 -19,4 -37,10 -55,14 0,-18 -11,-49 -16,-67l-53 -196c-11,-42 -66,-224 -69,-263 -9,4 -43,13 -55,14 -13,-27 -49,-178 -57,-210 -9,-37 -19,-68 -29,-105 -9,-35 -15,-74 -30,-104 -56,37 -52,51 -43,99 8,46 14,85 22,130l89 520c15,88 28,172 45,260l178 1044c-29,1 -54,23 -61,-8 -17,-72 -49,-286 -63,-371 -8,-50 -24,-98 -24,-147 -14,3 -39,9 -55,9 -14,-29 -68,-397 -83,-471 -4,-22 -10,-44 -10,-69 -19,2 -39,9 -60,9 0,-28 -6,-43 -10,-69l-34 -201c-8,-48 -15,-87 -23,-134 -7,-45 -20,-86 -20,-132 -21,0 -41,8 -60,9 0,-39 -31,-203 -41,-254 -5,-24 -3,-27 -18,-42 -15,-16 -41,-49 -61,-54 -10,20 36,572 46,705l10 129c7,60 6,124 15,188 10,65 9,130 16,192l24 318c2,86 14,171 18,258l10 128c7,67 25,74 -51,74 -8,-33 -42,-495 -42,-540 -79,7 -51,18 -62,-58 -11,-72 -35,-454 -35,-482 -73,0 -53,20 -63,-48l-26 -353c-4,-37 -5,-105 -13,-139 -23,0 -28,5 -55,5 0,-54 -9,-100 -9,-157 -20,14 -42,40 -61,59 -37,37 -31,19 -31,89 0,40 0,80 0,120 0,43 -5,70 -5,115l0 180c-1,21 -5,28 -5,55 0,66 7,172 -3,233 -9,63 0,169 -2,238 -1,24 -5,28 -5,55l0 180c0,44 -5,70 -5,115l-5 351 -60 0c0,-179 9,-357 9,-540l-55 -5c0,-182 9,-363 9,-544 -27,0 -32,-5 -55,-5 0,-137 5,-259 5,-397 0,-98 27,-81 -43,-146l-25 -26c-24,-24 -47,-54 -75,-73 -16,69 -15,145 -25,215 -10,73 -16,147 -24,215 -28,219 -47,430 -71,648 -8,69 -14,143 -24,216l-36 323c-15,115 12,91 -68,89 0,-47 50,-496 60,-540 -27,0 -32,-5 -55,-5 0,-49 9,-94 13,-139 6,-66 35,-381 47,-405l-55 -5c0,-62 56,-536 60,-544 -26,0 -35,-4 -55,-5 0,-67 13,-133 19,-198 3,-29 17,-68 -1,-87 -12,-13 -41,-42 -55,-52 -38,161 -63,321 -100,481l-297 1437c-19,-5 -40,-9 -60,-14 6,-12 11,-50 15,-68 4,-21 9,-41 14,-65l55 -268c8,-41 23,-87 27,-130 -20,-2 -34,-9 -55,-9l57 -271c9,-43 18,-88 28,-134 4,-21 9,-45 14,-69 4,-17 12,-44 13,-66 -21,0 -36,-8 -55,-9 7,-14 110,-507 111,-535 -21,0 -36,-8 -55,-9 11,-23 57,-271 64,-303l-59 -56c-4,18 -12,43 -18,61l-199 649c-25,77 -49,158 -73,236 -24,80 -49,155 -73,236 -15,51 -202,674 -218,709 -21,-2 -37,-10 -55,-14 3,-40 66,-220 79,-262 13,-42 29,-90 40,-131 11,-38 35,-91 38,-128 -11,-1 -43,-10 -51,-14 3,-39 66,-218 78,-263 12,-44 26,-85 40,-131 7,-23 13,-44 21,-67 6,-19 16,-42 18,-65 -17,-4 -33,-10 -51,-14 3,-38 26,-94 39,-132 15,-45 115,-353 118,-389 -8,-4 -40,-13 -51,-14 3,-37 22,-80 33,-115 12,-37 22,-74 35,-113 13,-39 22,-74 35,-113 30,-93 55,-109 -10,-153 -32,60 -124,297 -155,371l-75 183c-91,227 -189,448 -279,675 -17,43 -33,81 -51,124 -30,72 -243,577 -251,611 -17,-9 -38,-15 -55,-23l208 -503c-16,-4 -37,-12 -51,-18 1,-16 18,-50 25,-67 25,-64 160,-398 183,-440 -11,-6 -36,-17 -51,-18 1,-16 18,-52 25,-68l131 -317c16,-40 32,-86 52,-123 -16,-4 -37,-12 -51,-18 3,-33 96,-241 111,-277 18,-46 101,-228 110,-271l-36 -33c-7,29 -63,124 -82,158l-277 526c-12,23 -21,38 -32,60 -52,96 -110,217 -161,309 -12,22 -21,37 -32,60 -12,24 -23,41 -34,63l-131 248c-11,22 -19,41 -32,61 -13,21 -21,41 -33,64l-195 367c-9,16 -25,47 -29,63 -14,-3 -17,-6 -29,-13 -10,-6 -16,-9 -27,-15l254 -480c-18,-5 -28,-18 -51,-23 7,-26 111,-214 128,-246 22,-43 119,-212 126,-243l-46 -23c7,-31 104,-199 126,-243 23,-46 115,-206 123,-241l-46 -23c7,-32 46,-87 62,-118l182 -347 -41 -38c-34,64 -176,274 -223,344 -26,39 -48,74 -73,112l-738 1130c-25,40 -50,73 -75,114 -15,24 -67,93 -72,113 -19,-4 -33,-18 -51,-28 8,-32 122,-189 147,-231 46,-76 99,-152 148,-226 -17,-9 -29,-19 -46,-28 5,-23 219,-342 262,-407 12,-18 31,-36 33,-59 -14,-4 -27,-16 -42,-23 6,-28 187,-295 221,-346 24,-37 53,-76 74,-115 -24,-6 -25,-17 -46,-23 7,-30 97,-157 117,-187l80 -123c22,-32 110,-157 117,-185l-33 -31c-38,57 -308,389 -345,435 -16,20 -29,36 -45,56l-300 378c-218,269 -427,544 -646,811 -15,18 -30,36 -43,54 -22,-6 -26,-22 -46,-28 1,-16 8,-21 18,-33l276 -346c12,-14 33,-37 38,-54 -12,-8 -34,-22 -42,-32 25,-37 58,-73 86,-108l215 -270c14,-17 29,-35 40,-52 -14,-9 -25,-23 -42,-28 2,-20 8,-18 18,-32l278 -349c14,-17 29,-35 40,-52 -12,-6 -34,-22 -42,-32 4,-13 14,-22 22,-33l166 -208c33,-41 64,-78 96,-121 30,-40 67,-77 94,-118 -11,-16 -31,-41 -51,-46 -20,13 -35,32 -50,51 -51,64 -144,134 -198,199 -60,71 -130,135 -196,200 -18,18 -28,33 -46,51 -199,197 -392,402 -590,600 -12,12 -13,15 -23,28 -57,68 -138,131 -198,199 -54,61 -113,118 -171,175 -21,21 -80,93 -101,99l-36 -38 45 -52c15,-17 32,-32 48,-48 55,-55 112,-110 164,-168 33,-37 91,-81 118,-120l-38 -36c40,-59 177,-180 239,-250 41,-47 111,-97 144,-146 -14,-9 -32,-23 -37,-42 23,-35 152,-154 190,-193 18,-18 28,-33 46,-51 24,-24 131,-121 137,-144 -14,-20 -26,-20 -37,-37 18,-26 83,-85 110,-112l106 -111c49,-48 175,-164 214,-221l-33 -36c-45,30 -224,185 -271,227l-216 181c-128,101 -245,214 -373,314l-163 137c-88,78 -180,148 -268,226 -131,117 -273,222 -404,339 -10,9 -16,12 -27,20 -15,-10 -32,-26 -37,-46 72,-48 272,-231 362,-302 11,-9 14,-14 24,-22 13,-10 14,-8 24,-22 -7,-10 -9,-10 -17,-20 -6,-7 -10,-14 -15,-22 8,-11 39,-34 52,-45l340 -287c11,-9 15,-11 23,-23 -13,-20 -26,-19 -32,-46 17,-5 16,-10 29,-22l281 -236c30,-26 78,-55 100,-89 -10,-15 -28,-28 -32,-46 18,-5 98,-79 115,-93 21,-17 37,-31 57,-49 68,-57 165,-131 226,-189 14,-14 45,-35 55,-48l-33 -31c-19,13 -38,24 -58,39l-512 355c-153,102 -301,214 -455,316 -182,121 -386,268 -569,395 -9,7 -207,149 -228,155 -12,-8 -28,-31 -32,-46l414 -287c10,-8 16,-14 29,-17 -11,-20 -22,-31 -32,-51 57,-30 261,-181 336,-232l85 -58c11,-7 17,-13 27,-19 -6,-21 -22,-29 -28,-51 39,-21 77,-50 113,-76 11,-8 17,-11 28,-19l303 -209c-6,-27 -21,-26 -28,-51 19,-13 38,-24 58,-39 51,-37 367,-247 386,-271l-33 -36c-81,43 -156,88 -237,132 -138,76 -273,160 -414,232 -20,10 -38,22 -58,34 -41,23 -77,44 -118,66l-945 531c-24,15 -96,59 -119,65 -6,-26 -21,-26 -23,-55 25,-6 453,-252 466,-258 -2,-27 -17,-28 -23,-55 24,-6 147,-81 178,-98 21,-12 39,-20 59,-33l177 -100c13,-8 46,-28 60,-32 -6,-28 -21,-29 -23,-55 25,-7 202,-111 237,-132l233 -131c-9,-18 -18,-33 -28,-51 16,-4 52,-28 69,-37 91,-47 237,-134 333,-188 46,-25 89,-45 120,-90l-19 -17c-33,8 -96,40 -129,55 -126,57 -259,110 -383,171 -166,80 -342,146 -507,226 -42,20 -84,36 -128,57 -43,21 -84,36 -128,57l-255 114c-87,37 -170,76 -255,114l-192 85c-17,8 -45,22 -62,26 -10,-18 -18,-33 -23,-55 43,-10 86,-35 126,-54 42,-20 80,-34 121,-54 42,-20 82,-35 125,-55l92 -41c12,-5 18,-7 29,-13 -8,-17 -14,-34 -23,-51 57,-30 316,-143 373,-167 33,-13 92,-47 125,-55 -2,-21 -14,-35 -18,-55 21,-10 43,-18 65,-28l182 -81c43,-20 82,-35 125,-55 33,-15 89,-44 123,-52 -2,-27 -16,-28 -18,-55l115 -51c37,-15 76,-35 115,-51 50,-21 184,-89 232,-100 -5,-19 -27,-36 -42,-46l-380 127c-44,15 -83,29 -123,43l-1377 464c-29,10 -101,38 -126,40 -4,-15 -12,-42 -18,-55 32,-3 210,-69 257,-85 45,-15 83,-28 128,-43 24,-8 41,-14 66,-22 20,-7 45,-13 62,-21 -2,-23 -12,-32 -14,-55 98,-23 459,-166 517,-171 -2,-19 -11,-42 -18,-55 37,-18 216,-74 258,-88l197 -66c20,-7 45,-13 62,-21 -6,-13 -15,-40 -18,-55 37,-3 135,-43 178,-57 61,-20 113,-43 174,-59l-56 -54c-41,3 -192,43 -240,55 -79,20 -159,36 -239,56 -316,80 -640,148 -956,225l-418 99c-19,5 -38,12 -57,12 -4,-9 -13,-43 -14,-55 175,-41 350,-84 526,-125 -1,-13 -9,-46 -14,-55 20,-2 45,-10 68,-15 78,-16 421,-106 467,-110 -3,-12 -10,-47 -14,-55 88,-20 176,-40 265,-63 47,-12 88,-19 135,-31 24,-6 44,-12 67,-16 21,-4 44,-13 64,-14 -4,-19 -10,-37 -14,-55 30,-7 59,-13 89,-21 30,-8 58,-12 86,-20 25,-7 95,-79 110,-102 -19,2 -43,7 -64,9 -220,31 -1842,261 -1853,255 -10,-6 -10,-42 -11,-57 45,0 91,-13 134,-18 124,-14 284,-46 401,-56 0,-23 -5,-28 -5,-55 21,-2 45,-7 68,-10 22,-3 44,-6 69,-10 42,-6 88,-12 134,-18 62,-9 212,-36 269,-36 0,-26 -5,-32 -5,-60 56,0 237,-31 297,-40 287,-42 233,-7 233,-90 8,0 115,-15 118,-16 15,-8 -9,-21 -20,-31 -23,-23 -38,-54 -75,-55 -21,0 -43,-1 -64,2 -61,8 -129,6 -191,8 -59,2 -126,10 -184,9 -58,0 -143,9 -184,9 -84,0 -170,8 -254,9 -26,0 -32,5 -60,5 -85,0 -164,8 -249,9 -26,0 -32,5 -60,5 -83,0 -166,9 -249,9 -28,0 -33,5 -60,5 -129,2 -111,24 -111,-56l540 -23 0 -55 134 -9c23,-1 51,2 73,-1 21,-2 37,-4 65,-4 31,0 44,-4 69,-5 22,-1 47,2 69,0l134 -9 0 -55c38,0 64,-5 97,-5l92 -5c56,-2 134,1 187,-7 32,-5 58,7 80,-17 41,-43 113,-101 144,-147 -76,0 -139,-10 -212,-9 -48,0 -107,-8 -157,-9 -18,-1 -38,1 -56,0l-105 -6c-29,-4 -75,-3 -104,-7 -18,-2 -36,-1 -54,-1 -25,0 -32,-3 -51,-4 -18,-1 -37,0 -55,0 -23,-1 -26,-5 -50,-5 -73,-1 -141,-10 -212,-9 -48,0 -107,-8 -157,-9 -59,-2 -214,-6 -264,-12l-105 -6c-18,-1 -37,1 -55,0 -21,-1 -25,-5 -51,-5l0 -51c3,-10 15,-4 55,-5l281 14c75,-1 133,9 208,9l0 -55 142 6c22,3 42,3 71,3 29,0 36,5 64,5l272 14c0,-57 -7,-57 60,-56l138 9c22,2 46,-2 68,1l139 9c50,0 86,5 138,5l5 -55c26,0 30,3 51,5 16,1 34,-1 51,0 23,1 23,4 46,5 17,0 34,-1 51,0 34,2 58,15 84,-13 17,-18 36,-32 49,-52 -45,0 -196,-27 -243,-34 -135,-20 -1661,-243 -1694,-243 0,-16 6,-46 9,-60l535 78c1,-15 6,-41 9,-55 51,0 382,54 448,64 71,10 92,25 96,-3 2,-13 4,-26 4,-38 53,0 387,53 474,66 18,3 43,8 66,8 0,-16 2,-18 4,-33 3,-20 -5,-16 9,-19 14,-3 202,29 237,33 19,3 46,8 61,9 24,2 60,-41 72,-59 -19,-2 -44,-10 -64,-15 -19,-5 -37,-9 -60,-14 -119,-25 -244,-61 -364,-88l-1212 -292c-47,-12 -196,-53 -243,-57 2,-19 10,-42 14,-60 25,12 351,85 397,97 32,8 105,21 129,32 4,-19 10,-37 14,-55 20,2 46,10 67,16 24,6 46,11 67,16l268 65c30,7 109,22 133,33 0,-21 8,-36 9,-55 69,6 480,123 530,125 3,-14 9,-40 14,-51 43,1 83,19 124,28 41,9 78,20 123,29l182 44c17,4 42,12 60,14 15,-10 36,-27 42,-46 -26,-2 -104,-32 -133,-42 -41,-14 -82,-29 -127,-44 -87,-29 -168,-58 -254,-88l-509 -174c-89,-30 -169,-58 -258,-88l-635 -218c-42,-14 -84,-33 -127,-43 2,-23 12,-32 14,-55 39,3 327,110 390,131 42,14 86,25 126,44 2,-19 11,-42 18,-55 47,23 502,174 517,175 4,-9 16,-40 18,-51 41,20 88,29 131,44 44,16 354,128 386,131 4,-18 12,-31 14,-51 29,2 415,141 462,156 46,15 104,41 151,50l29 -31 -912 -412c-13,-6 -22,-9 -35,-15 -13,-6 -20,-10 -31,-15 -21,-8 -45,-19 -64,-28 -20,-10 -44,-21 -66,-30l-782 -352c-20,-10 -42,-20 -63,-29l-130 -59c2,-21 14,-35 18,-55 23,5 43,18 65,28l308 140c25,11 39,18 64,28 21,9 40,21 62,26 5,-20 14,-26 18,-46 29,1 99,39 131,54 83,40 310,135 372,168 9,-16 14,-34 23,-51l404 181c12,6 18,10 31,15 19,8 44,24 63,25 2,-10 14,-36 18,-46 36,3 75,29 108,45l369 166c14,7 23,10 35,15 12,6 17,10 32,14 13,-9 28,-20 32,-37 -17,-4 -20,-8 -34,-16l-820 -466c-42,-23 -78,-46 -120,-69l-972 -550c9,-18 18,-33 28,-51 23,5 41,20 61,31l352 201c19,11 41,26 61,31 6,-12 20,-35 23,-46l480 272c4,-13 20,-40 28,-51 19,13 40,23 61,35l352 201c19,11 41,26 61,31 3,-11 17,-35 23,-46 26,7 120,65 148,82l147 84c78,42 219,119 290,165l29 -31c-13,-3 -20,-12 -31,-19 -12,-8 -19,-12 -30,-21l-472 -331c-22,-15 -38,-27 -60,-41 -12,-8 -19,-14 -30,-21l-1210 -847c-22,-15 -35,-27 -58,-39 6,-26 22,-30 28,-51 27,7 230,158 255,174l193 135c10,-15 22,-30 32,-46l423 297c10,8 16,14 29,17 7,-14 19,-27 23,-42 27,2 68,41 91,56l334 233c11,7 17,13 27,19 11,-16 22,-31 32,-46l369 258c56,40 165,123 220,151l24 -27c-15,-4 -97,-78 -114,-93 -19,-18 -39,-31 -58,-48 -11,-11 -17,-13 -28,-23 -101,-90 -207,-174 -309,-263 -19,-17 -35,-31 -55,-46l-895 -761c-73,-65 -154,-125 -224,-191 -18,-17 -37,-30 -55,-46 -11,-11 -16,-14 -27,-23 -13,-11 -12,-17 -29,-22 9,-18 27,-27 32,-46 21,5 17,7 31,19l180 152c18,16 34,30 53,44 18,14 33,30 52,45l77 66c14,12 9,10 27,19 13,-10 18,-24 37,-37 44,30 271,227 313,264 11,10 16,12 28,23l75 63c7,-5 32,-34 37,-42 37,25 72,60 105,89l262 222c11,8 15,13 25,21 11,9 14,15 28,18 7,-25 21,-17 28,-42 22,6 69,57 92,74l157 134c13,11 22,18 36,29 10,7 11,10 19,18 39,34 236,205 265,221l22 -19c-22,-33 -76,-73 -105,-107 -11,-13 -13,-17 -26,-30 -10,-9 -16,-16 -25,-25 -40,-40 -96,-88 -131,-132l-231 -239c-36,-36 -68,-68 -104,-104 -20,-19 -31,-36 -51,-55 -52,-52 -111,-100 -155,-158 -26,-33 -74,-76 -105,-107l-258 -268c-50,-54 -106,-103 -157,-157 -12,-12 -14,-18 -25,-30 -9,-10 -16,-16 -25,-25l-154 -159c-27,-28 -84,-77 -102,-104l41 -38c50,33 100,103 144,146l141 141c18,18 28,33 46,51 16,16 29,33 47,45 7,-5 14,-9 22,-15 9,-8 10,-10 20,-17 24,16 74,71 98,96l71 76c9,9 14,14 23,23 48,48 101,94 143,147 12,14 32,36 48,47l36 -38c43,29 105,103 146,144l237 244 41 -38 193 195c58,62 149,148 190,198 15,19 113,117 131,129l22 -19c-54,-81 -123,-155 -184,-231l-511 -633c-9,-11 -14,-17 -23,-28 -83,-106 -739,-903 -763,-948 10,-15 26,-27 42,-37 27,20 220,273 255,313 13,15 77,88 82,107 16,-4 12,-6 25,-16 8,-6 14,-11 21,-16 24,16 190,228 217,263 23,30 104,140 129,157 16,-4 12,-6 25,-16 8,-6 14,-11 21,-16 19,35 211,264 254,318 27,33 63,69 82,107 17,-11 28,-23 46,-32 26,17 357,439 389,478 10,13 17,21 27,33 8,9 21,25 28,34l27 -24c-54,-81 -107,-163 -161,-244 -54,-81 -108,-161 -162,-244l-321 -486c-55,-82 -108,-162 -162,-244 -54,-80 -105,-160 -160,-242l-283 -427c-9,-14 -33,-44 -37,-60 13,-9 31,-24 46,-28 25,18 122,179 150,223 50,77 99,149 149,224 17,-9 32,-23 51,-28 44,84 285,415 295,452 25,-6 30,-22 55,-28 10,38 252,370 295,452 12,-8 35,-24 51,-28 60,89 117,178 178,269 20,29 170,244 178,271l31 -33 -101 -189c-96,-193 -238,-430 -335,-624l-167 -312c-24,-41 -42,-85 -67,-126 -49,-82 -84,-168 -133,-250 -25,-42 -44,-85 -67,-126l-100 -186c-17,-31 -92,-159 -98,-188 17,-12 32,-18 51,-28 3,11 24,48 31,61 12,22 20,37 32,60l63 117c39,80 86,159 128,237 16,-4 37,-16 51,-23l129 240c21,40 42,82 64,120 11,20 21,41 32,60 8,14 24,44 28,60 27,-2 34,-17 55,-23l193 361c13,22 56,97 61,119 18,-10 35,-23 55,-28 6,26 30,59 42,83l209 391c20,40 73,123 83,159l27 -29c-10,-42 -117,-282 -141,-339l-84 -202c-63,-158 -136,-316 -200,-474l-367 -874c-19,-45 -38,-89 -56,-133l-56 -133c23,-5 35,-17 55,-18 25,48 82,193 105,250 11,29 100,223 102,248 11,-6 43,-20 55,-23 14,59 205,471 208,503 21,-2 35,-14 55,-18 10,19 19,44 28,64l155 370c7,16 23,46 24,63 21,-2 35,-14 55,-18 11,21 20,47 31,71l176 419c9,23 18,47 29,70l36 -33c-14,-59 -62,-204 -84,-267l-104 -330c-8,-24 -13,-44 -21,-67 -74,-219 -136,-443 -209,-663 -15,-46 -26,-88 -41,-134 -44,-131 -81,-265 -124,-397 -13,-40 -78,-226 -81,-265 17,-1 38,-10 55,-14 5,22 14,43 21,66 7,23 13,43 20,63 19,56 107,331 120,387 17,-8 38,-10 55,-18l40 131c17,51 119,362 122,390 23,-1 35,-9 55,-14 18,37 104,332 123,389 11,32 36,98 39,127 17,-1 38,-10 55,-14 16,33 25,77 36,111 12,36 99,302 103,333l50 -47c-4,-43 -17,-90 -27,-130 -50,-210 -91,-418 -135,-631 -17,-82 -38,-169 -54,-251 -25,-126 -213,-966 -213,-1009 22,-2 29,-9 55,-9 10,43 20,87 29,133 11,56 82,351 82,393 23,-1 37,-9 60,-9 2,69 109,466 111,535 24,-2 29,-9 60,-9 0,42 46,223 55,268 10,52 52,215 56,262 9,-4 43,-11 55,-14l70 331c3,15 8,37 12,53 4,20 10,35 10,54 16,-10 27,-24 41,-38 23,-22 13,-21 10,-55 -12,-130 -35,-266 -46,-396 -7,-87 -24,-178 -32,-263 -4,-46 -9,-87 -15,-132l-62 -528c-6,-45 -12,-89 -15,-132 -7,-87 -24,-178 -32,-263 -4,-46 -9,-87 -15,-132 -5,-42 -13,-87 -13,-134l55 -6c7,89 23,181 32,268 10,87 25,179 32,268 26,0 35,-4 55,-5 0,18 6,53 8,70l56 474c20,0 29,-5 55,-5 8,94 63,484 65,540 12,-6 39,-5 55,-9 2,74 23,143 23,217 17,-5 24,-17 36,-29 11,-11 19,-19 30,-30 32,-31 14,-62 12,-103 -1,-40 0,-84 0,-125 0,-42 -5,-74 -5,-120 0,-87 -5,-157 -5,-244 0,-47 -5,-76 -5,-120 0,-39 1,-81 0,-120 -1,-24 -5,-31 -5,-60l0 -125c0,-27 -4,-31 -5,-55 -1,-40 0,-84 0,-125 0,-41 -5,-70 -5,-115 0,-164 -9,-319 -9,-484zm104 3180l441 441 93 -94 1175 1178 -89 92c12,22 86,89 109,113 41,41 315,310 328,330 -102,110 -270,270 -387,387 -18,18 -41,34 -51,56 22,27 80,69 89,98l-1171 1171c-32,-14 -67,-70 -100,-92l-440 440c-78,-67 -408,-421 -444,-440l-93 90 -1174 -1174c25,-30 70,-64 92,-95l-439 -441c30,-36 75,-76 110,-111 40,-40 318,-312 328,-332 -25,-28 -72,-66 -90,-93l1177 -1174 93 90 441 -440zm-445 301l-91 -92 -591 590 -96 -93 -131 130c21,22 84,77 94,99l-590 588 92 93 -440 442c59,72 420,405 439,444 -25,29 -71,65 -90,93l589 588c-13,27 -70,69 -91,98l128 130c30,-14 67,-71 98,-91l443 441c24,24 133,139 152,148l91 -93 442 442 440 -440 93 90c18,-9 125,-121 149,-145l295 -295c26,-26 48,-48 74,-74 21,-21 55,-59 76,-74l93 91c19,-8 116,-108 132,-128 -20,-23 -82,-74 -92,-99l589 -587c-25,-30 -70,-64 -90,-94l439 -442c-33,-37 -73,-74 -109,-109l-221 -221c-20,-20 -36,-36 -55,-55 -18,-18 -43,-35 -53,-58 14,-18 29,-31 46,-47 16,-16 36,-28 44,-52l-589 -587c27,-27 73,-68 92,-94 -22,-22 -112,-118 -133,-129l-90 92 -589 -589c-32,14 -68,69 -99,91l-441 -440c-63,55 -258,258 -332,331 -23,23 -90,96 -112,108zm0 -119c16,-8 399,-393 442,-438 48,23 411,425 450,439l91 -89 590 587c21,-11 77,-71 95,-91 47,40 219,224 247,244l-94 94c10,24 270,276 296,301 24,24 281,277 295,297l-92 92 439 441c-18,31 -405,399 -438,443l91 91c-14,24 -118,121 -146,149l-445 443 94 94c-11,24 -98,103 -123,128 -29,29 -94,101 -123,121 -11,-13 -79,-84 -96,-91 -24,18 -52,51 -75,73 -26,26 -48,48 -74,74 -38,38 -420,431 -447,440l-91 -89c-49,49 -422,429 -443,438l-439 -439 -89 91c-27,-10 -411,-405 -450,-443 -20,-20 -128,-137 -152,-145l-92 91 -244 -242c9,-19 74,-79 92,-96 -11,-22 -120,-124 -146,-150l-445 -443 93 -96 -440 -443c12,-23 86,-90 109,-113l328 -329 -90 -91c15,-32 568,-561 590,-598 -21,-27 -78,-71 -91,-96l244 -241c35,17 61,67 97,90l590 -588c21,10 74,68 92,89zm4 -138c-35,-18 -63,-73 -97,-89l-590 588c-27,-19 -73,-80 -98,-91l-382 380 91 95c-12,22 -120,124 -146,150 -51,51 -433,427 -444,447l90 91c-18,26 -79,81 -107,109 -42,42 -319,314 -331,334l439 442 -92 92c12,21 390,394 442,445 27,27 137,129 148,153l-94 94 383 381c17,-8 87,-79 96,-92l517 515c23,23 50,54 75,73 19,-9 33,-28 49,-44 15,-15 33,-31 46,-46l330 330c37,37 76,73 110,110 24,-12 187,-183 221,-217 38,-38 73,-73 111,-111 37,-37 73,-77 112,-111l91 89c21,-9 59,-54 78,-72 55,-55 495,-500 518,-516 34,15 62,66 97,90 32,-26 66,-65 96,-95 48,-48 276,-271 287,-291l-94 -95 592 -590 -92 -93 439 -442 -440 -443 92 -93 -589 -591c10,-20 72,-74 91,-95 -6,-11 -334,-345 -382,-385 -27,19 -72,79 -97,90 -23,-15 -406,-403 -445,-442 -25,-25 -128,-136 -152,-146l-89 91c-38,-34 -75,-74 -110,-110 -54,-54 -313,-319 -334,-330l-438 438zm445 -555c23,30 427,432 441,439l91 -90 148 146c64,64 393,400 445,444l96 -93 498 496c-11,25 -72,75 -93,99l591 589c-17,32 -71,65 -90,98l220 221c38,38 73,73 111,111 25,25 95,86 107,111 -12,23 -286,290 -329,333 -33,33 -80,74 -109,110 19,33 75,67 89,97l-589 590c20,23 81,74 91,98l-499 498 -96 -93c-48,41 -101,100 -148,147 -50,50 -97,97 -148,148l-296 295 -90 -92c-14,8 -421,412 -442,440l-443 -440c-22,8 -35,28 -51,44 -15,15 -30,33 -48,46 -23,-15 -55,-52 -76,-73 -26,-26 -48,-48 -74,-74 -50,-50 -97,-97 -148,-148 -38,-38 -275,-283 -297,-293l-92 90c-28,-18 -325,-321 -375,-371 -22,-22 -40,-40 -62,-62 -19,-19 -44,-47 -63,-61 11,-27 71,-75 92,-100l-590 -588c14,-30 70,-67 90,-98 -11,-23 -302,-307 -330,-335 -36,-36 -74,-71 -107,-107 25,-26 425,-416 438,-443 -20,-31 -77,-69 -89,-97l589 -589c-22,-27 -80,-71 -92,-100 20,-14 44,-42 63,-61 62,-62 409,-415 438,-434l90 92c19,-9 262,-258 298,-294l221 -221c21,-21 54,-59 76,-73 32,24 67,79 99,90l443 -440zm-1866 1348c26,28 72,66 91,93l-589 588c16,32 71,66 90,99 -16,31 -383,378 -438,443 74,73 146,146 220,220 17,17 207,200 217,222 -20,32 -76,68 -89,97l589 589c-21,27 -80,71 -92,100 23,16 59,57 81,80l397 397c27,27 138,143 161,157l90 -92c35,16 558,564 596,589 36,-28 70,-80 99,-90l442 440 442 -439 91 90 295 -294c88,-88 210,-215 295,-295 31,15 65,71 99,92l636 -634c-13,-28 -71,-71 -93,-100l590 -588c-19,-35 -71,-63 -90,-98 34,-39 76,-76 112,-112l219 -219c22,-22 97,-91 107,-112 -12,-21 -188,-192 -220,-224l-219 -220 91 -95 -589 -591c20,-24 81,-74 91,-97l-636 -635c-32,21 -66,75 -97,91 -44,-37 -386,-385 -443,-442l-148 -147 -90 92c-20,-10 -93,-89 -114,-110l-221 -221c-30,-30 -85,-79 -107,-109 -19,10 -195,191 -225,221 -23,23 -200,210 -226,219l-91 -90c-24,14 -393,389 -446,442 -25,25 -129,135 -150,146l-92 -90 -637 639zm1420 -1303l-90 -90c-19,9 -396,392 -445,441 -30,30 -122,130 -150,147l-91 -90c-27,11 -712,706 -788,782 -26,26 -96,90 -111,113l91 91c-9,24 -51,58 -71,78 -26,26 -48,48 -74,74l-443 445 92 96 -440 438 330 331c22,22 100,94 109,114l-90 90c20,24 49,50 72,73 26,26 48,48 74,74l369 369c20,20 65,56 74,81l-91 90c18,27 82,84 109,111l560 560c32,32 209,215 231,225l90 -92c26,15 122,118 151,147l295 295c25,25 129,135 151,147l90 -91c30,21 80,78 109,107l332 332 440 -439 92 91c41,-23 561,-571 597,-588 35,18 63,70 97,90l893 -894c-24,-37 -74,-66 -92,-100l589 -588c-20,-33 -75,-67 -91,-98l438 -436 -437 -438c16,-32 70,-64 89,-97l-588 -589 92 -97 -895 -896c-31,17 -63,71 -96,89 -26,-12 -407,-402 -446,-441 -24,-24 -130,-136 -149,-146l-66 67c-11,12 -12,15 -27,21l-441 -438c-74,72 -146,145 -219,219l-222 220z"/>
   <g>
    <g>
     <g>
      <path class="fil2" d="M1769 17466l0 2416c0,23 12,35 35,35l433 0c23,0 35,-12 35,-35l0 -2416c0,-23 -12,-35 -35,-35l-433 0c-23,0 -35,12 -35,35zm790 2416c0,23 12,35 35,35l433 0c23,0 35,-12 35,-35l0 -1944c0,-21 8,-31 24,-31 14,0 24,10 31,31l468 1723c9,32 24,64 45,94 21,30 45,57 73,81 28,24 57,44 88,59 31,15 61,23 88,23l319 0c49,0 94,-12 137,-36 43,-24 80,-56 111,-95 31,-39 56,-82 75,-128 18,-46 28,-92 28,-139l0 -2052c0,-23 -12,-35 -35,-35l-433 0c-23,0 -35,12 -35,35l0 1938c0,23 -8,35 -24,35 -16,0 -28,-12 -35,-35l-464 -1712c-23,-81 -68,-144 -133,-191 -66,-46 -172,-69 -317,-69 -99,0 -182,10 -248,29 -66,20 -118,50 -158,90 -39,40 -67,93 -83,158 -16,65 -24,142 -24,232l0 1941zm2308 35l1185 0c132,0 245,-24 340,-71 95,-47 173,-109 236,-185 62,-76 108,-161 137,-255 29,-94 43,-185 43,-276l0 -832c0,-106 -14,-211 -43,-315 -29,-104 -75,-196 -137,-277 -62,-81 -142,-147 -237,-198 -96,-51 -210,-76 -341,-76l-1182 0c-23,0 -35,12 -35,35l0 2416c0,23 12,35 35,35zm468 -2000c0,-23 12,-35 35,-35l593 0c42,0 83,10 123,29 40,20 77,45 109,76 32,31 59,67 80,107 21,40 31,81 31,123l0 922c0,39 -9,78 -28,116 -19,38 -43,73 -73,104 -30,31 -64,57 -102,76 -38,20 -76,29 -113,29l-620 0c-23,0 -35,-12 -35,-35l0 -1515zm1723 776c0,136 1,254 3,354 2,99 9,180 21,243 18,90 38,171 59,243 21,72 49,131 83,177 46,60 104,113 173,158 69,45 143,77 222,95 55,12 128,18 218,21 90,2 198,3 322,3 125,0 232,-1 322,-3 90,-2 163,-9 218,-21 79,-19 153,-50 222,-95 69,-45 127,-98 173,-158 35,-46 62,-105 83,-177 21,-72 40,-153 59,-243 12,-62 18,-143 21,-243 2,-99 3,-217 3,-354l0 -21c0,-136 -1,-254 -3,-354 -2,-99 -9,-180 -21,-243 -18,-90 -38,-171 -59,-243 -21,-72 -49,-131 -83,-177 -46,-60 -104,-113 -173,-158 -69,-45 -143,-77 -222,-95 -55,-12 -128,-18 -218,-21 -90,-2 -198,-3 -322,-3 -125,0 -232,1 -322,3 -90,2 -163,9 -218,21 -79,18 -153,50 -222,95 -69,45 -127,98 -173,158 -35,46 -62,105 -83,177 -21,72 -40,153 -59,243 -12,62 -18,143 -21,243 -2,99 -3,217 -3,354l0 21zm1102 -835c72,0 140,2 204,5 65,3 120,11 166,23 83,21 142,62 177,123 35,61 52,153 52,276l0 797c0,122 -17,214 -52,276 -35,61 -94,102 -177,123 -46,12 -102,19 -166,23 -65,3 -133,5 -204,5 -72,0 -140,-2 -205,-5 -65,-3 -120,-11 -166,-23 -83,-21 -142,-62 -177,-123 -35,-61 -52,-153 -52,-276l0 -797c0,-122 17,-214 52,-276 35,-61 94,-102 177,-123 46,-12 102,-19 166,-23 65,-3 133,-5 205,-5zm1366 2024c0,23 12,35 35,35l433 0c23,0 35,-12 35,-35l0 -1944c0,-21 8,-31 24,-31 14,0 24,10 31,31l468 1723c9,32 24,64 45,94 21,30 45,57 73,81 28,24 57,44 88,59 31,15 61,23 88,23l319 0c49,0 94,-12 137,-36 43,-24 80,-56 111,-95 31,-39 56,-82 75,-128 18,-46 28,-92 28,-139l0 -2052c0,-23 -12,-35 -35,-35l-433 0c-23,0 -35,12 -35,35l0 1938c0,23 -8,35 -24,35 -16,0 -28,-12 -35,-35l-464 -1712c-23,-81 -68,-144 -133,-191 -66,-46 -172,-69 -317,-69 -99,0 -182,10 -248,29 -66,20 -118,50 -158,90 -39,40 -67,93 -83,158 -16,65 -24,142 -24,232l0 1941zm2270 -329c0,44 10,87 29,130 20,43 46,81 78,116 32,35 69,63 111,85 42,22 83,33 125,33l1341 0c23,0 35,-12 35,-35l0 -381c0,-23 -12,-35 -35,-35l-1147 0c-23,0 -35,-12 -35,-35l0 -503c0,-23 12,-35 35,-35l1064 0c23,0 35,-12 35,-35l0 -399c0,-23 -12,-35 -35,-35l-1064 0c-23,0 -35,-12 -35,-35l0 -471c0,-25 12,-38 35,-38l1147 0c23,0 35,-12 35,-35l0 -381c0,-23 -15,-35 -45,-35l-1175 0c-162,0 -285,49 -371,147 -86,98 -128,226 -128,383l0 1591zm3043 -669c58,0 108,5 151,16 43,10 76,28 99,54 28,32 44,69 49,109 5,40 7,79 7,116 0,25 -1,50 -3,73 -2,23 -9,47 -21,73 -12,28 -30,58 -55,92 -25,34 -55,50 -90,50l-1116 0c-23,0 -35,12 -35,35l0 381c0,23 12,35 35,35l1262 0c51,0 105,-16 161,-47 57,-31 105,-63 144,-95 129,-113 203,-275 222,-485 5,-18 7,-38 7,-59 0,-23 0,-47 0,-73 0,-53 -3,-109 -10,-166 -7,-58 -19,-113 -36,-166 -17,-53 -39,-103 -66,-149 -27,-46 -60,-86 -99,-118 -67,-55 -140,-93 -218,-113 -79,-20 -154,-29 -225,-29l-388 0c-53,0 -102,-2 -147,-7 -45,-5 -80,-20 -106,-45 -28,-30 -44,-65 -49,-104 -5,-39 -7,-77 -7,-114 0,-23 1,-46 3,-69 2,-23 9,-46 21,-69 12,-25 31,-53 57,-81 27,-29 56,-43 88,-43l1002 0c23,0 35,-12 35,-35l0 -381c0,-23 -12,-35 -35,-35l-1147 0c-55,0 -112,15 -170,45 -58,30 -106,61 -146,94 -134,111 -209,267 -225,468 -5,21 -7,42 -7,62 0,21 0,43 0,66 0,53 4,107 12,161 8,54 21,107 38,159 17,52 39,101 66,146 27,45 60,84 99,116 67,53 142,89 224,107 82,18 159,28 231,28l392 0zm1071 -1418l0 2416c0,23 12,35 35,35l433 0c23,0 35,-12 35,-35l0 -2416c0,-23 -12,-35 -35,-35l-433 0c-23,0 -35,12 -35,35zm724 2430c0,14 9,21 28,21l451 0c23,0 38,-12 45,-35l184 -593c7,-25 22,-38 45,-38l815 0c23,0 38,12 45,35l184 600c7,21 22,31 45,31l454 0c16,0 24,-7 24,-21l-697 -2260c-28,-90 -79,-147 -154,-170 -75,-23 -179,-35 -310,-35 -127,0 -228,12 -302,35 -74,23 -125,80 -153,170l-704 2260zm1442 -1161c0,5 1,8 2,10 1,2 2,5 2,7 0,16 -9,24 -28,24l-516 0c-18,0 -28,-8 -28,-24 0,-2 1,-5 2,-7 1,-2 2,-6 2,-10l243 -790c14,-42 27,-62 38,-62 12,0 20,4 24,12 5,8 10,25 17,50l243 790z"/>
      <path class="fil3" d="M21768 19484l-1057 0c-23,0 -35,-12 -35,-35l0 -267c0,-42 15,-76 45,-104 30,-28 70,-53 120,-75 50,-22 107,-43 173,-64 66,-21 135,-44 206,-69 125,-44 228,-85 308,-123 81,-38 145,-84 192,-137 47,-53 80,-118 99,-196 18,-77 28,-179 28,-303 0,-72 -13,-147 -40,-227 -27,-80 -68,-153 -123,-220 -55,-67 -127,-122 -215,-166 -88,-44 -193,-66 -315,-66l-912 0c-23,0 -35,12 -35,35l0 364c0,23 12,35 35,35l912 0c44,0 80,9 109,28 29,18 52,41 69,68 17,27 29,54 35,81 6,28 9,51 9,69 0,60 -17,111 -52,153 -35,42 -79,78 -133,109 -54,31 -116,58 -184,81 -68,23 -136,44 -205,64 -68,20 -132,40 -192,61 -60,21 -110,44 -149,69 -42,28 -82,58 -121,90 -39,32 -74,71 -104,116 -30,45 -54,99 -73,163 -18,64 -28,142 -28,234l0 631c0,23 12,35 35,35l1598 0c23,0 35,-12 35,-35l0 -364c0,-23 -12,-35 -35,-35zm336 -416l0 -1102c0,-173 49,-306 147,-397 98,-91 234,-137 407,-137l769 0c169,0 304,46 406,137 102,91 153,224 153,397l0 1289c0,122 -13,226 -40,310 -27,84 -64,153 -113,204 -49,52 -107,90 -177,113 -69,23 -147,35 -232,35l-697 0c-106,0 -198,-12 -276,-35 -77,-23 -142,-61 -194,-113 -52,-52 -91,-120 -116,-204 -25,-84 -38,-188 -38,-310l0 -187zm742 416l395 0c113,0 188,-23 225,-68 37,-45 55,-114 55,-206l0 -1074c0,-32 -5,-65 -16,-97 -10,-32 -27,-61 -50,-87 -23,-25 -52,-46 -87,-62 -35,-16 -77,-24 -128,-24l-395 0c-81,0 -147,21 -198,62 -51,42 -76,111 -76,208l0 1074c0,92 20,161 61,206 40,45 110,68 210,68l3 0zm3040 0l-1057 0c-23,0 -35,-12 -35,-35l0 -267c0,-42 15,-76 45,-104 30,-28 70,-53 120,-75 50,-22 107,-43 173,-64 66,-21 135,-44 206,-69 125,-44 228,-85 308,-123 81,-38 145,-84 192,-137 47,-53 80,-118 99,-196 18,-77 28,-179 28,-303 0,-72 -13,-147 -40,-227 -27,-80 -68,-153 -123,-220 -55,-67 -127,-122 -215,-166 -88,-44 -193,-66 -315,-66l-912 0c-23,0 -35,12 -35,35l0 364c0,23 12,35 35,35l912 0c44,0 80,9 109,28 29,18 52,41 69,68 17,27 29,54 35,81 6,28 9,51 9,69 0,60 -17,111 -52,153 -35,42 -79,78 -133,109 -54,31 -116,58 -184,81 -68,23 -136,44 -205,64 -68,20 -132,40 -192,61 -60,21 -110,44 -149,69 -42,28 -82,58 -121,90 -39,32 -74,71 -104,116 -30,45 -54,99 -73,163 -18,64 -28,142 -28,234l0 631c0,23 12,35 35,35l1598 0c23,0 35,-12 35,-35l0 -364c0,-23 -12,-35 -35,-35zm1965 0l-1057 0c-23,0 -35,-12 -35,-35l0 -267c0,-42 15,-76 45,-104 30,-28 70,-53 120,-75 50,-22 107,-43 173,-64 66,-21 135,-44 206,-69 125,-44 228,-85 308,-123 81,-38 145,-84 192,-137 47,-53 80,-118 99,-196 18,-77 28,-179 28,-303 0,-72 -13,-147 -40,-227 -27,-80 -68,-153 -123,-220 -55,-67 -127,-122 -215,-166 -88,-44 -193,-66 -315,-66l-912 0c-23,0 -35,12 -35,35l0 364c0,23 12,35 35,35l912 0c44,0 80,9 109,28 29,18 52,41 69,68 17,27 29,54 35,81 6,28 9,51 9,69 0,60 -17,111 -52,153 -35,42 -79,78 -133,109 -54,31 -116,58 -184,81 -68,23 -136,44 -205,64 -68,20 -132,40 -192,61 -60,21 -110,44 -149,69 -42,28 -82,58 -121,90 -39,32 -74,71 -104,116 -30,45 -54,99 -73,163 -18,64 -28,142 -28,234l0 631c0,23 12,35 35,35l1598 0c23,0 35,-12 35,-35l0 -364c0,-23 -12,-35 -35,-35z"/>
     </g>
     <g>
      <path class="fil4" d="M4747 7605c14,63 5,121 -29,175 -34,54 -82,89 -145,103 -63,14 -121,5 -175,-29 -54,-34 -89,-82 -103,-145 -14,-63 -5,-121 29,-175 34,-54 82,-89 145,-103 63,-14 121,-5 175,29 54,34 89,82 103,145zm-2973 6544c15,4 13,7 28,9 41,6 619,1 698,1 34,0 35,-6 66,-2 54,8 609,1 725,1 23,0 51,-4 65,-4 40,1 92,4 140,4l2911 0c62,0 163,6 223,-1 29,-3 28,1 61,1 849,3 1699,1 2548,0l305 -383c21,-26 61,-68 70,-100 -22,-14 -62,-40 -76,-59 46,-68 106,-133 158,-197l220 -277c-5,-4 -7,-13 -8,-28 -1,-39 -15,-118 33,-131l0 -112c-2,-1 -4,-3 -7,-4l-500 0c-4,1 -9,0 -17,-2 -1,0 -9,-4 -10,-4 -10,-5 -13,-4 -18,-15 -1,-1 -1,-4 -2,-7 -47,47 -93,94 -140,141 -22,21 -24,28 -43,50 -105,125 -254,240 -363,364 -98,112 -207,216 -313,321 -38,38 -146,170 -186,182l-66 -70 82 -95c27,-31 59,-59 89,-89 101,-101 206,-201 300,-309 60,-68 167,-149 215,-220l-70 -66c66,-99 281,-292 405,-422 -13,-17 -10,-43 -10,-72l-22 -15c-13,-8 -14,-4 -21,-17 -17,-36 9,-112 -7,-151 -6,-15 -10,-19 -24,-28 -16,-10 -33,-11 -62,-9 -51,3 -53,56 -56,84 -3,29 -16,24 -45,23l-15 -13c0,-31 0,-62 0,-93 0,-36 10,-38 -2,-63l-5 -9c-1,-1 -1,-2 -2,-3 -11,-17 -11,-10 -22,-24 -1,-2 -7,-12 -9,-15l-26 -35c-153,134 -313,256 -464,391 -240,214 -501,406 -740,622 -19,17 -29,23 -49,36 -28,-19 -58,-48 -68,-85 132,-88 499,-424 664,-553 20,-16 26,-25 45,-40 23,-19 26,-15 43,-41 -12,-18 -17,-19 -31,-36 -11,-13 -19,-27 -28,-40 15,-20 72,-62 95,-83l486 -410c-16,-4 -34,-3 -57,-3 -11,-16 -14,-18 -14,-46l0 -517c-74,52 -149,103 -225,153 -334,221 -707,491 -1043,724 -17,12 -380,274 -418,284 -21,-14 -52,-57 -59,-85l758 -527c19,-15 29,-25 53,-31 -20,-38 -40,-57 -59,-93 104,-55 478,-332 615,-424l156 -106c20,-13 32,-24 49,-36 -10,-39 -40,-54 -51,-93 72,-38 140,-92 206,-140 20,-14 31,-20 51,-34l39 -27c-4,-1 -8,-1 -19,0 -15,1 -24,2 -40,2 -5,-7 -8,-12 -14,-20l-5 -43c-2,-34 -3,-155 -3,-293l-1 1c-76,42 -141,80 -217,121l-1732 973c-45,27 -176,109 -218,120 -11,-47 -38,-48 -42,-101 45,-11 831,-461 854,-473 -4,-49 -30,-51 -42,-101 43,-10 269,-148 327,-180 38,-22 71,-38 109,-60l324 -183c24,-14 84,-52 110,-59 -12,-51 -38,-52 -42,-101 46,-12 370,-203 435,-242l138 -78c1,-84 3,-142 5,-147 9,-30 45,-22 84,-22 4,-17 7,-18 12,-40 8,-46 -2,-90 -2,-137 -31,-16 -12,-19 -60,-19 -248,111 -503,211 -747,329 -76,37 -155,66 -234,104 -79,38 -154,67 -234,104l-468 208c-159,68 -312,139 -468,209l-352 155c-31,14 -82,41 -113,48 -17,-33 -33,-61 -42,-101 79,-18 157,-64 231,-99 77,-36 147,-62 223,-99 78,-37 151,-64 228,-101l169 -76c22,-10 34,-13 53,-23 -15,-32 -26,-62 -42,-93 104,-55 579,-263 684,-306 60,-24 168,-86 229,-100 -3,-39 -25,-65 -34,-101 38,-18 79,-33 118,-51l333 -149c78,-36 148,-64 225,-100 1,-44 2,-81 2,-98 0,-20 -2,-141 -2,-231l-2481 835c-53,18 -185,69 -231,73 -7,-28 -22,-78 -34,-101 59,-5 386,-127 470,-155 82,-27 152,-51 235,-78 44,-15 76,-25 120,-40 37,-12 83,-25 113,-39 -4,-43 -22,-59 -25,-101 180,-42 841,-304 947,-313 -3,-34 -21,-77 -34,-101 67,-32 395,-136 472,-162l361 -120c37,-12 83,-25 113,-39 -11,-24 -27,-73 -34,-101 20,-2 51,-9 85,-20 0,-8 -1,-15 -1,-22 0,-35 8,-70 -33,-79 0,-26 0,-52 0,-78 -129,31 -258,58 -388,91 -578,147 -1173,272 -1752,412l-766 181c-34,9 -69,21 -105,22 -8,-17 -23,-78 -25,-101 321,-75 642,-153 964,-228 -2,-23 -17,-85 -25,-101 37,-3 83,-19 125,-27 143,-30 771,-194 856,-201 -5,-22 -18,-85 -25,-101 161,-38 322,-74 485,-115 87,-22 160,-36 247,-57 44,-11 81,-21 122,-30 39,-8 81,-23 118,-26 -8,-34 -17,-67 -25,-101l48 -11 -1 -2c-5,-17 -19,-27 -34,-36 -38,-22 -71,7 -74,8 -14,7 -22,5 -42,5 -18,-37 -2,-21 0,-56 2,-26 2,-53 2,-81 -968,137 -2874,405 -2890,396 -18,-10 -19,-78 -20,-105 82,0 166,-24 246,-33 228,-25 520,-84 735,-102 0,-42 -8,-52 -8,-101 38,-3 83,-12 125,-18 40,-6 80,-11 126,-18 78,-11 161,-22 245,-34 113,-16 388,-65 493,-65 0,-48 -8,-58 -8,-110 103,0 435,-56 545,-72 526,-78 428,-13 428,-164 10,0 98,-12 159,-21 0,-156 -56,-187 -233,-163l-2166 99c-188,0 -381,23 -566,25 -236,3 -203,43 -203,-102l989 -42 0 -101c333,-23 665,-28 998,-51l0 -101c70,0 118,-9 177,-9l169 -8c363,-11 525,10 528,-323 -54,-4 -108,-7 -165,-6l-1547 -76c-89,1 -195,-15 -287,-17 -109,-3 -393,-10 -484,-23l-192 -11c-33,-2 -69,2 -102,0 -39,-2 -46,-8 -93,-8l0 -93c6,-18 28,-8 101,-8l516 25c138,-1 243,17 381,17l0 -101 260 11c40,6 77,6 129,6 52,0 65,9 118,9l499 25c0,-104 -12,-104 110,-102 212,14 422,21 634,34 56,0 102,3 151,5 0,-2 -1,-4 -1,-6 -1,-7 -1,-9 -2,-16 -5,-29 -14,-40 -12,-73 3,-44 25,-15 29,-55 8,-88 -11,-77 -14,-112 -1,-12 1,-27 1,-39 -254,-37 -368,-54 -569,-83 -910,-133 -2221,-323 -2262,-323 1,-29 11,-84 17,-110l981 144c2,-27 11,-76 17,-101 94,0 699,100 822,117 131,18 168,46 177,-6 4,-23 7,-47 8,-69 46,0 206,22 379,47 1,-67 2,-125 2,-146 0,-113 -6,-98 55,-108l23 -14c3,-5 5,-12 5,-18 1,-11 0,-30 0,-42l0 -6 -1889 -454c-87,-22 -360,-98 -445,-105 3,-35 18,-77 25,-110 47,22 644,157 727,178 58,15 193,38 237,59 8,-34 17,-67 25,-101 37,3 85,19 123,29 44,11 84,19 124,29l490 118c56,13 200,40 243,61 1,-39 14,-65 17,-101 34,3 114,21 213,45 -6,-38 15,-101 -46,-153 -28,-24 -23,-33 -23,-75 -53,-28 -42,-26 -42,-102 0,-55 -1,-83 -56,-84 -23,-1 -40,7 -48,22 -35,60 9,155 -49,160 0,59 7,51 -26,81 -17,16 -31,46 -63,30 -13,-26 -5,-269 -5,-321 26,-14 45,-13 50,-43 -93,-32 -185,-64 -283,-96l-1165 -399c-78,-26 -154,-61 -234,-79 4,-43 22,-59 25,-101 71,6 600,201 715,240 77,26 158,46 231,81 3,-34 21,-77 34,-101 51,25 365,132 618,216 4,-8 7,-23 7,-56 0,-47 4,-57 -28,-75 0,-36 0,-63 -4,-94 -8,-57 -41,-73 -58,-91 -14,-15 -3,-30 -10,-51l-25 -31c-6,-4 -10,-5 -15,-8 0,-42 9,-100 -8,-136 -6,-13 -19,-29 -33,-37 -9,-5 -10,-5 -24,-5 0,0 -13,1 -13,1l-19 10c0,0 -8,6 -8,6 -5,5 -8,8 -11,12 -16,21 -10,64 -9,93 1,80 -8,44 -33,74 -19,22 14,39 -22,71l-48 59c-16,27 4,71 -46,47 -8,-8 0,-124 -23,-163l-8 -16c0,-1 -1,-2 -2,-3 -3,-5 -13,-19 -18,-24 -6,-7 -14,-15 -21,-21 -5,-4 -11,-8 -13,-10 -8,-6 -10,-7 -13,-20l-1 -27c0,-5 0,-13 -1,-18 -3,-11 -2,-4 -6,-12l-8 -29c-6,-19 -6,-8 -20,-18 -22,-15 -11,-146 -12,-249l-404 -182c-36,-18 -76,-36 -116,-53l-239 -107c3,-39 25,-65 34,-101 43,10 79,33 118,51l564 256c8,4 16,7 23,10 -6,-17 -13,-35 -22,-50l-21 -35c-12,-19 -21,-25 -36,-39 -43,-41 -42,-31 -71,-55l-17 -11c-72,-30 -54,-7 -56,-98 -1,-63 -38,-51 -97,-52l-15 -13c0,-116 -1,-233 0,-349 0,-23 1,-25 -5,-42 -3,-10 -5,-24 -10,-32 -12,-25 -25,-44 -46,-61l-42 -24c-4,-1 -15,-3 -19,-5 -20,-7 -6,-10 -28,-14 -41,-7 -40,4 -54,11 -39,19 -69,12 -100,72l-8 15c0,1 -1,2 -2,3l-4 10c-9,25 -13,33 -13,71 1,115 0,230 -1,344l-13 15c-64,0 -98,-12 -98,56 0,122 -12,59 -68,100 -1,1 -4,4 -5,4 -6,5 -6,5 -11,8l-98 89c-5,8 -8,15 -14,24 -9,13 -6,6 -13,24l-18 47c-25,48 -16,171 -16,226 0,200 -1,92 -34,166l-9 15c-10,21 5,49 -8,71 -5,8 -24,13 -46,38l-20 32c-1,1 -1,2 -2,3 -1,1 -1,2 -2,3l-12 30c0,1 -1,2 -1,4 -9,30 -7,64 -8,95 0,10 6,3 -2,16 -8,12 -17,8 -34,8l-10 -27c-16,-27 -26,-43 -49,-62 -25,-20 -7,-53 -24,-74 -11,-14 -17,-6 -27,-20 -22,-31 6,-103 -9,-140 -1,-2 -21,-25 -21,-25 -5,-4 0,-2 -9,-5 -16,-6 -35,-7 -51,0l-21 16c-34,35 -20,112 -20,156 -16,9 -24,13 -33,27 -12,17 -9,35 -9,56 -78,52 -65,99 -65,186 -37,25 -33,16 -33,75 0,49 -10,55 28,75l0 107c-27,15 -38,14 -70,14 -5,23 -9,14 -10,46 0,17 0,35 0,52 1,44 24,41 52,56 0,61 0,121 0,182 0,134 18,135 -42,135 -35,-53 -51,-26 -51,-112 -47,-13 -28,-74 -29,-103 0,-23 -2,-7 -11,-25 -4,-9 -4,-21 -6,-27 -10,-37 -25,-2 -34,-36 -41,0 -23,-2 -46,14 -1,1 -2,1 -3,2 -41,25 -25,56 -25,152 -20,10 -22,17 -42,28 0,21 4,50 -6,63 -7,9 -38,25 -51,56 -10,24 -13,48 -12,76 1,63 -11,32 -25,72 -7,20 -5,77 -2,95 3,14 11,20 21,30 16,16 11,95 3,111 -13,26 -53,18 -89,18 -17,32 -14,28 -14,75 0,40 -2,67 37,70 25,2 36,0 56,14 0,109 0,217 0,326 0,49 12,156 -10,195 0,0 -5,9 -7,12 -15,24 -10,68 -25,73 -28,8 -33,-64 -45,-80l-45 -48c-9,-8 -7,-6 -17,-11 0,-94 -20,-58 -28,-84 0,-45 3,-76 -7,-114 -14,-55 -69,-75 -106,-37 -12,12 -14,23 -19,42 -8,33 -3,78 -3,114 -37,20 -33,22 -33,75l-53 58c-20,26 -9,-4 -20,36 -4,14 -6,28 -13,38 -14,22 -13,6 -12,44l-7 49c-8,27 -3,74 -3,104 53,35 22,62 13,110l-9 43c-8,24 -12,117 5,141 11,16 19,8 34,18 20,13 13,58 13,89 0,34 0,68 0,102 0,32 14,141 -40,91 -11,-10 -22,-11 -26,-26 -50,0 -43,-8 -64,11 -3,2 -20,18 -20,18 -23,31 -14,122 -14,172 -10,6 -18,9 -26,16 -15,14 4,10 -20,17l0 65c25,-11 52,-20 80,-27 109,-25 212,-8 307,51 95,59 155,144 181,253 25,109 8,212 -51,307 -59,95 -144,155 -253,181 -109,25 -211,8 -307,-51 -6,-4 -13,-8 -19,-12 -28,0 -55,-1 -77,0 -57,1 -95,15 -96,79 -1,38 -5,73 -1,101 9,62 77,60 131,60l39 0 -3 2c-23,18 -24,47 -25,78 0,24 1,41 3,63 2,22 -2,35 -17,45 -14,9 -24,24 -37,28l0 61 -54 48c-13,13 -13,22 -18,38 -12,34 -17,3 -16,63 0,25 0,50 0,75 -34,8 -33,19 -33,60 0,34 3,57 5,84 16,1 17,4 28,9 0,36 8,115 -7,146 -12,25 -12,110 -4,135 10,34 41,18 67,30l0 587c0,30 -5,45 -5,79 -49,11 -241,-4 -267,8l-28 23c-6,10 -7,24 -8,39 -1,71 -15,131 56,131 46,-1 43,7 42,51 -2,125 5,811 -1,828l-13 15 -84 0c0,33 0,65 0,98 0,15 -1,32 0,47 1,33 4,14 10,37 20,0 41,-1 61,-1 28,0 28,0 28,28l-1 336c0,545 23,426 -67,450l-20 12c-2,2 -9,22 -9,23 -3,19 -3,114 1,132 9,41 6,42 -17,70l-18 33c-5,11 -50,49 -60,52l0 172 -51 0c-5,-10 -6,-19 -8,-29l-29 -83 -93 0c-4,8 -4,14 -7,21 -6,10 -8,9 -12,16 -11,20 -4,137 -4,164 -15,1 -8,1 -15,4l-10 4c-13,6 -21,13 -27,29 -5,13 -3,8 -4,24 -2,46 -21,43 -46,70 -18,20 -12,2 -26,35 -4,9 -5,13 -8,20 0,1 -1,2 -1,3 -23,52 -13,64 -13,127 -7,4 -12,9 -20,13 -9,4 -7,2 -10,2l0 5 -513 0 -6 4 0 112c15,4 26,14 36,25 1,1 3,4 4,5 11,16 7,34 6,52 -2,33 10,76 -36,81 -23,2 -60,0 -84,0 -18,27 -16,30 -19,65 -17,4 -35,5 -51,10 -9,3 -16,5 -25,7 -21,5 -23,10 -45,16 -13,4 -8,2 -21,7 -10,4 -13,4 -21,7l-59 29c-10,6 -7,6 -17,11l-38 22c-10,7 -8,4 -18,10 -45,25 -63,51 -99,78 -32,23 -70,63 -97,94l-15 27c-17,29 13,-21 -4,6 -18,28 -23,51 -35,72 -8,14 -4,-7 -12,21l-11 50c-7,49 -16,29 -19,70 -2,25 -13,60 -24,78l-10 18c0,0 -5,8 -6,8l-32 29c-36,23 -115,12 -151,-5 -8,-4 -2,-1 -9,-5 -1,-1 -2,-1 -3,-2l-18 -10c-36,-20 -78,-78 -89,-111l-2 -7c-11,-32 -18,-56 -48,-73 -10,5 -4,3 -19,5 -20,85 -5,370 -5,475zm5402 -821c-73,-85 -166,-131 -278,-139 -112,-8 -210,25 -295,98 -85,73 -131,166 -139,278 -8,112 25,210 98,295 74,85 166,131 278,139 112,8 210,-25 295,-98 85,-74 131,-166 139,-278 8,-112 -25,-210 -98,-295zm-132 114c42,49 61,105 56,169 -4,64 -31,117 -80,159 -48,42 -105,61 -169,56 -64,-5 -117,-31 -159,-80 -42,-48 -61,-105 -56,-169 5,-64 31,-117 80,-159 49,-42 105,-61 169,-56 64,5 117,31 159,80zm-431 -853l-94 -147 -659 423 45 178 708 -454zm-557 -949c-51,-100 -130,-167 -237,-201 -107,-34 -210,-26 -310,25 -100,51 -167,130 -201,237 -34,107 -26,210 25,310 51,100 130,167 237,201 107,35 210,26 310,-25 100,-51 167,-130 201,-237 35,-107 26,-210 -25,-310zm-155 79c29,57 34,116 14,177 -20,61 -58,106 -115,135 -57,29 -116,34 -177,14 -61,-20 -106,-58 -135,-115 -29,-57 -34,-116 -14,-177 20,-61 58,-106 115,-135 57,-29 116,-34 177,-14 61,20 106,58 135,115zm-218 -928l-64 -162 -729 287 10 183 783 -309zm-333 -1051c-25,-109 -85,-194 -181,-253 -95,-59 -197,-76 -307,-51 -109,25 -194,85 -253,180 -59,95 -77,197 -51,307 25,109 86,194 181,253 95,60 197,77 307,51 109,-25 194,-85 253,-181 60,-95 77,-197 51,-307zm-170 39c14,63 5,121 -29,175 -34,54 -82,89 -145,103 -63,14 -121,5 -175,-29 -54,-34 -89,-82 -103,-145 -14,-63 -5,-121 29,-175 34,-54 82,-89 145,-103 63,-14 121,-5 175,29 54,34 89,82 103,145zm-441 -1076l427 -54 22 173 -834 106 29 -178 357 -46 0 0zm4642 5455c170,0 339,0 509,0 46,0 109,-5 141,-1 24,3 110,4 221,4l13 -19c-32,-17 -53,-34 -85,-51 7,-30 212,-342 356,-559l-46 -62c-10,-8 -8,-9 -16,-17l-266 -186c-1,-1 -2,-1 -3,-2l-6 -4c-19,-10 -45,-12 -63,-21l-24 -8c-245,309 -487,619 -733,927zm1000 2c227,-1 496,-3 594,-2 26,0 36,-4 60,-9l1 -2 0 -425c-1,-23 -3,-40 -5,-49 -13,-1 -13,-2 -23,-5 -40,35 -29,61 -53,96 -37,55 -39,68 -97,103 -49,30 -138,41 -183,-1 -17,-16 -15,-20 -27,-38 -1,-1 -1,-2 -2,-3 -6,-10 -13,-26 -18,-44l-247 378z"/>
      <path class="fil3" d="M15868 12168l135 -29 132 606 -125 74 -142 -651zm-3 1l135 -29 132 606 -125 74 -142 -651zm-607 219c-51,3 -93,24 -126,62 -34,38 -49,82 -45,133 3,51 24,93 62,126 38,33 82,49 133,45 51,-3 93,-24 126,-62 33,-38 49,-82 45,-133 -3,-51 -24,-93 -62,-126 -38,-34 -82,-49 -133,-45zm-9 -138c89,-6 166,21 233,80 67,59 103,132 108,221 6,89 -21,166 -79,233 -59,67 -132,103 -221,109 -89,6 -166,-21 -233,-80 -67,-59 -103,-132 -109,-221 -6,-89 21,-166 80,-233 59,-67 132,-103 221,-109zm6 138c-51,3 -93,24 -126,62 -34,38 -49,82 -45,133 3,51 24,93 62,126 38,33 82,49 133,45 51,-3 93,-24 126,-62 33,-38 49,-82 45,-133 -3,-51 -24,-93 -62,-126 -38,-34 -82,-49 -133,-45zm-9 -138c89,-6 166,21 233,80 67,59 103,132 108,221 6,89 -21,166 -79,233 -59,67 -132,103 -221,109 -89,6 -166,-21 -233,-80 -67,-59 -103,-132 -109,-221 -6,-89 21,-166 80,-233 59,-67 132,-103 221,-109zm-759 4l138 5 -23 620 -139 41 25 -665zm-3 0l138 5 -23 620 -139 41 25 -665zm-642 54c-50,-10 -96,0 -138,28 -42,28 -68,68 -77,118 -10,50 0,96 28,138 28,42 68,68 118,77 50,10 96,0 138,-28 42,-29 68,-68 77,-118 10,-50 0,-96 -28,-138 -29,-42 -68,-68 -118,-77zm26 -135c87,17 156,62 206,135 50,73 66,154 50,241 -17,87 -62,156 -135,206 -73,50 -154,67 -241,50 -87,-17 -156,-62 -206,-135 -50,-73 -67,-154 -50,-241 17,-87 62,-156 135,-206 73,-50 154,-67 241,-50zm-29 135c-50,-10 -96,0 -138,28 -42,28 -68,68 -77,118 -10,50 0,96 28,138 28,42 68,68 118,77 50,10 96,0 138,-28 42,-29 68,-68 77,-118 10,-50 0,-96 -28,-138 -29,-42 -68,-68 -118,-77zm26 -135c87,17 156,62 206,135 50,73 66,154 50,241 -17,87 -62,156 -135,206 -73,50 -154,67 -241,50 -87,-17 -156,-62 -206,-135 -50,-73 -67,-154 -50,-241 17,-87 62,-156 135,-206 73,-50 154,-67 241,-50zm-734 -193l130 46 -206 585 -145 -2 221 -628zm-636 -112c-46,-22 -93,-24 -141,-6 -48,17 -82,49 -104,95 -21,46 -24,93 -6,141 17,48 49,82 95,104 46,21 93,23 141,6 48,-17 82,-49 104,-95 21,-46 24,-93 6,-141 -17,-48 -49,-82 -95,-104zm58 -125c80,38 136,98 166,182 30,83 27,165 -11,246 -38,80 -98,136 -181,166 -83,30 -165,27 -246,-11 -81,-38 -136,-98 -166,-181 -30,-83 -27,-165 11,-246 38,-81 98,-136 182,-166 83,-30 165,-27 246,11zm-661 -379l115 76 -341 518 -140 -37 366 -556zm-588 -275c-38,-34 -82,-49 -133,-46 -51,3 -93,24 -126,62 -34,38 -49,82 -46,133 3,50 23,93 62,126 38,34 82,49 133,46 51,-3 93,-24 126,-62 34,-38 49,-82 46,-133 -3,-51 -24,-93 -62,-126zm91 -103c66,59 102,133 107,221 5,89 -22,166 -81,232 -59,66 -133,102 -221,108 -89,5 -166,-22 -233,-80 -66,-59 -102,-133 -107,-221 -5,-89 22,-166 80,-233 59,-66 133,-102 221,-107 89,-5 166,21 233,80zm-542 -536l94 101 -454 422 -127 -70 487 -454zm-493 -417c-29,-42 -68,-67 -118,-76 -50,-9 -96,1 -137,30 -42,29 -67,68 -76,118 -9,50 1,96 30,137 29,42 68,67 118,76 50,9 96,-1 137,-30 42,-29 67,-68 76,-118 9,-50 -1,-96 -30,-137zm113 -79c51,73 68,153 52,240 -16,87 -60,156 -133,207 -73,51 -153,68 -240,52 -87,-16 -156,-60 -207,-133 -51,-73 -68,-153 -52,-240 16,-87 60,-156 133,-207 73,-51 153,-68 240,-52 87,16 156,60 207,133zm-384 -658l61 123 -555 276 -102 -103 596 -296zm-373 -533c-16,-48 -46,-84 -91,-107 -45,-23 -92,-27 -140,-11 -48,16 -84,46 -107,91 -23,45 -27,92 -11,140 16,48 46,84 91,107 45,23 92,27 140,11 48,-16 84,-46 107,-91 23,-45 27,-92 11,-140zm131 -43c27,84 21,166 -19,245 -40,79 -103,132 -187,160 -84,27 -166,21 -245,-19 -79,-40 -132,-103 -160,-187 -27,-85 -21,-166 19,-245 40,-79 103,-132 187,-160 85,-27 166,-21 245,19 79,40 132,103 160,187zm-199 -736l29 135 -606 132 -74 -125 651 -142zm-219 -610c-3,-51 -24,-93 -62,-126 -38,-34 -82,-49 -133,-45 -51,3 -93,24 -126,62 -33,38 -49,82 -45,133 3,51 24,93 62,126 38,33 82,49 133,45 51,-3 93,-24 126,-62 34,-38 49,-82 45,-133zm138 -9c6,89 -21,166 -80,233 -59,67 -132,103 -221,108 -89,6 -166,-21 -233,-79 -67,-59 -103,-132 -109,-221 -6,-89 21,-166 80,-233 59,-67 132,-103 221,-109 89,-6 166,21 233,80 67,59 103,132 109,221zm-5 -762l-5 138 -620 -23 -41 -139 665 25zm-54 -645c10,-50 0,-96 -28,-138 -28,-42 -68,-68 -118,-77 -50,-10 -96,0 -138,28 -42,28 -68,68 -77,118 -10,50 0,96 28,138 29,42 68,68 118,77 50,10 96,0 138,-28 42,-29 68,-68 77,-118zm135 26c-17,87 -62,156 -135,206 -73,50 -154,66 -241,50 -87,-17 -156,-62 -206,-135 -50,-73 -67,-154 -50,-241 17,-87 62,-156 135,-206 73,-50 154,-67 241,-50 87,17 156,62 206,135 50,73 67,154 50,241zm194 -737l-46 130 -585 -206 2 -145 628 221zm112 -636c22,-46 24,-93 6,-140 -17,-48 -49,-82 -95,-104 -46,-21 -93,-24 -141,-6 -48,17 -82,49 -104,95 -21,46 -23,93 -6,141 17,48 49,82 95,104 46,21 93,24 141,6 48,-17 82,-49 104,-95zm125 58c-38,80 -98,136 -182,166 -83,30 -165,27 -246,-11 -80,-38 -136,-98 -166,-181 -30,-83 -27,-165 11,-246 38,-81 98,-136 181,-166 83,-30 165,-27 246,11 81,38 136,98 166,182 30,83 27,165 -11,246zm379 -661l-76 115 -518 -341 37 -140 556 366zm276 -588c34,-38 49,-82 46,-133 -3,-51 -24,-93 -62,-126 -38,-34 -82,-49 -133,-46 -50,3 -93,23 -126,62 -34,38 -49,82 -46,133 3,51 24,93 62,126 38,34 82,49 133,46 51,-3 93,-24 126,-62zm103 91c-59,66 -133,102 -221,107 -89,5 -166,-22 -232,-81 -66,-59 -102,-133 -108,-221 -5,-89 22,-166 80,-233 59,-66 133,-102 221,-107 89,-5 166,22 233,80 66,59 102,133 107,221 5,89 -21,166 -80,233zm536 -542l-101 94 -422 -454 70 -127 454 487zm417 -493c42,-29 67,-68 76,-118 9,-50 -1,-96 -30,-137 -29,-42 -68,-67 -118,-76 -50,-9 -96,1 -137,30 -42,29 -67,68 -76,118 -9,50 1,96 30,137 29,42 68,67 118,76 50,9 96,-1 137,-30zm79 113c-73,51 -153,68 -240,52 -87,-16 -156,-60 -207,-133 -51,-73 -68,-153 -52,-240 16,-87 60,-156 133,-207 73,-51 153,-68 240,-52 87,16 156,60 207,133 51,73 68,153 52,240 -16,87 -60,156 -133,207zm658 -384l-123 61 -276 -555 103 -102 296 596zm533 -373c48,-16 84,-46 107,-91 23,-45 27,-92 11,-140 -16,-48 -46,-84 -91,-107 -45,-23 -92,-27 -140,-11 -48,16 -84,46 -107,91 -23,45 -27,92 -11,140 16,48 46,84 91,107 45,23 92,27 140,11zm43 131c-84,27 -166,21 -245,-19 -79,-40 -132,-103 -160,-187 -27,-84 -21,-166 19,-245 40,-79 103,-132 187,-160 85,-27 166,-21 245,19 79,40 132,103 160,187 27,85 21,166 -19,245 -40,79 -103,132 -187,160zm736 -199l-135 29 -132 -606 125 -74 142 651zm610 -219c51,-3 93,-24 126,-62 34,-38 49,-82 45,-133 -3,-51 -24,-93 -62,-126 -38,-33 -82,-49 -133,-45 -51,3 -93,24 -126,62 -33,38 -49,82 -45,133 3,51 24,93 62,126 38,34 82,49 133,45zm9 138c-89,6 -166,-21 -233,-80 -67,-59 -103,-132 -108,-221 -6,-89 21,-166 79,-233 59,-67 132,-103 221,-109 89,-6 166,21 233,80 67,59 103,132 109,221 6,89 -21,166 -80,233 -59,67 -132,103 -221,109zm762 -4l-138 -5 23 -620 139 -41 -25 665zm645 -54c50,10 96,0 138,-28 42,-28 68,-68 77,-118 10,-50 0,-96 -28,-138 -28,-42 -68,-68 -118,-77 -50,-10 -96,0 -138,28 -42,29 -68,68 -77,118 -10,50 0,96 28,138 29,42 68,68 118,77zm-26 135c-87,-17 -156,-62 -206,-135 -50,-73 -66,-154 -50,-241 17,-87 62,-156 135,-206 73,-50 154,-67 241,-50 87,17 156,62 206,135 50,73 67,154 50,241 -17,87 -62,156 -135,206 -73,50 -154,67 -241,50zm737 194l-130 -46 206 -585 145 2 -221 628zm636 112c46,22 93,24 141,6 48,-17 82,-49 104,-95 21,-46 24,-93 6,-141 -17,-48 -49,-82 -95,-104 -46,-21 -93,-23 -141,-6 -48,17 -82,49 -104,95 -21,46 -24,93 -6,141 17,48 49,82 95,104zm-58 125c-80,-38 -136,-98 -166,-182 -30,-83 -27,-165 11,-246 38,-80 98,-136 181,-166 83,-30 165,-27 246,11 81,38 136,98 166,181 30,83 27,165 -11,246 -38,81 -98,136 -182,166 -83,30 -165,27 -246,-11zm661 380l-115 -76 341 -518 140 37 -366 556zm588 276c38,34 82,49 133,46 51,-3 93,-24 126,-62 34,-38 49,-82 46,-133 -3,-50 -23,-93 -62,-126 -38,-34 -82,-49 -133,-46 -51,3 -93,24 -126,62 -34,38 -49,82 -46,133 3,51 24,93 62,126zm-91 103c-66,-59 -102,-133 -107,-221 -5,-89 22,-166 81,-232 59,-66 133,-102 221,-108 89,-5 166,22 233,80 66,59 102,133 107,221 5,89 -22,166 -80,233 -59,66 -133,102 -221,107 -89,5 -166,-21 -233,-80zm542 536l-94 -101 454 -422 127 70 -487 454zm493 417c29,42 68,67 118,76 50,9 96,-1 137,-30 42,-29 67,-68 76,-118 9,-50 -1,-96 -30,-137 -29,-42 -68,-67 -118,-76 -50,-9 -96,1 -137,30 -42,29 -67,68 -76,118 -9,50 1,96 30,137zm-113 79c-51,-73 -68,-153 -52,-240 16,-87 60,-156 133,-207 73,-51 153,-68 240,-52 87,16 156,60 207,133 51,73 68,153 52,240 -16,87 -60,156 -133,207 -73,51 -153,68 -240,52 -87,-16 -156,-60 -207,-133zm384 658l-61 -123 555 -276 102 103 -596 296zm373 533c16,48 46,84 91,107 45,23 92,27 140,11 48,-16 84,-46 107,-91 23,-45 27,-92 11,-140 -16,-48 -46,-84 -91,-107 -45,-23 -92,-27 -140,-11 -48,16 -84,46 -107,91 -23,45 -27,92 -11,140zm-131 43c-27,-84 -21,-166 19,-245 40,-79 103,-132 187,-160 84,-27 166,-21 245,19 79,40 132,103 160,187 27,85 21,166 -19,245 -40,79 -103,132 -187,160 -85,27 -166,21 -245,-19 -79,-40 -132,-103 -160,-187zm199 736l-29 -135 606 -132 74 125 -651 142zm219 610c3,51 24,93 62,126 38,34 82,49 133,45 51,-3 93,-24 126,-62 33,-38 49,-82 45,-133 -3,-51 -24,-93 -62,-126 -38,-33 -82,-49 -133,-45 -51,3 -93,24 -126,62 -34,38 -49,82 -45,133zm-138 9c-6,-89 21,-166 80,-233 59,-67 132,-103 221,-108 89,-6 166,21 233,79 67,59 103,132 109,221 6,89 -21,166 -80,233 -59,67 -132,103 -221,109 -89,6 -166,-21 -233,-80 -67,-59 -103,-132 -109,-221zm4 762l5 -138 620 23 41 139 -665 -25zm54 645c-10,50 0,96 28,138 28,42 68,68 118,77 50,10 96,0 138,-28 42,-28 68,-68 77,-118 10,-50 0,-96 -28,-138 -29,-42 -68,-68 -118,-77 -50,-10 -96,0 -138,28 -42,29 -68,68 -77,118zm-135 -26c17,-87 62,-156 135,-206 73,-50 154,-66 241,-50 87,17 156,62 206,135 50,73 67,154 50,241 -17,87 -62,156 -135,206 -73,50 -154,67 -241,50 -87,-17 -156,-62 -206,-135 -50,-73 -67,-154 -50,-241zm-194 737l46 -130 585 206 -2 145 -628 -221zm-112 636c-22,46 -24,93 -6,141 17,48 49,82 95,104 46,21 93,24 141,6 48,-17 82,-49 104,-95 21,-46 23,-93 6,-141 -17,-48 -49,-82 -95,-104 -46,-21 -93,-24 -141,-6 -48,17 -82,49 -104,95zm-125 -58c38,-80 98,-136 181,-166 83,-30 165,-27 246,11 80,38 136,98 166,181 30,83 27,165 -11,246 -38,81 -98,136 -181,166 -83,30 -165,27 -246,-11 -81,-38 -136,-98 -166,-182 -30,-83 -27,-165 11,-246zm-380 661l76 -115 518 341 -37 140 -556 -366zm-276 588c-34,38 -49,82 -46,133 3,51 24,93 62,126 38,34 82,49 133,46 50,-3 93,-23 126,-62 34,-38 49,-82 46,-133 -3,-51 -24,-93 -62,-126 -38,-34 -82,-49 -133,-46 -51,3 -93,24 -126,62zm-103 -91c59,-66 133,-102 221,-107 89,-5 166,22 232,81 66,59 102,133 108,221 5,89 -22,166 -80,233 -59,66 -133,102 -221,107 -89,5 -166,-22 -233,-80 -66,-59 -102,-133 -107,-221 -5,-89 21,-166 80,-233zm-536 542l101 -94 422 454 -70 127 -454 -487zm-417 493c-42,29 -67,68 -76,118 -9,50 1,96 30,137 29,42 68,67 118,76 50,9 96,-1 137,-30 42,-29 67,-68 76,-118 9,-50 -1,-96 -30,-137 -29,-42 -68,-67 -118,-76 -50,-9 -96,1 -137,30zm-79 -113c73,-51 153,-68 240,-52 87,16 156,60 207,133 51,73 68,153 52,240 -16,87 -60,156 -133,207 -73,51 -153,68 -240,52 -87,-16 -156,-60 -207,-133 -51,-73 -68,-153 -52,-240 16,-87 60,-156 133,-207zm-658 383l123 -61 276 555 -103 102 -296 -596zm-533 373c-48,16 -84,46 -107,91 -23,45 -27,92 -11,140 16,48 46,84 91,107 45,23 92,27 140,11 48,-16 84,-46 107,-91 23,-45 27,-92 11,-140 -16,-48 -46,-84 -91,-107 -45,-23 -92,-27 -140,-11zm-43 -131c84,-27 166,-21 245,19 79,40 132,103 160,187 27,84 21,166 -19,245 -40,79 -103,132 -187,160 -85,27 -166,21 -245,-19 -79,-40 -132,-103 -160,-187 -27,-85 -21,-166 19,-245 40,-79 103,-132 187,-160z"/>
     </g>
    </g>
    <g>
     <path class="fil5" d="M2269 16171c38,0 71,-8 101,-23 30,-15 55,-35 76,-60 21,-25 37,-53 48,-86 11,-32 17,-65 17,-99 0,-48 -4,-90 -12,-126 -8,-36 -25,-69 -51,-99 -6,-8 -14,-15 -25,-23 -11,-8 -17,-13 -17,-16 0,-3 6,-7 17,-11 11,-5 20,-9 25,-14 26,-21 43,-45 49,-74 7,-29 10,-63 10,-102 0,-85 -28,-153 -84,-202 -56,-49 -139,-74 -247,-74l-392 0c-9,0 -14,5 -14,14l0 148c0,9 5,14 14,14l409 0c12,0 24,3 36,8 12,6 22,13 32,22 9,9 17,19 23,32 6,12 8,25 8,38 0,12 -3,25 -8,37 -6,13 -13,24 -23,34 -9,10 -20,18 -32,25 -12,7 -24,10 -36,10l-301 0c-9,0 -14,5 -14,14l0 148c0,9 5,14 14,14l242 0c38,0 67,5 89,16 22,11 39,24 50,40 11,16 19,33 22,51 3,18 5,33 5,46 0,14 -3,28 -9,42 -6,14 -15,27 -25,39 -11,12 -23,22 -37,30 -14,8 -28,11 -43,11l-402 0c-9,0 -14,5 -14,14l0 148c0,9 5,14 14,14l486 0zm858 0l184 0c9,0 14,-5 14,-14l0 -172c0,-9 5,-14 14,-14l65 0c6,0 8,-5 8,-14l0 -148c0,-9 -5,-14 -14,-14l-59 0c-9,0 -14,-5 -14,-14l0 -586c0,-11 -10,-20 -31,-25 -21,-5 -44,-8 -69,-8l-150 0c-9,0 -18,1 -25,3 -7,2 -15,8 -22,17l-420 531c-4,5 -7,9 -8,13 -2,4 -3,9 -3,15l0 215c0,9 5,14 14,14l489 0c9,0 14,5 14,14l0 172c0,9 5,14 14,14zm-14 -389c0,9 -5,14 -14,14l-256 0c-4,0 -7,0 -11,-1 -4,-1 -6,-2 -6,-5 0,-5 1,-8 2,-11 1,-2 4,-5 6,-9l254 -347c3,-3 6,-7 10,-12 4,-5 7,-8 10,-8 3,0 4,3 4,10l0 368z"/>
     <g>
      <path class="fil5" d="M4645 15177l0 980c0,9 5,14 14,14l176 0c9,0 14,-5 14,-14l0 -980c0,-9 -5,-14 -14,-14l-176 0c-9,0 -14,5 -14,14zm515 453c0,-8 4,-16 13,-24 9,-8 18,-11 29,-11l136 0c20,0 38,2 55,5 17,3 32,9 44,18 13,8 22,20 30,35 7,15 11,34 11,58l0 447c0,9 5,14 14,14l142 0c10,0 15,-5 15,-14l0 -477c0,-31 -6,-61 -18,-90 -12,-29 -29,-55 -51,-77 -22,-22 -48,-41 -77,-54 -29,-14 -60,-20 -94,-20l-318 0c-30,0 -55,10 -74,29 -19,19 -29,41 -29,64l0 583c0,15 3,28 9,39 6,11 16,17 29,17l94 0c26,0 39,-15 39,-45l0 -496zm862 -6c0,-9 5,-14 14,-14l115 0c9,0 14,-5 14,-14l0 -143c0,-9 -5,-14 -14,-14l-115 0c-9,0 -14,-5 -14,-14l0 -176c0,-9 -5,-14 -14,-14l-143 0c-9,0 -14,5 -14,14l0 176c0,9 -5,14 -14,14l-75 0c-9,0 -14,5 -14,14l0 143c0,9 5,14 14,14l75 0c9,0 14,5 14,14l0 439c0,29 12,54 35,76 23,22 53,32 89,32l177 0c9,0 14,-5 14,-14l0 -143c0,-8 -4,-13 -11,-14l-118 0c-9,0 -14,-5 -14,-14l0 -361zm411 263l520 0c9,0 14,-5 14,-14l0 -146c0,-44 -6,-84 -19,-119 -13,-36 -33,-66 -60,-91 -27,-25 -62,-44 -104,-58 -42,-14 -92,-20 -150,-20 -47,0 -93,6 -140,18 -46,12 -88,32 -125,61 -37,29 -67,68 -90,117 -23,49 -34,111 -34,186 0,62 7,115 20,159 14,44 37,80 69,109 32,29 75,49 128,63 53,13 119,20 197,20l237 0c9,0 14,-5 14,-14l0 -143c0,-9 -5,-14 -14,-14l-334 0c-20,0 -38,-3 -56,-8 -18,-5 -33,-12 -46,-21 -13,-9 -23,-19 -30,-31 -8,-12 -11,-25 -11,-39 0,-9 5,-14 14,-14zm0 -165c-9,0 -14,-5 -14,-14 0,-18 7,-34 21,-49 14,-14 32,-27 53,-37 21,-10 43,-18 66,-23 23,-6 44,-8 63,-8 59,0 105,11 138,32 33,21 49,49 49,85 0,9 -5,14 -14,14l-361 0zm841 -284c-25,0 -49,5 -72,15 -22,10 -42,23 -59,40 -17,17 -30,37 -40,59 -10,23 -15,46 -15,70l0 534c0,9 5,14 14,14l157 0c9,0 14,-5 14,-14l0 -485c0,-6 1,-12 4,-19 3,-7 7,-14 12,-20 5,-6 11,-11 18,-16 7,-5 14,-7 22,-7l135 0c9,0 14,-5 14,-14l0 -143c0,-9 -5,-14 -14,-14l-191 0zm474 191c0,-8 4,-16 13,-24 9,-8 18,-11 29,-11l136 0c20,0 38,2 55,5 17,3 32,9 44,18 13,8 22,20 30,35 7,15 11,34 11,58l0 447c0,9 5,14 14,14l142 0c10,0 15,-5 15,-14l0 -477c0,-31 -6,-61 -18,-90 -12,-29 -29,-55 -51,-77 -22,-22 -48,-41 -77,-54 -29,-14 -60,-20 -94,-20l-318 0c-30,0 -55,10 -74,29 -19,19 -29,41 -29,64l0 583c0,15 3,28 9,39 6,11 16,17 29,17l94 0c26,0 39,-15 39,-45l0 -496zm650 -177l0 143c0,9 5,14 14,14l370 0c15,0 27,7 37,20 9,13 14,26 14,39 0,16 -7,30 -22,41 -14,12 -34,18 -58,18l-235 0c-28,0 -52,8 -72,24 -20,16 -36,35 -48,58 -12,23 -21,48 -27,75 -6,27 -8,52 -8,75 0,12 2,30 6,53 4,23 10,47 20,70 10,23 24,44 42,61 18,17 41,26 69,26l490 0c9,0 14,-5 14,-14l0 -464c0,-30 -3,-60 -11,-90 -7,-30 -18,-57 -34,-82 -15,-24 -36,-44 -60,-60 -25,-15 -55,-23 -91,-23l-396 0c-9,0 -14,5 -14,14zm178 554c-17,0 -30,-6 -39,-18 -9,-12 -14,-26 -14,-42 0,-13 4,-25 13,-36 8,-11 19,-16 32,-16l250 0c9,0 14,5 14,14l0 84c0,9 -5,14 -14,14l-242 0zm800 -382c0,-9 5,-14 14,-14l115 0c9,0 14,-5 14,-14l0 -143c0,-9 -5,-14 -14,-14l-115 0c-9,0 -14,-5 -14,-14l0 -176c0,-9 -5,-14 -14,-14l-143 0c-9,0 -14,5 -14,14l0 176c0,9 -5,14 -14,14l-75 0c-9,0 -14,5 -14,14l0 143c0,9 5,14 14,14l75 0c9,0 14,5 14,14l0 439c0,29 12,54 35,76 23,22 53,32 89,32l177 0c9,0 14,-5 14,-14l0 -143c0,-8 -4,-13 -11,-14l-118 0c-9,0 -14,-5 -14,-14l0 -361zm259 533c0,9 5,14 14,14l143 0c9,0 14,-5 14,-14l0 -704c0,-9 -5,-14 -14,-14l-143 0c-9,0 -14,5 -14,14l0 704zm0 -980l0 143c0,9 5,14 14,14l143 0c9,0 14,-5 14,-14l0 -143c0,-9 -5,-14 -14,-14l-143 0c-9,0 -14,5 -14,14zm1011 472c0,-34 -6,-63 -19,-89 -13,-26 -29,-48 -49,-66 -20,-18 -43,-32 -69,-42 -26,-9 -51,-14 -77,-14l-284 0c-30,0 -58,5 -85,15 -27,10 -50,25 -70,44 -20,19 -35,42 -47,70 -12,27 -18,58 -18,91l0 247c0,33 3,65 10,96 7,31 18,60 35,84 17,25 39,45 67,60 28,15 64,23 107,23l250 0c43,0 80,-4 111,-13 31,-8 57,-23 77,-45 20,-22 35,-51 45,-87 10,-37 15,-83 15,-139l0 -238zm-173 153l0 112c0,24 -12,45 -37,60 -25,16 -54,24 -88,24l-129 0c-12,0 -25,-1 -39,-3 -14,-2 -27,-7 -39,-14 -12,-7 -22,-17 -30,-29 -8,-12 -12,-28 -12,-46l0 -225c0,-13 3,-24 10,-34 7,-9 15,-17 25,-23 10,-6 21,-10 33,-12 12,-2 24,-4 36,-4l153 0c14,0 28,1 42,4 14,3 27,7 38,13 11,6 20,14 27,23 7,9 11,19 11,30l0 122zm468 -173c0,-8 4,-16 13,-24 9,-8 18,-11 29,-11l136 0c20,0 38,2 55,5 17,3 32,9 44,18 13,8 22,20 29,35 7,15 11,34 11,58l0 447c0,9 5,14 14,14l142 0c10,0 15,-5 15,-14l0 -477c0,-31 -6,-61 -18,-90 -12,-29 -29,-55 -51,-77 -22,-22 -48,-41 -77,-54 -29,-14 -60,-20 -94,-20l-318 0c-30,0 -55,10 -74,29 -19,19 -29,41 -29,64l0 583c0,15 3,28 9,39 6,11 16,17 29,17l94 0c26,0 39,-15 39,-45l0 -496zm650 -177l0 143c0,9 5,14 14,14l370 0c15,0 27,7 37,20 9,13 14,26 14,39 0,16 -7,30 -22,41 -15,12 -34,18 -58,18l-235 0c-28,0 -52,8 -72,24 -20,16 -36,35 -48,58 -12,23 -21,48 -27,75 -6,27 -8,52 -8,75 0,12 2,30 6,53 4,23 11,47 20,70 10,23 24,44 42,61 18,17 41,26 69,26l490 0c9,0 14,-5 14,-14l0 -464c0,-30 -3,-60 -11,-90 -7,-30 -18,-57 -34,-82 -15,-24 -36,-44 -60,-60 -25,-15 -55,-23 -91,-23l-396 0c-9,0 -14,5 -14,14zm178 554c-17,0 -30,-6 -39,-18 -9,-12 -14,-26 -14,-42 0,-13 4,-25 13,-36 8,-11 19,-16 32,-16l250 0c9,0 14,5 14,14l0 84c0,9 -5,14 -14,14l-242 0zm561 -830l0 834 0 3 0 143c0,9 5,14 14,14l143 0c9,0 14,-5 14,-14l0 -143 0 -3 0 -834c0,-9 -5,-14 -14,-14l-143 0c-9,0 -14,5 -14,14zm700 498c0,55 1,103 1,143 1,40 4,73 8,98 7,37 15,69 24,98 8,29 20,53 34,72 19,24 42,46 70,64 28,18 58,31 90,39 23,5 52,7 89,8 37,1 80,1 131,1 51,0 94,-1 131,-1 37,-1 66,-4 89,-8 32,-8 62,-20 90,-39 28,-18 52,-40 70,-64 14,-19 25,-43 34,-72 8,-29 16,-62 24,-98 5,-25 8,-58 8,-98 1,-40 1,-88 1,-143l0 -8c0,-55 0,-103 -1,-143 -1,-40 -4,-73 -8,-98 -8,-37 -15,-69 -24,-98 -8,-29 -20,-53 -34,-72 -19,-24 -42,-46 -70,-64 -28,-18 -58,-31 -90,-39 -22,-5 -52,-8 -89,-8 -37,-1 -80,-1 -131,-1 -51,0 -94,0 -131,1 -37,1 -66,4 -89,8 -32,8 -62,20 -90,39 -28,18 -52,40 -70,64 -14,19 -25,43 -34,72 -8,29 -16,62 -24,98 -5,25 -8,58 -8,98 -1,40 -1,88 -1,143l0 8zm447 -339c29,0 57,1 83,2 26,1 49,4 67,9 34,8 58,25 72,50 14,25 21,62 21,112l0 323c0,50 -7,87 -21,112 -14,25 -38,41 -72,50 -19,5 -41,8 -67,9 -26,1 -54,2 -83,2 -29,0 -57,-1 -83,-2 -26,-1 -49,-4 -67,-9 -34,-8 -58,-25 -72,-50 -14,-25 -21,-62 -21,-112l0 -323c0,-50 7,-87 21,-112 14,-25 38,-42 72,-50 19,-5 41,-8 67,-9 26,-1 54,-2 83,-2zm577 -159l0 834 0 3 0 143c0,9 5,14 14,14l143 0c9,0 14,-5 14,-14l0 -143 0 -3 0 -834c0,-9 -5,-14 -14,-14l-143 0c-9,0 -14,5 -14,14zm634 1267c12,0 20,-4 22,-11l375 -979c1,-2 1,-4 1,-6 0,-7 -5,-10 -14,-10l-169 0c-8,0 -14,3 -15,8l-178 471c-1,3 -3,7 -5,13 -2,6 -5,12 -8,18 -3,6 -6,11 -10,16 -4,5 -8,7 -11,7 -4,0 -8,-3 -11,-8 -4,-5 -7,-11 -11,-17 -3,-6 -6,-12 -8,-18 -2,-6 -3,-11 -4,-13l-149 -468c-3,-7 -8,-10 -17,-10l-163 0c-7,0 -10,3 -10,10 0,3 0,5 1,6l228 671c5,14 11,24 20,30 9,6 18,10 26,12 8,2 16,3 22,3 7,0 10,1 10,3l0 1 -98 260 0 4c0,4 2,6 7,6l167 0zm498 -287c0,9 5,14 14,14l143 0c9,0 14,-5 14,-14l0 -520c0,-11 3,-21 11,-30 7,-8 16,-13 26,-13l129 0c22,0 41,8 60,23 18,15 27,33 27,51l0 488c0,9 5,14 14,14l143 0c9,0 14,-5 14,-14l0 -488c0,-24 8,-43 25,-56 16,-13 33,-19 50,-19l93 0c10,0 21,2 33,6 12,4 23,11 32,19 10,8 18,19 25,30 7,12 10,25 10,40l0 467c0,9 5,14 15,14l142 0c9,0 14,-5 14,-14l0 -485c0,-26 -6,-53 -19,-81 -13,-28 -30,-53 -53,-75 -23,-23 -50,-41 -82,-56 -32,-15 -67,-22 -105,-22l-100 0c-6,0 -18,1 -37,2 -19,1 -38,7 -57,18 -10,5 -19,10 -26,17 -7,7 -13,13 -18,18 -5,6 -9,10 -12,13 -3,3 -6,5 -8,5 -2,0 -6,-3 -12,-9 -6,-6 -11,-11 -16,-16 -9,-9 -24,-20 -45,-31 -21,-11 -43,-17 -67,-17l-291 0c-21,0 -40,8 -58,25 -18,16 -27,36 -27,60l0 634zm1340 28c0,-9 5,-14 14,-14l148 0c47,0 90,-8 129,-23 39,-15 72,-38 100,-69 28,-31 49,-70 65,-118 15,-48 23,-105 23,-172 0,-45 -5,-89 -14,-131 -9,-42 -25,-80 -47,-112 -22,-33 -52,-59 -89,-79 -37,-20 -83,-30 -138,-30l-347 0c-9,0 -14,5 -14,14l0 969c0,9 5,14 14,14l143 0c9,0 14,-5 14,-14l0 -236zm0 -561c0,-9 5,-14 14,-14l185 0c14,0 28,4 41,13 14,9 26,20 37,33 11,13 20,28 27,45 7,17 11,33 11,48l0 108c0,16 -4,32 -11,49 -7,17 -16,32 -27,46 -11,14 -23,25 -37,34 -14,9 -27,13 -41,13l-185 0c-9,0 -14,-5 -14,-14l0 -361zm577 533c0,9 5,14 14,14l143 0c9,0 14,-5 14,-14l0 -704c0,-9 -5,-14 -14,-14l-143 0c-9,0 -14,5 -14,14l0 704zm0 -980l0 143c0,9 5,14 14,14l143 0c9,0 14,-5 14,-14l0 -143c0,-9 -5,-14 -14,-14l-143 0c-9,0 -14,5 -14,14zm338 276l0 143c0,9 5,14 14,14l370 0c15,0 27,7 37,20 9,13 14,26 14,39 0,16 -7,30 -22,41 -14,12 -34,18 -58,18l-235 0c-28,0 -52,8 -72,24 -20,16 -36,35 -48,58 -12,23 -21,48 -27,75 -6,27 -8,52 -8,75 0,12 2,30 6,53 4,23 11,47 20,70 10,23 24,44 41,61 18,17 41,26 69,26l490 0c9,0 14,-5 14,-14l0 -464c0,-30 -3,-60 -11,-90 -7,-30 -18,-57 -34,-82 -15,-24 -36,-44 -60,-60 -25,-15 -55,-23 -91,-23l-396 0c-9,0 -14,5 -14,14zm178 554c-17,0 -30,-6 -39,-18 -9,-12 -14,-26 -14,-42 0,-13 4,-25 13,-36 8,-11 19,-16 32,-16l250 0c9,0 14,5 14,14l0 84c0,9 -5,14 -14,14l-242 0zm1057 -582l0 -247c0,-9 5,-14 14,-14l143 0c9,0 14,5 14,14l0 980c0,9 -5,14 -14,14l-437 0c-45,0 -83,-11 -115,-34 -32,-23 -58,-52 -79,-88 -21,-36 -36,-75 -46,-117 -10,-42 -15,-83 -15,-122 0,-55 5,-106 15,-152 10,-46 25,-85 46,-117 21,-32 47,-57 79,-75 32,-18 70,-27 115,-27l266 0c9,0 14,-5 14,-14zm0 200c0,-9 -5,-14 -14,-14l-153 0c-29,0 -55,3 -79,8 -24,5 -44,15 -62,30 -17,14 -31,35 -40,61 -9,26 -14,60 -14,101 0,38 5,70 14,94 9,24 23,44 39,58 17,14 37,24 61,30 24,6 51,8 81,8l153 0c9,0 14,-5 14,-14l0 -361zm706 533c0,9 5,14 14,14l143 0c9,0 14,-5 14,-14l0 -704c0,-9 -5,-14 -14,-14l-143 0c-9,0 -14,5 -14,14l0 704zm0 -980l0 143c0,9 5,14 14,14l143 0c9,0 14,-5 14,-14l0 -143c0,-9 -5,-14 -14,-14l-143 0c-9,0 -14,5 -14,14zm482 453c0,-8 4,-16 13,-24 9,-8 18,-11 29,-11l136 0c20,0 38,2 55,5 17,3 32,9 44,18 13,8 22,20 30,35 7,15 11,34 11,58l0 447c0,9 5,14 14,14l142 0c10,0 15,-5 15,-14l0 -477c0,-31 -6,-61 -18,-90 -12,-29 -29,-55 -51,-77 -22,-22 -48,-41 -77,-54 -29,-14 -60,-20 -94,-20l-318 0c-30,0 -55,10 -74,29 -19,19 -29,41 -29,64l0 583c0,15 3,28 9,39 6,11 16,17 29,17l94 0c26,0 39,-15 39,-45l0 -496zm1019 -453l0 980c0,9 5,14 14,14l176 0c9,0 14,-5 14,-14l0 -980c0,-9 -5,-14 -14,-14l-176 0c-9,0 -14,5 -14,14zm515 453c0,-8 4,-16 13,-24 9,-8 18,-11 29,-11l136 0c20,0 38,2 55,5 17,3 32,9 44,18 13,8 22,20 30,35 7,15 11,34 11,58l0 447c0,9 5,14 14,14l142 0c10,0 15,-5 15,-14l0 -477c0,-31 -6,-61 -18,-90 -12,-29 -29,-55 -51,-77 -22,-22 -48,-41 -77,-54 -29,-14 -60,-20 -94,-20l-318 0c-30,0 -55,10 -74,29 -19,19 -29,41 -29,64l0 583c0,15 3,28 9,39 6,11 16,17 29,17l94 0c26,0 39,-15 39,-45l0 -496zm865 -205c0,9 5,14 14,14l115 0c9,0 14,5 14,14l0 143c0,9 -5,14 -14,14l-115 0c-9,0 -14,5 -14,14l0 533c0,9 -5,14 -14,14l-143 0c-9,0 -14,-5 -14,-14l0 -533c0,-9 -5,-14 -14,-14l-74 0c-9,0 -14,-5 -14,-14l0 -143c0,-9 5,-14 14,-14l74 0c9,0 14,-5 14,-14l0 -89c0,-21 5,-42 15,-63 10,-21 22,-40 38,-56 15,-16 33,-29 52,-39 19,-10 38,-15 57,-15l201 0c9,0 14,5 14,14l0 143c0,9 -4,14 -11,14l-138 0c-5,0 -10,2 -17,6 -7,4 -13,9 -18,15 -6,6 -11,13 -15,20 -4,7 -6,13 -6,19l0 30z"/>
      <path class="fil5" d="M23231 15649c0,-34 -6,-63 -19,-89 -13,-26 -29,-48 -49,-66 -20,-18 -43,-32 -69,-42 -26,-9 -51,-14 -77,-14l-284 0c-30,0 -58,5 -85,15 -27,10 -50,25 -70,44 -20,19 -35,42 -47,70 -12,27 -18,58 -18,91l0 247c0,33 3,65 10,96 7,31 18,60 35,84 17,25 39,45 67,60 28,15 64,23 107,23l250 0c43,0 80,-4 111,-13 31,-8 56,-23 77,-45 20,-22 35,-51 45,-87 10,-37 15,-83 15,-139l0 -238zm-173 153l0 112c0,24 -12,45 -37,60 -25,16 -54,24 -88,24l-129 0c-12,0 -25,-1 -39,-3 -14,-2 -27,-7 -39,-14 -12,-7 -22,-17 -30,-29 -8,-12 -12,-28 -12,-46l0 -225c0,-13 3,-24 10,-34 7,-9 15,-17 25,-23 10,-6 21,-10 33,-12 12,-2 24,-4 37,-4l153 0c14,0 28,1 42,4 14,3 27,7 38,13 11,6 20,14 27,23 7,9 11,19 11,30l0 122zm478 -364c-25,0 -49,5 -72,15 -22,10 -42,23 -59,40 -17,17 -30,37 -40,59 -10,23 -15,46 -15,70l0 534c0,9 5,14 14,14l157 0c9,0 14,-5 14,-14l0 -485c0,-6 1,-12 4,-19 3,-7 7,-14 12,-20 5,-6 11,-11 18,-16 7,-5 14,-7 23,-7l135 0c9,0 14,-5 14,-14l0 -143c0,-9 -5,-14 -14,-14l-191 0zm302 718c0,9 5,14 14,14l143 0c9,0 14,-5 14,-14l0 -520c0,-11 3,-21 11,-30 7,-8 16,-13 26,-13l129 0c22,0 41,8 60,23 18,15 27,33 27,51l0 488c0,9 5,14 14,14l143 0c9,0 14,-5 14,-14l0 -488c0,-24 8,-43 25,-56 16,-13 33,-19 50,-19l93 0c10,0 21,2 33,6 12,4 23,11 32,19 10,8 18,19 25,30 7,12 10,25 10,40l0 467c0,9 5,14 15,14l142 0c9,0 14,-5 14,-14l0 -485c0,-26 -6,-53 -19,-81 -13,-28 -30,-53 -53,-75 -23,-23 -50,-41 -82,-56 -32,-15 -67,-22 -105,-22l-100 0c-6,0 -18,1 -37,2 -19,1 -38,7 -57,18 -10,5 -19,10 -26,17 -7,7 -13,13 -18,18 -5,6 -9,10 -12,13 -3,3 -6,5 -8,5 -2,0 -6,-3 -12,-9 -6,-6 -11,-11 -16,-16 -9,-9 -24,-20 -45,-31 -21,-11 -43,-17 -67,-17l-291 0c-21,0 -40,8 -58,25 -18,16 -27,36 -27,60l0 634zm1195 -704l0 143c0,9 5,14 14,14l370 0c15,0 27,7 37,20 9,13 14,26 14,39 0,16 -7,30 -22,41 -14,12 -34,18 -58,18l-235 0c-28,0 -52,8 -72,24 -20,16 -36,35 -48,58 -12,23 -21,48 -27,75 -6,27 -8,52 -8,75 0,12 2,30 6,53 4,23 11,47 20,70 10,23 24,44 41,61 18,17 41,26 69,26l490 0c9,0 14,-5 14,-14l0 -464c0,-30 -3,-60 -11,-90 -7,-30 -18,-57 -34,-82 -15,-24 -36,-44 -60,-60 -25,-15 -55,-23 -91,-23l-396 0c-9,0 -14,5 -14,14zm178 554c-17,0 -30,-6 -39,-18 -9,-12 -14,-26 -14,-42 0,-13 4,-25 13,-36 8,-11 19,-16 32,-16l250 0c9,0 14,5 14,14l0 84c0,9 -5,14 -14,14l-242 0zm800 -382c0,-9 5,-14 14,-14l115 0c9,0 14,-5 14,-14l0 -143c0,-9 -5,-14 -14,-14l-115 0c-9,0 -14,-5 -14,-14l0 -176c0,-9 -5,-14 -14,-14l-143 0c-9,0 -14,5 -14,14l0 176c0,9 -5,14 -14,14l-74 0c-9,0 -14,5 -14,14l0 143c0,9 5,14 14,14l74 0c9,0 14,5 14,14l0 439c0,29 12,54 35,76 23,22 53,32 89,32l177 0c9,0 14,-5 14,-14l0 -143c0,-8 -4,-13 -11,-14l-118 0c-9,0 -14,-5 -14,-14l0 -361zm259 533c0,9 5,14 14,14l143 0c9,0 14,-5 14,-14l0 -704c0,-9 -5,-14 -14,-14l-143 0c-9,0 -14,5 -14,14l0 704zm0 -980l0 143c0,9 5,14 14,14l143 0c9,0 14,-5 14,-14l0 -143c0,-9 -5,-14 -14,-14l-143 0c-9,0 -14,5 -14,14zm621 822c-56,0 -97,-15 -123,-44 -26,-30 -39,-68 -39,-115l0 -60c0,-48 13,-88 40,-121 27,-33 67,-49 122,-49l266 0c9,0 14,-5 14,-14l0 -143c0,-9 -5,-14 -14,-14l-237 0c-62,0 -115,7 -160,22 -45,15 -82,35 -110,62 -29,27 -50,59 -63,97 -14,38 -20,81 -20,129l0 118c0,36 8,71 23,108 15,36 37,69 65,98 28,30 62,53 103,72 40,18 86,27 138,27l264 0c9,0 14,-5 14,-14l0 -143c0,-9 -5,-14 -14,-14l-266 0zm411 14l0 143c0,9 5,14 14,14l460 0c32,0 58,-8 78,-24 20,-16 36,-35 47,-57 11,-22 19,-45 23,-67 4,-23 6,-41 6,-56 0,-49 -4,-89 -12,-122 -8,-32 -20,-58 -36,-77 -16,-19 -38,-32 -64,-40 -26,-8 -58,-12 -94,-12l-205 0c-14,0 -25,-6 -32,-18 -7,-12 -11,-24 -11,-37 0,-13 3,-25 10,-36 7,-11 17,-16 32,-16l368 0c9,0 14,-5 14,-14l0 -143c0,-9 -5,-14 -14,-14l-304 0c-48,0 -89,3 -123,8 -34,6 -62,16 -84,32 -22,16 -38,38 -49,67 -11,29 -16,67 -16,114 0,32 3,61 10,88 7,27 17,50 31,69 14,19 33,34 56,45 23,11 52,16 86,16l221 0c19,0 31,6 37,18 6,12 9,24 9,37 0,7 0,14 -1,22 -1,8 -4,15 -8,22 -4,7 -10,12 -18,16 -7,4 -18,6 -31,6l-386 0c-9,0 -14,5 -14,14z"/>
     </g>
     <path class="fil5" d="M3672 15434c0,-6 3,-9 9,-9l73 0c6,0 9,-3 9,-9l0 -91c0,-6 -3,-9 -9,-9l-73 0c-6,0 -9,-3 -9,-9l0 -111c0,-6 -3,-9 -9,-9l-91 0c-6,0 -9,3 -9,9l0 111c0,6 -3,9 -9,9l-47 0c-6,0 -9,3 -9,9l0 91c0,6 3,9 9,9l47 0c6,0 9,3 9,9l0 278c0,18 7,34 22,48 15,14 34,21 56,21l112 0c6,0 9,-3 9,-9l0 -91c0,-5 -2,-8 -7,-9l-75 0c-6,0 -9,-3 -9,-9l0 -229zm465 65l0 273c0,6 3,9 9,9l91 0c6,0 9,-3 9,-9l0 -323c0,-18 -4,-35 -12,-51 -8,-16 -19,-30 -33,-42 -13,-12 -29,-22 -46,-29 -18,-7 -35,-10 -54,-10l-155 0 0 -166c0,-6 -3,-9 -9,-9l-91 0c-6,0 -9,3 -9,9l0 528 0 2 0 91c0,6 3,9 9,9l91 0c6,0 9,-3 9,-9l0 -307c0,-8 3,-15 8,-21 5,-5 12,-9 20,-12 8,-3 17,-4 27,-5 10,-1 20,-1 30,-1 30,0 55,6 75,17 20,12 31,30 31,57z"/>
    </g>
   </g>
  </g>
 </g>
</svg>
