<svg id="Layer_1" data-name="Layer 1" xmlns="http://www.w3.org/2000/svg" xmlns:xlink="http://www.w3.org/1999/xlink" viewBox="0 0 2336 721"><defs><style>.cls-1,.cls-7,.cls-8{fill:none;}.cls-2{clip-path:url(#clip-path);}.cls-3,.cls-6{fill:#fff;}.cls-3{stroke:#fff;}.cls-3,.cls-9{stroke-miterlimit:10;}.cls-4{fill:#3852a3;}.cls-5,.cls-9{fill:#f05a28;}.cls-7,.cls-9{stroke:#f05a28;}.cls-7,.cls-8{stroke-linecap:round;stroke-linejoin:round;}.cls-7{stroke-width:9.4px;}.cls-8{stroke:#3852a3;stroke-width:12.43px;}.cls-9{stroke-width:1.49px;}</style><clipPath id="clip-path" transform="translate(0.5 0.5)"><rect class="cls-1" width="2335" height="720"/></clipPath></defs><title>Horizontal-IOI-2021-Colour-Logo</title><g class="cls-2"><rect class="cls-3" x="0.5" y="0.5" width="2335" height="720"/><path class="cls-4" d="M787.65,399.11s.44,6.64.45,7.87c3.42,65.25,10.88,141.09,22.34,205.4l0,.42H706.2v-.42c11.45-64.31,18.91-140.15,22.33-205.4a58.36,58.36,0,0,1,.36-8.18Z" transform="translate(0.5 0.5)"/><path class="cls-4" d="M299.53,399.11s.44,6.63.45,7.86c3.41,65.17,10.86,140.91,22.31,205.14l.65.69H218.2v-.69c11.44-64.23,18.89-140,22.31-205.14a58.26,58.26,0,0,1,.36-8.17Z" transform="translate(0.5 0.5)"/><path class="cls-5" d="M623.59,441.29c13.16,15.27,17.64,33.06,12,53.63-4.18,15.38-12.44,27.89-21.81,39.76a151.63,151.63,0,0,0-14.68,21.82,49.31,49.31,0,0,0-5.56,17.18,5.22,5.22,0,0,1-4.22,4.45l-.22,0a5.23,5.23,0,0,1-6.17-5.81c1.85-13.88,8.47-25.83,18.58-36.53,12-12.69,22.25-26.68,27-44.21s1.1-33.31-11-46.73c-6.2-6.89-24.94-18.16-30.42-21.38a2.1,2.1,0,0,0-2.66.45l-4.21,5a2.08,2.08,0,0,0-.07,2.6c15.81,21,14.17,43.16,2.52,65.81-6.29,12.22-15.12,22.38-24.21,32.37-12,13.18-22.16,27.63-26.4,45.66-1.21,5.17-1.27,13.18-1.16,18.23a5.24,5.24,0,0,1-4.54,5.3h0a5.24,5.24,0,0,1-5.92-5,67.75,67.75,0,0,1,2.38-20.41c4.23-15.83,13.09-28.83,23.47-40.85,6.82-7.88,13.93-15.53,20.25-23.84,8.68-11.38,15.24-24,17-38.78,1.58-13.25-1.5-25-9.91-34.54a2,2,0,0,0-2.09-.58l-7.47,2.53a2.12,2.12,0,0,0-1.37,2.31c2,13.25-2.93,24.29-11.87,32.93-8.08,7.81-17.45,14.21-26.56,20.76-7.84,5.64-16.54,10-24.15,16-26.91,21-37,49.07-28.74,78.81a3.59,3.59,0,0,1-4.87,4.25,131.21,131.21,0,0,1-79.76-117.93c-1.54-73.88,56.74-133.7,130.64-134a130.54,130.54,0,0,1,68.45,18.94,3.58,3.58,0,0,1-1.74,6.64c-7.37.28-14.56.78-15.23.9-9.82,1.77-19.13,4.3-25.37,13.17-1.29,1.82-3.89,3.16-6.14,3.77a63.9,63.9,0,0,1-11.56,1.75c-8.74.66-16,3.72-22.19,10.58a2.09,2.09,0,0,0,1.57,3.47h1.65c17.18,0,34.36.13,51.53-.13a14.83,14.83,0,0,0,8.34-2.9c12.93-10,27.1-16.4,43-17a3.61,3.61,0,0,1,2.79,1.16l.14.15a3.59,3.59,0,0,1-2.13,6c-.87.12-1.7.26-2.38.4a50.49,50.49,0,0,0-21.24,9.95,2.09,2.09,0,0,0,1.22,3.73c16.31.54,31.54,3.23,45,9.51a3.55,3.55,0,0,1,1.72,1.76h0a3.58,3.58,0,0,1-5,4.63,85.47,85.47,0,0,0-14.21-6.3C604.81,407,592.91,406.83,588,407a2.09,2.09,0,0,0-2,2.41l1,6.47a2.08,2.08,0,0,0,1.2,1.58C593.06,419.66,614.39,429.76,623.59,441.29Z" transform="translate(0.5 0.5)"/><path class="cls-6" d="M465.24,487.66c-5.77-9.18-6.92-19.48-3.2-27.73a2.09,2.09,0,0,1,3.39-.6c5.35,5.48,12.42,6.66,19.88,6.25,3.3-.19,7.06-1.08,9.6-3,2.24-1.69,4.38-5.4,4.1-7.94-.25-2.17-3.78-5.24-6.24-5.67-9.17-1.6-18.44-2.23-27.6,2.24a2.09,2.09,0,0,1-2.89-1.14,132.23,132.23,0,0,1-4.66-13.58c-1.47-5.93,1-9.21,7.45-11,1.73-.48,3.44-.87,3.7-2.36a2.08,2.08,0,0,0-2.65-2.27l-2.47.7A2.09,2.09,0,0,1,461,419.1a11,11,0,0,1,6-8,33,33,0,0,1,12.06-3.46,191.78,191.78,0,0,1,21.58-.05,6.76,6.76,0,0,1,4.49,2.5c3.54,4.69,10,4.75,13.85.15a7.52,7.52,0,0,1,4.94-2.64c13.41-.22,26.83-.14,40.24-.11,4.34,0,8.9.15,11,4.78s-.21,9-3.09,12.66c-4.18,5.32-10.36,6.48-16.66,7.1-.73.07-1.46.12-2.25.16a2.09,2.09,0,0,0-1.92,2.58c.08.31.16.62.26.91,7.16,22-7.1,43.31-30.28,44.7-10.11.6-20.28.07-30.42.33-8.14.2-16.25.8-22.35,7.23A2.08,2.08,0,0,1,465.24,487.66Z" transform="translate(0.5 0.5)"/><path class="cls-7" d="M257.41,355.21a101,101,0,0,0-52.17-52.43l-14.91-15" transform="translate(0.5 0.5)"/><path class="cls-7" d="M287.22,355.21a100.9,100.9,0,0,1,52.17-52.43l14.9-15" transform="translate(0.5 0.5)"/><path class="cls-7" d="M257.41,355.21c6.51-36.51,44.71-59.92,44.71-59.92L317,272.82" transform="translate(0.5 0.5)"/><path class="cls-7" d="M287.22,355.21c-6.53-36.51-44.72-59.92-44.72-59.92l-14.9-22.47" transform="translate(0.5 0.5)"/><line class="cls-7" x1="161.02" y1="318.26" x2="168.48" y2="303.28"/><line class="cls-7" x1="205.74" y1="303.28" x2="213.19" y2="288.3"/><line class="cls-7" x1="243" y1="295.79" x2="257.91" y2="273.32"/><line class="cls-7" x1="302.62" y1="295.79" x2="287.72" y2="273.32"/><line class="cls-7" x1="325.76" y1="340.04" x2="318.31" y2="325.06"/><line class="cls-7" x1="242.2" y1="394.8" x2="300.2" y2="395.11"/><path class="cls-8" d="M219,606.92c11.47-64.38,18.93-140.29,22.36-205.6,0-66.46-82-82.39-82-82.39l-14.91-15" transform="translate(0.5 0.5)"/><path class="cls-8" d="M323.31,606.92c-11.47-64.38-18.94-140.29-22.36-205.6,0-66.46,82-82.39,82-82.39l14.9-15" transform="translate(0.5 0.5)"/><line class="cls-7" x1="861.88" y1="303.28" x2="869.33" y2="318.26"/><path class="cls-7" d="M839,287.81l-14.9,15A100.94,100.94,0,0,0,772,355.21" transform="translate(0.5 0.5)"/><path class="cls-7" d="M675.06,287.81l14.91,15a101,101,0,0,1,52.17,52.43" transform="translate(0.5 0.5)"/><path class="cls-7" d="M712.33,272.83l14.9,22.47s38.2,23.41,44.72,59.91" transform="translate(0.5 0.5)"/><path class="cls-7" d="M801.76,272.83,786.85,295.3s-38.18,23.41-44.71,59.91" transform="translate(0.5 0.5)"/><line class="cls-7" x1="817.16" y1="288.31" x2="824.62" y2="303.28"/><line class="cls-7" x1="772.45" y1="273.33" x2="787.35" y2="295.8"/><line class="cls-7" x1="742.64" y1="273.33" x2="727.73" y2="295.8"/><line class="cls-7" x1="712.05" y1="325.06" x2="704.6" y2="340.04"/><line class="cls-7" x1="730.2" y1="394.8" x2="788.2" y2="395.11"/><path class="cls-8" d="M884.91,304l-14.9,15s-82,15.92-82,82.38c3.42,65.31,10.89,141.23,22.36,205.61" transform="translate(0.5 0.5)"/><path class="cls-8" d="M631.52,304l14.91,15s82,15.92,82,82.38c-3.42,65.31-10.89,141.23-22.36,205.61" transform="translate(0.5 0.5)"/><path class="cls-9" d="M314.48,224.33c-2.51,0-3.77-.54-3.77-1.6,0-.86,1.37-2,4.12-3.38a41,41,0,0,0,8.48-6.16q7.54-6.76,7.54-11,0-2.78-12-8.65t-12-16.91a49.7,49.7,0,0,1,1.29-8.3q1.29-6.12,8.3-16.06a82.32,82.32,0,0,1,16.67-17.5,34.14,34.14,0,0,1,7-4,24.62,24.62,0,0,1,9.77-2.39q6.36,0,10.37,6.07a5.16,5.16,0,0,1,1.06,3,4.93,4.93,0,0,1-1.12,3,3.5,3.5,0,0,1-2.89,1.44c-.23,0-.8,0-1.7-.15s-1.36-.85-1.36-2.24q0-3.78-2.94-3.78a7.7,7.7,0,0,0-2.12.3q-6.72,1.89-13,9a83.52,83.52,0,0,0-10.89,15.56q-6.72,12.33-6.71,17.8a10.41,10.41,0,0,0,.64,3.29c.43,1.26,1.87,2.42,4.3,3.48q18.74,8.44,21.08,11.93a8.75,8.75,0,0,1,1.53,5c0,2.19-1.13,4.71-3.41,7.56s-6.22,6-11.84,9.5S319.74,224.33,314.48,224.33Z" transform="translate(0.5 0.5)"/><path class="cls-9" d="M368.19,213.3h-.36q-6,0-6.48-6.86c-.15-2.26-.23-4.44-.23-6.57A83.26,83.26,0,0,1,364,177.6c.54-1.92,2-2.89,4.47-2.89q6.36,0,6.36,4.28a9.3,9.3,0,0,1-.24,2.19,149.26,149.26,0,0,0-3.65,25.65,6.21,6.21,0,0,0,.3,2,6.23,6.23,0,0,1,.29,1.89,7.81,7.81,0,0,1-.17,1.59C371.19,212.83,370.15,213.16,368.19,213.3Zm3.69-40.09-1.65-.1a3.79,3.79,0,0,1-3.53-3.68v-2q0-3.58,3.77-11.54l.59-1.39a3.74,3.74,0,0,1,3.53-2,7.27,7.27,0,0,1,2.36.4c2.66,1,4,2.18,4.12,3.58s-2,6.36-6,14.71A3.41,3.41,0,0,1,371.88,173.21Z" transform="translate(0.5 0.5)"/><path class="cls-9" d="M395.74,210.21a8.63,8.63,0,0,1-3.18-.6q-6.36-2.19-6.47-6.66a8.6,8.6,0,0,1,.23-2.19q3.42-12.63,6.6-25.16c.63-2.59,2-3.91,4-4a8.29,8.29,0,0,1,2,.3q4.83,1.29,4.95,4.28a8.7,8.7,0,0,1-.59,2.58q-2.47,6.57-2.47,9.25c0,.73.15,1.09.47,1.09s1.14-.66,2.24-2q7.77-9.24,14.25-15.91,3.28-3.48,6.59-3.58a7.8,7.8,0,0,1,3.42.8,6.62,6.62,0,0,1,4,6.16,8.86,8.86,0,0,1-.35,2.39Q426,195.79,426,201.35q0,5.09.83,5.77a3.14,3.14,0,0,1,.23,1.1c0,.46-.31.87-.94,1.24a4,4,0,0,1-2,.55,7.43,7.43,0,0,1-4.48-1.59,10.79,10.79,0,0,1-4.71-8.76c0-5,.08-8.17.24-9.39a25.35,25.35,0,0,0,.23-2.64c0-.4-.08-.59-.23-.59q-.6,0-13,18.69C400.26,208.71,398.1,210.21,395.74,210.21Z" transform="translate(0.5 0.5)"/><path class="cls-9" d="M455.69,247.89q-7.43,0-14.37-5.86a6.43,6.43,0,0,1-2.47-4.88c0-2.18,1.14-3.28,3.41-3.28a2.67,2.67,0,0,1,2.71,2q2.36,6.57,9.66,6.56a5.73,5.73,0,0,0,4.18-1.54,18.67,18.67,0,0,0,3-3.92,63.31,63.31,0,0,0,8.48-20.29,111.44,111.44,0,0,0,2.95-23.57c0-.73-.32-1.09-.94-1.09a3.41,3.41,0,0,0-1.18.35q-.83.34-15.43,14.56a11.85,11.85,0,0,1-8.36,3.78,13.63,13.63,0,0,1-6.24-1.69c-3.3-1.72-4.95-4-4.95-6.76a10,10,0,0,1,1.06-4.18,94.43,94.43,0,0,1,23.67-32.42,11.45,11.45,0,0,1,7.89-3.38c.32,0,1.32.07,3,.2s3.55,1.53,5.59,4.18a3.75,3.75,0,0,1,1.06,2.19,2.21,2.21,0,0,1-1.18,1.79,4,4,0,0,1-2.24.79,3,3,0,0,1-2.23-1.14,2.88,2.88,0,0,0-1.89-1.14,3.84,3.84,0,0,0-2.35,1.39A120.49,120.49,0,0,0,456,185.1q-7.07,9.39-8.12,16a50.57,50.57,0,0,0,8.48-6.67q5.42-5,10.24-10.34a44.57,44.57,0,0,0,6.24-8.15,3.18,3.18,0,0,1,3.07-1.49q5.18,0,6.95,4,1.29,2.69,1.29,10.94,0,29.24-12.37,49.13Q465.82,247.89,455.69,247.89Z" transform="translate(0.5 0.5)"/><path class="cls-9" d="M529.65,208.12a6.21,6.21,0,0,1-1.65-.2q-9.3-2.49-9.3-11.74c0-2.18-.28-3.28-.83-3.28-.08,0-2,2-5.77,6.07q-3.18,3.48-6.12,6.31a8.74,8.74,0,0,1-6,2.84,10.33,10.33,0,0,1-4.59-1.1q-4.83-2.28-4.83-7a9.63,9.63,0,0,1,.35-2.48q3-12.44,14.14-24.86,4.59-5.08,9.54-5.08a9.81,9.81,0,0,1,5.53,1.64c1.65,1.1,2.47,2,2.47,2.84a3.29,3.29,0,0,1-.47,1.89c-.86,1.39-1.8,2.09-2.82,2.09a5.67,5.67,0,0,1-2.6-.5,5.26,5.26,0,0,0-1.64-.6c-.47,0-1.1.47-1.89,1.39q-5.05,5.78-10.13,17.31a6,6,0,0,0-.7,2.09c0,.33.11.49.35.49q1.77,0,10.13-8.85,10.61-11.24,13-11.83a10.19,10.19,0,0,1,2.24-.3,4.93,4.93,0,0,1,1.53.2q3.3,1.49,3.3,5.67a12.44,12.44,0,0,1-.59,3.68,46.36,46.36,0,0,0-2.12,12.73,16.59,16.59,0,0,0,2,7.85,2.68,2.68,0,0,1,.47,1.29C532.59,207.65,531.61,208.12,529.65,208.12Z" transform="translate(0.5 0.5)"/><path class="cls-9" d="M547.91,237.65q-7,0-7.07-5.67l.12-1a321.3,321.3,0,0,1,12.13-60c.7-2.25,2.12-3.38,4.24-3.38a7,7,0,0,1,1.88.3q3.76.9,3.77,3.78a13.87,13.87,0,0,1-1.24,4.58,16.73,16.73,0,0,0-1.23,6.26c0,.53.15.8.47.8q1.17,0,7.06-6.87,4.37-5.37,9.43-5.47a13.83,13.83,0,0,1,5.41,1.2q4.25,1.78,4.36,5.87a16,16,0,0,1-.35,3.18A34.09,34.09,0,0,1,575.46,201a12.61,12.61,0,0,1-8.48,3.28,14.78,14.78,0,0,1-4.47-.7,5.63,5.63,0,0,0-1.89-.4l-1.17.1q-1.19.21-5.54,15a45.56,45.56,0,0,0-2,12l.12,3.48a9.63,9.63,0,0,1-.36,2.59C551.44,237.22,550.18,237.65,547.91,237.65Zm15.78-38.18a1.32,1.32,0,0,1,.59-.3q3.65-1.09,10-11.14,3.29-5.26,3.29-7.76c0-1.12-.39-1.69-1.17-1.69q-3.07,0-10.49,11.84-4.23,6.77-4.23,7.65a6.64,6.64,0,0,0,0,.8Q561.8,199.36,563.69,199.47Z" transform="translate(0.5 0.5)"/><path class="cls-9" d="M612.09,210.8a15.73,15.73,0,0,1-6.18-1.59,11.67,11.67,0,0,1-5.71-6.07,12.73,12.73,0,0,1-1.18-5.56q0-4.79,2.94-12.83a64.26,64.26,0,0,1,6.83-13.82,7.31,7.31,0,0,1,6.36-3.48q6.6,0,7.54,5c.08.53.63,1.22,1.65,2.09q4.95,4,4.95,11.73c0,.27-.06,1.67-.18,4.23s-1.35,6.05-3.71,10.49-5.46,7.46-9.3,9A10.8,10.8,0,0,1,612.09,210.8Zm-1.88-8.45a14.9,14.9,0,0,0,6.36-6.37A24.75,24.75,0,0,0,620,183.75a11.91,11.91,0,0,0-1.65-6.36c-1.64,1.19-3.22,3.41-4.71,6.66q-3.89,8.55-3.88,15.12A9.19,9.19,0,0,0,610.21,202.35Z" transform="translate(0.5 0.5)"/><path class="cls-9" d="M646.48,210.6a9.42,9.42,0,0,1-5.89-1.89,3.7,3.7,0,0,1-1.29-3q2.7-20.28,5.18-33.51a3.23,3.23,0,0,1,3.53-2.79q7.18,0,7.19,5.47a8.82,8.82,0,0,1-.59,2.69,11.94,11.94,0,0,0-.71,3.78c0,1,.16,1.49.47,1.49s.51-.27.83-.8q2.58-4.77,9.65-7.36a12.12,12.12,0,0,1,4.48-.89,4,4,0,0,1,3.3,1.79,2.71,2.71,0,0,1,.7,1.59c0,.8-.9,1.56-2.71,2.29a9,9,0,0,0-1.17.59q-14,9.06-18.38,25.86Q649.78,210.59,646.48,210.6Z" transform="translate(0.5 0.5)"/><path class="cls-9" d="M691,211.2q-17.91,0-17.9-14a56.3,56.3,0,0,1,.64-5.87c.44-3.05,2.1-7,5-11.93q7.89-13.12,16.84-13.13a12.19,12.19,0,0,1,11.07,6.17,7.35,7.35,0,0,1,1.18,4,10,10,0,0,1-1.77,5.37Q695.95,194.39,687,198c-2.12.87-3.18,1.76-3.18,2.69a3.16,3.16,0,0,0,.24,1.19,4.16,4.16,0,0,0,4.24,3.18q4.71,0,12.6-4.87,5.19-3.18,7.42-4.87,2.84-2.39,4.48-2.39a3.25,3.25,0,0,1,1.65.5,3,3,0,0,1,1.29,2.49c0,1.06-.81,2.62-2.41,4.67a31.7,31.7,0,0,1-7.89,6.56c-3.66,2.32-6.93,3.62-9.84,3.88C693.94,211.13,692.41,211.2,691,211.2Zm-4.48-20.88a18.44,18.44,0,0,0,5.89-6.27q4.25-6.56,4.24-8.15c0-.53-.39-.8-1.18-.8a1.69,1.69,0,0,0-1.29.5q-8.83,12.74-8.84,13.72C685.34,189.85,685.74,190.18,686.52,190.32Z" transform="translate(0.5 0.5)"/><path class="cls-9" d="M440.7,313.93a5.77,5.77,0,0,1-3.18-1.09c-2.51-1.46-3.76-2.88-3.76-4.28,0-1.12,1.06-2.45,3.18-4a193.38,193.38,0,0,0,17.72-14.77,78.87,78.87,0,0,0,14-17.35,5.11,5.11,0,0,0,.94-2.49c0-.86-.71-1.29-2.12-1.29a16.47,16.47,0,0,0-5.12,1.14,53.25,53.25,0,0,0-6.6,2.89,22.63,22.63,0,0,0-4.42,2.73,3.23,3.23,0,0,1-2.23,1,4,4,0,0,1-2.48-.89q-2.94-2.39-2.94-4.38t4.18-4.62q4.19-2.54,13.25-3.43a32.13,32.13,0,0,1,3.53-.2q6.48,0,10.25,2.69,4.59,3.27,4.59,7.16a10,10,0,0,1-2.47,6.06,106.65,106.65,0,0,1-14.37,15.81c-1.34,1.2-2,2-2,2.49,0,.66,1.18,1,3.53,1q8.37,0,13.78,4.58a2.38,2.38,0,0,1,1.06,1.69c0,1.19-.78,1.79-2.35,1.79a28.26,28.26,0,0,0-8.37-1.39q-6.58,0-16.49,4.87-3.76,1.79-6.94,3.18A10.69,10.69,0,0,1,440.7,313.93Z" transform="translate(0.5 0.5)"/><path class="cls-9" d="M501,315.72a17,17,0,0,1-5.65-1q-7.19-2.49-7.77-9.84l-.12-3.58a57.33,57.33,0,0,1,10-32.22q2.23-3.29,4.83-3.48a8.47,8.47,0,0,1,5.36,2,22.29,22.29,0,0,0,5.83,3.34,32,32,0,0,1,5.06,2.78c3.06,2.06,4.6,5.83,4.6,11.34q0,5.76-3.07,14.32a27.45,27.45,0,0,1-11,13.82A14.83,14.83,0,0,1,501,315.72Zm-.82-7c2.28-.2,4.47-1.85,6.59-5a45.58,45.58,0,0,0,5.36-11.09q2.18-6.4,2.18-10,0-5.18-5.3-8.35a4.06,4.06,0,0,0-2-.6q-3.64,0-8.83,19.09a41.65,41.65,0,0,0-1.77,10.44Q496.41,308.77,500.18,308.76Z" transform="translate(0.5 0.5)"/><path class="cls-9" d="M534.1,313.93a5.77,5.77,0,0,1-3.18-1.09c-2.51-1.46-3.77-2.88-3.77-4.28,0-1.12,1.06-2.45,3.18-4a193.38,193.38,0,0,0,17.72-14.77,78.87,78.87,0,0,0,14-17.35A5,5,0,0,0,563,270c0-.86-.71-1.29-2.12-1.29a16.52,16.52,0,0,0-5.12,1.14,53.25,53.25,0,0,0-6.6,2.89,22.46,22.46,0,0,0-4.41,2.73,3.27,3.27,0,0,1-2.24,1,4,4,0,0,1-2.47-.89q-3-2.39-3-4.38t4.18-4.62q4.18-2.54,13.25-3.43a32.27,32.27,0,0,1,3.53-.2q6.48,0,10.25,2.69,4.59,3.27,4.59,7.16a10,10,0,0,1-2.47,6.06A106.65,106.65,0,0,1,556,294.64c-1.33,1.2-2,2-2,2.49,0,.66,1.18,1,3.53,1q8.37,0,13.78,4.58a2.38,2.38,0,0,1,1.06,1.69c0,1.19-.78,1.79-2.35,1.79a28.2,28.2,0,0,0-8.36-1.39q-6.6,0-16.49,4.87c-2.52,1.19-4.83,2.25-6.95,3.18A10.65,10.65,0,0,1,534.1,313.93Z" transform="translate(0.5 0.5)"/><path class="cls-9" d="M590,311.3h-.59a7.72,7.72,0,0,1-3.06-.8q-5.65-2.88-6.24-8.05A152.82,152.82,0,0,1,583.91,278q2-7.16,3.42-14.41c.31-1.4,1.37-2.19,3.18-2.39,4.55.4,7,1.69,7.3,3.88a15.41,15.41,0,0,1-.47,3.68,154.83,154.83,0,0,0-6.59,32.81,12.38,12.38,0,0,0,1,4.73,7.29,7.29,0,0,1,.88,2.73C592.63,310.34,591.76,311.1,590,311.3Z" transform="translate(0.5 0.5)"/><path class="cls-4" d="M940.86,291.22l4.57-4.28a1.55,1.55,0,0,1,2.33,0c.27.35,5.56,4.72,11,4.72,4.85,0,9.51-3.41,9.51-8.21,0-4.55-4.3-8.65-12.38-8.65h-5a1.65,1.65,0,0,1-1.7-1.75v-5.5a1.56,1.56,0,0,1,1.7-1.75h5c7.36,0,11.13-3.58,11.13-8,0-4.81-4.13-8-8.7-8a11.73,11.73,0,0,0-9.06,4.19,1.65,1.65,0,0,1-2.42.09l-4.4-4a1.53,1.53,0,0,1,0-2.27s6.82-7.69,16.86-7.69c10.41,0,19.11,6.21,19.11,16,0,6.73-5.21,11.8-9.24,13.63v.26c4.21,1.75,10.85,6.47,10.85,14.25,0,9.87-8.25,17-20.63,17-11.21,0-16.68-5.5-18.65-7.77A1.69,1.69,0,0,1,940.86,291.22Z" transform="translate(0.5 0.5)"/><path class="cls-4" d="M990.86,291.22l4.57-4.28a1.55,1.55,0,0,1,2.33,0c.27.35,5.56,4.72,11,4.72,4.85,0,9.51-3.41,9.51-8.21,0-4.55-4.3-8.65-12.38-8.65h-5a1.65,1.65,0,0,1-1.7-1.75v-5.5a1.56,1.56,0,0,1,1.7-1.75h5c7.36,0,11.13-3.58,11.13-8,0-4.81-4.13-8-8.7-8a11.73,11.73,0,0,0-9.06,4.19,1.65,1.65,0,0,1-2.42.09l-4.4-4a1.53,1.53,0,0,1,0-2.27s6.82-7.69,16.86-7.69c10.41,0,19.11,6.21,19.11,16,0,6.73-5.21,11.8-9.24,13.63v.26c4.21,1.75,10.85,6.47,10.85,14.25,0,9.87-8.25,17-20.63,17-11.21,0-16.68-5.5-18.65-7.77A1.69,1.69,0,0,1,990.86,291.22Z" transform="translate(0.5 0.5)"/><path class="cls-4" d="M1041.2,241.8a1,1,0,0,1,1-1h15.4a11.56,11.56,0,0,1,11.74,11.36c0,4.86-3.28,8.83-8,10.68l7.38,13.42a1,1,0,0,1-.92,1.54h-5.42a.93.93,0,0,1-.87-.5l-7.28-14.5h-6.08v14a1,1,0,0,1-1,1h-5a1,1,0,0,1-1-1Zm17,16a5.65,5.65,0,0,0,5.22-7.32,5.3,5.3,0,0,0-5.12-3.68h-9.11v11Z" transform="translate(0.5 0.5)"/><path class="cls-4" d="M1078.2,241.81a1,1,0,0,1,1-1h12.47a18.5,18.5,0,1,1,0,37h-12.52a1,1,0,0,1-1-1Zm13,29A11.52,11.52,0,0,0,1103,260a12.35,12.35,0,0,0-12.43-13.2h-5.32v24Z" transform="translate(0.5 0.5)"/><path class="cls-4" d="M1146.94,237.8h8.52a1.74,1.74,0,0,1,1.74,1.74v60.52a1.74,1.74,0,0,1-1.74,1.74h-8.52a1.74,1.74,0,0,1-1.74-1.74V239.54A1.74,1.74,0,0,1,1146.94,237.8Z" transform="translate(0.5 0.5)"/><path class="cls-4" d="M1175.2,238.44a1.64,1.64,0,0,1,1.65-1.64h3l37.65,40h-.25V239.51a1.73,1.73,0,0,1,1.75-1.71h8.51a1.74,1.74,0,0,1,1.74,1.74v61.61a1.65,1.65,0,0,1-1.65,1.65h-2.26l-38-42h-.09v39.26a1.76,1.76,0,0,1-1.77,1.74h-8.49a1.74,1.74,0,0,1-1.74-1.74Z" transform="translate(0.5 0.5)"/><path class="cls-4" d="M1257.2,248.8h-14.28a1.73,1.73,0,0,1-1.72-1.74v-7.52a1.72,1.72,0,0,1,1.72-1.74h39.56a1.73,1.73,0,0,1,1.72,1.74v7.52a1.74,1.74,0,0,1-1.72,1.74H1269.2v51.26a1.74,1.74,0,0,1-1.74,1.74h-8.52a1.74,1.74,0,0,1-1.74-1.74Z" transform="translate(0.5 0.5)"/><path class="cls-4" d="M1296.2,239.53a1.74,1.74,0,0,1,1.75-1.73h37.5a1.74,1.74,0,0,1,1.75,1.74v7.52a1.75,1.75,0,0,1-1.75,1.74H1308.2v15h22.26a1.74,1.74,0,0,1,1.74,1.74v7.53a1.72,1.72,0,0,1-1.72,1.73H1308.2v16h27.25a1.74,1.74,0,0,1,1.75,1.73v7.53a1.75,1.75,0,0,1-1.75,1.74H1298a1.75,1.75,0,0,1-1.75-1.74Z" transform="translate(0.5 0.5)"/><path class="cls-4" d="M1352.2,239.53a1.74,1.74,0,0,1,1.75-1.73h26.4a19.9,19.9,0,0,1,20.13,19.65c0,8.42-5.63,15.27-13.66,18.47l12.64,23.23a1.73,1.73,0,0,1-1.57,2.65h-10a1.57,1.57,0,0,1-1.46-.82l-12.13-24.18H1364.2v23.26a1.74,1.74,0,0,1-1.74,1.74H1354a1.75,1.75,0,0,1-1.75-1.74Zm26.74,27.27a9.21,9.21,0,0,0,9-8.84,9,9,0,0,0-9.14-9.16H1364.2v18Z" transform="translate(0.5 0.5)"/><path class="cls-4" d="M1415.2,238.44a1.64,1.64,0,0,1,1.65-1.64h2.64l37.64,40h.07V239.51a1.73,1.73,0,0,1,1.75-1.71h8.51a1.74,1.74,0,0,1,1.74,1.74v61.61a1.65,1.65,0,0,1-1.65,1.65h-2.26l-38-42h-.09v39.26a1.76,1.76,0,0,1-1.77,1.74h-8.49a1.74,1.74,0,0,1-1.74-1.74Z" transform="translate(0.5 0.5)"/><path class="cls-4" d="M1479.73,299.42l28.47-61.62a1.65,1.65,0,0,1,1.56-1h.91a1.57,1.57,0,0,1,1.56,1l28.19,61.62a1.61,1.61,0,0,1-1.55,2.38h-7.47a2.68,2.68,0,0,1-2.71-1.88l-4.6-10.12h-28l-4.59,10.12a2.83,2.83,0,0,1-2.72,1.88h-7.47A1.61,1.61,0,0,1,1479.73,299.42Zm39.48-19.62-9.09-20h-.27l-8.91,20Z" transform="translate(0.5 0.5)"/><path class="cls-4" d="M1556.2,248.8h-14.28a1.73,1.73,0,0,1-1.72-1.74v-7.52a1.72,1.72,0,0,1,1.72-1.74h39.56a1.73,1.73,0,0,1,1.72,1.74v7.52a1.74,1.74,0,0,1-1.72,1.74H1568.2v51.26a1.74,1.74,0,0,1-1.74,1.74h-8.52a1.74,1.74,0,0,1-1.74-1.74Z" transform="translate(0.5 0.5)"/><path class="cls-4" d="M1596.94,237.8h8.52a1.74,1.74,0,0,1,1.74,1.74v60.52a1.74,1.74,0,0,1-1.74,1.74h-8.52a1.74,1.74,0,0,1-1.74-1.74V239.54A1.74,1.74,0,0,1,1596.94,237.8Z" transform="translate(0.5 0.5)"/><path class="cls-4" d="M1654.39,236.93a32.93,32.93,0,1,1-32.84,33A32.88,32.88,0,0,1,1654.39,236.93Zm0,54a21,21,0,1,0-21-20.95A21.09,21.09,0,0,0,1654.39,290.9Z" transform="translate(0.5 0.5)"/><path class="cls-4" d="M1701.2,238.44a1.64,1.64,0,0,1,1.65-1.64h2.79l37.65,40h-.09V239.51a1.73,1.73,0,0,1,1.75-1.71h8.51a1.74,1.74,0,0,1,1.74,1.74v61.61a1.65,1.65,0,0,1-1.65,1.65h-2.26l-38-42h-.09v39.26a1.76,1.76,0,0,1-1.77,1.74h-8.49a1.74,1.74,0,0,1-1.74-1.74Z" transform="translate(0.5 0.5)"/><path class="cls-4" d="M1765.88,299.42l28.47-61.62a1.66,1.66,0,0,1,1.56-1h.91a1.56,1.56,0,0,1,1.56,1l28.2,61.62a1.62,1.62,0,0,1-1.56,2.38h-7.46c-1.41,0-2.06-.56-2.72-1.88l-4.6-10.12h-28l-4.59,10.12a2.82,2.82,0,0,1-2.72,1.88h-7.46A1.62,1.62,0,0,1,1765.88,299.42Zm39.49-19.62-9.1-20H1796l-8.91,20Z" transform="translate(0.5 0.5)"/><path class="cls-4" d="M1837.2,239.53a1.73,1.73,0,0,1,1.74-1.73h8.52a1.74,1.74,0,0,1,1.74,1.73V290.8h23.27a1.73,1.73,0,0,1,1.73,1.73v7.53a1.74,1.74,0,0,1-1.74,1.74h-33.52a1.74,1.74,0,0,1-1.74-1.74Z" transform="translate(0.5 0.5)"/><path class="cls-4" d="M973.74,346.71a32.93,32.93,0,1,1-32.84,33A32.88,32.88,0,0,1,973.74,346.71Zm0,54a21,21,0,1,0-21-20.95A21.09,21.09,0,0,0,973.74,400.68Z" transform="translate(0.5 0.5)"/><path class="cls-4" d="M1021.2,349.53a1.71,1.71,0,0,1,1.69-1.73h7.57a1.74,1.74,0,0,1,1.74,1.74V400.8h23.27a1.73,1.73,0,0,1,1.73,1.73v7.53a1.72,1.72,0,0,1-1.69,1.74h-32.62a1.72,1.72,0,0,1-1.69-1.74Z" transform="translate(0.5 0.5)"/><path class="cls-4" d="M1077.2,381l-21-30.54a1.69,1.69,0,0,1,1.48-2.65h9.42a1.81,1.81,0,0,1,1.47.82l14.77,21,14.77-21a1.83,1.83,0,0,1,1.48-.82h9.5a1.69,1.69,0,0,1,1.48,2.65l-21.32,30.44v29.17a1.74,1.74,0,0,1-1.74,1.74H1079a1.75,1.75,0,0,1-1.75-1.74Z" transform="translate(0.5 0.5)"/><path class="cls-4" d="M1125.23,348.17a1.56,1.56,0,0,1,1.65-1.37h1.51a1.66,1.66,0,0,1,1.55.91L1150,390.8h.28l20.08-43.09a1.56,1.56,0,0,1,1.55-.91h1.5a1.54,1.54,0,0,1,1.65,1.37l10.8,61.52a1.59,1.59,0,0,1-1.64,2.11h-8.33a2,2,0,0,1-1.74-1.37l-5.39-34.63h-.26l-16,36a1.55,1.55,0,0,1-1.55,1h-1.65a1.65,1.65,0,0,1-1.56-1l-16.21-36h-.26L1126,410.43a1.79,1.79,0,0,1-1.65,1.37h-8.24a1.68,1.68,0,0,1-1.74-2.11Z" transform="translate(0.5 0.5)"/><path class="cls-4" d="M1200.2,349.53a1.74,1.74,0,0,1,1.75-1.73h21.65a20.5,20.5,0,1,1,.09,41H1212.2v21.26a1.74,1.74,0,0,1-1.74,1.74H1202a1.75,1.75,0,0,1-1.75-1.74Zm22.39,27.27a9.23,9.23,0,0,0,9.22-9.32,8.93,8.93,0,0,0-9.22-8.68H1212.2v18Z" transform="translate(0.5 0.5)"/><path class="cls-4" d="M1258.94,347.8h8.52a1.74,1.74,0,0,1,1.74,1.74v60.52a1.74,1.74,0,0,1-1.74,1.74h-8.52a1.74,1.74,0,0,1-1.74-1.74V349.54A1.74,1.74,0,0,1,1258.94,347.8Z" transform="translate(0.5 0.5)"/><path class="cls-4" d="M1279.17,409.42l28.47-61.62a1.66,1.66,0,0,1,1.56-1h.91a1.56,1.56,0,0,1,1.56,1l28.2,61.62a1.62,1.62,0,0,1-1.56,2.38h-7.46c-1.41,0-2.06-.56-2.72-1.88l-4.6-10.12h-28l-4.59,10.12a2.82,2.82,0,0,1-2.72,1.88h-7.46A1.62,1.62,0,0,1,1279.17,409.42Zm39.49-19.62-9.1-20h-.27l-8.91,20Z" transform="translate(0.5 0.5)"/><path class="cls-4" d="M1350.2,349.54a1.74,1.74,0,0,1,1.74-1.74h21.57a32,32,0,1,1,0,64h-21.66a1.65,1.65,0,0,1-1.65-1.65Zm22.48,51.26c12.25,0,21.12-9.47,20.66-22a21.06,21.06,0,0,0-21.17-20h-10v42Z" transform="translate(0.5 0.5)"/><path class="cls-4" d="M1443.94,347.8h8.52a1.74,1.74,0,0,1,1.74,1.74v60.52a1.74,1.74,0,0,1-1.74,1.74h-8.52a1.74,1.74,0,0,1-1.74-1.74V349.54A1.74,1.74,0,0,1,1443.94,347.8Z" transform="translate(0.5 0.5)"/><path class="cls-4" d="M1473.2,348.44a1.64,1.64,0,0,1,1.65-1.64h1.86l38.59,41h-.1V349.56a1.75,1.75,0,0,1,1.75-1.76h8.51a1.74,1.74,0,0,1,1.74,1.74v61.61a1.65,1.65,0,0,1-1.65,1.65h-2.26l-38-42h-.09v39.26a1.76,1.76,0,0,1-1.77,1.74h-8.49a1.74,1.74,0,0,1-1.74-1.74Z" transform="translate(0.5 0.5)"/><path class="cls-4" d="M1569.94,347.8h8.52a1.74,1.74,0,0,1,1.74,1.74v60.52a1.74,1.74,0,0,1-1.74,1.74h-8.52a1.74,1.74,0,0,1-1.74-1.74V349.54A1.74,1.74,0,0,1,1569.94,347.8Z" transform="translate(0.5 0.5)"/><path class="cls-4" d="M1599.2,348.44a1.64,1.64,0,0,1,1.65-1.64h1.74l38.58,41h0V349.56a1.75,1.75,0,0,1,1.75-1.76h8.51a1.74,1.74,0,0,1,1.74,1.74v61.61a1.65,1.65,0,0,1-1.65,1.65h-2.26l-38-42h-.09v39.26a1.76,1.76,0,0,1-1.77,1.74h-8.49a1.74,1.74,0,0,1-1.74-1.74Z" transform="translate(0.5 0.5)"/><path class="cls-4" d="M1671.2,349.53a1.82,1.82,0,0,1,1.9-1.73h37.41a1.71,1.71,0,0,1,1.69,1.74v7.52a1.72,1.72,0,0,1-1.69,1.74H1684.2v17h22.26a1.74,1.74,0,0,1,1.74,1.74v7.52a1.74,1.74,0,0,1-1.74,1.74H1684.2v23.26a1.74,1.74,0,0,1-1.74,1.74h-9.36a1.83,1.83,0,0,1-1.9-1.74Z" transform="translate(0.5 0.5)"/><path class="cls-4" d="M1753.61,346.71a32.93,32.93,0,1,1-32.84,33A32.87,32.87,0,0,1,1753.61,346.71Zm0,54a21,21,0,1,0-20.95-20.95A21.08,21.08,0,0,0,1753.61,400.68Z" transform="translate(0.5 0.5)"/><path class="cls-4" d="M1800.2,349.53a1.74,1.74,0,0,1,1.75-1.73h26.4a19.9,19.9,0,0,1,20.13,19.65c0,8.42-5.63,15.27-13.66,18.47l12.64,23.23a1.73,1.73,0,0,1-1.57,2.65h-10a1.57,1.57,0,0,1-1.46-.82l-12.13-24.18H1812.2v23.26a1.74,1.74,0,0,1-1.74,1.74H1802a1.75,1.75,0,0,1-1.75-1.74Zm26.74,27.27a9.21,9.21,0,0,0,9-8.84,9,9,0,0,0-9.14-9.16H1812.2v18Z" transform="translate(0.5 0.5)"/><path class="cls-4" d="M1870.35,348.17a1.54,1.54,0,0,1,1.64-1.37h1.51a1.65,1.65,0,0,1,1.55.91l20.08,43.09h.28l20.08-43.09a1.56,1.56,0,0,1,1.55-.91h1.51a1.54,1.54,0,0,1,1.64,1.37L1931,409.69a1.6,1.6,0,0,1-1.65,2.11H1921a2,2,0,0,1-1.74-1.37l-5.39-34.63h-.26l-16,36a1.57,1.57,0,0,1-1.56,1h-1.65a1.66,1.66,0,0,1-1.56-1l-16.21-36h-.25l-5.3,34.63a1.78,1.78,0,0,1-1.65,1.37h-8.24a1.68,1.68,0,0,1-1.74-2.11Z" transform="translate(0.5 0.5)"/><path class="cls-4" d="M1937.28,409.42l28.47-61.62a1.67,1.67,0,0,1,1.56-1h.92a1.56,1.56,0,0,1,1.55,1l28.2,61.62a1.62,1.62,0,0,1-1.56,2.38H1989c-1.41,0-2.06-.56-2.72-1.88l-4.59-10.12h-28l-4.6,10.12a2.82,2.82,0,0,1-2.72,1.88h-7.46A1.62,1.62,0,0,1,1937.28,409.42Zm39.49-19.62-9.09-20h-.28l-8.9,20Z" transform="translate(0.5 0.5)"/><path class="cls-4" d="M2013.2,358.8h-13.28a1.73,1.73,0,0,1-1.72-1.74v-7.52a1.72,1.72,0,0,1,1.72-1.74h39.56a1.73,1.73,0,0,1,1.72,1.74v7.52a1.74,1.74,0,0,1-1.72,1.74H2025.2v51.26a1.74,1.74,0,0,1-1.74,1.74h-8.52a1.74,1.74,0,0,1-1.74-1.74Z" transform="translate(0.5 0.5)"/><path class="cls-4" d="M2054.94,347.8h8.52a1.74,1.74,0,0,1,1.74,1.74v60.52a1.74,1.74,0,0,1-1.74,1.74h-8.52a1.74,1.74,0,0,1-1.74-1.74V349.54A1.74,1.74,0,0,1,2054.94,347.8Z" transform="translate(0.5 0.5)"/><path class="cls-4" d="M2112,346.71a31,31,0,0,1,22.14,8.51,1.69,1.69,0,0,1,.09,2.56l-5.58,5.76a1.46,1.46,0,0,1-2.28,0,21.68,21.68,0,0,0-14.09-5.4c-11.71,0-20.4,9.79-20.4,21.32s8.78,21.13,20.49,21.13a21.91,21.91,0,0,0,14-5.22,1.69,1.69,0,0,1,2.28,0l5.68,5.86a1.74,1.74,0,0,1-.1,2.47,31.37,31.37,0,0,1-22.23,8.87,32.93,32.93,0,1,1,0-65.86Z" transform="translate(0.5 0.5)"/><path class="cls-4" d="M2144.6,402.69l3.3-5.67a2.12,2.12,0,0,1,3.11-.64c.45.28,7.86,5.67,13.81,5.67,4.76,0,8.32-3.11,8.32-7,0-4.67-3.93-7.87-11.61-11-8.6-3.47-17.2-9-17.2-19.76,0-8.14,6-17.56,20.58-17.56a32.24,32.24,0,0,1,18.3,6.13,2.27,2.27,0,0,1,.55,3l-3.48,5.21c-.73,1.1-2.1,1.83-3.2,1.1-.73-.46-7.69-5-12.72-5-5.21,0-8.05,3.47-8.05,6.4,0,4.3,3.39,7.23,10.8,10.25,8.87,3.56,19.12,8.87,19.12,20.67,0,9.42-8.15,18.11-21,18.11-11.53,0-18.3-5.39-20.13-7.13C2144.24,404.61,2143.78,404.16,2144.6,402.69Z" transform="translate(0.5 0.5)"/><path class="cls-5" d="M941.93,533.68l3.44-5.93a2.21,2.21,0,0,1,3.25-.67c.48.29,8.23,5.93,14.45,5.93,5,0,8.7-3.25,8.7-7.36,0-4.88-4.11-8.23-12.15-11.48-9-3.63-18-9.37-18-20.66,0-8.51,6.31-18.36,21.52-18.36a33.61,33.61,0,0,1,19.13,6.41,2.36,2.36,0,0,1,.57,3.15l-3.63,5.46c-.77,1.14-2.2,1.91-3.35,1.14-.76-.47-8-5.26-13.29-5.26-5.45,0-8.42,3.64-8.42,6.7,0,4.49,3.54,7.55,11.29,10.71,9.27,3.73,20,9.28,20,21.61,0,9.86-8.52,18.94-22,18.94-12.05,0-19.13-5.64-21-7.46C941.55,535.69,941.07,535.21,941.93,533.68Z" transform="translate(0.5 0.5)"/><path class="cls-5" d="M1001,475.8h9.36a1.82,1.82,0,0,1,1.82,1.81V541a1.83,1.83,0,0,1-1.82,1.82H1001A1.83,1.83,0,0,1,999.2,541V477.62A1.83,1.83,0,0,1,1001,475.8Z" transform="translate(0.5 0.5)"/><path class="cls-5" d="M1032.2,476.52a1.72,1.72,0,0,1,1.72-1.72h2.44l39.53,42h.31V477.6a1.78,1.78,0,0,1,1.75-1.8h8.43a1.83,1.83,0,0,1,1.82,1.82V542a1.83,1.83,0,0,1-1.82,1.82h-2.28l-39.81-44h-.09V541a1.8,1.8,0,0,1-1.77,1.82H1034a1.83,1.83,0,0,1-1.82-1.82Z" transform="translate(0.5 0.5)"/><path class="cls-5" d="M1136.6,475.08A38.84,38.84,0,0,1,1161,484a1.8,1.8,0,0,1,.1,2.68l-6.2,6.22a1.77,1.77,0,0,1-2.6,0,23.47,23.47,0,0,0-22.27-4.46,21.35,21.35,0,0,0-12.88,11.16c-7.55,15.58,4.11,31.84,20.15,31.84a32.39,32.39,0,0,0,11.9-2.39V520.8h-7.27a1.69,1.69,0,0,1-1.73-1.71v-7.47a1.81,1.81,0,0,1,1.82-1.82h18.46a1.72,1.72,0,0,1,1.72,1.72V536.1a1.83,1.83,0,0,1-.8,1.53,52.19,52.19,0,0,1-24.8,6.22c-19.9,0-35.9-15.11-35.9-34.24S1116.7,475.08,1136.6,475.08Z" transform="translate(0.5 0.5)"/><path class="cls-5" d="M1169.69,540.31l29.79-64.46a1.71,1.71,0,0,1,1.63-1.05h1a1.63,1.63,0,0,1,1.63,1.05l29.5,64.46a1.69,1.69,0,0,1-1.63,2.49h-8.79c-1.41,0-2.06-.56-2.72-1.88l-4.59-10.12h-28l-4.6,10.12a2.82,2.82,0,0,1-2.72,1.88h-8.79A1.69,1.69,0,0,1,1169.69,540.31ZM1211,519.8l-9.54-21h-.29l-9.35,21Z" transform="translate(0.5 0.5)"/><path class="cls-5" d="M1244.2,477.62a1.79,1.79,0,0,1,1.75-1.82h22.2a21.5,21.5,0,1,1,.1,43h-12V541a1.83,1.83,0,0,1-1.82,1.82H1246a1.79,1.79,0,0,1-1.75-1.82Zm23,29.18a9.75,9.75,0,0,0,9.74-9.83c0-5.2-4.44-9.17-9.74-9.17h-11v19Z" transform="translate(0.5 0.5)"/><path class="cls-5" d="M1332.42,475.15a34.43,34.43,0,1,1-34.34,34.53A34.37,34.37,0,0,1,1332.42,475.15Zm0,56.43a22,22,0,1,0-21.9-21.9A22,22,0,0,0,1332.42,531.58Z" transform="translate(0.5 0.5)"/><path class="cls-5" d="M1382.2,477.62a1.79,1.79,0,0,1,1.75-1.82h26.4a20.37,20.37,0,0,1,20.13,20.58c0,8.8-5.64,16-13.67,19.33L1429.46,540a1.81,1.81,0,0,1-1.57,2.78h-9a1.64,1.64,0,0,1-1.52-.86l-12.62-25.14H1394.2V541a1.83,1.83,0,0,1-1.82,1.82H1384a1.79,1.79,0,0,1-1.75-1.82Zm27.56,29.18a9.74,9.74,0,0,0,9.45-10.13c-.2-4.89-4.71-8.87-9.6-8.87H1394.2v19Z" transform="translate(0.5 0.5)"/><path class="cls-5" d="M1447.2,478.59a1.81,1.81,0,0,1,1.83-1.79h39.36a1.77,1.77,0,0,1,1.81,1.74v7.52a1.78,1.78,0,0,1-1.81,1.74H1460.2v15h23.18a1.83,1.83,0,0,1,1.82,1.82v8.29a1.84,1.84,0,0,1-1.79,1.89H1460.2v17h28.19a1.82,1.82,0,0,1,1.81,1.84V541a1.81,1.81,0,0,1-1.84,1.79H1449a1.81,1.81,0,0,1-1.83-1.79Z" transform="translate(0.5 0.5)"/></g></svg>