<?xml version="1.0" encoding="utf-8"?>
<!-- Generator: Adobe Illustrator 16.0.0, SVG Export Plug-In . SVG Version: 6.00 Build 0)  -->
<!DOCTYPE svg PUBLIC "-//W3C//DTD SVG 1.1//EN" "http://www.w3.org/Graphics/SVG/1.1/DTD/svg11.dtd">
<svg version="1.1" id="レイヤー_1" xmlns="http://www.w3.org/2000/svg" xmlns:xlink="http://www.w3.org/1999/xlink" x="0px"
	 y="0px" width="218.087px" height="154.212px" viewBox="0 0 218.087 154.212" enable-background="new 0 0 218.087 154.212"
	 xml:space="preserve">
<g>
	<rect display="none" fill="#FFFFFF" width="218.087" height="154.212"/>
	<path fill="#006CBA" d="M170.613,81.704h-14.969c-1.099,0-1.99-0.891-1.99-1.99V31.036c0-1.099,0.891-1.99,1.99-1.99h14.969
		c1.099,0,1.99,0.891,1.99,1.99v48.678C172.603,80.813,171.712,81.704,170.613,81.704"/>
	<path fill="#006CBA" d="M62.445,81.704h-14.97c-1.098,0-1.989-0.891-1.989-1.99V31.036c0-1.099,0.891-1.99,1.989-1.99h14.97
		c1.099,0,1.99,0.891,1.99,1.99v48.678C64.435,80.813,63.544,81.704,62.445,81.704"/>
	<path fill="#E60039" d="M102.258,45.992c-1.922,0-3.876,0.297-5.803,0.924c-0.833,0.27-1.626,0.605-2.391,0.977l3.427,3.725
		l-4.962,0.999c0.4,0.751,0.845,1.487,1.36,2.196c3.14,4.323,7.783,6.905,12.691,7.563c2.643-2.331,5.877-4.005,9.459-4.728
		c-2.425-2.629-4.091-5.85-4.879-9.389C108.455,46.801,105.404,45.992,102.258,45.992"/>
	<path fill="#E60039" d="M108.054,82.613c5.081-1.651,8.961-5.27,11.105-9.733c-1.442-3.33-1.987-6.917-1.569-10.471
		c-2.654,1.219-5.532,1.867-8.502,1.867c-0.651,0-1.297-0.04-1.939-0.101c-3.575,3.417-5.813,8.221-5.813,13.557
		c0,0.876,0.073,1.734,0.191,2.577l4.601-2.109l-0.583,5.028C106.383,83.08,107.221,82.884,108.054,82.613"/>
	<path fill="#E60039" d="M131.119,64.275c-2.973,0-5.854-0.648-8.51-1.87c0.422,3.633-0.167,7.227-1.566,10.464
		c1.844,3.844,4.982,7.055,9.059,8.931c3.202-2.554,5.929-5.675,8.028-9.216c-0.93-3.246-2.696-6.139-5.073-8.41
		C132.415,64.236,131.77,64.275,131.119,64.275"/>
	<path fill="#E60039" d="M127.525,47.118c0.878-4.86-0.138-10.055-3.27-14.367c-0.515-0.708-1.078-1.359-1.669-1.972l-2.483,4.411
		l-2.483-4.411c-0.591,0.613-1.154,1.264-1.669,1.972c-3.133,4.312-4.148,9.507-3.27,14.367c3.066,1.812,5.633,4.415,7.416,7.592
		c0.002,0,0.004-0.001,0.006-0.001s0.004,0.001,0.005,0.001C121.893,51.533,124.459,48.93,127.525,47.118"/>
	<path fill="#E60039" d="M118.336,55.104c-1.311-2.186-3.027-4.042-5.023-5.496c0.766,2.35,1.994,4.559,3.669,6.482
		C117.363,55.677,117.819,55.34,118.336,55.104"/>
	<path fill="#E60039" d="M119.269,63.138c-0.222,2.53,0.08,5.027,0.835,7.369c0.755-2.342,1.057-4.839,0.834-7.369
		c-0.27,0.054-0.548,0.084-0.835,0.084C119.817,63.222,119.539,63.191,119.269,63.138"/>
	<path fill="#E60039" d="M135.147,63.866c1.768,1.917,3.168,4.172,4.111,6.65c1.5-2.986,2.571-6.223,3.13-9.634
		C140.193,62.321,137.737,63.345,135.147,63.866"/>
	<path fill="#E60039" d="M120.098,74.775c-2.432,4.34-6.417,7.824-11.511,9.479c-0.853,0.277-1.75,0.497-2.742,0.672l-2.281,0.404
		l0.267-2.301l0.231-1.984l-1.817,0.832l-2.105,0.965l-0.321-2.294c-0.14-0.997-0.208-1.919-0.208-2.816
		c0-5.351,2.078-10.213,5.448-13.866c-5-1.007-9.523-3.851-12.565-8.039c-0.528-0.726-1.014-1.511-1.487-2.4l-1.089-2.044
		l2.271-0.457l1.958-0.394l-1.352-1.47l-1.569-1.705l2.082-1.014c0.906-0.441,1.761-0.79,2.614-1.068
		c2.059-0.668,4.191-1.007,6.336-1.007c3.027,0,5.923,0.671,8.544,1.873c-0.598-5.122,0.705-10.207,3.754-14.404
		c0.527-0.726,1.124-1.431,1.823-2.155l1.608-1.667l1.136,2.018l0.98,1.741l0.98-1.741l1.137-2.018l1.607,1.667
		c0.7,0.724,1.296,1.429,1.823,2.155c3.05,4.197,4.352,9.282,3.754,14.404c2.621-1.202,5.517-1.873,8.544-1.873
		c1.038,0,2.073,0.083,3.098,0.24c-4.527-13.333-17.139-22.931-32.002-22.931c-18.666,0-33.798,15.132-33.798,33.798
		s15.132,33.797,33.798,33.797c7.272,0,14.002-2.305,19.515-6.212C125.007,81.128,122.078,78.314,120.098,74.775"/>
	<path fill="#E60039" d="M109.103,62.551c2.474-0.002,4.96-0.5,7.311-1.501c-0.273-0.482-0.45-1.019-0.517-1.594
		C113.403,60.027,111.106,61.096,109.103,62.551"/>
	<path fill="#E60039" d="M121.87,55.104c0.517,0.237,0.973,0.574,1.354,0.986c1.676-1.923,2.904-4.133,3.67-6.482
		C124.897,51.061,123.181,52.917,121.87,55.104"/>
	<path fill="#E60039" d="M131.104,62.55c-2.004-1.455-4.301-2.522-6.793-3.094c-0.067,0.575-0.245,1.111-0.517,1.593
		C126.144,62.05,128.629,62.548,131.104,62.55"/>
	<path fill="#E60039" d="M129.046,48.26c-0.789,3.539-2.455,6.76-4.879,9.389c3.582,0.723,6.816,2.397,9.459,4.728
		c3.263-0.438,6.398-1.744,9.062-3.828c0.097-1.045,0.153-2.103,0.153-3.174c0-3.118-0.431-6.135-1.222-9.002
		c-1.227-0.246-2.455-0.38-3.672-0.38C134.802,45.993,131.751,46.801,129.046,48.26"/>
	<path d="M121.087,105.086h1.827c0.213,0,0.386,0.163,0.386,0.363v7.2c0,1.007-0.094,1.914-0.282,2.456
		c-0.253,0.708-0.711,1.275-1.374,1.704c-0.664,0.428-1.629,0.643-2.715,0.643c-1.275,0-2.345-0.337-3.032-1.008
		c-0.625-0.611-0.969-1.483-1.03-2.615c-0.01-0.19,0.146-0.359,0.346-0.38l1.7-0.184c0.219-0.024,0.408,0.132,0.428,0.338
		c0.049,0.498,0.148,0.761,0.3,0.993c0.282,0.437,0.8,0.656,1.376,0.656c0.582,0,1.082-0.29,1.323-0.602
		c0.241-0.312,0.361-0.859,0.361-1.843v-7.358C120.702,105.249,120.875,105.086,121.087,105.086"/>
	<path d="M156.752,117.244h-1.884c-0.15,0-0.285-0.093-0.339-0.233l-0.883-2.296c-0.054-0.14-0.189-0.233-0.339-0.233h-4.356
		c-0.152,0-0.289,0.096-0.341,0.24l-0.829,2.283c-0.053,0.143-0.189,0.239-0.342,0.239h-1.818c-0.256,0-0.432-0.257-0.339-0.495
		l4.453-11.432c0.054-0.139,0.189-0.231,0.338-0.231h2.102c0.148,0,0.282,0.09,0.337,0.228l4.578,11.432
		C157.186,116.984,157.011,117.244,156.752,117.244 M152.679,112.188l-1.412-3.803c-0.059-0.159-0.283-0.158-0.341,0.001
		l-1.385,3.803c-0.043,0.119,0.045,0.244,0.171,0.244h2.797C152.636,112.434,152.723,112.308,152.679,112.188"/>
	<path d="M158.116,116.881v-11.432c0-0.2,0.163-0.363,0.363-0.363h1.822c0.127,0,0.244,0.066,0.31,0.173l4.87,7.946v-7.756
		c0-0.2,0.162-0.363,0.363-0.363h1.554c0.2,0,0.363,0.163,0.363,0.363v11.432c0,0.201-0.163,0.363-0.363,0.363H165.5
		c-0.126,0-0.243-0.065-0.309-0.172l-4.795-7.756v7.565c0,0.201-0.163,0.363-0.364,0.363h-1.554
		C158.279,117.244,158.116,117.082,158.116,116.881"/>
	<path d="M145.568,106.458c-0.47-0.611-1.053-1.008-1.75-1.19c-0.453-0.122-1.186-0.183-2.679-0.183h-3.576
		c-0.201,0-0.364,0.163-0.364,0.364v11.431c0,0.201,0.163,0.363,0.364,0.363h1.728c0.201,0,0.363-0.162,0.363-0.363v-3.86
		c0-0.2,0.163-0.363,0.364-0.363h1.237c1.111,0,1.72-0.058,2.306-0.174c0.431-0.094,0.856-0.286,1.273-0.576
		c0.418-0.291,0.762-0.69,1.033-1.199c0.27-0.508,0.406-1.136,0.406-1.883C146.273,107.858,146.038,107.069,145.568,106.458
		 M143.466,109.805c-0.186,0.271-0.441,0.47-0.767,0.597c-0.326,0.128-0.733,0.191-1.701,0.191h-0.98
		c-0.201,0-0.364-0.163-0.364-0.363v-2.74c0-0.201,0.163-0.364,0.364-0.364h0.98c0.968,0,1.375,0.064,1.701,0.191
		c0.326,0.127,0.581,0.326,0.767,0.597c0.185,0.271,0.277,0.586,0.277,0.946C143.743,109.218,143.651,109.533,143.466,109.805"/>
	<path d="M136.039,116.746l-4.577-11.432c-0.055-0.138-0.189-0.228-0.337-0.228h-2.102c-0.149,0-0.284,0.092-0.338,0.231
		l-4.453,11.432c-0.092,0.238,0.083,0.495,0.339,0.495h1.818c0.153,0,0.289-0.096,0.341-0.239l0.83-2.283
		c0.052-0.144,0.189-0.24,0.342-0.24h4.355c0.151,0,0.285,0.093,0.339,0.233l0.883,2.296c0.054,0.14,0.188,0.233,0.339,0.233h1.884
		C135.959,117.244,136.135,116.984,136.039,116.746 M131.458,112.434h-2.797c-0.126,0-0.214-0.125-0.171-0.244l1.385-3.803
		c0.058-0.159,0.282-0.16,0.341-0.001l1.412,3.803C131.672,112.308,131.584,112.434,131.458,112.434"/>
	<path fill="#E60044" d="M85.933,115.312v1.416c0,0.197-0.171,0.357-0.383,0.357h-7.633c-0.236,0-0.429-0.2-0.385-0.417
		c0.13-0.653,0.043-1.198,0.428-1.794c0.467-0.721,1.581-1.757,2.958-2.949c1.108-0.964,1.788-1.617,2.039-1.96
		c0.338-0.473,0.508-0.942,0.508-1.404c0-0.512-0.148-0.905-0.443-1.18c-0.294-0.275-0.7-0.412-1.22-0.412
		c-0.514,0-0.922,0.144-1.226,0.432c-0.246,0.235-0.408,0.596-0.485,1.083c-0.031,0.194-0.209,0.339-0.419,0.319L78,108.646
		c-0.217-0.02-0.38-0.211-0.345-0.412c0.188-1.069,0.628-1.85,1.32-2.344c0.77-0.55,1.733-0.825,2.888-0.825
		c1.266,0,2.261,0.319,2.984,0.955c0.724,0.638,1.086,1.43,1.086,2.376c0,0.54-0.104,1.053-0.312,1.54
		c-0.206,0.487-0.534,0.998-0.983,1.531c-0.298,0.354-0.835,0.863-1.611,1.527c-0.776,0.664-1.268,1.105-1.474,1.322
		c-0.208,0.218-0.376,0.431-0.504,0.637h4.501C85.762,114.953,85.933,115.113,85.933,115.312"/>
	<path fill="#E60044" d="M91.244,105.066c1.243,0,2.214,0.414,2.915,1.241c0.834,0.98,1.251,2.605,1.251,4.875
		c0,2.264-0.42,3.892-1.261,4.883c-0.695,0.816-1.662,1.224-2.905,1.224c-1.249,0-2.256-0.447-3.02-1.343s-1.146-2.492-1.146-4.789
		c0-2.254,0.419-3.876,1.26-4.866C89.033,105.474,90,105.066,91.244,105.066 M91.244,107.003c-0.298,0-0.563,0.087-0.797,0.263
		c-0.233,0.175-0.414,0.49-0.543,0.944c-0.168,0.588-0.253,1.579-0.253,2.972c0,1.392,0.075,2.349,0.227,2.87
		c0.152,0.522,0.344,0.868,0.574,1.041s0.494,0.259,0.792,0.259c0.297,0,0.562-0.087,0.796-0.263
		c0.233-0.175,0.414-0.49,0.543-0.943c0.169-0.584,0.254-1.572,0.254-2.964c0-1.393-0.076-2.35-0.228-2.871
		c-0.152-0.521-0.343-0.87-0.573-1.045C91.806,107.09,91.541,107.003,91.244,107.003"/>
	<path fill="#E60044" d="M104.847,110.626c-0.637-0.25-1.098-0.595-1.389-1.033c-0.288-0.438-0.433-0.919-0.433-1.442
		c0-0.892,0.334-1.629,1.002-2.212c0.668-0.582,1.619-0.874,2.85-0.874c1.22,0,2.166,0.292,2.839,0.874
		c0.675,0.583,1.012,1.32,1.012,2.212c0,0.556-0.155,1.05-0.464,1.483c-0.31,0.432-0.744,0.764-1.304,0.992
		c0.711,0.267,1.253,0.656,1.623,1.168c0.371,0.511,0.556,1.102,0.556,1.771c0,1.105-0.378,2.003-1.134,2.695
		c-0.755,0.691-1.76,1.036-3.014,1.036c-1.167,0-2.139-0.285-2.915-0.856c-0.916-0.675-1.374-1.601-1.374-2.777
		c0-0.647,0.172-1.242,0.516-1.784C103.562,111.337,104.105,110.92,104.847,110.626 M105.126,113.594
		c0,0.584,0.174,1.04,0.521,1.367c0.348,0.327,0.781,0.49,1.3,0.49c0.507,0,0.928-0.157,1.26-0.471
		c0.333-0.314,0.499-0.769,0.499-1.363c0-0.518-0.17-0.935-0.507-1.249c-0.339-0.315-0.767-0.472-1.287-0.472
		c-0.601,0-1.05,0.179-1.344,0.536C105.274,112.79,105.126,113.177,105.126,113.594 M105.354,108.315
		c0,0.457,0.139,0.814,0.416,1.07c0.276,0.256,0.646,0.384,1.107,0.384c0.467,0,0.84-0.13,1.12-0.388
		c0.28-0.259,0.42-0.617,0.42-1.074c0-0.43-0.138-0.775-0.416-1.033c-0.277-0.259-0.643-0.388-1.098-0.388
		c-0.472,0-0.849,0.131-1.129,0.392C105.494,107.54,105.354,107.885,105.354,108.315"/>
	<path fill="#E60044" d="M100.418,105.066h-1.359c-0.154,0-0.251,0.106-0.346,0.219c-0.54,0.643-1.061,1.001-1.762,1.385
		c-0.115,0.063-0.304,0.165-0.304,0.456v1.649c0,0.255,0.177,0.197,0.281,0.16c0.428-0.15,1.07-0.446,1.414-0.746v8.539
		c0,0.197,0.172,0.357,0.384,0.357h1.692c0.212,0,0.384-0.16,0.384-0.357v-11.305C100.802,105.226,100.63,105.066,100.418,105.066"
		/>
	<path fill="#E60044" d="M51.482,116.901v-11.44c0-0.207,0.168-0.375,0.375-0.375h1.89c0.207,0,0.376,0.168,0.376,0.375v11.44
		c0,0.208-0.169,0.375-0.376,0.375h-1.89C51.65,117.276,51.482,117.109,51.482,116.901"/>
	<path fill="#E60044" d="M70.77,116.901v-11.44c0-0.207,0.168-0.375,0.375-0.375h1.89c0.207,0,0.375,0.168,0.375,0.375v11.44
		c0,0.208-0.168,0.375-0.375,0.375h-1.89C70.938,117.276,70.77,117.109,70.77,116.901"/>
	<path fill="#E60044" d="M62.446,104.878c-3.959,0-6.497,2.462-6.497,6.304c0,3.841,2.538,6.303,6.497,6.303
		s6.498-2.462,6.498-6.303C68.944,107.34,66.405,104.878,62.446,104.878 M62.446,115.374c-2.255,0-3.701-1.637-3.701-4.192
		c0-2.556,1.446-4.193,3.701-4.193c2.256,0,3.701,1.637,3.701,4.193C66.147,113.737,64.702,115.374,62.446,115.374"/>
	<path d="M52.372,131.519v-6.186c0-0.124-0.084-0.224-0.187-0.224h-1.824c-0.104,0-0.188-0.101-0.188-0.225v-0.438
		c0-0.125,0.084-0.225,0.188-0.225h4.863c0.104,0,0.188,0.1,0.188,0.225v0.438c0,0.124-0.084,0.225-0.188,0.225h-1.832
		c-0.103,0-0.187,0.1-0.187,0.224v6.186c0,0.125-0.085,0.225-0.188,0.225H52.56C52.456,131.744,52.372,131.644,52.372,131.519"/>
	<path d="M67.341,124.221h0.452c0.103,0,0.186,0.1,0.186,0.222v4.081c0,0.749-0.071,1.343-0.212,1.783
		c-0.142,0.441-0.397,0.799-0.767,1.075c-0.369,0.276-0.854,0.414-1.454,0.414c-0.583,0-1.06-0.12-1.431-0.361
		c-0.37-0.24-0.635-0.589-0.794-1.044c-0.158-0.456-0.237-1.078-0.237-1.867v-4.081c0-0.122,0.083-0.222,0.186-0.222h0.451
		c0.103,0,0.186,0.1,0.186,0.222v4.076c0,0.647,0.05,1.123,0.151,1.43c0.1,0.307,0.273,0.543,0.518,0.709
		c0.244,0.166,0.544,0.249,0.898,0.249c0.606,0,1.037-0.165,1.295-0.493c0.258-0.328,0.386-0.96,0.386-1.895v-4.076
		C67.155,124.321,67.238,124.221,67.341,124.221"/>
	<path d="M70.27,131.482v-7.074c0-0.124,0.084-0.224,0.188-0.224h0.456c0.104,0,0.188,0.1,0.188,0.224v3.506l3.03-3.622
		c0.052-0.059,0.075-0.108,0.203-0.108h0.667c0.138,0,0.137,0.151,0.083,0.214c-0.107,0.125-2.252,2.697-2.252,2.697
		c-0.068,0.078-0.077,0.204-0.021,0.295l2.411,4.077c0.091,0.149,0.027,0.24-0.127,0.24h-0.629c-0.061,0-0.118-0.036-0.153-0.096
		l-2.056-3.496c-0.066-0.113-0.202-0.129-0.284-0.032l-0.815,0.951c-0.036,0.042-0.057,0.1-0.057,0.16v2.288
		c0,0.124-0.084,0.225-0.188,0.225h-0.456C70.354,131.707,70.27,131.606,70.27,131.482"/>
	<path d="M81.132,124.222h0.452c0.103,0,0.186,0.1,0.186,0.223v4.08c0,0.749-0.071,1.343-0.212,1.783
		c-0.142,0.441-0.397,0.799-0.767,1.075c-0.369,0.276-0.854,0.414-1.454,0.414c-0.583,0-1.06-0.12-1.431-0.361
		c-0.37-0.24-0.635-0.589-0.794-1.044c-0.158-0.455-0.237-1.078-0.237-1.867v-4.08c0-0.123,0.083-0.223,0.186-0.223h0.451
		c0.103,0,0.186,0.1,0.186,0.223v4.075c0,0.647,0.05,1.124,0.151,1.431c0.1,0.306,0.273,0.542,0.518,0.708
		c0.244,0.166,0.544,0.249,0.898,0.249c0.606,0,1.037-0.165,1.295-0.493c0.258-0.328,0.386-0.96,0.386-1.895v-4.075
		C80.946,124.321,81.029,124.222,81.132,124.222"/>
	<path d="M84.106,131.446v-7.003c0-0.123,0.083-0.222,0.186-0.222h2.087c0.476,0,0.857,0.075,1.144,0.226
		c0.288,0.15,0.512,0.383,0.676,0.696c0.162,0.313,0.243,0.641,0.243,0.983c0,0.318-0.072,0.618-0.216,0.899
		c-0.144,0.281-0.362,0.508-0.654,0.681c0.377,0.132,0.666,0.357,0.868,0.675c0.203,0.319,0.304,0.695,0.304,1.128
		c0,0.35-0.062,0.674-0.185,0.974c-0.123,0.299-0.275,0.53-0.456,0.693c-0.181,0.162-0.408,0.285-0.682,0.368
		c-0.273,0.083-0.608,0.125-1.004,0.125h-2.125C84.189,131.669,84.106,131.569,84.106,131.446 M84.929,127.128
		c0,0.123,0.083,0.222,0.186,0.222h1.099c0.365,0,0.627-0.029,0.785-0.086c0.209-0.074,0.368-0.198,0.473-0.371
		c0.106-0.173,0.159-0.389,0.159-0.65c0-0.247-0.049-0.465-0.148-0.653c-0.099-0.188-0.241-0.317-0.425-0.386
		c-0.184-0.07-0.5-0.104-0.946-0.104h-0.997c-0.103,0-0.186,0.099-0.186,0.222V127.128z M84.929,130.567
		c0,0.123,0.083,0.223,0.186,0.223h1.302c0.266,0,0.453-0.012,0.561-0.036c0.189-0.041,0.348-0.108,0.475-0.203
		c0.127-0.095,0.232-0.233,0.314-0.414s0.123-0.39,0.123-0.628c0-0.277-0.059-0.519-0.178-0.723
		c-0.118-0.205-0.283-0.349-0.494-0.432s-0.515-0.125-0.911-0.125h-1.192c-0.103,0-0.186,0.1-0.186,0.223V130.567z"/>
	<path d="M89.912,131.401l2.27-7.074c0.028-0.086,0.098-0.144,0.175-0.144h0.642c0.076,0,0.145,0.056,0.173,0.14l2.42,7.073
		c0.051,0.148-0.04,0.31-0.174,0.31h-0.539c-0.078,0-0.147-0.057-0.175-0.144l-0.641-1.99c-0.028-0.087-0.098-0.144-0.175-0.144
		H91.52c-0.079,0-0.15,0.059-0.177,0.148l-0.601,1.982c-0.027,0.089-0.097,0.148-0.176,0.148h-0.479
		C89.956,131.706,89.864,131.548,89.912,131.401 M91.898,128.617h1.589c0.131,0,0.222-0.157,0.176-0.304c0,0-0.83-2.619-0.875-2.712
		c-0.034-0.073-0.051-0.128-0.12-0.128s-0.084,0.056-0.116,0.129c-0.042,0.094-0.83,2.712-0.83,2.712
		C91.676,128.461,91.768,128.617,91.898,128.617"/>
	<path d="M60.502,124.374c0.294,0.084,0.331,0.201,0.224,0.486c-0.163,0.437-0.162,0.434-0.612,0.28
		c-0.426-0.146-0.861-0.213-1.309-0.109c-0.432,0.1-0.75,0.326-0.852,0.78c-0.109,0.486,0.052,0.885,0.457,1.159
		c0.274,0.185,0.577,0.329,0.876,0.473c0.538,0.261,1.08,0.505,1.452,1.009c0.716,0.967,0.378,2.448-0.699,2.982
		c-0.991,0.492-1.988,0.403-2.977-0.011c-0.227-0.095-0.259-0.199-0.187-0.432c0.151-0.491,0.162-0.497,0.645-0.302
		c0.477,0.192,0.964,0.288,1.483,0.211c0.554-0.082,0.964-0.397,1.082-0.867c0.138-0.548-0.042-1.073-0.516-1.386
		c-0.253-0.166-0.533-0.293-0.81-0.418c-0.528-0.237-1.052-0.479-1.414-0.955c-0.733-0.967-0.414-2.302,0.671-2.843
		c0.403-0.201,0.767-0.282,1.267-0.282C59.53,124.149,60.106,124.26,60.502,124.374"/>
	<path d="M132.333,131.482v-7.074c0-0.124,0.084-0.224,0.188-0.224h0.456c0.104,0,0.188,0.1,0.188,0.224v3.506l3.03-3.622
		c0.052-0.059,0.075-0.108,0.203-0.108h0.666c0.139,0,0.138,0.151,0.083,0.214c-0.106,0.125-2.251,2.697-2.251,2.697
		c-0.068,0.078-0.077,0.204-0.021,0.295l2.41,4.077c0.091,0.149,0.028,0.24-0.126,0.24h-0.629c-0.061,0-0.118-0.036-0.154-0.096
		l-2.055-3.496c-0.067-0.113-0.202-0.129-0.285-0.032l-0.814,0.951c-0.037,0.042-0.057,0.1-0.057,0.16v2.288
		c0,0.124-0.084,0.225-0.188,0.225h-0.456C132.417,131.707,132.333,131.606,132.333,131.482"/>
	<path d="M140.109,131.482c0,0.124-0.084,0.225-0.188,0.225h-0.456c-0.104,0-0.188-0.101-0.188-0.225v-7.074
		c0-0.124,0.084-0.224,0.188-0.224h0.456c0.104,0,0.188,0.1,0.188,0.224V131.482z"/>
	<path d="M102.853,131.482c0,0.124-0.084,0.225-0.188,0.225h-0.456c-0.104,0-0.188-0.101-0.188-0.225v-7.074
		c0-0.124,0.084-0.224,0.188-0.224h0.456c0.104,0,0.188,0.1,0.188,0.224V131.482z"/>
	<path d="M105.52,131.446v-7.003c0-0.123,0.083-0.222,0.186-0.222h2.087c0.476,0,0.857,0.075,1.145,0.226
		c0.287,0.15,0.511,0.383,0.675,0.696c0.162,0.313,0.244,0.641,0.244,0.983c0,0.318-0.073,0.618-0.217,0.899
		c-0.144,0.281-0.362,0.508-0.653,0.681c0.376,0.132,0.665,0.357,0.868,0.675c0.202,0.319,0.303,0.695,0.303,1.128
		c0,0.35-0.062,0.674-0.185,0.974c-0.123,0.299-0.275,0.53-0.456,0.693c-0.181,0.162-0.408,0.285-0.681,0.368
		c-0.274,0.083-0.608,0.125-1.005,0.125h-2.125C105.603,131.669,105.52,131.569,105.52,131.446 M106.343,127.128
		c0,0.123,0.083,0.222,0.186,0.222h1.099c0.365,0,0.627-0.029,0.785-0.086c0.21-0.074,0.368-0.198,0.473-0.371
		c0.106-0.173,0.16-0.389,0.16-0.65c0-0.247-0.05-0.465-0.149-0.653c-0.099-0.188-0.241-0.317-0.425-0.386
		c-0.184-0.07-0.499-0.104-0.946-0.104h-0.997c-0.103,0-0.186,0.099-0.186,0.222V127.128z M106.343,130.567
		c0,0.123,0.083,0.223,0.186,0.223h1.302c0.267,0,0.453-0.012,0.561-0.036c0.189-0.041,0.348-0.108,0.475-0.203
		c0.128-0.095,0.232-0.233,0.314-0.414c0.083-0.181,0.123-0.39,0.123-0.628c0-0.277-0.059-0.519-0.177-0.723
		c-0.119-0.205-0.284-0.349-0.495-0.432s-0.515-0.125-0.911-0.125h-1.192c-0.103,0-0.186,0.1-0.186,0.223V130.567z"/>
	<path d="M111.4,131.401l2.27-7.074c0.028-0.086,0.098-0.144,0.175-0.144h0.642c0.076,0,0.145,0.056,0.173,0.14l2.42,7.073
		c0.051,0.148-0.041,0.31-0.174,0.31h-0.539c-0.078,0-0.147-0.057-0.175-0.144l-0.641-1.99c-0.028-0.087-0.098-0.144-0.175-0.144
		h-2.368c-0.079,0-0.15,0.059-0.177,0.148l-0.601,1.982c-0.027,0.089-0.097,0.148-0.176,0.148h-0.479
		C111.443,131.706,111.352,131.548,111.4,131.401 M113.387,128.617h1.589c0.131,0,0.222-0.157,0.176-0.304
		c0,0-0.831-2.619-0.875-2.712c-0.035-0.073-0.051-0.128-0.12-0.128s-0.084,0.056-0.116,0.129c-0.042,0.094-0.83,2.712-0.83,2.712
		C113.165,128.461,113.256,128.617,113.387,128.617"/>
	<path d="M125.039,131.401l2.27-7.074c0.028-0.086,0.098-0.144,0.175-0.144h0.642c0.076,0,0.145,0.056,0.173,0.14l2.42,7.073
		c0.051,0.148-0.04,0.31-0.174,0.31h-0.539c-0.078,0-0.147-0.057-0.175-0.144l-0.641-1.99c-0.028-0.087-0.098-0.144-0.175-0.144
		h-2.368c-0.079,0-0.15,0.059-0.177,0.148l-0.601,1.982c-0.027,0.089-0.097,0.148-0.176,0.148h-0.479
		C125.083,131.706,124.992,131.548,125.039,131.401 M127.026,128.617h1.589c0.131,0,0.222-0.157,0.176-0.304
		c0,0-0.83-2.619-0.875-2.712c-0.034-0.073-0.051-0.128-0.12-0.128s-0.084,0.056-0.116,0.129c-0.041,0.094-0.83,2.712-0.83,2.712
		C126.804,128.461,126.895,128.617,127.026,128.617"/>
	<path d="M123.372,130.596c-0.111-0.426-0.193-0.861-0.318-1.283c-0.15-0.505-0.415-0.955-0.963-1.241
		c0.072-0.038,0.145-0.07,0.212-0.112c0.175-0.111,0.37-0.203,0.516-0.343c0.602-0.575,0.761-1.273,0.541-2.05
		c-0.145-0.514-0.471-0.901-0.977-1.127c-0.37-0.166-0.765-0.26-1.175-0.27c-0.344-0.008-0.691-0.014-1.035,0.003
		c-0.321,0.016-0.641,0.056-0.96,0.099c-0.211,0.029-0.22,0.052-0.224,0.251c-0.001,0.029,0,0.058,0,0.087v6.758
		c0,0.051,0.002,0.102,0.001,0.152c-0.003,0.108,0.049,0.159,0.163,0.158c0.18-0.002,0.36-0.002,0.54,0
		c0.113,0.001,0.167-0.048,0.163-0.157c-0.001-0.058,0.001-0.116,0.001-0.174c0-0.917-0.001-1.834,0.001-2.751
		c0-0.202,0.008-0.209,0.213-0.21c0.256-0.003,0.511-0.008,0.766,0.001c0.573,0.021,1.005,0.253,1.244,0.776
		c0.172,0.374,0.235,0.774,0.332,1.167c0.089,0.365,0.185,0.729,0.29,1.09c0.026,0.09,0.037,0.238,0.159,0.238
		c0.239,0,0.476,0.019,0.742,0.005c0.029-0.001,0.081-0.007,0.046-0.127C123.615,131.417,123.445,130.875,123.372,130.596
		 M122.038,127.366c-0.299,0.237-0.664,0.333-1.043,0.353c-0.314,0.016-0.63,0.006-0.944,0.003
		c-0.179-0.001-0.191-0.014-0.193-0.187c-0.003-0.411-0.001-0.821-0.001-1.232c0-0.404,0.004-0.808-0.002-1.211
		c-0.001-0.123,0.045-0.194,0.171-0.208c0.492-0.055,0.985-0.087,1.472,0.036c0.537,0.135,0.917,0.436,1.021,0.977
		C122.626,126.459,122.523,126.979,122.038,127.366"/>
	<path d="M98.696,131.394c-0.225,0.442-0.608,1.031-0.796,1.242l-0.318-0.029c0.182-0.286,0.464-0.871,0.609-1.26L98.696,131.394z"
		/>
	<path d="M98.751,131.133c0,0.364-0.295,0.659-0.659,0.659c-0.364,0-0.659-0.295-0.659-0.659c0-0.364,0.295-0.659,0.659-0.659
		C98.456,130.474,98.751,130.769,98.751,131.133"/>
</g>
</svg>
