<?xml version="1.0" encoding="UTF-8"?>
<!DOCTYPE svg PUBLIC "-//W3C//DTD SVG 1.1//EN" "http://www.w3.org/Graphics/SVG/1.1/DTD/svg11.dtd">
<!-- Creator: CorelDRAW 2018 (64-Bit Not for commercial use) -->
<svg xmlns="http://www.w3.org/2000/svg" xml:space="preserve" width="4.1875in" height="3.27083in" version="1.1" style="shape-rendering:geometricPrecision; text-rendering:geometricPrecision; image-rendering:optimizeQuality; fill-rule:evenodd; clip-rule:evenodd"
viewBox="0 0 4187.5 3270.83"
 xmlns:xlink="http://www.w3.org/1999/xlink">
 <defs>
  <style type="text/css">
   <![CDATA[
    .fil2 {fill:none}
    .fil3 {fill:#D9DADA}
    .fil13 {fill:#FFF7B2;fill-rule:nonzero}
    .fil5 {fill:#FFF383;fill-rule:nonzero}
    .fil4 {fill:#FFEE17;fill-rule:nonzero}
    .fil6 {fill:#FFDD00;fill-rule:nonzero}
    .fil12 {fill:#FFD500;fill-rule:nonzero}
    .fil1 {fill:#FECC00;fill-rule:nonzero}
    .fil11 {fill:#FBBB00;fill-rule:nonzero}
    .fil7 {fill:#F9B101;fill-rule:nonzero}
    .fil0 {fill:#F7A707;fill-rule:nonzero}
    .fil9 {fill:#F59E0E;fill-rule:nonzero}
    .fil8 {fill:#F39313;fill-rule:nonzero}
    .fil10 {fill:#F18917;fill-rule:nonzero}
   ]]>
  </style>
     <clipPath id="id0">
      <path d="M657.08 181.16c-148.69,22.28 -274.31,150.67 -253.08,326.12 18.19,150.26 156.18,279.26 331.75,255.23 147.18,-20.15 274.28,-155.69 250.93,-329.64 -19.57,-145.75 -157.24,-277.54 -329.6,-251.7zm3405.16 1668.38c-0.59,-19.6 0.68,-6.83 -5.16,-12.73l-258.78 -0.63 -0.05 -874.64 259.51 -0.01 4.46 -10.5 -0.29 -432.81 -255.26 -1.6c-18.57,4.63 -7.9,101.99 -105.61,186.37 -32.72,28.25 -38.25,36.98 -88.33,58.69 -110.47,47.9 -246.71,26.74 -336.31,-52.63 -7.08,-6.27 -8.85,-11.01 -16.08,-17.76 -21.31,-19.91 -32.77,-35.35 -48.83,-64.3 -23.47,-42.3 -22.52,-64.23 -38.2,-108.47l-256.58 -1.89 0.07 399.87c-129.98,-224.71 -346.29,-383.3 -581.15,-446.36 -232.26,-62.35 -490.07,-28.44 -680.67,70.89 -90.26,47.04 -166.97,101.35 -235.63,171.34 -28.14,28.7 -18.85,14.26 -49.73,52.22 -36.53,44.91 -53.86,60.32 -87.69,115.77 -2.59,4.25 -6.62,11.33 -11.19,19.27l-0.26 -381.41 -255.25 -1.6c-18.57,4.63 -7.9,101.99 -105.61,186.37 -32.72,28.25 -38.25,36.98 -88.33,58.69 -110.48,47.9 -246.71,26.74 -336.31,-52.63 -7.07,-6.27 -8.85,-11.01 -16.08,-17.76 -21.31,-19.91 -32.77,-35.35 -48.83,-64.3 -23.47,-42.3 -22.52,-64.23 -38.2,-108.47l-256.57 -1.89 0.08 444.91 263.58 0.06 -0.02 874.35 -263.65 0.24 0.09 444.86 1144.07 -0.02 1.24 -393.92c84.37,143.65 211.83,267.17 384.52,356.57 296.82,153.66 675.86,135.09 960.96,-55.52 123.79,-82.76 226.79,-192.69 300.57,-321.04l0.09 413.93 1144.07 -0.02 1.36 -431.5zm-1121.02 -888l239.17 0.06 -0.01 874.35 -246.59 0.23c69.88,-132.74 109.17,-283.65 109.12,-443.73 -0.05,-159.37 -37.56,-304.55 -101.69,-430.91zm507.31 -780.39c-148.69,22.28 -274.31,150.67 -253.08,326.12 18.19,150.26 156.18,279.26 331.75,255.23 147.19,-20.15 274.29,-155.69 250.93,-329.64 -19.57,-145.75 -157.24,-277.54 -329.59,-251.7zm-2205.21 1655.59l-236.47 -0.57 -0.04 -874.64 228.35 -0.01c-121.43,298.35 -122.59,615.29 8.17,875.22zm809.26 -876.35c-92.63,17.27 -160.26,94.09 -195,163.93 -160.97,323.72 16.99,739.83 263.15,696.15 90.76,-16.11 160,-94.86 194.1,-163.61 162.18,-327.02 -20.09,-741.61 -262.25,-696.46z"/>
     </clipPath>
 </defs>
 <g id="Layer_x0020_1">
  <metadata id="CorelCorpID_0Corel-Layer"/>
  <g id="_3131124265056">
   <g>
    <g>
     <path class="fil0" d="M192.13 3088.97l-66.89 0 0 -358.22 66.89 0 0 358.22zm382 -358.22l0 358.22 -34.19 0c-5.29,0 -9.66,-0.91 -13.22,-2.64 -3.55,-1.73 -7.02,-4.62 -10.32,-8.75l-187.04 -238.81c0.99,10.9 1.48,20.97 1.48,30.22l0 219.98 -58.71 0 0 -358.22 34.93 0c2.81,0 5.28,0.08 7.35,0.33 2.06,0.25 3.88,0.74 5.45,1.49 1.57,0.74 3.06,1.81 4.54,3.22 1.48,1.41 3.14,3.31 4.95,5.62l187.78 239.8c-0.49,-5.78 -0.91,-11.48 -1.24,-17.09 -0.33,-5.61 -0.5,-10.82 -0.5,-15.61l0 -217.76 58.71 0zm267.06 358.22l-66.89 0 0 -358.22 66.89 0 0 358.22zm382 -358.22l0 358.22 -34.19 0c-5.28,0 -9.66,-0.91 -13.21,-2.64 -3.55,-1.73 -7.02,-4.62 -10.32,-8.75l-187.04 -238.81c0.99,10.9 1.48,20.97 1.48,30.22l0 219.98 -58.71 0 0 -358.22 34.93 0c2.81,0 5.28,0.08 7.35,0.33 2.07,0.25 3.88,0.74 5.45,1.49 1.57,0.74 3.06,1.81 4.54,3.22 1.48,1.41 3.14,3.31 4.95,5.62l187.78 239.8c-0.49,-5.78 -0.91,-11.48 -1.24,-17.09 -0.33,-5.61 -0.5,-10.82 -0.5,-15.61l0 -217.76 58.71 0zm146.66 53.02l0 106.03 134.27 0 0 53.26 -134.27 0 0 145.91 -66.89 0 0 -358.22 225.93 0 0 53.02 -159.04 0zm551.95 126.09c0,26.26 -4.3,50.54 -12.96,72.91 -8.67,22.38 -20.98,41.78 -36.83,58.13 -15.85,16.35 -34.93,29.07 -57.22,38.23 -22.3,9.17 -47.07,13.79 -74.32,13.79 -27.08,0 -51.78,-4.62 -74.07,-13.79 -22.3,-9.17 -41.37,-21.88 -57.31,-38.23 -15.93,-16.35 -28.32,-35.76 -37.07,-58.13 -8.75,-22.38 -13.13,-46.65 -13.13,-72.91 0,-26.26 4.38,-50.62 13.13,-73 8.75,-22.38 21.14,-41.7 37.07,-58.05 15.94,-16.35 35.02,-29.15 57.31,-38.31 22.3,-9.17 46.99,-13.71 74.07,-13.71 18.17,0 35.26,2.07 51.28,6.28 16.02,4.21 30.72,10.16 44.1,17.84 13.38,7.68 25.44,17.01 36.09,27.99 10.65,10.98 19.65,23.29 27.09,36.83 7.43,13.54 13.13,28.24 17.01,44.09 3.88,15.85 5.78,32.54 5.78,50.04zm-68.13 0c0,-19.65 -2.64,-37.33 -7.93,-52.93 -5.28,-15.61 -12.8,-28.82 -22.54,-39.72 -9.74,-10.9 -21.56,-19.24 -35.51,-25.02 -13.96,-5.78 -29.73,-8.67 -47.24,-8.67 -17.5,0 -33.2,2.89 -47.15,8.67 -13.96,5.78 -25.85,14.12 -35.67,25.02 -9.83,10.9 -17.43,24.11 -22.71,39.72 -5.29,15.61 -7.93,33.28 -7.93,52.93 0,19.65 2.64,37.24 7.93,52.85 5.28,15.6 12.88,28.82 22.71,39.63 9.83,10.82 21.72,19.16 35.67,24.94 13.95,5.78 29.65,8.67 47.15,8.67 17.51,0 33.28,-2.89 47.24,-8.67 13.95,-5.78 25.76,-14.12 35.51,-24.94 9.74,-10.81 17.26,-24.03 22.54,-39.63 5.29,-15.61 7.93,-33.2 7.93,-52.85zm235.1 -8.67c12.55,0 23.53,-1.57 32.86,-4.71 9.33,-3.14 17.01,-7.52 23.04,-13.05 6.03,-5.53 10.48,-12.06 13.46,-19.65 2.98,-7.6 4.46,-15.94 4.46,-25.02 0,-18.17 -5.94,-32.12 -17.92,-41.87 -11.98,-9.74 -30.31,-14.62 -54.92,-14.62l-42.61 0 0 118.91 41.62 0zm171.43 187.78l-60.2 0c-11.4,0 -19.66,-4.46 -24.78,-13.37l-75.31 -114.7c-2.81,-4.3 -5.86,-7.35 -9.25,-9.17 -3.39,-1.82 -8.42,-2.72 -15.03,-2.72l-28.49 0 0 139.96 -66.64 0 0 -358.22 109.25 0c24.28,0 45.17,2.48 62.59,7.52 17.43,5.04 31.71,12.14 42.86,21.22 11.15,9.08 19.32,19.9 24.61,32.54 5.28,12.63 7.93,26.59 7.93,41.78 0,12.06 -1.73,23.45 -5.29,34.19 -3.55,10.73 -8.67,20.48 -15.36,29.23 -6.69,8.75 -14.94,16.43 -24.77,23.04 -9.83,6.61 -21.06,11.81 -33.61,15.61 4.3,2.48 8.26,5.37 11.89,8.75 3.64,3.39 6.94,7.43 9.91,12.06l89.68 132.29zm427.34 -358.22l0 358.22 -58.72 0 0 -231.38c0,-9.25 0.5,-19.24 1.48,-29.98l-108.26 203.39c-5.12,9.74 -12.96,14.62 -23.54,14.62l-9.41 0c-10.57,0 -18.41,-4.87 -23.53,-14.62l-109.5 -204.13c0.5,5.45 0.91,10.82 1.24,16.11 0.33,5.28 0.49,10.15 0.49,14.61l0 231.38 -58.71 0 0 -358.22 50.29 0c2.97,0 5.53,0.08 7.68,0.25 2.15,0.17 4.13,0.58 5.87,1.24 1.73,0.66 3.3,1.73 4.7,3.22 1.41,1.48 2.72,3.46 4.05,5.94l107.27 198.93c2.81,5.29 5.45,10.74 7.84,16.35 2.39,5.62 4.7,11.4 7.02,17.34 2.31,-6.11 4.7,-12.06 7.18,-17.76 2.48,-5.7 5.12,-11.15 7.93,-16.43l105.78 -198.43c1.32,-2.48 2.72,-4.46 4.21,-5.94 1.49,-1.49 3.14,-2.56 4.87,-3.22 1.73,-0.66 3.63,-1.07 5.78,-1.24 2.15,-0.17 4.7,-0.25 7.68,-0.25l50.29 0zm269.04 222.96l-43.6 -119.16c-2.15,-5.29 -4.37,-11.56 -6.69,-18.83 -2.31,-7.27 -4.62,-15.11 -6.94,-23.54 -2.15,8.43 -4.37,16.27 -6.69,23.62 -2.31,7.35 -4.54,13.79 -6.69,19.24l-43.35 118.66 113.96 0zm117.67 135.26l-51.53 0c-5.78,0 -10.48,-1.48 -14.12,-4.37 -3.63,-2.89 -6.35,-6.44 -8.17,-10.74l-26.76 -73.08 -148.39 0 -26.76 73.08c-1.32,3.8 -3.88,7.27 -7.68,10.41 -3.8,3.14 -8.5,4.7 -14.12,4.7l-52.02 0 140.96 -358.22 67.88 0 140.71 358.22zm252.44 -303.47l-108.01 0 0 303.47 -66.64 0 0 -303.47 -108.01 0 0 -54.75 282.66 0 0 54.75zm113.96 303.47l-66.89 0 0 -358.22 66.89 0 0 358.22zm326.02 -84.47c3.63,0 6.85,1.4 9.66,4.21l26.26 28.49c-14.53,18 -32.37,31.79 -53.59,41.37 -21.22,9.58 -46.74,14.37 -76.47,14.37 -26.59,0 -50.46,-4.54 -71.68,-13.62 -21.22,-9.09 -39.39,-21.72 -54.42,-37.91 -15.03,-16.19 -26.51,-35.51 -34.52,-57.97 -8.01,-22.46 -12.06,-46.98 -12.06,-73.57 0,-26.92 4.3,-51.61 12.88,-73.99 8.59,-22.38 20.73,-41.62 36.33,-57.8 15.61,-16.19 34.19,-28.82 55.82,-37.82 21.63,-9 45.58,-13.46 71.84,-13.46 26.09,0 49.3,4.3 69.53,12.88 20.23,8.59 37.41,19.82 51.61,33.69l-22.3 30.97c-1.32,1.98 -2.97,3.71 -5.04,5.2 -2.06,1.48 -4.95,2.23 -8.59,2.23 -2.48,0 -5.04,-0.74 -7.68,-2.15 -2.64,-1.41 -5.53,-3.14 -8.67,-5.2 -3.14,-2.06 -6.77,-4.29 -10.9,-6.77 -4.13,-2.48 -8.92,-4.79 -14.37,-6.85 -5.45,-2.07 -11.73,-3.8 -18.91,-5.2 -7.19,-1.4 -15.52,-2.06 -24.94,-2.06 -16.02,0 -30.64,2.81 -43.93,8.5 -13.3,5.7 -24.77,13.96 -34.35,24.78 -9.58,10.81 -17.01,24.03 -22.3,39.63 -5.29,15.61 -7.93,33.44 -7.93,53.43 0,20.15 2.89,38.07 8.59,53.76 5.7,15.69 13.38,28.9 23.12,39.64 9.74,10.74 21.22,18.91 34.44,24.61 13.21,5.7 27.41,8.59 42.61,8.59 9.08,0 17.34,-0.49 24.69,-1.48 7.35,-0.99 14.12,-2.56 20.31,-4.71 6.19,-2.15 12.06,-4.95 17.59,-8.34 5.53,-3.39 10.98,-7.52 16.43,-12.47 1.65,-1.49 3.39,-2.72 5.2,-3.63 1.82,-0.91 3.72,-1.32 5.7,-1.32zm272.51 -208.59c-1.98,3.47 -4.05,5.94 -6.28,7.52 -2.23,1.57 -5.04,2.39 -8.34,2.39 -3.46,0 -7.18,-1.32 -11.23,-3.88 -4.05,-2.56 -8.92,-5.37 -14.54,-8.5 -5.61,-3.14 -12.14,-6.03 -19.65,-8.59 -7.51,-2.56 -16.43,-3.8 -26.67,-3.8 -9.25,0 -17.34,1.07 -24.28,3.3 -6.94,2.23 -12.72,5.37 -17.43,9.33 -4.7,3.96 -8.26,8.67 -10.57,14.2 -2.31,5.54 -3.47,11.65 -3.47,18.25 0,8.43 2.39,15.44 7.1,21.06 4.7,5.61 10.9,10.41 18.66,14.37 7.76,3.96 16.6,7.51 26.51,10.65 9.91,3.14 20.06,6.44 30.47,9.99 10.41,3.55 20.56,7.68 30.47,12.39 9.91,4.7 18.74,10.65 26.51,17.83 7.76,7.19 14.04,16.02 18.74,26.43 4.7,10.4 7.02,23.04 7.02,37.9 0,16.19 -2.72,31.3 -8.26,45.42 -5.53,14.12 -13.63,26.43 -24.28,36.91 -10.65,10.48 -23.7,18.74 -39.06,24.77 -15.36,6.03 -32.95,9.08 -52.77,9.08 -11.39,0 -22.63,-1.16 -33.69,-3.39 -11.07,-2.23 -21.64,-5.37 -31.8,-9.5 -10.16,-4.13 -19.74,-9.08 -28.65,-14.86 -8.92,-5.78 -16.85,-12.22 -23.78,-19.32l19.57 -31.96c1.65,-2.31 3.8,-4.29 6.44,-5.86 2.64,-1.57 5.45,-2.31 8.42,-2.31 4.13,0 8.59,1.65 13.38,5.04 4.79,3.39 10.49,7.19 17.09,11.31 6.61,4.13 14.37,7.85 23.2,11.23 8.84,3.39 19.41,5.12 31.79,5.12 19,0 33.69,-4.54 44.1,-13.54 10.4,-9 15.61,-21.88 15.61,-38.73 0,-9.41 -2.31,-17.09 -7.02,-23.04 -4.7,-5.94 -10.98,-10.98 -18.74,-15.03 -7.76,-4.05 -16.6,-7.43 -26.51,-10.24 -9.91,-2.81 -19.98,-5.86 -30.22,-9.17 -10.24,-3.3 -20.31,-7.27 -30.22,-11.89 -9.91,-4.62 -18.74,-10.65 -26.51,-18.08 -7.76,-7.43 -13.95,-16.76 -18.66,-27.91 -4.7,-11.15 -7.1,-24.86 -7.1,-41.21 0,-13.05 2.65,-25.76 7.85,-38.15 5.2,-12.39 12.72,-23.37 22.63,-32.94 9.91,-9.58 22.13,-17.26 36.67,-23.04 14.54,-5.78 31.22,-8.67 50.04,-8.67 21.14,0 40.63,3.3 58.46,9.91 17.83,6.61 33.03,15.85 45.58,27.75l-16.6 31.46z"/>
     <path class="fil1" d="M165.35 2626.96l-40.09 0 0 -214.68 40.09 0 0 214.68zm228.93 -214.68l0 214.68 -20.49 0c-3.17,0 -5.79,-0.55 -7.92,-1.58 -2.13,-1.04 -4.2,-2.77 -6.18,-5.25l-112.09 -143.12c0.59,6.53 0.89,12.57 0.89,18.11l0 131.83 -35.19 0 0 -214.68 20.93 0c1.69,0 3.17,0.05 4.41,0.2 1.24,0.15 2.33,0.44 3.27,0.89 0.94,0.44 1.83,1.09 2.72,1.93 0.89,0.84 1.88,1.98 2.97,3.36l112.54 143.71c-0.3,-3.46 -0.55,-6.88 -0.74,-10.24 -0.2,-3.37 -0.3,-6.48 -0.3,-9.35l0 -130.5 35.19 0zm197.76 32.81l-64.73 0 0 181.87 -39.94 0 0 -181.87 -64.73 0 0 -32.81 169.4 0 0 32.81zm68.29 -1.04l0 59.53 75.13 0 0 30.73 -75.13 0 0 60.72 95.31 0 0 31.92 -135.4 0 0 -214.68 135.4 0 0 31.77 -95.31 0zm195.53 70.37c7.52,0 14.1,-0.94 19.69,-2.82 5.59,-1.88 10.2,-4.5 13.81,-7.82 3.61,-3.31 6.29,-7.22 8.07,-11.78 1.78,-4.56 2.67,-9.55 2.67,-15 0,-10.89 -3.56,-19.25 -10.74,-25.09 -7.17,-5.84 -18.16,-8.76 -32.91,-8.76l-25.54 0 0 71.26 24.94 0zm102.74 112.54l-36.08 0c-6.83,0 -11.78,-2.67 -14.85,-8.02l-45.13 -68.74c-1.69,-2.57 -3.52,-4.41 -5.54,-5.5 -2.03,-1.09 -5.05,-1.63 -9.01,-1.63l-17.07 0 0 83.88 -39.94 0 0 -214.68 65.48 0c14.55,0 27.07,1.48 37.51,4.5 10.44,3.02 19,7.27 25.69,12.72 6.68,5.44 11.58,11.93 14.75,19.5 3.17,7.57 4.75,15.93 4.75,25.04 0,7.22 -1.04,14.06 -3.17,20.49 -2.13,6.43 -5.2,12.27 -9.2,17.52 -4.01,5.25 -8.96,9.85 -14.85,13.81 -5.89,3.96 -12.62,7.07 -20.14,9.35 2.57,1.48 4.95,3.22 7.13,5.25 2.18,2.03 4.16,4.45 5.94,7.22l53.74 79.28zm204.29 -214.68l0 214.68 -20.49 0c-3.17,0 -5.79,-0.55 -7.92,-1.58 -2.13,-1.04 -4.2,-2.77 -6.19,-5.25l-112.09 -143.12c0.59,6.53 0.89,12.57 0.89,18.11l0 131.83 -35.19 0 0 -214.68 20.93 0c1.69,0 3.17,0.05 4.41,0.2 1.24,0.15 2.33,0.44 3.26,0.89 0.94,0.44 1.83,1.09 2.72,1.93 0.89,0.84 1.88,1.98 2.97,3.36l112.54 143.71c-0.3,-3.46 -0.54,-6.88 -0.74,-10.24 -0.2,-3.37 -0.3,-6.48 -0.3,-9.35l0 -130.5 35.19 0zm161.23 133.61l-26.13 -71.41c-1.29,-3.17 -2.62,-6.93 -4.01,-11.28 -1.39,-4.35 -2.77,-9.06 -4.16,-14.1 -1.29,5.05 -2.62,9.75 -4.01,14.15 -1.39,4.41 -2.72,8.26 -4.01,11.53l-25.98 71.11 68.3 0zm70.52 81.06l-30.88 0c-3.46,0 -6.29,-0.89 -8.46,-2.62 -2.18,-1.73 -3.81,-3.86 -4.9,-6.44l-16.04 -43.8 -88.93 0 -16.04 43.8c-0.79,2.28 -2.33,4.35 -4.6,6.24 -2.28,1.88 -5.1,2.82 -8.46,2.82l-31.18 0 84.48 -214.68 40.68 0 84.33 214.68zm151.29 -181.87l-64.73 0 0 181.87 -39.94 0 0 -181.87 -64.73 0 0 -32.81 169.4 0 0 32.81zm68.29 181.87l-40.08 0 0 -214.68 40.08 0 0 214.68zm252.69 -107.34c0,15.74 -2.57,30.28 -7.77,43.7 -5.19,13.41 -12.57,25.04 -22.07,34.84 -9.5,9.8 -20.93,17.42 -34.3,22.91 -13.36,5.49 -28.21,8.26 -44.54,8.26 -16.23,0 -31.03,-2.77 -44.39,-8.26 -13.36,-5.49 -24.8,-13.11 -34.34,-22.91 -9.56,-9.8 -16.98,-21.43 -22.22,-34.84 -5.24,-13.41 -7.87,-27.96 -7.87,-43.7 0,-15.74 2.62,-30.33 7.87,-43.75 5.25,-13.41 12.67,-24.99 22.22,-34.79 9.55,-9.8 20.98,-17.47 34.34,-22.96 13.36,-5.49 28.16,-8.21 44.39,-8.21 10.89,0 21.13,1.24 30.73,3.76 9.6,2.52 18.41,6.09 26.43,10.69 8.02,4.6 15.24,10.19 21.63,16.78 6.39,6.58 11.78,13.96 16.23,22.07 4.46,8.12 7.87,16.93 10.2,26.43 2.33,9.5 3.46,19.5 3.46,29.99zm-40.83 0c0,-11.78 -1.59,-22.37 -4.75,-31.72 -3.17,-9.35 -7.67,-17.27 -13.51,-23.81 -5.84,-6.53 -12.91,-11.53 -21.28,-14.99 -8.36,-3.46 -17.81,-5.2 -28.31,-5.2 -10.49,0 -19.89,1.73 -28.26,5.2 -8.36,3.46 -15.49,8.46 -21.38,14.99 -5.89,6.54 -10.44,14.45 -13.61,23.81 -3.17,9.35 -4.75,19.94 -4.75,31.72 0,11.78 1.58,22.32 4.75,31.67 3.17,9.35 7.72,17.27 13.61,23.75 5.89,6.48 13.02,11.48 21.38,14.94 8.37,3.46 17.77,5.2 28.26,5.2 10.49,0 19.94,-1.73 28.31,-5.2 8.37,-3.46 15.44,-8.46 21.28,-14.94 5.84,-6.48 10.34,-14.4 13.51,-23.75 3.17,-9.35 4.75,-19.89 4.75,-31.67zm256.99 -107.34l0 214.68 -20.49 0c-3.17,0 -5.79,-0.55 -7.92,-1.58 -2.13,-1.04 -4.2,-2.77 -6.19,-5.25l-112.09 -143.12c0.59,6.53 0.89,12.57 0.89,18.11l0 131.83 -35.19 0 0 -214.68 20.93 0c1.69,0 3.17,0.05 4.41,0.2 1.24,0.15 2.33,0.44 3.27,0.89 0.94,0.44 1.83,1.09 2.72,1.93 0.89,0.84 1.88,1.98 2.97,3.36l112.54 143.71c-0.3,-3.46 -0.55,-6.88 -0.74,-10.24 -0.2,-3.37 -0.3,-6.48 -0.3,-9.35l0 -130.5 35.19 0zm161.23 133.61l-26.13 -71.41c-1.29,-3.17 -2.62,-6.93 -4.01,-11.28 -1.39,-4.35 -2.77,-9.06 -4.16,-14.1 -1.29,5.05 -2.62,9.75 -4.01,14.15 -1.39,4.41 -2.72,8.26 -4.01,11.53l-25.98 71.11 68.3 0zm70.52 81.06l-30.88 0c-3.46,0 -6.29,-0.89 -8.46,-2.62 -2.18,-1.73 -3.81,-3.86 -4.9,-6.44l-16.04 -43.8 -88.93 0 -16.03 43.8c-0.79,2.28 -2.33,4.35 -4.6,6.24 -2.28,1.88 -5.1,2.82 -8.46,2.82l-31.18 0 84.48 -214.68 40.68 0 84.33 214.68zm148.02 -32.96l0 32.96 -125.75 0 0 -214.68 39.94 0 0 181.72 85.81 0zm296.49 -74.38c0,15.74 -2.57,30.28 -7.77,43.7 -5.19,13.41 -12.57,25.04 -22.07,34.84 -9.5,9.8 -20.93,17.42 -34.3,22.91 -13.36,5.49 -28.21,8.26 -44.54,8.26 -16.23,0 -31.03,-2.77 -44.39,-8.26 -13.36,-5.49 -24.8,-13.11 -34.35,-22.91 -9.55,-9.8 -16.98,-21.43 -22.22,-34.84 -5.24,-13.41 -7.87,-27.96 -7.87,-43.7 0,-15.74 2.63,-30.33 7.87,-43.75 5.24,-13.41 12.67,-24.99 22.22,-34.79 9.55,-9.8 20.98,-17.47 34.35,-22.96 13.36,-5.49 28.16,-8.21 44.39,-8.21 10.89,0 21.13,1.24 30.73,3.76 9.6,2.52 18.41,6.09 26.43,10.69 8.02,4.6 15.24,10.19 21.63,16.78 6.39,6.58 11.78,13.96 16.23,22.07 4.46,8.12 7.87,16.93 10.2,26.43 2.32,9.5 3.46,19.5 3.46,29.99zm-40.83 0c0,-11.78 -1.59,-22.37 -4.75,-31.72 -3.17,-9.35 -7.67,-17.27 -13.51,-23.81 -5.84,-6.53 -12.92,-11.53 -21.28,-14.99 -8.37,-3.46 -17.81,-5.2 -28.31,-5.2 -10.49,0 -19.89,1.73 -28.26,5.2 -8.36,3.46 -15.49,8.46 -21.38,14.99 -5.89,6.54 -10.44,14.45 -13.61,23.81 -3.17,9.35 -4.75,19.94 -4.75,31.72 0,11.78 1.59,22.32 4.75,31.67 3.17,9.35 7.72,17.27 13.61,23.75 5.89,6.48 13.02,11.48 21.38,14.94 8.37,3.46 17.77,5.2 28.26,5.2 10.49,0 19.94,-1.73 28.31,-5.2 8.36,-3.46 15.44,-8.46 21.28,-14.94 5.84,-6.48 10.34,-14.4 13.51,-23.75 3.17,-9.35 4.75,-19.89 4.75,-31.67zm201.76 74.38l0 32.96 -125.75 0 0 -214.68 39.94 0 0 181.72 85.81 0zm92.49 -50.18l0 83.14 -39.79 0 0 -83.14 -78.24 -131.54 35.19 0c3.46,0 6.23,0.84 8.26,2.52 2.03,1.68 3.71,3.81 5.09,6.38l39.2 71.71c2.28,4.26 4.3,8.26 6.04,12.02 1.73,3.76 3.27,7.52 4.65,11.28 1.28,-3.76 2.77,-7.52 4.45,-11.28 1.69,-3.76 3.61,-7.77 5.79,-12.02l39.05 -71.71c1.09,-2.18 2.72,-4.2 4.9,-6.09 2.18,-1.88 4.95,-2.82 8.31,-2.82l35.33 0 -78.24 131.54zm333.01 -131.54l0 214.68 -35.19 0 0 -138.67c0,-5.54 0.3,-11.53 0.89,-17.96l-64.88 121.89c-3.07,5.84 -7.77,8.76 -14.1,8.76l-5.64 0c-6.33,0 -11.04,-2.92 -14.11,-8.76l-65.62 -122.33c0.3,3.27 0.55,6.48 0.74,9.65 0.2,3.17 0.3,6.09 0.3,8.76l0 138.67 -35.19 0 0 -214.68 30.14 0c1.78,0 3.31,0.05 4.6,0.15 1.29,0.1 2.48,0.35 3.52,0.74 1.04,0.4 1.98,1.04 2.82,1.93 0.84,0.89 1.63,2.08 2.43,3.56l64.29 119.22c1.68,3.17 3.26,6.43 4.7,9.8 1.43,3.37 2.82,6.83 4.2,10.39 1.39,-3.66 2.82,-7.22 4.31,-10.64 1.48,-3.41 3.07,-6.68 4.75,-9.85l63.39 -118.92c0.8,-1.48 1.63,-2.67 2.53,-3.56 0.89,-0.89 1.88,-1.53 2.92,-1.93 1.04,-0.39 2.18,-0.64 3.46,-0.74 1.29,-0.1 2.82,-0.15 4.6,-0.15l30.14 0zm117.58 107.93c7.32,0 13.71,-0.94 19.15,-2.77 5.44,-1.83 10,-4.45 13.61,-7.87 3.61,-3.41 6.28,-7.57 8.07,-12.47 1.78,-4.9 2.67,-10.34 2.67,-16.38 0,-5.74 -0.89,-10.94 -2.67,-15.59 -1.78,-4.65 -4.46,-8.61 -8.02,-11.87 -3.57,-3.27 -8.07,-5.79 -13.51,-7.52 -5.44,-1.73 -11.88,-2.57 -19.3,-2.57l-29.84 0 0 77.05 29.84 0zm0 -107.93c14.35,0 26.77,1.68 37.26,5.05 10.49,3.37 19.15,8.07 25.98,14.1 6.83,6.04 11.93,13.26 15.24,21.68 3.31,8.41 4.95,17.62 4.95,27.61 0,10.39 -1.73,19.89 -5.2,28.55 -3.46,8.66 -8.66,16.13 -15.59,22.37 -6.93,6.24 -15.59,11.09 -26.03,14.55 -10.44,3.46 -22.67,5.19 -36.62,5.19l-29.84 0 0 75.57 -39.94 0 0 -214.68 69.78 0zm154.1 214.68l-40.08 0 0 -214.68 40.08 0 0 214.68zm161.39 -81.06l-26.13 -71.41c-1.29,-3.17 -2.63,-6.93 -4.01,-11.28 -1.39,-4.35 -2.77,-9.06 -4.16,-14.1 -1.29,5.05 -2.62,9.75 -4.01,14.15 -1.38,4.41 -2.72,8.26 -4.01,11.53l-25.98 71.11 68.3 0zm70.52 81.06l-30.88 0c-3.46,0 -6.28,-0.89 -8.46,-2.62 -2.18,-1.73 -3.81,-3.86 -4.9,-6.44l-16.03 -43.8 -88.93 0 -16.04 43.8c-0.79,2.28 -2.32,4.35 -4.6,6.24 -2.27,1.88 -5.09,2.82 -8.46,2.82l-31.18 0 84.48 -214.68 40.68 0 84.33 214.68zm212.9 -107.34c0,15.74 -2.62,30.19 -7.87,43.35 -5.25,13.17 -12.62,24.5 -22.12,34 -9.5,9.5 -20.93,16.88 -34.3,22.12 -13.36,5.25 -28.21,7.87 -44.54,7.87l-81.8 0 0 -214.68 81.8 0c16.33,0 31.18,2.62 44.54,7.92 13.36,5.3 24.79,12.67 34.3,22.12 9.5,9.45 16.87,20.78 22.12,33.95 5.24,13.16 7.87,27.61 7.87,43.35zm-40.98 0c0,-11.78 -1.54,-22.37 -4.65,-31.72 -3.11,-9.35 -7.62,-17.27 -13.51,-23.76 -5.89,-6.48 -13.02,-11.43 -21.38,-14.89 -8.37,-3.46 -17.81,-5.2 -28.31,-5.2l-41.72 0 0 151.13 41.72 0c10.49,0 19.94,-1.73 28.31,-5.2 8.36,-3.46 15.49,-8.46 21.38,-14.94 5.89,-6.48 10.39,-14.4 13.51,-23.75 3.12,-9.35 4.65,-19.89 4.65,-31.67z"/>
    </g>
    <path class="fil2" d="M657.08 181.16c-148.69,22.28 -274.31,150.67 -253.08,326.12 18.19,150.26 156.18,279.26 331.75,255.23 147.18,-20.15 274.28,-155.69 250.93,-329.64 -19.57,-145.75 -157.24,-277.54 -329.6,-251.7zm3405.16 1668.38c-0.59,-19.6 0.68,-6.83 -5.16,-12.73l-258.78 -0.63 -0.05 -874.64 259.51 -0.01 4.46 -10.5 -0.29 -432.81 -255.26 -1.6c-18.57,4.63 -7.9,101.99 -105.61,186.37 -32.72,28.25 -38.25,36.98 -88.33,58.69 -110.47,47.9 -246.71,26.74 -336.31,-52.63 -7.08,-6.27 -8.85,-11.01 -16.08,-17.76 -21.31,-19.91 -32.77,-35.35 -48.83,-64.3 -23.47,-42.3 -22.52,-64.23 -38.2,-108.47l-256.58 -1.89 0.07 399.87c-129.98,-224.71 -346.29,-383.3 -581.15,-446.36 -232.26,-62.35 -490.07,-28.44 -680.67,70.89 -90.26,47.04 -166.97,101.35 -235.63,171.34 -28.14,28.7 -18.85,14.26 -49.73,52.22 -36.53,44.91 -53.86,60.32 -87.69,115.77 -2.59,4.25 -6.62,11.33 -11.19,19.27l-0.26 -381.41 -255.25 -1.6c-18.57,4.63 -7.9,101.99 -105.61,186.37 -32.72,28.25 -38.25,36.98 -88.33,58.69 -110.48,47.9 -246.71,26.74 -336.31,-52.63 -7.07,-6.27 -8.85,-11.01 -16.08,-17.76 -21.31,-19.91 -32.77,-35.35 -48.83,-64.3 -23.47,-42.3 -22.52,-64.23 -38.2,-108.47l-256.57 -1.89 0.08 444.91 263.58 0.06 -0.02 874.35 -263.65 0.24 0.09 444.86 1144.07 -0.02 1.24 -393.92c84.37,143.65 211.83,267.17 384.52,356.57 296.82,153.66 675.86,135.09 960.96,-55.52 123.79,-82.76 226.79,-192.69 300.57,-321.04l0.09 413.93 1144.07 -0.02 1.36 -431.5zm-1121.02 -888l239.17 0.06 -0.01 874.35 -246.59 0.23c69.88,-132.74 109.17,-283.65 109.12,-443.73 -0.05,-159.37 -37.56,-304.55 -101.69,-430.91zm507.31 -780.39c-148.69,22.28 -274.31,150.67 -253.08,326.12 18.19,150.26 156.18,279.26 331.75,255.23 147.19,-20.15 274.29,-155.69 250.93,-329.64 -19.57,-145.75 -157.24,-277.54 -329.59,-251.7zm-2205.21 1655.59l-236.47 -0.57 -0.04 -874.64 228.35 -0.01c-121.43,298.35 -122.59,615.29 8.17,875.22zm809.26 -876.35c-92.63,17.27 -160.26,94.09 -195,163.93 -160.97,323.72 16.99,739.83 263.15,696.15 90.76,-16.11 160,-94.86 194.1,-163.61 162.18,-327.02 -20.09,-741.61 -262.25,-696.46z"/>
    <path id="1" class="fil3" d="M657.08 181.16c-148.69,22.28 -274.31,150.67 -253.08,326.12 18.19,150.26 156.18,279.26 331.75,255.23 147.18,-20.15 274.28,-155.69 250.93,-329.64 -19.57,-145.75 -157.24,-277.54 -329.6,-251.7zm3405.16 1668.38c-0.59,-19.6 0.68,-6.83 -5.16,-12.73l-258.78 -0.63 -0.05 -874.64 259.51 -0.01 4.46 -10.5 -0.29 -432.81 -255.26 -1.6c-18.57,4.63 -7.9,101.99 -105.61,186.37 -32.72,28.25 -38.25,36.98 -88.33,58.69 -110.47,47.9 -246.71,26.74 -336.31,-52.63 -7.08,-6.27 -8.85,-11.01 -16.08,-17.76 -21.31,-19.91 -32.77,-35.35 -48.83,-64.3 -23.47,-42.3 -22.52,-64.23 -38.2,-108.47l-256.58 -1.89 0.07 399.87c-129.98,-224.71 -346.29,-383.3 -581.15,-446.36 -232.26,-62.35 -490.07,-28.44 -680.67,70.89 -90.26,47.04 -166.97,101.35 -235.63,171.34 -28.14,28.7 -18.85,14.26 -49.73,52.22 -36.53,44.91 -53.86,60.32 -87.69,115.77 -2.59,4.25 -6.62,11.33 -11.19,19.27l-0.26 -381.41 -255.25 -1.6c-18.57,4.63 -7.9,101.99 -105.61,186.37 -32.72,28.25 -38.25,36.98 -88.33,58.69 -110.48,47.9 -246.71,26.74 -336.31,-52.63 -7.07,-6.27 -8.85,-11.01 -16.08,-17.76 -21.31,-19.91 -32.77,-35.35 -48.83,-64.3 -23.47,-42.3 -22.52,-64.23 -38.2,-108.47l-256.57 -1.89 0.08 444.91 263.58 0.06 -0.02 874.35 -263.65 0.24 0.09 444.86 1144.07 -0.02 1.24 -393.92c84.37,143.65 211.83,267.17 384.52,356.57 296.82,153.66 675.86,135.09 960.96,-55.52 123.79,-82.76 226.79,-192.69 300.57,-321.04l0.09 413.93 1144.07 -0.02 1.36 -431.5zm-1121.02 -888l239.17 0.06 -0.01 874.35 -246.59 0.23c69.88,-132.74 109.17,-283.65 109.12,-443.73 -0.05,-159.37 -37.56,-304.55 -101.69,-430.91zm507.31 -780.39c-148.69,22.28 -274.31,150.67 -253.08,326.12 18.19,150.26 156.18,279.26 331.75,255.23 147.19,-20.15 274.29,-155.69 250.93,-329.64 -19.57,-145.75 -157.24,-277.54 -329.59,-251.7zm-2205.21 1655.59l-236.47 -0.57 -0.04 -874.64 228.35 -0.01c-121.43,298.35 -122.59,615.29 8.17,875.22zm809.26 -876.35c-92.63,17.27 -160.26,94.09 -195,163.93 -160.97,323.72 16.99,739.83 263.15,696.15 90.76,-16.11 160,-94.86 194.1,-163.61 162.18,-327.02 -20.09,-741.61 -262.25,-696.46z"/>
    <g style="clip-path:url(#id0)">
     <g>
      <g>
       <polygon id="2" class="fil4" points="2590.81,-1661.04 2621.58,-1554.44 2853.86,-1661.04 "/>
       <polygon class="fil5" points="4154.75,-1661.04 2621.58,-1554.44 2853.86,-1661.04 "/>
       <polygon class="fil6" points="4154.75,-1661.04 2621.58,-1554.44 3312.87,-1045.03 "/>
       <polygon class="fil5" points="4154.75,-1045.03 3312.87,-1045.03 4154.75,-1661.04 "/>
       <polygon class="fil4" points="3230.74,-268.23 4154.75,-841.28 4154.75,-1045.03 3312.87,-1045.03 "/>
       <polygon class="fil6" points="3230.74,-268.23 4154.75,-841.28 4154.75,-316.15 "/>
       <polygon class="fil7" points="4058.93,283 4154.75,302.05 4154.75,143.87 "/>
       <polygon class="fil8" points="4058.93,283 4154.75,302.05 4154.75,397.04 "/>
       <polygon class="fil7" points="4058.93,283 3600.34,1201.72 4154.75,1171.89 4154.75,397.04 "/>
       <polygon class="fil9" points="3898.08,1795.45 3600.34,1201.72 4154.75,1171.89 4154.75,1603.7 "/>
       <polygon class="fil8" points="3898.08,1795.45 4154.75,1897.43 4154.75,1603.7 "/>
       <polygon class="fil9" points="3898.08,1795.45 4154.75,1897.43 4154.75,2438.7 3721.27,2438.7 "/>
       <polygon class="fil0" points="3898.08,1795.45 2861.13,2158.21 3225.18,2438.7 3721.27,2438.7 "/>
       <polygon class="fil8" points="2932.54,2438.7 2861.13,2158.21 3225.18,2438.7 "/>
       <polygon class="fil10" points="2932.54,2438.7 2861.13,2158.21 2781.17,2438.7 "/>
       <polygon class="fil8" points="2203.43,2438.7 2861.13,2158.21 2781.17,2438.7 "/>
       <polygon class="fil8" points="1843.46,2438.7 1440.6,1898.11 970.64,2438.7 "/>
       <polygon class="fil0" points="57.65,2438.7 1440.6,1898.11 970.64,2438.7 "/>
       <polygon class="fil7" points="55.01,2438.7 1440.6,1897.08 55.01,1519.95 "/>
       <polygon class="fil11" points="1218.44,1138.38 1440.6,1898.11 55.01,1520.98 55.01,1419.01 "/>
       <polygon class="fil1" points="1218.44,1138.38 55.01,757.76 55.01,1419.01 "/>
       <polygon class="fil5" points="342.34,-111.19 55.01,436.47 55.01,-48.97 "/>
       <polygon class="fil12" points="342.34,-111.19 55.01,-203.12 55.01,-48.97 "/>
       <polygon class="fil5" points="342.34,-111.19 55.01,-203.12 55.01,-551.02 "/>
       <polygon class="fil6" points="342.34,-111.19 816.17,-771.26 55.01,-771.26 55.01,-551.02 "/>
       <polygon class="fil5" points="55.01,-1661.04 808.97,-769.52 55.01,-769.52 "/>
       <polygon class="fil4" points="55.01,-1661.04 816.17,-771.26 1505.91,-1250.37 "/>
       <polygon class="fil5" points="1298.48,-1661.04 1505.91,-1250.37 55.01,-1661.04 "/>
       <polygon class="fil13" points="1298.48,-1661.04 1505.91,-1250.37 1863,-1661.04 "/>
       <polygon class="fil5" points="2590.81,-1661.04 2621.58,-1554.44 1505.91,-1250.37 1863,-1661.04 "/>
       <polygon class="fil13" points="3312.87,-1045.03 2621.58,-1554.44 1505.91,-1250.37 "/>
       <polygon class="fil4" points="3312.87,-1045.03 3230.74,-268.23 1505.91,-1250.37 "/>
       <polygon class="fil1" points="3230.74,-268.23 4058.93,283 4154.75,143.87 4154.75,-316.15 "/>
       <polygon class="fil0" points="4058.93,283 3600.34,1201.72 3230.74,-268.23 "/>
       <polygon class="fil8" points="3898.08,1795.45 2861.13,2158.21 3600.34,1201.72 "/>
       <polygon class="fil9" points="1843.46,2438.7 1440.6,1898.11 2861.13,2158.21 2203.43,2438.7 "/>
       <polygon class="fil0" points="2826.91,1117.7 1440.6,1898.11 2861.13,2158.21 "/>
       <polygon class="fil9" points="2826.91,1117.7 3600.34,1201.72 2861.13,2158.21 "/>
       <polygon class="fil1" points="2826.91,1117.7 3600.34,1201.72 3230.74,-268.23 "/>
       <polygon class="fil7" points="2826.91,1117.7 1440.6,1898.11 1218.44,1138.38 "/>
       <polygon class="fil12" points="1218.44,1138.38 55.01,757.76 55.01,655.89 1368.59,155.54 "/>
       <polygon class="fil4" points="342.34,-111.19 55.01,436.47 55.01,655.89 1368.59,155.54 "/>
       <polygon class="fil5" points="342.34,-111.19 1116.38,-494.22 1368.59,155.54 "/>
       <polygon class="fil4" points="342.34,-111.19 1116.38,-494.22 816.17,-771.26 "/>
       <polygon class="fil5" points="1505.91,-1250.37 1116.38,-494.22 816.17,-771.26 "/>
       <polygon class="fil11" points="1218.44,1138.38 2826.91,1117.7 1368.59,155.54 "/>
       <polygon class="fil1" points="2128.53,-386.33 2826.91,1117.7 1368.59,155.54 "/>
       <polygon class="fil11" points="2128.53,-386.33 2826.91,1117.7 3230.74,-268.23 "/>
       <polygon class="fil6" points="2128.53,-386.33 2169.84,-872.33 3230.74,-268.23 "/>
       <polygon class="fil12" points="2128.53,-386.33 1116.38,-494.22 1368.59,155.54 "/>
       <polygon class="fil6" points="2128.53,-386.33 1116.38,-494.22 1505.91,-1250.37 "/>
       <polygon class="fil12" points="2128.53,-386.33 2169.84,-872.33 1505.91,-1250.37 "/>
      </g>
     </g>
    </g>
   </g>
   <rect class="fil2" y="-0" width="4187.5" height="3270.83"/>
  </g>
 </g>
</svg>
